<?xml version="1.0" encoding="utf-8"?>
<!-- Generator: Adobe Illustrator 27.3.1, SVG Export Plug-In . SVG Version: 6.00 Build 0)  -->
<svg version="1.1" id="Layer_1" xmlns="http://www.w3.org/2000/svg" xmlns:xlink="http://www.w3.org/1999/xlink" x="0px" y="0px"
	 viewBox="0 0 200 40" style="enable-background:new 0 0 200 40;" xml:space="preserve">
<style type="text/css">
	.st0{fill:#FFFFFF;}
	.st1{fill:#282A74;}
	.st2{fill:#91B5E0;}
</style>
<g>
	<path class="st0" d="M5.9,24.6h-3L9.4,4.4h2.9L5.9,24.6z"/>
	<path class="st0" d="M16.6,19.5c0.7,0,1.2-0.1,1.6-0.2c0.4-0.1,0.6-0.3,0.6-0.6c0-0.2-0.1-0.4-0.2-0.5c-0.1-0.1-0.3-0.3-0.5-0.4
		c-0.2-0.1-0.5-0.2-0.7-0.3c-0.3-0.1-0.6-0.2-0.9-0.3c-0.4-0.1-0.8-0.3-1.3-0.4c-0.4-0.2-0.8-0.4-1.2-0.6c-0.4-0.2-0.7-0.6-0.9-0.9
		c-0.2-0.4-0.4-0.9-0.4-1.4c0-0.5,0.1-0.9,0.3-1.3c0.2-0.4,0.5-0.8,0.8-1.1c0.4-0.3,0.9-0.6,1.5-0.7c0.6-0.2,1.3-0.3,2.1-0.3
		c0.7,0,1.4,0.1,2,0.2c0.6,0.1,1.1,0.3,1.6,0.5l-0.4,2.4c-0.3-0.1-0.7-0.2-1.2-0.4c-0.6-0.2-1.2-0.3-1.9-0.3c-0.7,0-1.2,0.1-1.5,0.3
		c-0.3,0.2-0.4,0.4-0.4,0.6c0,0.2,0.1,0.3,0.2,0.5c0.1,0.1,0.3,0.3,0.5,0.4c0.2,0.1,0.4,0.2,0.7,0.3s0.5,0.2,0.8,0.3
		c0.4,0.1,0.9,0.3,1.3,0.5c0.5,0.2,0.9,0.4,1.2,0.6c0.4,0.3,0.7,0.6,0.9,1c0.2,0.4,0.4,0.9,0.4,1.5c0,0.5-0.1,0.9-0.3,1.3
		c-0.2,0.4-0.5,0.8-0.9,1.1s-0.9,0.5-1.6,0.7c-0.6,0.2-1.4,0.3-2.4,0.3c-1,0-1.8-0.1-2.4-0.3c-0.7-0.2-1.2-0.4-1.6-0.6l0.4-2.4
		c0.5,0.2,1.1,0.4,1.7,0.6C15.3,19.4,15.9,19.5,16.6,19.5z"/>
	<path class="st0" d="M23,16.3c0-1,0.1-1.8,0.4-2.5c0.3-0.7,0.7-1.3,1.2-1.8c0.5-0.5,1-0.9,1.7-1.1c0.6-0.2,1.3-0.4,1.9-0.4
		c1.6,0,2.9,0.5,3.7,1.4c0.8,1,1.3,2.4,1.3,4.2c0,0.2,0,0.4,0,0.6c0,0.2,0,0.4,0,0.5H26c0,0.7,0.3,1.3,0.9,1.7
		c0.6,0.4,1.4,0.6,2.3,0.6c0.6,0,1.1-0.1,1.6-0.2c0.5-0.1,1-0.2,1.3-0.4l0.4,2.5c-0.5,0.2-1,0.3-1.6,0.4S29.8,22,29.1,22
		c-0.9,0-1.8-0.1-2.5-0.4c-0.7-0.2-1.4-0.6-1.9-1.1c-0.5-0.5-0.9-1.1-1.2-1.8C23.2,18.1,23,17.2,23,16.3z M30.4,15.2
		c0-0.3,0-0.6-0.1-0.9c-0.1-0.3-0.2-0.5-0.4-0.7c-0.2-0.2-0.4-0.4-0.7-0.5c-0.3-0.1-0.6-0.2-1-0.2c-0.4,0-0.7,0.1-1,0.2
		c-0.3,0.1-0.5,0.3-0.7,0.5c-0.2,0.2-0.3,0.5-0.4,0.7c-0.1,0.3-0.2,0.6-0.2,0.9H30.4z"/>
	<path class="st0" d="M43.6,13.6c-0.2,0-0.4-0.1-0.7-0.1c-0.3,0-0.5-0.1-0.8-0.1c-0.3,0-0.5-0.1-0.8-0.1c-0.2,0-0.5,0-0.6,0
		c-0.4,0-0.8,0-1.2,0.1c-0.4,0-0.8,0.1-1.2,0.2v8.2h-2.9V11.4c0.8-0.3,1.5-0.5,2.3-0.7c0.8-0.2,1.7-0.3,2.8-0.3c0.2,0,0.4,0,0.7,0
		c0.3,0,0.6,0,0.9,0.1c0.3,0,0.7,0.1,1,0.1c0.3,0.1,0.6,0.1,0.9,0.2L43.6,13.6z"/>
	<path class="st0" d="M49.5,21.7c-0.7-1.4-1.4-3-2.1-4.9c-0.7-1.9-1.4-3.9-2.1-6.1h3c0.1,0.6,0.3,1.2,0.5,1.9c0.2,0.7,0.4,1.3,0.6,2
		c0.2,0.7,0.4,1.3,0.7,2c0.2,0.6,0.4,1.2,0.6,1.8c0.2-0.5,0.4-1.1,0.7-1.8c0.2-0.6,0.5-1.3,0.7-2c0.2-0.7,0.5-1.4,0.7-2
		c0.2-0.7,0.4-1.3,0.5-1.9h2.9c-0.7,2.2-1.4,4.2-2.2,6.1c-0.8,1.9-1.5,3.5-2.2,4.9H49.5z"/>
	<path class="st0" d="M56.7,16.3c0-1,0.1-1.8,0.4-2.5c0.3-0.7,0.7-1.3,1.2-1.8c0.5-0.5,1-0.9,1.7-1.1c0.6-0.2,1.3-0.4,1.9-0.4
		c1.6,0,2.9,0.5,3.7,1.4c0.8,1,1.3,2.4,1.3,4.2c0,0.2,0,0.4,0,0.6c0,0.2,0,0.4,0,0.5h-7.1c0,0.7,0.3,1.3,0.9,1.7
		c0.6,0.4,1.4,0.6,2.3,0.6c0.6,0,1.1-0.1,1.6-0.2c0.5-0.1,1-0.2,1.3-0.4l0.4,2.5c-0.5,0.2-1,0.3-1.6,0.4c-0.6,0.1-1.2,0.2-1.9,0.2
		c-0.9,0-1.8-0.1-2.5-0.4c-0.7-0.2-1.4-0.6-1.9-1.1c-0.5-0.5-0.9-1.1-1.2-1.8C56.9,18.1,56.7,17.2,56.7,16.3z M64.1,15.2
		c0-0.3,0-0.6-0.1-0.9c-0.1-0.3-0.2-0.5-0.4-0.7c-0.2-0.2-0.4-0.4-0.7-0.5c-0.3-0.1-0.6-0.2-1-0.2c-0.4,0-0.7,0.1-1,0.2
		s-0.5,0.3-0.7,0.5c-0.2,0.2-0.3,0.5-0.4,0.7c-0.1,0.3-0.2,0.6-0.2,0.9H64.1z"/>
	<path class="st0" d="M77.3,13.6c-0.2,0-0.4-0.1-0.7-0.1c-0.3,0-0.5-0.1-0.8-0.1c-0.3,0-0.5-0.1-0.8-0.1c-0.2,0-0.5,0-0.6,0
		c-0.4,0-0.8,0-1.2,0.1c-0.4,0-0.8,0.1-1.2,0.2v8.2h-2.9V11.4c0.8-0.3,1.5-0.5,2.3-0.7c0.8-0.2,1.7-0.3,2.8-0.3c0.2,0,0.4,0,0.7,0
		c0.3,0,0.6,0,0.9,0.1c0.3,0,0.7,0.1,1,0.1c0.3,0.1,0.6,0.1,0.9,0.2L77.3,13.6z"/>
	<path class="st0" d="M87.7,21.2c0,0-0.2,0.1-0.3,0.2c-0.2,0.1-0.4,0.2-0.6,0.2c-0.3,0.1-0.6,0.2-1,0.2C85.4,21.9,85,22,84.5,22
		c-1.3,0-2.3-0.4-2.9-1.2c-0.6-0.8-0.9-1.9-0.9-3.4V8h-3V5.6h5.9v11.9c0,0.7,0.1,1.3,0.4,1.5c0.3,0.3,0.7,0.4,1.1,0.4
		c0.6,0,1.1-0.1,1.4-0.2c0.4-0.2,0.6-0.3,0.8-0.3L87.7,21.2z"/>
	<path class="st0" d="M88.6,16.3c0-1,0.1-1.8,0.4-2.5c0.3-0.7,0.7-1.3,1.2-1.8c0.5-0.5,1-0.9,1.7-1.1c0.6-0.2,1.3-0.4,1.9-0.4
		c1.6,0,2.9,0.5,3.7,1.4c0.8,1,1.3,2.4,1.3,4.2c0,0.2,0,0.4,0,0.6c0,0.2,0,0.4,0,0.5h-7.1c0,0.7,0.3,1.3,0.9,1.7
		c0.6,0.4,1.4,0.6,2.3,0.6c0.6,0,1.1-0.1,1.6-0.2c0.5-0.1,1-0.2,1.3-0.4l0.4,2.5c-0.5,0.2-1,0.3-1.6,0.4S95.3,22,94.6,22
		c-0.9,0-1.8-0.1-2.5-0.4c-0.7-0.2-1.4-0.6-1.9-1.1c-0.5-0.5-0.9-1.1-1.2-1.8C88.7,18.1,88.6,17.2,88.6,16.3z M96,15.2
		c0-0.3,0-0.6-0.1-0.9c-0.1-0.3-0.2-0.5-0.4-0.7c-0.2-0.2-0.4-0.4-0.7-0.5c-0.3-0.1-0.6-0.2-1-0.2c-0.4,0-0.7,0.1-1,0.2
		c-0.3,0.1-0.5,0.3-0.7,0.5c-0.2,0.2-0.3,0.5-0.4,0.7c-0.1,0.3-0.2,0.6-0.2,0.9H96z"/>
	<path class="st0" d="M104.3,19.5c0.7,0,1.2-0.1,1.6-0.2c0.4-0.1,0.6-0.3,0.6-0.6c0-0.2-0.1-0.4-0.2-0.5c-0.1-0.1-0.3-0.3-0.5-0.4
		c-0.2-0.1-0.5-0.2-0.7-0.3c-0.3-0.1-0.6-0.2-0.9-0.3c-0.4-0.1-0.8-0.3-1.3-0.4c-0.4-0.2-0.8-0.4-1.2-0.6c-0.4-0.2-0.7-0.6-0.9-0.9
		c-0.2-0.4-0.4-0.9-0.4-1.4c0-0.5,0.1-0.9,0.3-1.3s0.5-0.8,0.8-1.1c0.4-0.3,0.9-0.6,1.5-0.7c0.6-0.2,1.3-0.3,2.1-0.3
		c0.7,0,1.4,0.1,2,0.2c0.6,0.1,1.1,0.3,1.6,0.5l-0.4,2.4c-0.3-0.1-0.7-0.2-1.2-0.4c-0.6-0.2-1.2-0.3-1.9-0.3c-0.7,0-1.2,0.1-1.5,0.3
		c-0.3,0.2-0.4,0.4-0.4,0.6c0,0.2,0.1,0.3,0.2,0.5c0.1,0.1,0.3,0.3,0.5,0.4c0.2,0.1,0.4,0.2,0.7,0.3s0.5,0.2,0.8,0.3
		c0.4,0.1,0.9,0.3,1.3,0.5c0.5,0.2,0.9,0.4,1.2,0.6c0.4,0.3,0.7,0.6,0.9,1c0.2,0.4,0.4,0.9,0.4,1.5c0,0.5-0.1,0.9-0.3,1.3
		c-0.2,0.4-0.5,0.8-0.9,1.1s-0.9,0.5-1.6,0.7s-1.4,0.3-2.4,0.3c-1,0-1.8-0.1-2.4-0.3c-0.7-0.2-1.2-0.4-1.6-0.6l0.4-2.4
		c0.5,0.2,1.1,0.4,1.7,0.6C103.1,19.4,103.7,19.5,104.3,19.5z"/>
	<path class="st0" d="M115.1,19.5c0.7,0,1.2-0.1,1.6-0.2c0.4-0.1,0.6-0.3,0.6-0.6c0-0.2-0.1-0.4-0.2-0.5c-0.1-0.1-0.3-0.3-0.5-0.4
		c-0.2-0.1-0.5-0.2-0.7-0.3c-0.3-0.1-0.6-0.2-0.9-0.3c-0.4-0.1-0.8-0.3-1.3-0.4c-0.4-0.2-0.8-0.4-1.2-0.6c-0.4-0.2-0.7-0.6-0.9-0.9
		c-0.2-0.4-0.4-0.9-0.4-1.4c0-0.5,0.1-0.9,0.3-1.3s0.5-0.8,0.8-1.1c0.4-0.3,0.9-0.6,1.5-0.7c0.6-0.2,1.3-0.3,2.1-0.3
		c0.7,0,1.4,0.1,2,0.2c0.6,0.1,1.1,0.3,1.6,0.5l-0.4,2.4c-0.3-0.1-0.7-0.2-1.2-0.4c-0.6-0.2-1.2-0.3-1.9-0.3c-0.7,0-1.2,0.1-1.5,0.3
		c-0.3,0.2-0.4,0.4-0.4,0.6c0,0.2,0.1,0.3,0.2,0.5c0.1,0.1,0.3,0.3,0.5,0.4c0.2,0.1,0.4,0.2,0.7,0.3s0.5,0.2,0.8,0.3
		c0.4,0.1,0.9,0.3,1.3,0.5c0.5,0.2,0.9,0.4,1.2,0.6c0.4,0.3,0.7,0.6,0.9,1c0.2,0.4,0.4,0.9,0.4,1.5c0,0.5-0.1,0.9-0.3,1.3
		c-0.2,0.4-0.5,0.8-0.9,1.1s-0.9,0.5-1.6,0.7S116,22,115,22c-1,0-1.8-0.1-2.4-0.3c-0.7-0.2-1.2-0.4-1.6-0.6l0.4-2.4
		c0.5,0.2,1.1,0.4,1.7,0.6C113.8,19.4,114.4,19.5,115.1,19.5z"/>
	<path class="st0" d="M124,24.6h-3l6.5-20.2h2.9L124,24.6z"/>
</g>
<polygon class="st0" points="191.2,24.7 129.1,24.7 135,4.1 197.1,4.1 "/>
<g>
	<g>
		<path class="st1" d="M140.2,8.2h5.1c4,0,6.8,2.6,6.8,6.4s-2.8,6.4-6.8,6.4h-5.1V8.2z M145.3,18.6c2.5,0,4-1.8,4-4c0-2.3-1.4-4-4-4
			H143v8H145.3z"/>
		<path class="st1" d="M161.6,18.8h-5.7l-0.8,2.2h-3l5-12.8h3.4l4.9,12.8h-3L161.6,18.8z M156.6,16.4h4.3l-2.1-5.9L156.6,16.4z"/>
		<path class="st1" d="M168.7,15.8l-4.9-7.6h3.1l3.2,5.2l3.2-5.2h3.1l-4.9,7.6V21h-2.7V15.8z"/>
		<path class="st1" d="M177.6,17.1c0.9,0.9,2.3,1.7,4.1,1.7c1.5,0,2.2-0.7,2.2-1.4c0-1-1.1-1.3-2.6-1.6c-2.1-0.5-4.8-1.1-4.8-3.9
			c0-2.1,1.8-3.9,4.9-3.9c2,0,3.7,0.6,5,1.8l-1.5,2c-1-1-2.4-1.4-3.7-1.4c-1.2,0-1.9,0.5-1.9,1.3c0,0.9,1.1,1.1,2.6,1.5
			c2.1,0.5,4.8,1.1,4.8,4c0,2.3-1.7,4.1-5.1,4.1c-2.5,0-4.2-0.8-5.4-2L177.6,17.1z"/>
	</g>
</g>
<path class="st2" d="M117,25.4h-4.8c-0.4,0-0.7-0.3-0.7-0.7c0-0.4,0.3-0.7,0.7-0.7h4.8c0.4,0,0.7,0.3,0.7,0.7
	C117.7,25.1,117.3,25.4,117,25.4z M108,25.4h-4.8c-0.4,0-0.7-0.3-0.7-0.7c0-0.4,0.3-0.7,0.7-0.7h4.8c0.4,0,0.7,0.3,0.7,0.7
	C108.7,25.1,108.4,25.4,108,25.4z M99.1,25.4h-4.8c-0.4,0-0.7-0.3-0.7-0.7c0-0.4,0.3-0.7,0.7-0.7h4.8c0.4,0,0.7,0.3,0.7,0.7
	C99.8,25.1,99.5,25.4,99.1,25.4z M90.2,25.4h-4.8c-0.4,0-0.7-0.3-0.7-0.7c0-0.4,0.3-0.7,0.7-0.7h4.8c0.4,0,0.7,0.3,0.7,0.7
	C90.8,25.1,90.5,25.4,90.2,25.4z M81.2,25.4h-4.8c-0.4,0-0.7-0.3-0.7-0.7c0-0.4,0.3-0.7,0.7-0.7h4.8c0.4,0,0.7,0.3,0.7,0.7
	C81.9,25.1,81.6,25.4,81.2,25.4z M72.3,25.4h-4.8c-0.4,0-0.7-0.3-0.7-0.7c0-0.4,0.3-0.7,0.7-0.7h4.8c0.4,0,0.7,0.3,0.7,0.7
	C73,25.1,72.7,25.4,72.3,25.4z M63.4,25.4h-4.8c-0.4,0-0.7-0.3-0.7-0.7c0-0.4,0.3-0.7,0.7-0.7h4.8c0.4,0,0.7,0.3,0.7,0.7
	C64,25.1,63.7,25.4,63.4,25.4z M54.4,25.4h-4.8c-0.4,0-0.7-0.3-0.7-0.7c0-0.4,0.3-0.7,0.7-0.7h4.8c0.4,0,0.7,0.3,0.7,0.7
	C55.1,25.1,54.8,25.4,54.4,25.4z M45.5,25.4h-4.8c-0.4,0-0.7-0.3-0.7-0.7c0-0.4,0.3-0.7,0.7-0.7h4.8c0.4,0,0.7,0.3,0.7,0.7
	C46.2,25.1,45.9,25.4,45.5,25.4z M36.5,25.4h-4.8c-0.4,0-0.7-0.3-0.7-0.7c0-0.4,0.3-0.7,0.7-0.7h4.8c0.4,0,0.7,0.3,0.7,0.7
	C37.2,25.1,36.9,25.4,36.5,25.4z M27.6,25.4h-4.8c-0.4,0-0.7-0.3-0.7-0.7c0-0.4,0.3-0.7,0.7-0.7h4.8c0.4,0,0.7,0.3,0.7,0.7
	C28.3,25.1,28,25.4,27.6,25.4z M18.7,25.4h-4.8c-0.4,0-0.7-0.3-0.7-0.7c0-0.4,0.3-0.7,0.7-0.7h4.8c0.4,0,0.7,0.3,0.7,0.7
	C19.4,25.1,19.1,25.4,18.7,25.4z"/>
<g>
	<path class="st2" d="M152.7,35.7v-7.3h2.9c2.3,0,3.9,1.5,3.9,3.7c0,2.2-1.6,3.7-3.9,3.7H152.7z M154.3,34.4h1.3
		c1.5,0,2.3-1,2.3-2.3c0-1.3-0.8-2.3-2.3-2.3h-1.3V34.4z"/>
	<path class="st2" d="M160.4,28.4h1.6v4.4c0,1,0.6,1.7,1.7,1.7c1.1,0,1.7-0.7,1.7-1.7v-4.4h1.6v4.4c0,1.8-1,3.1-3.3,3.1
		c-2.2,0-3.3-1.3-3.3-3.1V28.4z"/>
	<path class="st2" d="M168.3,35.7v-7.3h3.9c1.4,0,2.1,0.9,2.1,1.9c0,0.9-0.6,1.5-1.3,1.7c0.8,0.1,1.4,0.9,1.4,1.8c0,1.1-0.7,2-2.1,2
		H168.3z M169.9,31.4h2c0.5,0,0.9-0.3,0.9-0.8c0-0.5-0.3-0.8-0.9-0.8h-2V31.4z M169.9,34.4h2c0.6,0,0.9-0.3,0.9-0.9
		c0-0.5-0.3-0.9-0.9-0.9h-2V34.4z"/>
	<path class="st2" d="M175.5,35.7v-7.3h1.6v6h3.1v1.4H175.5z"/>
	<path class="st2" d="M180.9,35.7v-7.3h1.6v7.3H180.9z"/>
	<path class="st2" d="M188.9,35.7l-3.5-4.9v4.9h-1.6v-7.3h1.6l3.4,4.8v-4.8h1.6v7.3H188.9z"/>
</g>
</svg>
