<?xml version="1.0" encoding="utf-8"?>
<!-- Generator: Adobe Illustrator 27.3.1, SVG Export Plug-In . SVG Version: 6.00 Build 0)  -->
<svg version="1.1" id="Layer_1" xmlns="http://www.w3.org/2000/svg" xmlns:xlink="http://www.w3.org/1999/xlink" x="0px" y="0px"
	 viewBox="0 0 500 500" style="enable-background:new 0 0 500 500;" xml:space="preserve">
<style type="text/css">
	.st0{fill:#000080;}
	.st1{fill:none;stroke:#000000;stroke-width:2;stroke-miterlimit:10;}
	.st2{fill:#DADFE5;}
	.st3{fill:#A7A9AC;}
	.st4{fill:#FFF200;stroke:#F7941D;stroke-width:2;stroke-linecap:round;stroke-miterlimit:10;}
	.st5{fill:none;stroke:#F7941D;stroke-width:2;stroke-linecap:round;stroke-miterlimit:10;}
	.st6{fill:#A7A9AC;stroke:#000000;stroke-width:3;stroke-miterlimit:10;}
	.st7{fill:#90B5E0;stroke:#000000;stroke-width:3;stroke-linecap:round;stroke-miterlimit:10;}
	.st8{fill:none;stroke:#000000;stroke-width:3;stroke-miterlimit:10;}
	.st9{fill:none;stroke:#000000;stroke-width:3;stroke-linecap:round;stroke-miterlimit:10;}
	.st10{fill:#000080;stroke:#000000;stroke-width:3;stroke-linecap:round;stroke-miterlimit:10;}
	.st11{fill:#443641;stroke:#000000;stroke-width:3;stroke-linecap:round;stroke-miterlimit:10;}
	.st12{fill:#FFFFFF;stroke:#000000;stroke-width:3;stroke-miterlimit:10;}
	.st13{fill:none;stroke:#000000;stroke-width:2;stroke-linecap:round;stroke-miterlimit:10;}
	.st14{fill:none;stroke:#000000;stroke-linecap:round;stroke-miterlimit:10;}
	.st15{fill:none;stroke:#000000;stroke-width:2;stroke-miterlimit:9.9999;}
	.st16{fill:none;stroke:#000000;stroke-miterlimit:10;}
	.st17{fill:#90B5E0;stroke:#000080;stroke-width:2;stroke-linecap:round;stroke-miterlimit:10;}
	.st18{fill:#FFFFFF;stroke:#000000;stroke-width:2;stroke-miterlimit:10;}
	.st19{fill:#FFFFFF;stroke:#000000;stroke-width:3;stroke-miterlimit:10.0005;}
	.st20{fill:#A7A9AC;stroke:#000000;stroke-width:3;stroke-linejoin:round;stroke-miterlimit:10;}
	.st21{fill:#90B5E0;stroke:#000080;stroke-width:1.9995;stroke-linecap:round;stroke-miterlimit:9.9985;}
	.st22{opacity:0.4;fill:#1B3E5E;enable-background:new    ;}
	.st23{opacity:0.3;fill:#1B3E5E;enable-background:new    ;}
	.st24{opacity:0.4;fill:#55285B;enable-background:new    ;}
	.st25{opacity:0.3;fill:#FFFFFF;enable-background:new    ;}
	.st26{fill:#FFFFFF;}
	.st27{opacity:0.31;fill:#3E5A7D;enable-background:new    ;}
</style>
<g>
	<g id="Layer_2_00000173872922345539680120000011965644882259457665_">
		<path class="st0" d="M415.1,207.9c-10.2,18.4-28.1,38.9-48,51.1c-14.6,9-43.5,16.3-59,16.3L266,250.2l24.6-44.9l75.6-10.6l46,2
			L415.1,207.9z"/>
		<path class="st0" d="M191.2,282.3c-7.6,0-41.2,2.4-73.2-17.9C82.7,242,77.8,225,67.6,211.6l1.3-21.1l89.5,25.6L204,218v49.1
			L191.2,282.3z"/>
		<g>
			<path d="M262.1,451.6c3.9-1.4,7.5-3.6,10.6-6.3c3.1-2.7,5.9-5.8,8.2-9.2c2.3-3.4,4.2-7.1,5.7-11c0.8-1.9,1.4-3.9,1.9-5.9
				s0.9-4.1,1-6.1c0.1,4.2-0.9,8.3-2.2,12.3c-1.4,4-3.3,7.7-5.6,11.3c-1.1,1.8-2.5,3.4-3.9,5c-1.4,1.5-2.9,3-4.6,4.3
				c-1.6,1.3-3.4,2.5-5.3,3.5C266.1,450.4,264.1,451.1,262.1,451.6z"/>
		</g>
		<path class="st1" d="M306.6,275.6c15.5,0,44.4-7.2,59-16.3c19.9-12.2,37.8-32.8,48-51.1"/>
		<g id="Layer_3_00000026162639862162997970000010934230403549475211_">
			<g>
				<g>
					<path class="st2" d="M209.3,300.2c1.4-3.6,1.8-7,1.3-10.8c-0.4-3.1-5-3.3-5,0c0,1.9,0,3.9-0.1,5.8c1.4-0.6,2.8-1.2,4.3-1.8
						c-0.5-1.3-1-2.7-1.5-4c-1.2,0.5-2.4,1-3.7,1.5c10.6,5.8,22.1,9,34.2,9.3c0-1.7,0-3.3,0-5c-5.9,0.5-11.9,0.3-17.7-0.9
						c-4.7-1-8.9-3.2-13.8-2.3c-2,0.4-2.5,3.7-0.6,4.6c14.8,6.5,30.6,9.6,46.8,9.1c3-0.1,3.2-3.9,0.7-4.9c-9.1-3.7-18.4-6.6-28-8.7
						c-3.1-0.7-4.4,3.9-1.3,4.8c12.2,3.6,24.7,5.7,37.3,6.2c0-1.7,0-3.3,0-5c-6.7,0.4-13.2-0.3-19.7-2.1c-0.2,1.6-0.4,3.3-0.7,4.9
						c8.2,0.7,16.4,2,24.4,3.9c0.2-1.6,0.4-3.3,0.7-4.9c-6.5,0.4-12.4-0.9-18-4.1c-0.4,1.6-0.8,3.1-1.3,4.7c9-0.4,17.9-0.5,26.9-0.3
						c-0.2-1.6-0.4-3.3-0.7-4.9c-8.1,2.7-16.3,3.9-24.9,3.5c-2.8-0.1-3.5,4.5-0.7,4.9c10.8,1.6,21.5,1.4,32.2-0.7
						c2.5-0.5,2.3-4.2,0-4.8c-3.8-1.1-7.7-2.2-11.4-3.4c-0.2,1.6-0.4,3.3-0.7,4.9c6.5,0.3,13,0.5,19.5,0.8c2.8,0.1,3.4-4.3,0.7-4.9
						c-3.2-0.7-5.7,0-8.1,2.1c1-0.1,2-0.3,3-0.4c-0.2-0.2-0.4-0.5-0.6-0.7c-1.4,0.8-2.8,1.6-4.2,2.4c1.1,1,2.1,2.1,3.2,3.1
						c1.4,1.4,4.5,0.5,4.3-1.8c-0.1-0.9-0.2-1.9-0.3-2.8c-1.3,0.7-2.5,1.4-3.8,2.2c1.5,0.8,2.6,1.7,3.7,3c1.3,1.6,3.6,0.5,4.2-1.1
						c0.4-1.3,0.9-2.6,1.3-4c-1.2,0.5-2.4,1-3.7,1.5c1.3,0.4,2.1,1.3,2.5,2.6c0.9,2,4.1,1.4,4.6-0.6c0.6-2.3,1.3-4.5,2.2-6.7
						c-1.4,0-2.9,0-4.3,0c1.2,1.3,1.5,2.8,0.9,4.4c-0.8,3.2,3.7,4.3,4.8,1.3c1.1-2.9-0.2-6-2.9-7.5c-5-2.8-9.9,2.4-15,0.8
						c-3.1-1-4.4,3.9-1.3,4.8c1.9,0.6,3.5,0.7,5.5,0.4c0.6-0.1,10.2-3.4,9,0.2c1.6,0.4,3.2,0.9,4.8,1.3c0.7-3.1,0.4-5.7-1.4-8.3
						c-0.9-1.4-3.5-1.9-4.3,0c-1.1,2.6-2,5.1-2.7,7.9c1.5-0.2,3-0.4,4.6-0.6c-1-2-2.3-3.4-4.3-4.4c-1.5-0.7-3.1-0.1-3.7,1.5
						c-0.4,1.3-0.9,2.6-1.3,4c1.4-0.4,2.8-0.7,4.2-1.1c-1.4-1.7-2.8-2.8-4.7-3.8c-1.5-0.8-4,0.1-3.8,2.2c0.1,0.9,0.2,1.9,0.3,2.8
						c1.4-0.6,2.8-1.2,4.3-1.8c-1.1-1-2.1-2.1-3.2-3.1c-1.8-1.7-4.9,0-4.2,2.4c0.5,1.7,1.3,2.8,2.9,3.7c1,0.6,2.2,0.4,3-0.4
						c1.1-0.3,2.1-0.6,3.2-0.8c0.2-1.6,0.4-3.3,0.7-4.9c-6.5-0.3-13-0.5-19.5-0.8c-2.9-0.1-3.3,4.1-0.7,4.9
						c3.8,1.2,7.6,2.3,11.4,3.4c0-1.6,0-3.2,0-4.8c-9.8,1.9-19.7,2.2-29.5,0.7c-0.2,1.6-0.4,3.3-0.7,4.9c9,0.4,17.7-0.9,26.2-3.7
						c2.6-0.9,2.2-4.8-0.7-4.9c-9-0.2-17.9-0.1-26.9,0.3c-2.4,0.1-3.5,3.4-1.3,4.7c6.4,3.6,13.3,5.2,20.6,4.8
						c2.7-0.2,3.5-4.2,0.7-4.9c-8.5-2-17.1-3.4-25.8-4.1c-2.9-0.2-3.3,4.2-0.7,4.9c6.9,1.9,13.9,2.7,21,2.3c3.2-0.2,3.2-4.9,0-5
						c-12.3-0.5-24.3-2.6-36-6c-0.4,1.6-0.9,3.2-1.3,4.8c9.6,2.1,18.9,4.9,28,8.7c0.2-1.6,0.4-3.3,0.7-4.9
						c-15.3,0.6-30.3-2.2-44.2-8.4c-0.2,1.5-0.4,3-0.6,4.6c3.1-0.6,6.4,1.1,9.4,1.9c2.4,0.6,4.8,1,7.3,1.3c4.5,0.6,9,0.6,13.6,0.2
						c3.2-0.3,3.3-4.9,0-5c-11.2-0.3-21.9-3.3-31.7-8.7c-1.3-0.7-3.4-0.2-3.7,1.5c-0.5,3.5,0.2,6.3,2.7,8.8c1.5,1.6,4.2,0.4,4.3-1.8
						c0-1.9,0-3.9,0.1-5.8c-1.7,0-3.3,0-5,0c0.4,3.4,0.1,6.3-1.1,9.5C203.3,301.9,208.1,303.2,209.3,300.2L209.3,300.2z"/>
				</g>
			</g>
		</g>
		<path class="st3" d="M421.6,194.6c0.6-2.2,0.2-4.7-1.6-6.8c-7.7-9.2-19.7-7.9-29.9-4.4c-0.6,0.2-1.1,0.3-1.7,0.5
			c-11.9,0.3-23.6-1.2-35.2-4.6c-1.5-0.4-2.9-0.4-4.1,0c-1.2-0.3-2.4-0.6-3.6-0.9c-6.5-2.3-13.1-4.6-19.6-7
			c-1.1-0.4-2.2-0.5-3.2-0.4c-0.2-0.2-0.5-0.4-0.7-0.7c-2.7-2.7-6-2.7-8.5-1.3l1.8-14l-4.4-35.6H194.6c0,0-3.6,27.5,15.9,59.5
			l99.9,1c0.3,0.4,0.5,0.7,0.9,1.1c3.5,3.6,5.7,6.3,5.7,11.5c0,6-0.3,12-0.5,18c-0.1,5.2,0.2,10.5,5.2,13.5
			c4.4,2.6,10.7,2.7,15.6,2.9c1.3,0.1,2.5-0.2,3.5-0.8c5.4,0.2,10.8,0,16.2-0.5c2.6,0.1,5.1-0.2,7.8-0.9c1.3-0.4,2.4-0.9,3.2-1.7
			c1.4-0.3,2.8-0.8,4.2-1.4c3.5-0.8,6.9-1.8,10.2-3c1.9-0.3,3.8-0.9,5.6-1.7c0.5,0,0.9,0,1.1,0c3.5-0.2,6.6-1.1,9.7-2.8
			c3.7-2.1,6.9-4.3,10.3-6.1c3.3-1.1,6.5-2.3,9.7-3.8C423.1,202.3,423.4,198,421.6,194.6z"/>
		<path class="st3" d="M209.7,159.1c-8.2-4.5-18,3.3-26.7,0.5c-4.2-1.4-7.8-3.5-12.3-3.7c-4.5-0.1-8.9,1.5-11.9,4.9
			c-0.9,1-1.4,2-1.7,3.1c-1.1,0.1-2.2,0.1-3.2,0c-2.6-0.2-5,1.4-6.3,3.6c-0.2,0.1-0.5,0.2-0.7,0.3c-1-0.2-2.1-0.2-3.3,0
			c-9.8,2.1-19.6,4.2-29.5,6.1c-8.7,1.7-17.4,3-26,0c-7.5-2.6-12.2,7.7-7.2,12.6c-0.1,1.1,0.2,2.6,0.5,3.7c0.2,0.8,0.4,1.6,0.7,2.3
			c-7.3-0.4-12.4,10.1-4.6,13.7c24.7,11.4,50.9,18.6,78,21.1c11.6,1.1,26.8,3.5,34.7-7.3c1.3-1.8,2.3-3.8,3-5.8
			c0.5-0.5,1-0.9,1.5-1.5c2.7-3.1,2.6-6.8,0.7-9.5c0.2-1.5,0.3-3,0.5-4.5c2-2.4,1.9-5.2,0.7-7.4c0.1-0.6,0.1-1.3,0.2-1.9
			c6.9-0.4,14.1-1.5,17.6-8C217.6,175,216.7,163,209.7,159.1z"/>
		<g>
			<g>
				<path class="st3" d="M234.5,325.5c-0.6-3.7-1.2-7.5-1.7-11.2c-0.5-2.9-4.8-2-4.9,0.7c-0.1,2.7-0.3,5.3-0.4,8
					c1.1-0.8,2.1-1.6,3.2-2.4c-1.7-0.5-1.1-3.1-1-4.2c-1.6-0.2-3.3-0.4-4.9-0.7c-0.1,2.2-0.1,4.3-0.2,6.5c1.6-0.4,3.1-0.8,4.7-1.3
					c-1.2-1.8-1.4-3.5-0.7-5.6c-1.5,0.2-3,0.4-4.6,0.6c1.2,2.2,2.2,4.4,2.9,6.8c0.7,2.1,3.4,2.4,4.6,0.6c1.5-2.3,2.2-4.8,2.2-7.5
					c-1.6,0.4-3.1,0.8-4.7,1.3c1.2,1.8,2.2,3.6,2.9,5.7c0.9,2.8,4.6,2.1,4.9-0.7c0.2-2,0.4-4,0.5-6c-1.6,0.4-3.1,0.8-4.7,1.3
					c1.1,1.6,1.8,3.2,1.9,5.2c1.7,0,3.3,0,5,0c-0.2-2.4,0-4.4,0.8-6.7c-1.5,0.2-3,0.4-4.6,0.6c1.1,1.8,1.4,3.6,1.2,5.7
					c1.7,0,3.3,0,5,0c0-0.8-0.3-2.8,0-3.4c-0.5,0.4-1,0.8-1.5,1.1c0.2-0.1,0.3-0.1,0.5-0.2c-0.6-0.1-1.3-0.2-1.9-0.3
					c0.1,0.1,0.3,0.2,0.4,0.2c-0.4-0.5-0.8-1-1.1-1.5c0.5,1.3,0.1,3.6,0.1,5c0,3.2,4.9,3.2,5,0c0.1-2.2,0.1-4.4,0.2-6.5
					c-1.6,0.2-3.3,0.4-4.9,0.7c0.2,1.1,1,4.5,0.3,5.7c0.5-0.4,1-0.8,1.5-1.1c-2.1,0.6-4.7-0.8-6.5-1.9c-2.7-1.8-5.2,2.6-2.5,4.3
					c2.6,1.7,7.9,4.1,10.9,2.1c2.9-1.8,1.5-7.7,1.1-10.4c-0.5-2.9-4.8-2.1-4.9,0.7c-0.1,2.2-0.1,4.4-0.2,6.5c1.7,0,3.3,0,5,0
					c0-2.5,1-7.9-2.8-8.3c-4.1-0.5-3.7,4.8-3.7,7.3c0,3.3,4.7,3.2,5,0c0.3-3-0.4-5.6-1.9-8.2c-1.2-1.9-3.9-1.4-4.6,0.6
					c-0.9,2.6-1.3,5.3-1,8c0.3,3.2,5.2,3.2,5,0c-0.2-2.8-1-5.4-2.6-7.7c-1.4-2-4.5-1.3-4.7,1.3c-0.1,2-0.3,4-0.5,6
					c1.6-0.2,3.3-0.4,4.9-0.7c-0.8-2.5-1.9-4.7-3.4-6.9c-1.4-2-4.6-1.3-4.7,1.3c-0.1,1.9-0.6,3.4-1.6,5c1.5,0.2,3,0.4,4.6,0.6
					c-0.9-2.8-2-5.5-3.4-8c-1.1-2-3.9-1.3-4.6,0.6c-1.2,3.2-0.7,6.6,1.2,9.5c1.4,2,4.6,1.3,4.7-1.3c0.1-2.2,0.1-4.3,0.2-6.5
					c0.1-2.7-4.5-3.5-4.9-0.7c-0.7,4.3-0.4,8.9,4.5,10.4c1.6,0.5,3.1-0.8,3.2-2.4c0.1-2.7,0.3-5.3,0.4-8c-1.6,0.2-3.3,0.4-4.9,0.7
					c0.6,3.7,1.2,7.5,1.7,11.2C230.1,330,235,328.6,234.5,325.5L234.5,325.5z"/>
			</g>
		</g>
		<path class="st4" d="M266.3,79c0,0-6-6.1-8-11.4s-3.2-17.1,0.4-18.1c3.6-1,13.1,9.5,15.6,15s4.8,14.5,4.8,14.5H266.3z"/>
		<polyline class="st5" points="268.7,78.3 266.3,73.2 268.6,73.8 268.5,70.5 270.8,73.4 272.2,70 273.6,75.1 274.3,78.3 		"/>
		<path class="st6" d="M314.9,146.9c0,0,6.1-2.5,18.9-4.1c27.8-3.4,48.4,3.1,52.7,3.3c7.5,0.4,8.4-9,2-19.4
			c-4.9-8.1-81.4-58.9-145.4-45.2c-50.4,10.8-56.7,41.3-56.7,41.3"/>
		<path class="st7" d="M192.4,284c0,0.1,0.1,0.2,0.2,0.2c2.9,2.8,41.8,11.9,63.2,11.9c21.7,0,42.5-2.4,47.3-6
			c4.3-3.2,4.3-19,6.7-26.7c2.3-7.7,15-35,13.3-52.7s-8.7-37.3-9.3-42.7c-0.5-4.3,3.7-15.4,5.5-19.8c0.3-0.8-0.1-1.5-1-1.4
			c-3.2,0.1-4.2,0.1-5.1,0.6c-0.3,0.2-1.6,1.5-1.8,1.8c-1.3,2.1-7.3,11.1-10.5,12.6c-3.6,1.7-32.1,2.5-34.4,0.8s-4.2-22-8.6-22.7
			s-70.1-14-71.4-17.3c-0.7-1.8-0.5-3.3-0.1-4.2c0.2-0.6-0.2-1.3-0.9-1.4c-2-0.2-5.4-0.3-7.3,1.1c-2.8,2.1,2.3,20.9-3.8,27.6
			c-2.6,2.8-10.1,5.9-13.8,8.4c-1.1,0.7-2.9,5.4-1.7,5.9c8,3.1,30.6,12.4,29,37.3c-2,30.3-17.3,31.8-23.5,31.1
			c-0.9-0.1-1.5,0.9-1,1.7c3.7,5,12.6,17.3,15.6,25.3C183.2,266.6,191.5,282.4,192.4,284z"/>
		<path class="st6" d="M404.4,179.6c0,0,1.6-4.9,4.8-10.8c2.7-5,9-10.2,11.9-11.8c2.3-1.3,3.9,3.9,2.1,7.9c-1.6,3.7-5,6.9-1,9.3
			c2.6,1.6,8.9-4.1,14-6.4c8.1-3.7,16.8-2.2,19,0c2.3,2.2-2.9,5.2-8.5,8c-4.6,2.3-9.3,2.6-7.5,5.5c1.8,3,7,0,10.8-0.8
			s15.3-1.5,17.3,2.1c2,3.7-8.5,9.2-14.5,10.9c-3.1,0.8-9.5,1.3-9.5,3.3s4.7,1.9,9.4,3c4.5,1,10.1,2.5,8.1,4.7s-16.9,7.2-31.3,5.7
			c-5.3-0.6-20.1-2.6-20.1-2.6"/>
		<path class="st8" d="M166.8,234.9c15.6,0,22-9.9,26.6-25.3c7.3-24.3-7.9-50.3-32.1-55.5"/>
		<path class="st8" d="M78.1,208.3c14.5,5.8,22.3,7.8,37.3,11.8c22.8,6,38.6,7.2,59.7,6.5"/>
		<path class="st8" d="M84.8,174.1c13.3,1.4,23.2,0.4,47-4.5c10.9-2.3,23-5.4,28-8.5"/>
		<line class="st8" x1="204.2" y1="297.6" x2="203.3" y2="288"/>
		<line class="st8" x1="298.7" y1="301.1" x2="298.6" y2="292.1"/>
		<path class="st8" d="M313.6,165.6c10.9,5,25.9,10.2,48,15c18.8,4.1,31.5,2.1,42.8-1"/>
		<path class="st8" d="M322.1,224.6c9.2,2.8,26.5,5.1,48-1c20-5.7,31.2-10.3,39-16"/>
		<path class="st8" d="M174.4,145.9c22.5,13.3,41,25.7,99.3,29.7c17,1.2,28.4-1.9,41-5.5"/>
		<path class="st9" d="M404.4,179.6c3.4,1.2,5.9,3.3,6.8,11.9c0.9,8.3-0.9,12.7-2.1,16.1"/>
		<path class="st9" d="M262.1,144.4c9-2.1,27-3.5,39.9-4.5c15.3-1.3,44.5,0.4,55,1.9"/>
		<path class="st10" d="M301.9,322c7.2,4.9-16,67.4-24.3,75.6c-5.6,5.5-17.6,2.8-18.3-3.6c-0.5-4.8,2.7-19.1,4.9-33
			c2.9-18.4,0.7-32.5,2.9-36.4S297.1,318.6,301.9,322z"/>
		<path class="st6" d="M274.3,314.6v1.8v0.1c0,0.6,0,4.9,0.3,6.8c0.1,0.6,0.5,1.2,1.1,1.4c2.1,0.7,6.5,0.7,8.8,0.7
			c2.7,0,5.6-0.7,5.6-0.7c1.7-0.7,2.7-1.4,2.7-2.9v-6c0-2.6-2.1-4.6-4.6-4.6h-11C275.5,311.4,274.2,312.9,274.3,314.6z"/>
		<path class="st11" d="M319.4,392.8c0.3,38.8-17.4,64.3-56,64.3c-45.4,0-59.3-38.3-57.6-71.1c1.8-34.4,14.1-57.5,57.6-57.5
			C311.3,328.5,319.2,366.2,319.4,392.8z"/>
		<path class="st12" d="M221.9,392.7c0.3-24.6,10-39.6,25.1-39.6s27.4,9.4,27.4,39.5c0,31-13.1,40.9-28.4,38.5
			C231.8,428.9,221.6,413.1,221.9,392.7z"/>
		<path class="st10" d="M215.8,324.8c-7.4,5.1,16.5,69.5,25.1,78c5.8,5.7,18.2,2.9,18.9-3.7c0.6-4.9-2.8-19.7-5-34.1
			c-3-19-0.7-33.5-3-37.5S220.8,321.3,215.8,324.8z"/>
		<path class="st13" d="M262.6,150.1c8.7,2,17.5,2,26.8,2c10.5,0,16.5-1.1,20.5-2.5"/>
		<path class="st13" d="M264.9,156.3c7.5,2,15.2,2,23.2,2c8.7,0,14.7-1.2,17.8-2.5"/>
		<path class="st1" d="M278.3,79.2c-13.4-0.3-31.6,11.4-31.6,23.3c0,8.1,18.1,37.2,35.7,39.7"/>
		<circle class="st1" cx="253.2" cy="103" r="1.5"/>
		<path class="st1" d="M225.6,86.6c-5.5,2.3-11.8,16.5-11.8,21.9c0,9.8,25.7,27.6,27,28"/>
		<circle class="st1" cx="220.1" cy="108.7" r="1.5"/>
		<path class="st12" d="M203.7,309.1c-3.1-3.5-4.6-9.2-1.9-11.3c2.3-1.8,21,5.1,53.8,5.7c33.8,0.6,45.7-4.9,47.5-2.3
			c2.4,3.4,0.7,8.9-2.6,11.6c-2.9,2.4-20.3,3.5-44.4,3.6C234.1,316.5,206.4,312.2,203.7,309.1z"/>
		<path class="st13" d="M335.6,174.3c6.2,1.6,9.9,13.7,9.9,22.3c-0.1,19.6-5.2,26.9-9.9,30.9"/>
		<path class="st13" d="M358.9,180.6c6.2,1.4,9.9,11.9,9.9,19.4c-0.1,17.1-5.2,23.3-9.9,26.8"/>
		<path class="st13" d="M378.6,182.8c6.2,1.1,9.9,9.9,9.9,16.1c-0.1,14.2-5.2,19.4-9.9,22.3"/>
		<path class="st13" d="M397.8,181.4c4.1,1,6.6,8.4,6.6,13.6c0,12-3.5,16.4-6.6,18.9"/>
		<path class="st13" d="M171.1,241.3c2.6,1.6,21.2,6.4,29.3,11c11,6.3,18.4,13.9,20,15.6c3.9,4.2,3.6,7.5,8,17.3
			c2.9,6.5,4,6.9,7.2,8.6"/>
		<path class="st13" d="M220.4,267.9c13.7,6.6,31.1,8.4,58.1,7.6c14.4-0.5,26.3-4.5,30.2-12"/>
		<path class="st14" d="M188.6,246.1l4.8-8c0.5-0.7,1.4-0.9,2.1-0.5l21.9,10.7c0.7,0.4,0.9,1.4,0.5,2.1l-5.2,9"/>
		<path class="st13" d="M200.4,101.5c-0.9,2.4-8.8,9.6-3.8,16.6c3.6,5.1,11.1,10.4,13.5,11.8"/>
		<ellipse class="st15" cx="201.1" cy="114.8" rx="1.5" ry="1.5"/>
		<path class="st1" d="M145.1,165.6c2.6,2.3,16.5,4.3,16.5,31.5c0,16.5-6.8,25.1-9.5,29"/>
		<path class="st1" d="M122.3,171.8c2.1,1.9,13.6,3.6,13.6,26.2c0,13.7-5.6,20.8-7.8,24.1"/>
		<path class="st1" d="M106.5,173.9c1.1,1.8,7.9,3.9,6,23.3c-1.2,11.7-5.1,17.6-6.7,20.2"/>
		<path class="st1" d="M89.9,173.8c1.1,1.7,8.4,4.1,5.6,21.4c-1.7,10.5-6.2,15.4-8,17.6"/>
		<path class="st6" d="M81.5,206.6c0,0-9.4,3.5-26.8,6.2c-10.3,1.6-20.3,0.7-21.4-2.4c-1.1-3.2,4.5-7.6,7.4-8.1
			c4.8-0.8,12-3.5,11.7-5.4s-9.9,0-14.8-1.2c-2.5-0.6-14.4-4-14.4-9.1c0-2,7.5-5.5,10.8-5.3s17.7,3.4,18.2,1.6
			c0.5-1.8-10-6.6-12.5-8.5c-6.8-5.1-9.3-11.8-7-13.1s9.3-0.7,14.2,2.8c3.2,2.3,9.4,8.4,13.8,7.8c7-0.9,0.1-4.2-1.4-8.3
			c-2.3-6.3-3.2-11.5-1.2-11.7s14.8,8.1,17.8,11c4.4,4.4,10.9,13.3,10.9,13.3"/>
		<line class="st16" x1="210.1" y1="130" x2="210.1" y2="164.1"/>
		<line class="st16" x1="212" y1="129.8" x2="212" y2="164"/>
		<ellipse class="st17" cx="68.1" cy="191.2" rx="5" ry="10.5"/>
		<path class="st13" d="M57.2,212.6c-4.8-10.8-4-17.4-4.1-22.8c-0.2-11.1,0.9-16,3.9-18.8"/>
		<path class="st1" d="M63.1,169.9c5,2.3,3.1,2,10.8,3.5c6.3,1.2,9.8-1.7,9.8-1.7"/>
		<path class="st1" d="M66.4,210.6c10.2,13.5,15.1,30.5,50.4,52.8c32,20.3,65.6,17.9,73.2,17.9"/>
		<path class="st18" d="M238.7,188.9L282,194c0.9,0.3,1.9,0.2,2.8-0.2l23.8-5.3c2.5-1.2,5.3,0.4,5.7,3.1l2.5,19
			c0.2,1.3-0.3,2.5-1.2,3.4l-16,15.8c-0.6,0.6-1,1.3-1.1,2.1l-4.8,23.6c-0.4,1.8-1.9,3.1-3.8,3.2l-22.1,0.8
			c-1.7,0.1-3.2-0.9-3.9-2.5l-3.4-27.7c-0.3-0.7-0.7-1.2-1.3-1.7l-25.8-11.8c-1.1-0.8-1.7-2.2-1.5-3.6l1.8-19.8
			C233.9,190,236.3,188.3,238.7,188.9z"/>
		
			<ellipse transform="matrix(0.7071 -0.7071 0.7071 0.7071 -69.2592 261.9113)" class="st19" cx="281.5" cy="214.6" rx="26.8" ry="26.8"/>
		<circle class="st18" cx="282.1" cy="214" r="19.9"/>
		<line class="st9" x1="223.4" y1="323.1" x2="222.3" y2="313.9"/>
		<line class="st9" x1="244.5" y1="316.1" x2="244.5" y2="324.6"/>
		<g>
			<path class="st4" d="M198.5,58.1c-4,3.5,4,15.9,9,21.6s22.6,15.6,24.7,15.8c2,0.2,3.1,0.1,6.5-3.4s-6.7-14.9-16-24.1
				C216.8,62.2,201.8,55.1,198.5,58.1z"/>
			<polyline class="st5" points="224.9,88.3 217.8,83.3 221.4,82.5 218.8,78.1 224,80.4 223.3,74.8 228.9,80.4 232.3,84.1 			"/>
			<path class="st20" d="M233.6,78.5c-2.3,6-6.9,10.6-12.6,13.3c5.2,3.5,10.1,6.2,11.1,6.3c2.1,0.1,3.2-0.1,6.8-4.3
				C241.1,91.1,238.2,85.1,233.6,78.5z"/>
		</g>
		<g>
			<path d="M258.1,333.1c2,0.3,3.9,0.8,5.8,1.4s3.7,1.4,5.5,2.4c1.8,0.9,3.4,2,5,3.3c1.6,1.2,3.1,2.6,4.4,4c1.4,1.5,2.6,3.1,3.7,4.7
				c1.1,1.7,2.1,3.4,2.8,5.3c1.6,3.7,2.6,7.6,2.8,11.5c-0.3-1.9-0.8-3.9-1.4-5.7c-0.6-1.9-1.3-3.7-2.1-5.5c-1.7-3.5-3.8-6.8-6.5-9.6
				c-2.6-2.9-5.7-5.3-9.1-7.3C265.6,335.6,261.9,334.1,258.1,333.1z"/>
		</g>
		<path class="st9" d="M85.7,174.3c1.5,5.4,2.5,9,1.1,17.5c-1.5,9.3-3.5,11.9-6.8,17.1"/>
		<path class="st6" d="M245.5,398.9c-4,1.1-18.5-4.6-18.9-6.3c-0.4-1.8,14.3-4.4,18.9-2.7S249.8,397.8,245.5,398.9z"/>
		<line class="st14" x1="309.5" y1="351.4" x2="290.6" y2="351.4"/>
		<line class="st14" x1="312.7" y1="360.4" x2="292.8" y2="360.4"/>
		<line class="st14" x1="302.2" y1="343.4" x2="283.3" y2="343.4"/>
		<line class="st14" x1="294.7" y1="337.4" x2="275.8" y2="337.4"/>
		<line class="st14" x1="288.7" y1="332.4" x2="269.8" y2="332.4"/>
		<ellipse transform="matrix(0.992 -0.126 0.126 0.992 -20.7507 55.1021)" class="st21" cx="425.2" cy="191.6" rx="4.7" ry="10.1"/>
		<path class="st1" d="M406.2,174.9c1.7,1.3,4.8,1,7,0.9c4.2-0.1,6-1.8,7-4.3"/>
		<path class="st13" d="M429.2,172.8c2.6,1.4,5.9,0.7,10.2,12.3c5.8,15.5,1,24,0,25.6"/>
		<path class="st8" d="M281.3,108.4c-1.2-5.1,1.5-10.2,6.8-12.9c8.1-4,17.2,3.4,16.1,8.8"/>
	</g>
	<g id="Layer_4">
		<path class="st22" d="M255.8,83.2c-3.3,1-15.5,10.4-20.2,29.8c-5.4,22,8.9,25,8.9,25L190,124.6c0,0-3,0.7-3.5-1.8
			c-0.5-2.4,11.1-20.5,17.7-24.8c6.6-4.3,13.7-8.1,13.7-8.1l5,0.9l4.5-3.3c0,0,2.7,1.8,4.4,2.9s7.1,3.3,7.1,3.3l0.5-4.5l-1.4-3.9
			c0,0,5.5-2,13.8-2.8C263.3,81.4,259.1,82.3,255.8,83.2z"/>
		<path class="st22" d="M165.4,164c-6.5-2.8-7.3-1.5-7.3-1.5l-4.4,2.4c0,0,19,1,24.4,25c0.8,3.6,1.3,6.9,1.6,9.8
			c-9.8,1.4-26.5,3.4-38.3,3c-17.7-0.6-56.7-8.1-56.7-8.1l-9.7,0.5c0,0-1.4,8.8-5.4,9.4c-4.8,0.8-7.5-2.4-7.9-8.4
			c-0.1-1-2.5-0.1-4.1-1.2c-5.7-3.9-4.6-4.2-4.6-4.2s-6,0.7-12.5,0c-3-0.3-8.9-5.3-8.9-5.3l-8.3,2.1c0,0,8.6,5.9,15.1,6.7
			c7.2,0.9,14.7,0.7,14.7,0.7s2,6.8-5.9,9.7c-1.6,0.6-13,2-13.7,4.6c-0.8,3.2,10.7,2.6,13.3,2.4c12.4-0.9,35.7-7.1,35.7-7.1v2
			c0,0,27.4,9.6,37.1,11.9c8.9,2.1,41.9,6.5,53,6.5c-2.4,2.2-4.5,2.8-4.5,2.8l7-0.2c0,0,1.6-1.2,3.7-3.7c2.5-1.1,3-3.1,4.4-6.6
			c2.4-4.6,4.5-10.8,4.7-18.7C188.6,174.1,172.2,166.9,165.4,164z"/>
		<path class="st22" d="M251.9,295.6c0,0-3.7-0.9-5.8-4.7c-3.2-5.8-5.3-15.5-5.4-16.8c-0.3-2.3-30.9-28.4-36-47.9
			c-4.9-18.9,12.9-60.5,12.9-60.5l1.7-27c0.1-0.9-0.6-1.8-1.5-2c-3.1-0.7-10.2-2.2-15-3.2c-6.4-1.4-3.3-5.8-3.3-5.8s0,0-10.5-3
			c-9.4-2.7-1.4-7.9-1.4-7.9l-10.5,1.5c0,0,4.7,32.6-13.2,33.5c-5.2,0.3-7.2,6.1-5.2,9.1c2,3.1,5.8,2.1,5.8,2.1s40.3,10.1,21,54.2
			c-4.9,11.3-29.5,12.4-22.4,13.9c13.2,2.8,13.2,14.5,22.4,32.6s8.7,21.8,8.7,21.8l27.7,7.3L251.9,295.6z"/>
		<path class="st23" d="M261,303.6l-30.7-1.8l-26.8-4.2v-7.8l26.9,5l39.4,1.5c0,0-4.8,2.3-6.9,4.1C260.9,302.1,261,303.6,261,303.6z
			"/>
		<path class="st22" d="M260,314.6c0,0.8-0.5,1.5-1.2,1.5c-6.7-0.3-38.6-1.6-28.4-0.3c10.7,1.3-21-5.1-24.7-5.8
			c-0.2,0-0.4-0.2-0.6-0.4c-0.8-0.9-3.2-3.9-3.9-6.7c-1.2-5,1.6-5.6,2.3-5.7c0.1,0,0.2,0,0.3,0l26.1,4.4c0.2,0,0.3,0.2,0.5,0.2
			c11.4,1.1,7.5,3.3,14.2,4.4c6.4,1.1,11.2,1.5,14.4,1.4c0.7,0,1.2,0.7,1.2,1.5v5.5H260z"/>
		<path class="st22" d="M321.2,198.9c-0.1-0.6,0.6-1.1,1.1-0.7c3.2,2.6,11.4,8,23.2,8.9c27.4,2.1,65.9-11.6,65.9-11.6l5.6-1.2
			c0.3-0.1,0.7,0.1,0.8,0.5c0.7,2.3,3.3,10.5,8.2,10.5c6.6,0,7.5-8.5,7.6-10.7c0-0.3,1.1-3.4,1.4-3.5c1.7-0.5,6.6-1.1,11.6-1.8
			c5.1-0.7,11.9-3.9,14.8-5.7c0.4-0.2,4.4-0.9,4.5-0.4c0.3,1.8,2.7,1.1-2.7,4.4c-5.1,3.1-13.1,5.4-20.1,6.5c-0.6,0.1,0.4,4.1,1,4.3
			c5.1,1.6,14.2,4.8,11.9,6.2c-2.9,1.7-2.3,1.2-9.3,2.9c-10,2.3-32.1-1.3-34.7-1.5c0,0-2.9,0.6-3,0.7c-2.5,1.3-29.9,14.1-48.8,17
			c-12.1,1.9-33.7-1.3-37.4-2c-0.3-0.1-0.6-0.4-0.6-0.7c0.2-2.1,0.7-4.9,0.9-8.9C323.3,208.7,321.9,202.2,321.2,198.9z"/>
		<path class="st22" d="M266.4,162.8c-7.3-3.8-4.3-18.4-4.3-18.4s41.5-5,50.6-5c9.1,0.1,32.8,1.2,32.8,1.2s-23,3.9-27.6,5.3
			c-4.6,1.4-14,15.4-17,16.1C297.8,162.6,266.4,162.8,266.4,162.8z"/>
		<path class="st22" d="M289.6,255.6c-3,0-19.8,2.1-22.2,0c-1.4-1.2-2.1-7-2.4-11.8c15.4,6,32.4-6.4,32.4-6.4s-18.8,13.4-34.7-4.6
			c-20.9-23.6,5.2-42.4,5.2-42.4s-23.8,8.4-21.1,28.4c-5-1.1-10.6-3.2-12.2-6c-1.3-4.6,1.8-22.9,3.5-24s-3-2.2-6.2,1.6
			s-4.9,23.6-3.2,25.7c1.2,1.5,12.9,7.1,20.3,10.5c0.6,1.3,1.3,2.7,2.1,4.1c2.7,4.7,5.7,8,8.9,10.3l1.6,15.5c0,0-0.4,4.2,3.1,4.8
			s23.8,1,26.5-1s3-7.2,3-7.2S292.5,255.6,289.6,255.6z"/>
		<polygon class="st22" points="222.8,323.1 222.4,314.5 240.9,316.5 240.9,324.6 		"/>
		<polygon class="st22" points="274.3,315.6 275.8,324.8 288.1,325.5 288.1,315.4 		"/>
		<path class="st22" d="M226.2,323.1h-0.1c-0.9-0.2-14.1-4.6-5.6,22.1c2.8,8.9,14.8,40.2,16.3,43.9c0.1,0.2,0.3,0.4,0.5,0.4
			l10.3,0.5c0.5,0-0.2-0.5-0.5-0.9c-1.8-2.9-5.8-12.3-8.2-30.8c-1.7-13.1-0.6-20.7,0.7-24.7c0.8-2.4-0.4-5-2.8-6L226.2,323.1z"/>
		<path class="st24" d="M226.6,392.6c0,0,6.7,1.2,12.3,1.9s9.2-0.3,9.2-0.3v4.9l-6.4,1.5L226.6,392.6z"/>
		<path class="st24" d="M249.7,396.6c0,0-0.6,0.7,0.9,4.7s6.4,2.9,6.4,2.9l-9.6,1.8l-7.1-1.6l-1.4-3.8L249.7,396.6z"/>
		<path class="st22" d="M251.7,451.6c-20.1-4-37.4-23.8-39.1-48c-1.2-17.1,2.3-32.6,4.3-39.4l8.6,20c-1.2,5.6-1.7,14.5,2.4,26.4
			c8.3,23.6,30.2,16,30.2,16s-6.3-2-10-8.5c-1.6-2.7-2.4-5.4-2.9-7.6c1,0.4,2.2,0.6,3.6,0.6c9.3,0,11.2-10.6,11.2-10.6
			s-3.1,3.6-7.7,5.3s-13.4-5.3-13.4-5.3l-12.3-7.9l7.2-3.6l-3.6-8.5l-12.6-33.1l-5,6.8c-5,6.8-9.3,37.6-3.5,62.1s30,39.3,47.3,40.8
			s38.3-7.8,38.3-7.8S277.2,456.6,251.7,451.6z"/>
		<path class="st24" d="M266,328.5l1.1-3.9l7.3-2.8l1.4,3.1l12.3,0.7l-2.8,6.9c0,0-2.6-2.5-10.9-3.3C266,328.5,266,328.5,266,328.5z
			"/>
	</g>
	<g id="Layer_6">
		<path class="st25" d="M315.3,176.7l2,7.4c0,0,7.1,4.9,28,11.1c28.8,8.4,66.1-4.1,66.1-4.1l-2.1-5.6c0,0-33.7,7.5-50.5,4.5
			S315.3,176.7,315.3,176.7z"/>
		<path class="st25" d="M363.1,112.7c0,0-25.7-11.7-46.2-18.5c-32.4-10.7-53-3.6-50.6-7.5c4-6.4,41-2.7,78.5,16.7
			C362.5,112.5,363.1,112.7,363.1,112.7z"/>
		<path class="st25" d="M91.8,179.6v6.5c0,0,23.6,2.1,39.6,1.4s24.9-4,24.9-4s0-2.8-2.4-7.3c-1.4-2.5-4.9-4.3-4.9-4.3s-7.9,4-24.5,6
			C103,180.6,91.8,179.6,91.8,179.6z"/>
		<path class="st25" d="M302.2,192.2l7.3-2.1c1.2-0.3,2.3,0.5,2.6,1.7l1.3,13l-2.8-12.1c-0.2-0.4-0.6-0.7-1-0.9L302.2,192.2z"/>
		<path class="st25" d="M256.9,359.1c-1.8-1.7,7,2.6,11.2,14c6.1,16.3,0.8,37.8,0.8,37.8s2.9-15.6-2.3-34.5
			C264,366.6,256.9,359.1,256.9,359.1z"/>
		<ellipse transform="matrix(0.5699 -0.8217 0.8217 0.5699 36.0036 203.1552)" class="st26" cx="212.1" cy="67.2" rx="2.9" ry="6"/>
	</g>
	<path class="st0" d="M284.1,214.5c-0.1,0.1-0.1,0.2-0.2,0.3c-0.9,1.7-1.7,3.4-2.6,5.1c-0.8,1.6-1.6,3.2-2.4,4.7
		c0,0-0.1,0.1-0.1,0.1c-1.4,0.2-2.8,0.3-4.2,0.5c0,0,0,0-0.1,0c0,0,0-0.1,0-0.1c0.8-1.6,1.6-3.3,2.4-4.9c0.7-1.4,1.4-2.9,2.1-4.3
		c0.8-1.6,1.6-3.2,2.3-4.8c0.1-0.2,0.2-0.5,0.3-0.7c0-0.1,0-0.1,0-0.2c-0.4-0.8-0.7-1.6-1.1-2.4c-0.2-0.3-0.3-0.7-0.5-1
		c0-0.1-0.1-0.1-0.2-0.1c-0.9,0.1-1.8,0.2-2.6,0.3c-0.2,0-0.2,0-0.2-0.1c-0.1-1.1-0.3-2.2-0.4-3.2c0-0.1,0-0.2,0.1-0.2
		c1.8-0.2,3.5-0.4,5.3-0.7c0.1,0,0.2,0,0.2,0.1c1.2,2.2,2.4,4.5,3.7,6.7c1.4,2.6,2.8,5.2,4.3,7.8c0.4,0.8,0.9,1.6,1.3,2.4
		c0.1,0.1,0.1,0.1,0.2,0.1c0.9-0.4,1.8-0.8,2.7-1.2c0.1-0.1,0.2,0,0.2,0.1c0.4,1,0.9,1.9,1.3,2.9c0,0,0,0.1,0,0.1
		c-0.1,0-0.1,0.1-0.2,0.1c-2,0.9-4,1.9-6.1,2.8c-0.1,0-0.1,0-0.2-0.1c-0.8-1.5-1.7-3.1-2.5-4.6c-0.8-1.5-1.7-3-2.5-4.5
		c-0.1-0.2-0.2-0.5-0.4-0.7C284.2,214.6,284.2,214.5,284.1,214.5L284.1,214.5z"/>
	<g id="Layer_5">
		<path class="st27" d="M282.3,195.9c-8.3,0-15.3,5.7-17.3,13.5c3-2.3,6.8-3.7,10.9-3.7c9.9,0,17.9,8,17.9,17.9c0,1.5-0.2,3-0.6,4.5
			c4.3-3.3,7-8.4,7-14.2C300.2,203.9,292.2,195.9,282.3,195.9z M292,202.8c-0.8,1.2-3.2,1-5.3-0.5c-2.2-1.4-3.3-3.5-2.6-4.7
			c0.8-1.2,3.2-1,5.3,0.5C291.6,199.5,292.8,201.6,292,202.8z"/>
	</g>
</g>
<g id="Layer_4_00000051384216269591133230000005869360535652478362_">
	<path class="st22" d="M254.8,81.2c-3.3,1-15.5,10.4-20.2,29.8c-5.4,22,8.9,25,8.9,25L189,122.6c0,0-3,0.7-3.5-1.8
		c-0.5-2.4,11.1-20.5,17.7-24.8c6.6-4.3,13.7-8.1,13.7-8.1l5,0.9l4.5-3.3c0,0,2.7,1.8,4.4,2.9s7.1,3.3,7.1,3.3l0.5-4.5l-1.4-3.9
		c0,0,5.5-2,13.8-2.8C262.3,79.4,258.1,80.3,254.8,81.2z"/>
	<path class="st22" d="M164.4,162c-6.5-2.8-7.3-1.5-7.3-1.5l-4.4,2.4c0,0,19,1,24.4,25c0.8,3.6,1.3,6.9,1.6,9.8
		c-9.8,1.4-26.5,3.4-38.3,3c-17.7-0.6-56.7-8.1-56.7-8.1l-9.7,0.5c0,0-1.4,8.8-5.4,9.4c-4.8,0.8-7.5-2.4-7.9-8.4
		c-0.1-1-2.5-0.1-4.1-1.2c-5.7-3.9-4.6-4.2-4.6-4.2s-6,0.7-12.5,0c-3-0.3-8.9-5.3-8.9-5.3l-8.3,2.1c0,0,8.6,5.9,15.1,6.7
		c7.2,0.9,14.7,0.7,14.7,0.7s2,6.8-5.9,9.7c-1.6,0.6-13,2-13.7,4.6c-0.8,3.2,10.7,2.6,13.3,2.4c12.4-0.9,35.7-7.1,35.7-7.1v2
		c0,0,27.4,9.6,37.1,11.9c8.9,2.1,41.9,6.5,53,6.5c-2.4,2.2-4.5,2.8-4.5,2.8l7-0.2c0,0,1.6-1.2,3.7-3.7c2.5-1.1,3-3.1,4.4-6.6
		c2.4-4.6,4.5-10.8,4.7-18.7C187.6,172.1,171.2,164.9,164.4,162z"/>
	<path class="st22" d="M250.9,293.6c0,0-3.7-0.9-5.8-4.7c-3.2-5.8-5.3-15.5-5.4-16.8c-0.3-2.3-30.9-28.4-36-47.9
		c-4.9-18.9,12.9-60.5,12.9-60.5l1.7-27c0.1-0.9-0.6-1.8-1.5-2c-3.1-0.7-10.2-2.2-15-3.2c-6.4-1.4-3.3-5.8-3.3-5.8s0,0-10.5-3
		c-9.4-2.7-1.4-7.9-1.4-7.9l-10.5,1.5c0,0,4.7,32.6-13.2,33.5c-5.2,0.3-7.2,6.1-5.2,9.1c2,3.1,5.8,2.1,5.8,2.1s40.3,10.1,21,54.2
		c-4.9,11.3-29.5,12.4-22.4,13.9c13.2,2.8,13.2,14.5,22.4,32.6s8.7,21.8,8.7,21.8l27.7,7.3L250.9,293.6z"/>
	<path class="st23" d="M260,301.6l-30.7-1.8l-26.8-4.2v-7.8l26.9,5l39.4,1.5c0,0-4.8,2.3-6.9,4.1C259.9,300.1,260,301.6,260,301.6z"
		/>
	<path class="st22" d="M259,312.6c0,0.8-0.5,1.5-1.2,1.5c-6.7-0.3-38.6-1.6-28.4-0.3c10.7,1.3-21-5.1-24.7-5.8
		c-0.2,0-0.4-0.2-0.6-0.4c-0.8-0.9-3.2-3.9-3.9-6.7c-1.2-5,1.6-5.6,2.3-5.7c0.1,0,0.2,0,0.3,0l26.1,4.4c0.2,0,0.3,0.2,0.5,0.2
		c11.4,1.1,7.5,3.3,14.2,4.4c6.4,1.1,11.2,1.5,14.4,1.4c0.7,0,1.2,0.7,1.2,1.5v5.5H259z"/>
	<path class="st22" d="M320.2,196.9c-0.1-0.6,0.6-1.1,1.1-0.7c3.2,2.6,11.4,8,23.2,8.9c27.4,2.1,65.9-11.6,65.9-11.6l5.6-1.2
		c0.3-0.1,0.7,0.1,0.8,0.5c0.7,2.3,3.3,10.5,8.2,10.5c6.6,0,7.5-8.5,7.6-10.7c0-0.3,1.1-3.4,1.4-3.5c1.7-0.5,6.6-1.1,11.6-1.8
		c5.1-0.7,11.9-3.9,14.8-5.7c0.4-0.2,4.4-0.9,4.5-0.4c0.3,1.8,2.7,1.1-2.7,4.4c-5.1,3.1-13.1,5.4-20.1,6.5c-0.6,0.1,0.4,4.1,1,4.3
		c5.1,1.6,14.2,4.8,11.9,6.2c-2.9,1.7-2.3,1.2-9.3,2.9c-10,2.3-32.1-1.3-34.7-1.5c0,0-2.9,0.6-3,0.7c-2.5,1.3-29.9,14.1-48.8,17
		c-12.1,1.9-33.7-1.3-37.4-2c-0.3-0.1-0.6-0.4-0.6-0.7c0.2-2.1,0.7-4.9,0.9-8.9C322.3,206.7,320.9,200.2,320.2,196.9z"/>
	<path class="st22" d="M265.4,160.8c-7.3-3.8-4.3-18.4-4.3-18.4s41.5-5,50.6-5c9.1,0.1,32.8,1.2,32.8,1.2s-23,3.9-27.6,5.3
		c-4.6,1.4-14,15.4-17,16.1C296.8,160.6,265.4,160.8,265.4,160.8z"/>
	<path class="st22" d="M288.6,253.6c-3,0-19.8,2.1-22.2,0c-1.4-1.2-2.1-7-2.4-11.8c15.4,6,32.4-6.4,32.4-6.4s-18.8,13.4-34.7-4.6
		c-20.9-23.6,5.2-42.4,5.2-42.4s-23.8,8.4-21.1,28.4c-5-1.1-10.6-3.2-12.2-6c-1.3-4.6,1.8-22.9,3.5-24s-3-2.2-6.2,1.6
		s-4.9,23.6-3.2,25.7c1.2,1.5,12.9,7.1,20.3,10.5c0.6,1.3,1.3,2.7,2.1,4.1c2.7,4.7,5.7,8,8.9,10.3l1.6,15.5c0,0-0.4,4.2,3.1,4.8
		s23.8,1,26.5-1s3-7.2,3-7.2S291.5,253.6,288.6,253.6z"/>
	<polygon class="st22" points="221.8,321.1 221.4,312.5 239.9,314.5 239.9,322.6 	"/>
	<polygon class="st22" points="273.3,313.6 274.8,322.8 287.1,323.5 287.1,313.4 	"/>
	<path class="st22" d="M225.2,321.1h-0.1c-0.9-0.2-14.1-4.6-5.6,22.1c2.8,8.9,14.8,40.2,16.3,43.9c0.1,0.2,0.3,0.4,0.5,0.4l10.3,0.5
		c0.5,0-0.2-0.5-0.5-0.9c-1.8-2.9-5.8-12.3-8.2-30.8c-1.7-13.1-0.6-20.7,0.7-24.7c0.8-2.4-0.4-5-2.8-6L225.2,321.1z"/>
	<path class="st22" d="M225.6,390.6c0,0,6.7,1.2,12.3,1.9s9.2-0.3,9.2-0.3v4.9l-6.4,1.5L225.6,390.6z"/>
	<path class="st22" d="M248.7,394.6c0,0-0.6,0.7,0.9,4.7s6.4,2.9,6.4,2.9l-9.6,1.8l-7.1-1.6l-1.4-3.8L248.7,394.6z"/>
	<path class="st22" d="M250.7,449.6c-20.1-4-37.4-23.8-39.1-48c-1.2-17.1,2.3-32.6,4.3-39.4l8.6,20c-1.2,5.6-1.7,14.5,2.4,26.4
		c8.3,23.6,30.2,16,30.2,16s-6.3-2-10-8.5c-1.6-2.7-2.4-5.4-2.9-7.6c1,0.4,2.2,0.6,3.6,0.6c9.3,0,11.2-10.6,11.2-10.6
		s-3.1,3.6-7.7,5.3s-13.4-5.3-13.4-5.3l-12.3-7.9l7.2-3.6l-3.6-8.5l-12.6-33.1l-5,6.8c-5,6.8-9.3,37.6-3.5,62.1s30,39.3,47.3,40.8
		s38.3-7.8,38.3-7.8S276.2,454.6,250.7,449.6z"/>
	<path class="st22" d="M265,326.5l1.1-3.9l7.3-2.8l1.4,3.1l12.3,0.7l-2.8,6.9c0,0-2.6-2.5-10.9-3.3C265,326.5,265,326.5,265,326.5z"
		/>
</g>
<g id="Layer_6_00000044872707369063952220000001450156441079845034_">
	<path class="st25" d="M314.3,174.7l2,7.4c0,0,7.1,4.9,28,11.1c28.8,8.4,66.1-4.1,66.1-4.1l-2.1-5.6c0,0-33.7,7.5-50.5,4.5
		S314.3,174.7,314.3,174.7z"/>
	<path class="st25" d="M362.1,110.7c0,0-25.7-11.7-46.2-18.5c-32.4-10.7-53-3.6-50.6-7.5c4-6.4,41-2.7,78.5,16.7
		C361.5,110.5,362.1,110.7,362.1,110.7z"/>
	<path class="st25" d="M90.8,177.6v6.5c0,0,23.6,2.1,39.6,1.4s24.9-4,24.9-4s0-2.8-2.4-7.3c-1.4-2.5-4.9-4.3-4.9-4.3s-7.9,4-24.5,6
		C102,178.6,90.8,177.6,90.8,177.6z"/>
	<path class="st25" d="M301.2,190.2l7.3-2.1c1.2-0.3,2.3,0.5,2.6,1.7l1.3,13l-2.8-12.1c-0.2-0.4-0.6-0.7-1-0.9L301.2,190.2z"/>
	<path class="st25" d="M255.9,357.1c-1.8-1.7,7,2.6,11.2,14c6.1,16.3,0.8,37.8,0.8,37.8s2.9-15.6-2.3-34.5
		C263,364.6,255.9,357.1,255.9,357.1z"/>
	<ellipse transform="matrix(0.5699 -0.8217 0.8217 0.5699 37.2149 201.4885)" class="st26" cx="211.1" cy="65.2" rx="2.9" ry="6"/>
</g>
<g id="Layer_5_00000128481493195726920780000011574737872283235504_">
	<path class="st27" d="M281.3,193.9c-8.3,0-15.3,5.7-17.3,13.5c3-2.3,6.8-3.7,10.9-3.7c9.9,0,17.9,8,17.9,17.9c0,1.5-0.2,3-0.6,4.5
		c4.3-3.3,7-8.4,7-14.2C299.2,201.9,291.2,193.9,281.3,193.9z M291,200.8c-0.8,1.2-3.2,1-5.3-0.5c-2.2-1.4-3.3-3.5-2.6-4.7
		c0.8-1.2,3.2-1,5.3,0.5C290.6,197.5,291.8,199.6,291,200.8z"/>
</g>
</svg>
