<?xml version="1.0" encoding="utf-8"?>
<!-- Generator: Adobe Illustrator 27.3.1, SVG Export Plug-In . SVG Version: 6.00 Build 0)  -->
<svg version="1.1" id="Layer_1" xmlns="http://www.w3.org/2000/svg" xmlns:xlink="http://www.w3.org/1999/xlink" x="0px" y="0px"
	 viewBox="0 0 500 500" style="enable-background:new 0 0 500 500;" xml:space="preserve">
<style type="text/css">
	.st0{fill:#FFFFFF;}
	.st1{fill:#433643;}
	.st2{fill:#90B5E0;}
	.st3{fill:#000080;}
	.st4{fill:#C00000;}
	.st5{fill:#A7A9AC;}
	.st6{fill:#EBF1F4;}
	.st7{opacity:0.3;fill:#FFFFFF;enable-background:new    ;}
	.st8{fill:#BF2026;}
	.st9{fill:none;stroke:#FFFFFF;stroke-width:2;stroke-linecap:round;stroke-linejoin:round;stroke-miterlimit:10;}
	.st10{fill:#010101;}
	.st11{opacity:0.4;fill:#1B3E5E;enable-background:new    ;}
	.st12{opacity:0.4;fill:#55285B;enable-background:new    ;}
	.st13{opacity:0.31;fill:#3F5C7E;enable-background:new    ;}
</style>
<g>
	<path class="st0" d="M144.5,268.6c0,0-13.8,3.4-14.7,6.2c-0.9,2.8-3.3,49.4-3,60.9c0.4,11.6-2.2,38,1.6,41.4
		c3.8,3.3,24.5,16.1,24.5,16.1s-15.5,5.6-17,13.3c-2.6,13.1,20.2,41.9,63.3,41.9c48.5,0,72.7-10.2,77.6-18.8
		c4.9-8.7,4.9-8.7,4.9-8.7s51.3-10.3,55.2-14.4c3.9-4.2-0.4-26.9-0.4-26.9l-8.4-78.8l-152.3-37.5L144.5,268.6z"/>
	<path class="st0" d="M230.7,238.2l101.1-82l35.3,29.2c0,0,10.7,6.9,10.3,12.4c-0.4,5.5-84.5,85.9-91.5,84.5
		c-7-1.5-40.5-30.8-40.5-30.8L230.7,238.2z"/>
	<path class="st1" d="M214.8,309.7c9.4-10.9,97.2-17,97.2-17l11,96.9c-4.6,4.4-99.2,22.9-99.2,22.9
		C218.1,405.5,214.8,309.7,214.8,309.7z"/>
	<path class="st2" d="M179.3,107.4c0,0,4.1-7.3,12.1-14.7c8-7.4,23.1-14.2,23.1-14.2s20.5-10.2,41.4-10.4c34-0.4,61.4,21,65.1,36.9
		c3.8,15.8,2.8,13.9,2.8,13.9l-13.3-3.3c0,0,1.3,5.4-3.4,7s-28.3,6.4-28.3,6.4l-3.2,5.5l-1.3,7.1c0,0-7.6,7-18.3,7.4
		c-10.7,0.4-19.6-0.6-19.6-0.6l-11.4-15.6l-17.2-6.4l-12.9,3.1c0,0-6.1-2.7-11.8-8.2S179.3,107.4,179.3,107.4z"/>
	<path class="st2" d="M292.2,175.6c0,0-0.1-13.9,4.6-21.1s14.1-13.1,14.1-13.1l49.1,5.3c0,0,1.6-1.6,3.6,3.4c2,5-3.6,8.3-3.6,8.3
		s8.7-3.7,11,0c2.3,3.7-5.8,12.6-5.8,12.6s1.6-2.5,2.7,3.4c1.1,5.9-4,7.9-4,7.9l-30.4-20.2l-3.2,1.4l-34.1,23.4L292.2,175.6z"/>
	<path class="st2" d="M199.2,215.1c0,0,2.4-6.5,18.2-14.1c15.7-7.6,29-7.6,29-7.6s18.5,15.3,18,25.6c-0.2,4.4-5.5,1.6-5.5,1.6
		s9.4,10.4,6.8,17s-13.8,6.3-13.8,6.3s-4.6,9.4-14.1,7.2c-9.5-2.2-18.5-3.8-26.2-13.9C202.8,226.3,199.2,215.1,199.2,215.1z"/>
	<path class="st2" d="M155,232.7c0,0,13.4,5,26.1,5.3c12.8,0.1,34.5-1,34.5-1l29.7,14.6l36.9,30.8h3.5l34-26.5l28.1-26.3l20,11.3
		c0,0,25.4-2,25.4,7.6c0,6.6-20.4,5.9-20.4,5.9s2.4,3.4-0.5,7.7c-2.9,4.3-21,5-21,5s24,30,27,53.3c2.8,21.9-7.9,52.6-36.1,50.9
		c-28.3-1.8-35.4-7.5-36.5-10.3s44.4,0.7,44.5-12.8s-7.1-28.7-11.5-33.7S327.9,301,327.9,301l-5.2-4c0,0,3.8,11.8-2.6,15.5
		c-4,2.3-12.1-1.3-12.1-1.3s-3.7,7.5-9.7,7.2c-6-0.2-16.2-11.6-16.2-11.6L258,294.5c0,0-39.6,8-68.4-13.9
		C160.8,258.7,155,232.7,155,232.7z"/>
	<path class="st3" d="M236.6,148.3c0,0,11.2,2.3,19.6,0.6c8.4-1.7,18.3-7.4,18.3-7.4l1.3-7.1l1.8-3l33.5,10.2c0,0-12.6,7.5-16,17
		c-3.3,9.3-2.8,17.1-2.8,17.1l4,11.4l-32.5,27.2c0,0-0.7-6.5-4.1-8.9c-3.4-2.3-5.1-4.6-9.2-8.3c-4-3.7-6.8-4.6-6.8-4.6
		s-17.3,3.5-26.2,8.5c-8.9,5-18.2,14.1-18.2,14.1l10,22.2c0,0-21.5,1.8-33.7,0.2c-12.1-1.6-20.4-4.8-20.4-4.8s-9.1-45.5-1.9-74.4
		c1.3-5.3,3.3-10.8,5.5-16.1c7.5-17.7,18.3-33.5,18.3-33.5s3.2,10.4,8.4,14c5.2,3.6,9.7,6.8,9.7,6.8l-24.9,12.1l-6.3,15.3l13.9,43.8
		l13.7,3.3c0,0,19.7-11,29.4-13.7c9.7-2.7,23.3-6.1,23.3-6.1l4.8-0.3l3.2-12.4L236.6,148.3z"/>
	<path class="st4" d="M181.2,100.8c0,0-4.7-6.3-6.1-14.8c-1.2-7-1.1-15.4,3.8-18.5c2.1-1.3,12.4-0.4,18.3,3.1
		c7.2,4.3,12.9,9.1,12.9,9.1L181.2,100.8z"/>
	<path class="st4" d="M135.2,108.9c0,0,2.6-3.8,17-5c8.4-0.7,23.7,5.7,23.7,5.7s-9.4,13.1-12.3,19c-2.9,5.9-7,13.5-7,13.5
		s-12-8.6-15.3-15C135.6,115.5,135.2,108.9,135.2,108.9z"/>
	<path class="st5" d="M170.2,141.5l17.9-8.2l19.9-7l17.2,6.4l26.9,38.7l-3.2,12.4c0,0-25.9,3.3-32.2,6.7
		c-6.3,3.4-25.2,13.3-25.2,13.3l-13.7-3.3l-13.9-43.8L170.2,141.5z"/>
	<path class="st4" d="M149,193.3c0.6-0.2-15.6-1.2-24.9-11.9c-6.7-7.7-14.5-15.9-13.4-19.7c1.6-5.5,11.2-8.2,20.5-11.3
		c8.7-2.9,23.9-1.4,23.9-1.4s-4.2,18.3-5.3,24.4C148.7,180.6,149,193.3,149,193.3z"/>
	<path class="st4" d="M148.2,198.5c0,0-8.2-1.1-18.9,4.3c-9.9,4.9-18.6,12.4-18.6,17.9c0,5.6,9.7,10,18,15.6
		c9.2,6,29.6,5.6,29.6,5.6s-3.3-11.4-5-19.3C151.6,214.5,148.2,198.5,148.2,198.5z"/>
	<path class="st4" d="M161.4,247.7c0,0-2.8-0.8-8.9,3.8c-6.2,4.5-9.8,14.6-9.8,14.6s11.2,7.7,18.8,7.4c7.5-0.3,16.5-3.6,16.5-3.6
		s-9.2-9.8-11.1-13.4C164.8,253,161.4,247.7,161.4,247.7z"/>
	<path class="st4" d="M363.1,280.5l7.3,12.2c0,0,1.4,0,0.6-5.3c-0.5-3.2-0.5-3.2-0.5-3.2s0.6-2.6-3.4-2.6
		C363.1,281.6,363.1,280.5,363.1,280.5z"/>
	<path class="st4" d="M377.3,310c0,0,4.2-1.2,7.3,2.6c3.1,3.8,6.5,8.3,6.5,8.3s0.1,8.5-6.3,12.3c-6.4,3.9-7.6,2.1-7.6,2.1l1.2-14.9
		L377.3,310z"/>
	<path class="st0" d="M227,117.9c-6.5-2.8-11.9-25.1-12.2-31.3c-0.3-6.1,25-11.6,28.3-9.1c3.3,2.6,16.5,29.1,13.1,34
		C252.6,116.3,233.7,120.7,227,117.9z"/>
	<path class="st0" d="M219,83.9c0,0-4.7-5-4.3-13.6c0.4-8.6,4.3-15.3,16.8-18.8c9.7-2.7,16.1,2,19.9,6.3c3.8,4.3,4.4,10.4,4.4,10.4
		h-14.1c0,0-1.2-1.2-2.4-4c-1.5-3.6-4.5-2.7-4.5-2.7l3.1,15.2L219,83.9z"/>
	<path class="st0" d="M242.1,118.7c0,0,2,3.2,5,5.2c3.1,2,6.8,1.3,6.8,1.3l-1.8,5c0,0-6.8,0.2-10.2-2.7c-3.4-2.9-5.5-8.9-5.5-8.9
		L242.1,118.7L242.1,118.7z"/>
	<path class="st1" d="M266.2,134.7h-8c-2,0-3.6-1.6-3.6-3.6v-3.1c0-2,1.6-3.6,3.6-3.6h8c2,0,3.6,1.6,3.6,3.6v3.1
		C269.8,133.1,268.1,134.7,266.2,134.7z"/>
	<ellipse class="st6" cx="203.3" cy="162.6" rx="20.9" ry="19.4"/>
	<path class="st6" d="M349.2,337.5c0,0-9.7-3.3-12.1-1.7c-2.5,1.6,0,3.8,0,3.8s3.3-0.4,6.3,3.4c3.1,3.8,7,5.1,7,5.1L349.2,337.5z"/>
	<path class="st6" d="M360,367.2l11-8.3c0,0,3.1,17.9,0,21.7c-3.1,3.8-20.7,12.8-20.7,10.7s11.7-8.8,12.8-13
		C364.1,374.1,360,367.2,360,367.2z"/>
	<path class="st6" d="M341.6,355.9c0,0-3.3-7.2-9.8-9.6s-16.5-5.9-17.5-3.3s9.9,6,12.9,8.4c3,2.3,3.8,6.7,3.8,6.7L341.6,355.9z"/>
	<path class="st6" d="M330.2,370l12.2,1.1c0,0-6.3,9.9-12.2,11.9c-5.9,2-22.1,1.8-21.6-1.9c0.5-3.7,11.6-0.9,15.4-4
		C327.8,374.1,330.2,370,330.2,370z"/>
	<ellipse transform="matrix(0.5 -0.866 0.866 0.5 38.9822 252.9058)" class="st7" cx="238.5" cy="92.7" rx="2.4" ry="4.7"/>
	<polygon class="st7" points="206.6,127.6 222.7,135.4 248.2,172 247.7,182.2 250.5,171.8 224.4,133.3 	"/>
	<path class="st8" d="M325.7,404.1l-7.3,1.9c-0.6,0.1-1.3-0.2-1.5-0.9l-0.7-2.6c-0.1-0.6,0.2-1.3,0.9-1.5l7.3-1.9
		c0.6-0.1,1.3,0.2,1.5,0.9l0.7,2.6C326.7,403.3,326.3,404,325.7,404.1z"/>
	<polyline class="st9" points="268.9,183.3 258.5,179.2 263.6,168.9 	"/>
	<line class="st9" x1="270.8" y1="164.2" x2="273.8" y2="184.9"/>
	<polyline class="st9" points="275.2,165.8 283.1,171.2 280.5,180.2 	"/>
	<g>
		<path class="st10" d="M394.3,246.6c-1.8-7-10.6-7.1-17.7-7.2c-3.3-0.1-6.5-0.1-8.5-0.8c-4.9-1.7-13.6-7-17.2-9.4
			c13.8-12.9,29-27.7,29.5-31c0.2-1.4-0.4-3.8-6.7-9.6c-2-1.8-4.5-4-7.5-6.3c2.3-1,5-2.9,5-6.6c0-2.4-1-3.8-1.8-4.5
			c-0.4-0.3-0.7-0.6-1.1-0.8c2.7-2.2,6-5.9,4.8-10.3c-0.5-1.8-1.5-3.1-3-4c-1.4-0.8-3.1-0.9-4.5-0.9c0.9-1.6,1.6-3.7,1-5.8
			c-1-3.8-5.2-4.2-9.2-4.5c-1.4-0.1-2.9-0.3-4.3-0.6c-1.5-0.3-5.2-0.6-10.3-1.1c-9.2-0.9-21.7-2.1-31.3-4
			c-11.7-2.2-25.7-6.9-30.9-8.7l0.8-0.9c2.3-0.5,12.9-2.8,21.2-4.6c7.3-1.6,9.9-5.5,10.7-7.7c5.8,1.6,9.6,3.5,9.6,3.6l1.8,1l0.4-2.1
			c0.1-0.9,3.1-20.7-25.4-40.6C285,68.8,269,66.2,257,66c-0.9-2.7-3.3-8.9-7.1-12.2c-4.6-4.1-9.9-6.3-20.2-3.7
			c-9.4,2.4-14.2,7.5-16.1,17.1c-0.6,3.5-0.5,6.6,0.1,9.2c-0.7,0.4-1.7,1.1-2.9,1.8c-1.8-1.6-5.5-4.7-11.5-8.2
			c-9.6-5.6-19.1-4.7-21.5-3.3c-4.1,2.3-5.5,12.1-3.1,22.2c1.8,7.5,4.3,11,5.6,12.4c-1.8,2.1-3.7,4.4-5.6,6.9
			c-2.4-1.1-9.5-3.9-17.8-5c-12.5-1.6-20.3,1.8-21.7,4.7c-2.2,4.5,1.6,16.9,9.4,25.6c5.4,5.9,9.2,8.2,11.2,9.2
			c-0.6,1.7-1.2,3.4-1.8,5.2c-3-0.2-13.3-0.9-23,1.6c-9.9,2.5-20.7,7.2-21.4,10.9c-1.1,5.3,7.7,18.5,19.5,26.4
			c8.4,5.6,15.5,7.2,18.8,7.7c0,0.7,0.1,1.3,0.1,2.1c-4.2,0.7-12.7,2.4-20.3,6.2c-10.8,5.4-18.3,14.9-18.2,18
			c0.1,5.8,12.4,14.1,24.2,18.8c7.5,3,14.3,3.6,18.8,3.6c2.3,0,4-0.1,4.8-0.3c0.4,0.9,0.8,1.7,1.1,2.5c0.1,0.3,0.3,0.6,0.5,1
			c-1.2,0.6-4.5,2.3-8.9,5.7c-6.3,4.8-8.1,11.4-7.8,13.4c0.1,0.3,0.1,0.6,0.2,0.8c-3.3,1.4-10.8,4.9-12.8,8.7
			c-2.1,3.8-3.8,23.2-5.4,42.7l-0.4,4c-0.9,10.5-0.1,49.6,4.3,55.7c2,2.8,12.4,9.2,22.4,15.1c-5.6,2.2-16.5,7.9-16.5,18.4
			c0,16.5,27.6,37.1,67.1,40c4.8,0.4,9.4,0.5,13.8,0.5c42,0,61.1-15.3,64.1-20c2.2-3.4,2.8-6,3-7.5c17.9-4.2,54.1-12.9,56.5-15.1
			c2.1-1.9,0.6-24.5,0.4-31.5c2-2.1,2.8-3.8,3.2-5c0.6,0,1.1,0.1,1.7,0.1c0.4,0,0.7,0,1.1,0c5.8,0,10.8-1.1,15.3-3.3
			c0.8,1.6,1.8,4.7,1.2,7.6c-0.4,2.1-4,5.3-6.8,8c-3.6,3.3-5.8,5.3-4.5,6.7c0.4,0.4,1,0.7,1.9,0.7c0.2,0,0.4,0,0.6,0
			c4.4-0.4,14.6-5.1,18.3-11.5c3.8-6.7,1.7-20,1.2-22.6c3.9-6.3,6-13.9,6.9-21.5c1-0.4,2.7-1.1,4.3-1.6c2.6-0.9,9.6-9.5,8.9-12.8
			c-0.6-2.7-2.8-5.5-6.3-9.7c-2.8-3.3-6.7-3.5-8.5-3.4c-1.4-5.7-3.6-10.9-6-15.8c0.7-3.2,1.5-9-1.4-11c-2.1-1.5-4.8-2-6.7-2.1
			c-3.6-5-7-8.8-9.2-11.2c8.5,0.4,12.1-1.2,16.5-3.5c3.7-2,4.3-6,3.9-8.9c4.5,0.1,14.9-0.4,18.5-4.7
			C394.4,250.2,394.8,248.4,394.3,246.6z M384.6,313.6c3.3,4,5.4,6.5,5.8,8.7c0.4,1.8-5.5,9.8-7.6,10.5c-1.1,0.4-2.4,0.9-3.4,1.3
			c0.6-7,0.2-13.9-0.7-19.7c-0.2-1.1-0.4-2.3-0.6-3.4C379.6,310.8,382.5,311.1,384.6,313.6z M377.4,197.8
			c-0.7,2.5-16.1,18.3-44.3,43.7c-26.7,24.1-45.2,39.2-47.6,39.8l0,0c-3.3,0-22.2-15.3-39.4-30.8c3.6-1.3,6.2-3.1,7.2-3.9
			c0.1,0,0.2,0,0.4,0l21.5,19.2c0.6,0.5,1.3,0.8,1.9,0.8c0.7,0,1.3-0.2,1.9-0.7l19-16.7c0.6-0.6,1-1.3,1-2.2c0-0.9-0.4-1.6-1-2.2
			l-3.3-3l-0.4-0.4l-0.1,0.1l-7.9-7l-2.8-3.1l-0.4,0.3l-9.2-8.1c-1.1-0.9-2.6-1-3.8-0.1l-5.2,4.1c-1-1.7-2.2-3.3-3.3-4.5
			c1.3,0,2.6-0.2,3.4-0.9c0.7-0.6,1.5-1.7,1.1-3.7c-0.2-1.3-0.5-2.6-0.9-3.7c3.2-2.6,37.2-30.7,41.8-33.8c1.1-0.7,2.7-1.8,4.6-3.3
			c6-4.3,18.3-12.9,21.1-13.7c1.8,0.3,12,6.2,24.2,15.1C372.2,190.2,377.5,196.4,377.4,197.8z M250.5,171.8l-2.9,10.4
			c-3.8,0.1-15.8,1.1-32.5,8c-12.5,5.2-23.6,10.9-26.1,12.2l-10.7-2.4l-13.1-41.2l5.3-14.9c1.6-1.1,8.5-5.8,14.8-8.7
			c6.7-3,19.8-6.7,22.4-7.4l16.6,5.5L250.5,171.8z M239.2,149.6c2.4,0.4,5.8,0.9,9.7,0.9c3.2,0,6.7-0.3,10.2-1.1
			c7.2-1.6,11.4-3.9,13.7-5.4c0.1,1.6,0.3,3.3,0.7,4.8c1.4,5.3,1.5,9.2,1.5,9.2v0.9l0.9,0.4c0.1,0,7,3.6,13,15.5
			c3.8,7.7,5.2,10.9,5.7,12.3c-10.7,8.7-25.8,21-30,24.6c-1.9-4.9-5.1-8.5-9.9-11.4c-4.7-2.9-7.7-12.1-8.5-15
			c1.8-0.1,2.8-0.1,2.8-0.1h1.2l3.9-14L239.2,149.6z M216.4,192.9c11.5-4.8,20.9-6.6,26.5-7.3c0.3,1,1.1,3.7,2.4,6.7
			c-4,0-13.1,0.9-28,7.6c-10.7,4.8-15.8,9.9-18,12.9c-1.9-5-3.3-9.1-3.8-10.4C200.4,200.1,208.1,196.4,216.4,192.9z M218.2,201.8
			c16-7.2,25.1-7.5,28.1-7.4c1.6,3.3,3.8,6.7,6.6,8.4c6,3.8,9,8.5,10.4,16.2c0.1,0.4,0.1,0.7-0.1,0.9c-0.6,0.6-3.4,0.1-5.5-0.6
			l-7.5-2.8l6,5.4c3.1,2.8,10.6,11.2,7.3,15.9c-4.2,6-10.5,5.9-10.7,5.9h-0.6l-0.4,0.4c-0.1,0.1-9.7,7.7-19.6,4.3
			c-12.9-4.5-21.4-10.7-25.7-19c-2.1-4-4.3-9.3-6.3-14.1C201.6,212.9,206.3,207.2,218.2,201.8z M266,239.4c0.6-0.9,1-1.9,1.2-2.9
			l9.9-8.6l5.1,4.5l-21.7,18.5l-4.9-4.4l0.2-0.2C258.7,245.6,262.9,243.9,266,239.4z M265.5,228.6l5.3-4.3c0.7-0.6,1.8-0.6,2.4,0.1
			l3.2,2.8l-9.1,7.8C267.3,232.9,266.6,230.7,265.5,228.6z M272.1,261.3l-5.3-4.9l22.5-17.8l4.1,3.6L272.1,261.3z M294.1,242.8
			l3.1,2.7c0.4,0.4,0.6,0.9,0.6,1.4c0,0.6-0.2,1.1-0.6,1.4l-19,16.7c-0.7,0.6-1.8,0.6-2.6,0l-3.1-2.8L294.1,242.8z M265.6,256
			l-4.6-4.1l22.1-18.8l2.4,2.1l2.6,2.9L265.6,256z M312.7,142.6c6.4,1.1,13.7,2,20.5,2.7c5.8,2.2,14.1,6.6,14.8,9.5
			c-0.7,1.4-9.3,2-18,1.1c-0.9-0.1-1.6,0.5-1.6,1.3c-0.1,0.9,0.5,1.6,1.3,1.6c1.7,0.1,5,0.4,8.7,0.4c4.9,0,10.2-0.5,11.9-2.6
			c0.7-0.8,0.9-1.8,0.7-2.8c-0.7-2.9-4.5-5.7-8.5-7.9c4.8,0.5,8.6,0.9,10,1.1c1.6,0.3,3.1,0.4,4.6,0.6c3.8,0.4,6.1,0.6,6.5,2.3
			c0.6,2.3-1.7,5.2-2.6,6.1l-5.1,4.8l6.7-2.3c1.1-0.4,4.3-1.1,6.2-0.1c0.8,0.4,1.3,1.1,1.5,2.1c1.2,4.5-6.3,8.9-6.4,8.9l-6.1,3.4
			l7-0.6c0.4,0,1.8,0,2.6,0.8c0.6,0.5,0.8,1.2,0.8,2.3c0,2.8-3.2,3.9-4.8,4.3c-12.1-9.2-27.9-19.7-31-19
			c-2.8,0.6-12.2,7.1-22.3,14.2c-1.9,1.3-3.6,2.5-4.6,3.2c-1.2,0.9-4.4,3.3-8.5,6.6c-0.6-1.7-1.8-4.3-3.9-8.6
			c-0.4-2.6-1-10.2,3.6-20.2C301,147,309.4,143.6,312.7,142.6z M308.8,141.9c-4.3,1.9-10.4,5.8-14,13.7c-3.1,6.8-4,12.5-4.1,16.5
			c-5.1-9.5-10.7-13.6-12.7-14.9c-0.1-1.6-0.4-4.9-1.6-9.1c-1.2-4.5-0.3-10.9-0.1-12.6l2.1-2.3C282.3,134.4,296.3,139.3,308.8,141.9
			z M244,53.5c1.3,0.7,2.6,1.6,3.8,2.6c2.8,2.6,4.9,7.2,5.9,10c-4.7,0.1-8.7,0.6-11.5,1c-0.4-0.9-1.1-2.6-2.3-4.3
			c-1.1-1.6-2.9-2.8-3.7-3.3c0.1-0.4,0.1-0.9,0.1-1.3C237.3,53.8,241.9,53.5,244,53.5z M227.4,118.1c-3.8-1.1-12.1-24.9-10.7-30.6
			c0.4-1.9,2.6-4,6-5.8c4.6-2.5,10.8-3.9,15.5-3.9c1.8,0,3.3,0.2,4.4,0.6c4,1.6,12.9,23.9,11.6,31.6c-0.2,1.3-1.3,2.5-3.1,3.7
			C244.5,117.7,231,119.2,227.4,118.1z M247.1,125c2.6,1.2,4.8,1.8,6.1,2c-0.4,0.8-0.6,1.6-0.6,2.5c-1.9-0.2-5.2-0.9-8-2.5
			c-3.4-1.9-4.8-4.8-5.4-6.3c0.9-0.1,1.8-0.4,2.8-0.5C242.6,121.6,244,123.5,247.1,125z M237.1,68.2c-0.4-1.6-0.6-3.3-0.8-5
			c0.4,0.4,0.9,0.8,1.1,1.2c0.9,1.3,1.4,2.4,1.7,3.2c-1.1,0.2-1.6,0.4-1.7,0.4C237.4,68.2,237.2,68.2,237.1,68.2z M216.6,67.9
			c1.6-8.5,5.5-12.6,13.9-14.8c3.6-0.9,6.5-1.2,8.9-0.9c-2.3,0.9-4.2,2.6-4.8,5.7c-1,5,0.9,12.7,2.2,16.9
			c-4.9,0.2-10.7,1.8-15.4,4.3c-1.1,0.6-2,1.1-2.8,1.8C217.1,78.4,215.4,73.9,216.6,67.9z M176.7,88.4c-2.4-9.9-0.9-18.3,2.1-19.9
			c1.4-0.8,10.3-2.1,19.5,3.3c5.3,3.1,8.8,6,10.7,7.5c-4.5,2.8-10.8,6.7-15.8,10.1c-2.8,1.9-6.9,5.5-11.4,10.4
			C180.6,98.5,178.3,95.2,176.7,88.4z M179.3,107.4c6.8-8.5,12.9-13.7,15.5-15.5c6.8-4.5,15.8-10,19.7-12.4c0.5,1.3,1.1,2.5,1.5,3.3
			c-1.2,1.3-2,2.6-2.3,4c-1.4,6.2,6.6,32.4,12.9,34.2c1,0.3,2.6,0.4,4.4,0.4c1.8,0,3.9-0.1,6.1-0.4c0.6,1.7,2.1,5.3,6.5,7.7
			c3.4,1.9,7.3,2.6,9.3,2.8c0.8,2.6,3.1,4.4,5.9,4.4h5.5c3.4,0,6.2-2.8,6.2-6.2c0-3.4-2.8-6.2-6.2-6.2h-5.5c-1.6,0-3,0.6-4,1.6
			c-0.9-0.1-3.3-0.4-6.7-1.9c-2.3-1.1-3.4-2.4-4-3.4c3.3-0.9,6.3-2,8.7-3.5c2.6-1.6,4.1-3.6,4.5-5.8c1.3-8.1-7.3-32.5-13.6-34.9
			c-1.3-0.5-3-0.8-4.8-0.9c-0.3-1-0.6-2.3-1.1-3.7c0.1,0,0.4,0,0.5-0.1c0.4-0.1,32.5-8.4,59.7,10.6c21.5,15.1,24.1,30.1,24.2,35.6
			c-4.3-1.9-14.6-5.6-26.8-4.5c-15.4,1.3-23.4,2.7-23.5,2.7c-0.9,0.1-1.3,0.9-1.2,1.8c0.1,0.9,0.9,1.4,1.8,1.2c0.1,0,8-1.3,23.2-2.7
			c5.4-0.5,10.4,0.1,14.7,1c-0.7,1.6-2.8,4.3-8.4,5.5c-9.4,2-21.5,4.7-21.7,4.8l-0.5,0.1l-6.1,7.1l-0.1,0.4c-0.1,0.2-0.6,3.3-0.7,7
			c-1.5,1.2-5.7,4-14.1,6c-8.8,2.1-17.8,0.6-21.1-0.1l-11.2-16.5l-18.4-6.3l-0.4,0.1c-0.4,0.1-6.3,1.7-12.5,3.7
			c-2-1.1-7.2-4.3-10.8-8.2C179.5,115.2,179.2,109.4,179.3,107.4z M254.6,129.7c0-2.3,1.8-4.1,4.1-4.1h5.5c2.3,0,4.1,1.8,4.1,4.1
			c0,2.3-1.8,4.1-4.1,4.1h-5.5C256.4,133.9,254.6,132,254.6,129.7z M146.2,132.2c-7.7-8.4-10.8-19.9-9.2-23.3
			c0.6-1.3,6.8-5.2,19.7-3.6c7.5,0.9,14.2,3.5,16.8,4.6c-6.1,8.3-12.2,18.8-16.9,30.9C154.9,139.9,151.3,137.7,146.2,132.2z
			 M148,192.3c-3.3-0.5-9.9-2.1-17.6-7.3c-11.4-7.7-19.4-20.2-18.6-24.3c0.3-1.6,7.5-6.2,19.9-9.3c8.8-2.2,18.5-1.8,21.9-1.6
			c-0.6,1.8-1.1,3.8-1.6,5.7C148.9,167.5,147.8,180.2,148,192.3z M134.7,237.6c-13.6-5.4-22.9-13.1-22.9-17
			c-0.1-1.9,6.6-10.9,17-16.1c7.1-3.6,15.3-5.3,19.5-6c0.7,13,2.9,25.2,6,35.3l-0.1,0.1c0,0,0.1,0,0.1,0.1c0.8,2.4,1.6,4.7,2.4,6.8
			C153.8,241.1,144.7,241.6,134.7,237.6z M157.1,232.7c-6.3-20.4-8.8-49.9-2.2-76.5c4.9-19.7,14.1-35.4,22.4-46.4
			c0.4,3.2,1.7,7.7,5.4,11.7c3.1,3.3,7.2,6,9.7,7.6c-3.1,1-6,2.1-8.2,3.1c-7.6,3.4-15.4,9-15.8,9.3l-0.4,0.3l-6,16.8l14,43.8l13.5,3
			l0.5-0.3c0,0,1-0.6,2.7-1.4c1.2,3.6,6.3,17.8,10.9,26.8c1.1,2.1,2.4,4,3.9,5.8c-4.3,0.4-18.8,1.3-30.3,0.2
			C167.8,235.7,160.5,233.8,157.1,232.7z M157.8,235.1c3.8,1.1,10.6,2.8,19.3,3.6c4,0.4,8.2,0.5,12.4,0.5c10.2,0,19.4-0.9,19.5-0.9
			V238c5.1,5.4,12.4,9.7,22.1,13.1c2.2,0.8,4.4,1.1,6.5,1.1c1.8,0,3.5-0.2,5.1-0.6c9.4,8.5,36.9,32.8,42.9,32.8c0.1,0,0.1,0,0.2,0
			c2.7-0.2,17-12.1,29.6-23.1c1.7,1.5,8.8,7.9,14,11.9c5,3.8,5.9,18.6,2.6,24.4c-0.6,1.1-1.4,1.7-2.3,1.8c-1.8,0.2-4.1-1.8-4.8-2.6
			l-3.8-4.2l1.2,5.5c0,0.1,2.1,10-3.3,12.5c-5.6,2.6-10.9-1.6-11.1-1.8l-2.3-1.9l-0.2,3c0,0.2-0.5,5.9-6.8,6.7
			c-5.5,0.7-12.1-7.3-14.2-10.5l-0.3-0.4l-0.5-0.1c-0.1,0-7.1-2.6-18-9c-6.1-3.6-8.5-3.3-13.3-3c-4.7,0.4-11.8,1-27.7-1.3
			c-39.9-5.6-58.5-38.4-63.1-48.3C160.1,241.3,159,238.4,157.8,235.1z M328.3,349.7c-2.5-2-5.9-3.3-8.6-4.3c-1.8-0.7-4-1.6-4.6-2.2
			c3.2-0.2,18,1.3,23.1,7.5c1.3,1.6,2.1,3.1,2.6,4c-2.3,0.9-4.9,1.4-7.7,1.8C332.8,354.9,331.7,352.4,328.3,349.7z M331.1,356.8
			c-3.6,0.4-7.4,0.6-10.9,0.6l-1-10.1c2.6,1,5.6,2.1,7.7,3.9C329.8,353.6,330.8,355.6,331.1,356.8z M306.2,363.9
			c2.1,2.6,6.5,4.5,13.1,5.9l0.9,8c-3.2,0.9-6.5,0.9-8.9,0.9c-2.6,0-3.8,0-4.4,0.9c-0.3,0.4-0.4,0.9-0.1,1.3
			c0.5,1.4,1.8,2.7,3.8,3.6c1.8,0.8,4.5,1.4,7.6,1.4c1,0,2.1-0.1,3.2-0.2l0.1,3.9c-6.4,2.5-52.6,12.9-97.2,22.3
			c-0.1,0-0.1,0-0.1-0.1c-3.4-13.1-8.3-97.2-6.9-102.6c2.3-2.4,25.6-6.7,47.3-9.7c9.5,5.5,15.9,8.1,17.7,8.8
			c1.5,2.1,8.5,11.4,15.8,11.4c0.4,0,0.7,0,1.1-0.1c5.3-0.7,7.9-4.2,8.9-7.1c1.2,0.7,2.8,1.4,4.8,1.8l3.2,26.8c-0.6,0-1.1,0-1.4,0.1
			c-0.4,0.1-1.1,0.1-1.3,0.7c-0.3,0.6-0.4,1.3-0.1,1.8c0.4,1,1.5,1.7,3,2.3l1.1,11.4c-0.5,0-0.9,0-1.4,0c-7.7,0.1-10.6,0.1-10.9,2.3
			C304.7,360.8,304.8,362.2,306.2,363.9z M325.6,301.3c0.2,0.1,0.4,0.2,0.6,0.3l2.1,2.2l4.1,40.7l-1.3-0.6
			c-4.1-1.5-8.7-2.3-12.1-2.6l-3.2-26.8c1.4-0.1,2.8-0.4,4.4-1.1C325.2,311.1,325.8,305.2,325.6,301.3z M339.6,349.3
			c-1.1-1.3-2.6-2.4-4.2-3.4h0.1l-0.9-8.2c0.9,1.3,2.9,2.3,5,3.4c1.2,0.6,2.5,1.2,3.6,1.9c1.7,1.1,3.5,4.5,4.5,6.5
			c-1.1,1.8-2.9,3.3-5.2,4.4C342.1,352.7,341.1,351.1,339.6,349.3z M344.5,341.3c-1.1-0.7-2.4-1.3-3.7-2c-1.8-0.9-4.7-2.3-4.4-3.1
			c0,0,0.1-0.2,0.7-0.4c2.3-0.6,7.7,0.4,11,2.3c0.6,2.7,1,5.3,0.9,7.7c0,0.4-0.1,0.7-0.1,1.1C347.7,344.8,346.2,342.3,344.5,341.3z
			 M336.3,333.9c-1.1,0.4-1.5,0.9-1.8,1.3l-2.8-27.3c5,6.7,12.4,17.5,15.6,27.6C343.7,333.9,338.9,333.1,336.3,333.9z M151.4,253.5
			c4.3-3.3,7.6-5,8.6-5.5c2.8,5.3,8,13.8,15.9,22.1c-3.5,0.5-13.8,1.9-19.3,1.1c-6.8-1-11.9-4-12.1-6.3
			C144.2,263.9,145.7,258,151.4,253.5z M130.9,375.4c-3.4-4.8-4.8-41.5-3.8-53.7l0.4-4c1-12.3,3.1-37.9,5-41.6
			c1.3-2.6,7.8-5.9,12-7.6c2.5,2.1,6.8,3.9,11.8,4.6c1.3,0.2,2.8,0.3,4.4,0.3c7.2,0,16.3-1.5,16.7-1.6l-0.1-0.4
			c2.2,2.2,4.7,4.4,7.3,6.5c-4,1.6-11.6,5.1-14.8,9.7c-2.9,4.2-1.6,53.1-1.1,68c0.1,3.9,0.9,26.1,2.1,44.2
			C155.3,391.6,133.4,378.9,130.9,375.4z M171.2,403.6c0.7,9.4,1.6,17.3,2.6,19.6c-7.3-3-16.8-8.2-17.3-15.1
			c-0.4-4.5,4.5-7.7,6.7-8.9C166.8,401.3,169.7,402.9,171.2,403.6z M276.7,429.6c-2.9,4.5-25.4,21.7-75.1,18
			c-41.4-3.1-64.4-23.8-64.4-37c0-10.4,13.9-15.4,17-16.4c2.3,1.3,4.6,2.6,6.7,3.8c-2.8,1.7-7,5.2-6.7,10.2
			c0.7,10.2,17.2,16.6,24.1,18.9c10.6,5.7,34.1,10.8,34.4,10.9c0.1,0,0.4,0.1,0.6,0.1c7,0,57.2-11.5,63-12.9
			c0.8-0.1,1.6-0.4,2.6-0.6C278.8,425.7,278.1,427.4,276.7,429.6z M336.8,406.5c-5.1,3.4-116.9,29.3-123.3,28.6
			c-8.3-1.6-34-8.5-37-13c-3.7-6.4-7.3-126.5-4-132.5c3.2-4.5,12.4-8.2,15.1-9.2c9.5,7,21.6,12.8,36.7,14.9
			c16.2,2.3,23.5,1.7,28.3,1.3c3.1-0.3,4.8-0.4,7.2,0.4c-4.5,0.6-11.8,1.8-19,3.1c-24.9,4.4-25.9,6.6-26.4,7.9
			c-2,4.8,3.7,92.8,6.7,104.6c0.4,1.4,1.6,2.4,3.1,2.4c0.2,0,0.4,0,0.6-0.1c97.2-20.6,98.9-22.8,99.4-23.5l0.4-0.4l-0.2-5.8
			c1.8-0.4,3.8-1.1,5.8-1.9c2.6-1.1,4.7-2.3,6.3-3.6C337.5,391.6,337.3,405.4,336.8,406.5z M329.3,381.3c-7.2,3.2-14.3,2.9-18,1.3
			c-1.1-0.5-2-1.1-2.4-1.8c0.6-0.1,1.6-0.1,2.4-0.1c3.7,0,9.8-0.1,14.7-3.3c3.5-2.3,5.2-4.5,6-5.8c2.6,0.2,5.5,0.4,8.5,0.5
			C339.6,374,337.2,377.8,329.3,381.3z M322.4,370.4c2.2,0.4,4.6,0.7,7.2,1c-0.9,1.1-2.3,2.7-4.8,4.3c-0.6,0.4-1.1,0.6-1.6,0.9
			L322.4,370.4z M369.4,379.4c-3.7,6.5-14.5,10.7-17.2,10.6c0.6-0.9,2.5-2.6,4-4c3.2-3,6.9-6.3,7.4-9c0.7-3.6-0.6-7.1-1.4-9
			c2.6-1.6,5-3.6,7.2-6c0.5-0.6,0.9-1.1,1.3-1.8C371.3,364.7,372.3,374.3,369.4,379.4z M369.1,283.7c1.3,0.9,1.3,3.7,1,6.5
			c-1.6-2.8-3.3-5.5-4.9-8C366.5,282.4,367.9,282.9,369.1,283.7z M375.7,314.7c2.2,13.6,1.3,33.7-8.7,45.2
			c-5.5,6.3-13.2,9.4-22.9,9.2c-27.2-0.6-34-5.3-35.7-7.2c-0.3-0.4-0.5-0.7-0.6-1.1c1.3-0.3,4.8-0.3,7.9-0.4
			c13.1-0.1,35.2-0.4,36.2-14.6c1.1-15.4-14.8-36.4-20.9-43.9c1.1-0.4,2.3-1.2,3.4-3.1c3.5-6,3.5-21.1-2.2-27.2
			c2.3-1.1,9.1-4,17.5-3.5C352.7,271.2,371.8,290.6,375.7,314.7z M390.9,249.7c-2.5,3.1-12.3,3.8-17.9,3.5l-2.2-0.1l0.6,2.1
			c0,0.1,1.7,5.4-2,7.3c-4.6,2.4-8.2,3.8-18.9,2.8c-11.4-1.1-20.2,4-20.6,4.3l0.2,0.4c-4.8-3.8-10.7-9-12.6-10.7
			c8.4-7.3,15.6-13.8,17.4-15.4c3.6-3.2,8.5-7.6,13.6-12.4c3.3,2.1,12.9,8.2,18.5,10.1c2.4,0.9,5.8,0.9,9.4,0.9
			c8,0.1,13.6,0.5,14.8,4.9C391.6,248.3,391.4,249.1,390.9,249.7z"/>
		<ellipse class="st10" cx="265.8" cy="88.6" rx="2.1" ry="4"/>
		<path class="st10" d="M198.7,137c-15.1,2.9-25.1,16.6-22.4,30.6c1.3,6.7,5.4,12.6,11.5,16.4c4.5,2.8,9.7,4.2,14.9,4.2
			c1.9,0,3.8-0.2,5.8-0.6c7.2-1.4,13.6-5.3,17.8-11.1c4.3-5.8,5.9-12.7,4.5-19.5C228.2,143,213.8,134.1,198.7,137z M223.9,174.7
			c-3.8,5.1-9.4,8.7-16,9.9c-6.5,1.3-13.1,0.1-18.5-3.3c-5.4-3.3-8.9-8.5-10.2-14.3c-2.4-12.3,6.6-24.4,20-27.1
			c1.7-0.4,3.4-0.5,5.1-0.5c11.4,0,21.5,7.4,23.5,18.1C229.1,163.6,227.6,169.6,223.9,174.7z"/>
		<path class="st10" d="M207.1,422.4c-0.6-2.8-1.1-5.6-1.4-8.5c-0.8-5.7-1.3-11.4-1.8-17.1c-0.9-11.4-1.5-22.9-2-34.4l-0.7-17.3
			c-0.3-5.8-0.6-11.5-0.9-17.3s-0.8-11.5-1.1-17.2c-0.1-2.8-0.2-5.8,0-8.6s1-5.7,2.8-8c-0.9,1.1-1.7,2.3-2.3,3.7s-0.9,2.8-1.1,4.2
			c-0.4,2.9-0.4,5.8-0.4,8.7c0,5.8,0.2,11.5,0.4,17.3l1.2,34.4c0.5,11.5,1.2,23,2.4,34.4c0.6,5.8,1.3,11.4,2.4,17.1
			c0.6,2.8,1.1,5.7,1.9,8.5c0.4,1.4,0.8,2.8,1.3,4.1c0.6,1.3,1.1,2.7,2.1,3.8c-0.9-1.2-1.3-2.6-1.8-3.9
			C207.8,425.2,207.5,423.8,207.1,422.4z"/>
		<path class="st10" d="M199.3,142c-11.9,2.3-19.9,13.2-17.8,24.2c1.1,5.4,4.3,9.9,9.1,12.9c3.6,2.2,7.6,3.3,11.9,3.3
			c1.5,0,3.1-0.1,4.5-0.4c11.9-2.3,19.9-13.2,17.8-24.2C222.7,146.7,211.2,139.6,199.3,142z M206.7,180c-5.3,1-10.6,0.1-15-2.6
			c-4.3-2.7-7.2-6.8-8.2-11.6c-1.9-9.9,5.3-19.7,16.1-21.9c1.4-0.3,2.8-0.4,4.1-0.4c9.2,0,17.3,6,19,14.6
			C224.7,168.1,217.5,177.9,206.7,180z"/>
		<path class="st10" d="M322.8,399l-4.4,1.1c-0.9,0.2-1.6,0.8-2.1,1.6c-0.4,0.8-0.6,1.7-0.4,2.6c0.4,1.7,2.1,2.7,3.8,2.5
			c0.1,0,0.3-0.1,0.4-0.1l4.4-1.1l0,0c1.8-0.5,2.9-2.3,2.4-4.2C326.5,399.6,324.7,398.5,322.8,399z M324,403.6l-4.4,1.1
			c-0.7,0.2-1.5-0.2-1.7-1c-0.1-0.4-0.1-0.7,0.1-1.1c0.2-0.4,0.5-0.6,0.9-0.6l4.4-1.1c0.1,0,0.1,0,0.1,0c0.3-0.1,0.6,0,0.9,0.1
			c0.4,0.2,0.6,0.5,0.6,0.9C325.2,402.7,324.8,403.4,324,403.6z"/>
		<path class="st10" d="M325.4,181.8c0-0.4-0.1-0.8-0.4-1.1l-2.6-2.8c-0.5-0.6-1.3-0.6-1.9-0.2l-44.3,33.2c-0.4,0.3-0.6,0.6-0.6,1.1
			c0,0.4,0.1,0.9,0.5,1.1l3.8,3.3c0.3,0.2,0.6,0.4,0.9,0.4c0.3,0,0.6-0.1,0.9-0.3l43-33.6C325.2,182.5,325.4,182.2,325.4,181.8z
			 M324.2,182l-43,33.6c-0.1,0.1-0.4,0.1-0.5,0l-3.8-3.3c-0.1-0.1-0.1-0.2-0.1-0.3c0-0.1,0-0.2,0.1-0.3l44.3-33.1
			c0.1-0.1,0.4-0.1,0.6,0.1l2.6,2.8c0.1,0.1,0.1,0.2,0.1,0.3C324.4,181.8,324.4,181.9,324.2,182z"/>
		<path class="st10" d="M282.4,269.1l5.4,6.6L371,201l-6.7-5.7l-81.6,73.4L282.4,269.1z M364.4,196.7l5.1,4.3l-81.6,73.3l-4.1-5
			L364.4,196.7z"/>
		<polygon class="st10" points="152.7,315.3 156,313.4 155.5,312.5 151.7,314.7 151.7,359.1 155.5,362.7 156.2,362 152.7,358.7 		
			"/>
		<polygon class="st10" points="141.3,313.3 144.7,311.4 144.2,310.5 140.3,312.7 140.3,357.1 144,360.7 144.7,360 141.3,356.7 		
			"/>
		<path class="st10" d="M354.8,187.8L354.8,187.8l-13.4-11.6c-0.9-0.8-2.1-0.8-3.1-0.1l-51.7,42.7c-0.5,0.4-0.9,1.1-0.9,1.7
			c0,0.6,0.2,1.3,0.7,1.8l12.1,11.7l1.8,2.2l0.2-0.1l5.2,5c0.4,0.4,1.1,0.7,1.6,0.7s1.1-0.2,1.6-0.6l50.1-46
			c0.5-0.4,0.8-1.1,0.8-1.8c0-0.6-0.3-1.3-0.8-1.7l-4-3.5L354.8,187.8z M287.3,221.6c-0.3-0.3-0.4-0.6-0.4-1s0.2-0.7,0.5-1
			l51.7-42.7c0.2-0.2,0.6-0.3,0.9-0.3s0.6,0.1,0.9,0.4l3.2,2.8L289.8,224L287.3,221.6z M290.5,224.7l54.1-44.1l3.7,3.7L295,229.1
			L290.5,224.7z M299.4,233.4l-3.3-3.8l53.5-44.9l4.5,3.9l-53.3,46.2L299.4,233.4z M359,193.5c0,0.4-0.1,0.7-0.4,1l-50.1,46
			c-0.5,0.5-1.3,0.5-1.8-0.1l-5.1-5l53.3-46.2l3.8,3.3C358.8,192.7,359,193,359,193.5z"/>
		<path class="st10" d="M235.3,111.1c-7.2,0-13-5.8-13-13s5.8-13,13-13s13,5.8,13,13S242.6,111.1,235.3,111.1z M235.3,87
			c-6,0-11,5-11,11s5,11,11,11s11-5,11-11S241.4,87,235.3,87z"/>
	</g>
	<path class="st11" d="M330.2,270c0,0,8-3.4,13-3.3c5,0.1,9.3,1.6,9.3,1.6l7.5,10.6c0,0-9.7-1.8-14.9,1.6
		c-5.2,3.4,24.2,44.1,20.3,62.6c-8.5,40.4-59.2,20.7-59.2,20.7l0.4-5.8c0,0,36.5,2.5,40.9-8c4.3-10.4-1.2-22.4-5.8-31.9
		c-13-12.6-12.6-16.1-12.6-16.1s6.3-1.3,6.1-5.6C335,292.1,330.2,270,330.2,270z"/>
	<path class="st11" d="M334.7,337.7c1.5-3.8,8.4-2.8,10.9-1.2c2.5,1.6,4.8,1.2,4.8,1.2l-0.1,10.4c0,0-5-6-7.7-6.5
		C339.9,341.1,334.7,337.7,334.7,337.7z"/>
	<path class="st11" d="M252.1,247.7l20.3,19c7.1,1.3,14.6-8,14.6-8s-6.9,3.4-12,1.8c-5-1.5-18.3-16.1-18.3-16.1L252.1,247.7z"/>
	<path class="st11" d="M289.6,216.5c0,0-5.5,1.3-5.3,3.5c0.2,2.1,17.8,20.7,21.7,21.2c3.8,0.4,6.7-4.3,6.7-4.3s-1.1,1.8-6.4-0.1
		c-5.3-1.8-16.7-13.1-16.7-16.7S289.6,216.5,289.6,216.5z"/>
	<path class="st11" d="M279.1,208.7c0,1.3,2.6,5.2,4.3,5.1c1.8-0.1-1.5,5.5-3.4,4.3c-1.9-1.2-4.8-2.6-5.8-5.2
		C273.2,210.4,279.1,208.7,279.1,208.7z"/>
	<path class="st11" d="M319.5,151.9c0,0,5.5,1.6,10.7,1.6c4.6,0,19,1.3,19-0.5s4.8,2.6-2.9,5.7C325.4,167.1,319.5,151.9,319.5,151.9
		z"/>
	<path class="st11" d="M296.2,187.1l29.3-20c0,0-15.7,0.1-29.1-2.8c-13.4-2.8-20.7-12.4-20.7-12.4l-0.7,7c0,0,3.2,2,7.4,5.3
		S296.2,187.1,296.2,187.1z"/>
	<path class="st11" d="M182,183.9c20,15.7,39.7-2.8,39.7-2.8s-22.5,11.1-34.4,1.4c-18.5-15-3.8-37.7-3.8-37.7S163.8,169.5,182,183.9
		z"/>
	<path class="st12" d="M373.7,190.8l2,2.2C375.4,190.9,373.7,190.8,373.7,190.8z"/>
	<path class="st11" d="M238.5,64.3c1.8,0.9,2.4,3.8,2.6,5l-4.6,0.4l1.4,5.8c0,0,0-2.1,4.4-4.4c1.7-0.9,3.1-1.5,4-1.8l9.5-1.1
		c0,0-0.6-2.8-1.3-5.3c-0.9-2.5-8.2-9.6-8.2-9.6s-4.4-2-8,1.7c-3.6,3.7-3.6,6.5-3.6,6.5S236.3,63.3,238.5,64.3z"/>
	<path class="st11" d="M225.4,108.6c9.4,9.4,20-3.6,20-3.6s-7.5,7.4-16.5-0.1c-7.2-5.9-0.3-16.2-0.3-16.2S217.1,100.3,225.4,108.6z"
		/>
	<path class="st11" d="M348.7,228.8c0,0-8.6,11.6-12.6,21.3c-4,9.7-3.4,12.8,0,13.2c3.4,0.4,26.7,2.8,29.8-1.3s3.6-11.4,3.6-11.4
		s9.3,1.5,14.8,0c5.5-1.5,8.4-5,8.4-5s1.6,7.3-8.4,8c-9.9,0.6-11.2,0.6-11.2,0.6s2.6,5.7-0.5,7.7c-3.1,2.1-14.6,6.9-20,6.3
		c-5.4-0.6-22.3,1.6-22.3,1.6l-14.5-10.7l34.9-30.5H348.7z"/>
	<path class="st7" d="M221.2,327.1c0,0,3.1,67.1,4.4,71.7c1.4,5.1,7.2,6.5,12.9,6.5c10.8,0,55.9-11.3,55.9-11.3s-48.1,10.5-59.7,0.1
		C226.6,386.8,221.2,327.1,221.2,327.1z"/>
	<path class="st11" d="M380.4,198.2l-4.7-5.3c0.1,1.1-0.1,2.8-1.3,5.4c-3.5,7.3-71.1,64.8-78.3,71.5c-10.2,9.5-13,6.7-13,6.7
		L247,248.9c-1.4,1.6-4.2,3.3-9.3,2.6c-8.8-1.3-22.4-8.2-27.6-12.6c-5.3-4.3-17.8-35.5-17.8-35.5l4.8-3c0,0,9.2,28.8,18.8,36.6
		c18,14.5,32.7,9.7,32.7,9.7c2.8-0.7,4.6-1.2,8.4-2.1c5.4-1.3,9.1-11.4,9.1-11.4s-2.2,3.1-4.8,4.9c-3.3,2.3-11.6,0.5-11.6,0.5
		s-22.1-14.8-28.2-25c-4.3-7.1-6.5-11.4-6.5-15.1c0,0,5.5-3.1,5.5-3.1c4.6-2.3,24.9-8.2,24.9-8.2l-2.1-3l-25.4,8
		c10.4-4.7,30-9.9,30-9.9s-18.8,1.5-32.9,7c-14.1,5.5-25.4,11.2-25.4,11.2l-10.4-1.9L167,158.7l4.1-17.2l-7.4,15.1l6.3-15.3
		l20.2-9.7l21.3-6l6.6-8c0,0,0,0,6,5.3c6,5.3,11.1,1.6,11.1,1.6s4,3.6,5.6,5.1c1.6,1.5,8.7,3.8,8.7,3.8s0.1,2.3,4.9,3.3
		c5.2,1.1,8.2-0.9,8.2-0.9s-9.9-4.2-18.2-9.2c-7.7-4.7,1.9-8.2-6.7-6.7c-2.1,0.4-3.9,0.4-5.6,0.1c8-0.9,19.9-4.5,19.9-4.5
		s5.5-8.1,2.4-4.4c-3.1,3.7-20.7,8.2-25.6,5c-4.3-2.7-11.1-21.5-11.3-25.9c-0.2-4.4,4.1-9.4,4.1-9.4s-4.6-7.2-2.7-16.3
		c1.1-5.5,8-11.8,8-11.8s-9.2,4.4-11.9,14.5c-1.8,6.7,0,11.5,1.3,13.9l-2-2.8c0,0-25.9,6.7-50.1,58c-20.3,43-8.8,87-3.9,101.3
		c3.9,11.5,7.6,21.9,16.6,30.3l1.9,2.8l-22.7,2.6c0,0-6.3-2.8-8.2-3.9c-1.8-1.1-3.3-1.9-3.3-1.9l-11.9,6l-3.4,3.6
		c0,0-5.6,37.4-5.6,49c-0.1,11.6,3.3,48.3,3.3,48.3l4.3,5l23.7,13.9c0,0-18.2,4.8-19.2,13.3c-1,8.5,8.9,27.3,27.9,34.3
		c19,7,23.4,7.4,25.6,7.6c14.8,1.6,81-22.7,81-22.7s-49.9,10.9-53.5,9.4c-3.6-1.5-4.8-3.1-9-8.5c-4.2-5.3-8.2-85.7-8.8-95.8
		c-0.9-15.2-1.1-28.8,5-30.5c4.2-1.1,14.5-1.4,18.8-0.9l33.2,10.3c0,0,32.3,15.4,38.6,17.4c6.3,2.1,5.8-4.5,5.8-4.5s3.8,0.6,10.4,0
		c6.6-0.6,12-13.4,12-13.4c4.9-4.6-2-16.8-2-16.8s1.2,5.5-5.2,11.8c-6.4,6.3-15.3-6.8-20.5-11.6s-5.4-12.2-5.4-12.2l47-40.6
		L380.4,198.2z"/>
	<path class="st11" d="M209.2,76.9c0,0-12.9,2-19.4,5.2c-6.6,3.2-13.8,7.8-13.8,7.8s-0.6,3.8,1.9,7.7c2.6,3.8,2.6,3.8,2.6,3.8
		s7.7-7,12.5-9.9c4.8-2.9,16.3-11.1,16.3-11.1L209.2,76.9L209.2,76.9z"/>
	<path class="st11" d="M176,109.6c0,0-4-4.4-9.1-4.1c-5,0.3-17.3,6.5-21.4,13.4c-1.4,2.4-2.8,5.3-3.5,7c-0.4,0.9-0.3,1.8,0.2,2.5
		c1.6,2.5,5.5,8.2,7.7,9.2c2.8,1.3,6.8,4.6,6.8,4.6s7.9-13.4,10-18.9C169,117.7,176,109.6,176,109.6z"/>
	<path class="st11" d="M155,149c0,0-4.5,17.3-5.3,24.4c-0.7,7-0.9,21-0.9,21s-14.5-3.9-22.3-10.5c-6.5-5.4-10.3-12.4-10.3-12.4
		s0.9-7.2,5.9-12.7c3.6-4,12.6-8.8,12.6-8.8s9.4-1.7,12.2-1.3C149.9,149,155,149,155,149z"/>
	<path class="st11" d="M127.1,205.3c0,0-6.9,6.5-8.7,11.2c-1.8,4.7,0,14.3,0,14.3s17.5,9.7,27.6,10.4c10,0.6,12.3,0.6,12.3,0.6
		s-7.2-19.9-7-23.4c0.3-3.6-1.8-21.3-1.8-21.3s-13,2.7-15.1,3.5C132.5,201.3,127.1,205.3,127.1,205.3z"/>
	<path class="st11" d="M142,266.6c0,0,2.8-8.6,7.2-11.2c4.3-2.6,10.7-8.5,10.7-8.5l18.6,25c0,0-8.7,0.8-13.5,1.5
		C150,276,142,266.6,142,266.6z"/>
	<path class="st11" d="M338.1,350.6c0,0,0.6,1.8-3.1,2.1c-3.7,0.2-7.1-1.1-7.1-1.1l3.9,5.8l10.5-1.6L338.1,350.6z"/>
	<path class="st11" d="M339.4,375.2c0,0-4.2-0.2-7.6,0c-3.3,0.2-6,2.2-6,2.2l6-5.8l10.5-0.4L339.4,375.2z"/>
	<path class="st11" d="M371.3,362.7c0,0-1.3,4.5-3.3,6c-2.1,1.3-4.6,2.6-4.6,2.6l-3.3-4l11-8.3L371.3,362.7z"/>
	<path class="st13" d="M220.7,157.9c-2.2-8.7-11.6-13.9-21.1-11.6c-7.7,2-13.1,8.4-13.5,15.5c2-2.1,4.6-3.8,7.7-4.5
		c8.6-2.2,17.3,3.1,19.5,11.6c0.6,2.2,0.6,4.4,0.3,6.5C219.3,171.4,222.4,164.6,220.7,157.9z M215.7,156.3c-1,1-3.6-0.1-5.8-2.3
		c-2.3-2.3-3.3-4.9-2.3-5.8c1-1,3.6,0.1,5.8,2.3C215.7,152.7,216.7,155.3,215.7,156.3z"/>
	<path class="st3" d="M203.9,160.9c0,0.1,0,0.2,0,0.3c-0.2,1.7-0.4,3.4-0.5,5c-0.2,1.6-0.3,3.1-0.5,4.7c0,0,0,0.1-0.1,0.1
		c-1.1,0.6-2.2,1.2-3.3,1.7c0,0,0,0-0.1,0c0,0,0-0.1,0-0.1c0.1-1.6,0.3-3.2,0.4-4.8c0.1-1.4,0.2-2.8,0.4-4.2
		c0.1-1.6,0.3-3.1,0.4-4.7c0-0.2,0-0.5,0.1-0.7c0-0.1,0-0.1-0.1-0.2c-0.5-0.5-1.1-1.1-1.7-1.6c-0.2-0.2-0.5-0.5-0.7-0.7
		c-0.1-0.1-0.1-0.1-0.2,0c-0.7,0.4-1.4,0.7-2.1,1.1c-0.1,0.1-0.1,0.1-0.2-0.1c-0.5-0.8-0.9-1.7-1.4-2.5c-0.1-0.1,0-0.1,0.1-0.2
		c1.4-0.7,2.8-1.5,4.2-2.2c0.1,0,0.1,0,0.2,0c1.7,1.4,3.4,2.9,5.1,4.3c2,1.7,4,3.4,6,5.1c0.6,0.5,1.2,1,1.9,1.6
		c0.1,0.1,0.1,0.1,0.2,0c0.6-0.6,1.2-1.2,1.8-1.8c0.1-0.1,0.1-0.1,0.2,0c0.7,0.6,1.3,1.3,2,1.9c0,0,0,0,0.1,0.1c0,0-0.1,0.1-0.1,0.1
		c-1.4,1.4-2.7,2.8-4.1,4.2c-0.1,0.1-0.1,0.1-0.2,0c-1.2-1-2.4-2-3.6-3c-1.2-1-2.3-2-3.5-3c-0.2-0.1-0.3-0.3-0.5-0.4
		C204,161,204,161,203.9,160.9L203.9,160.9z"/>
</g>
</svg>
