<?xml version="1.0" encoding="utf-8"?>
<!-- Generator: Adobe Illustrator 27.3.1, SVG Export Plug-In . SVG Version: 6.00 Build 0)  -->
<svg version="1.1" id="Layer_1" xmlns="http://www.w3.org/2000/svg" xmlns:xlink="http://www.w3.org/1999/xlink" x="0px" y="0px"
	 viewBox="0 0 512 512" style="enable-background:new 0 0 512 512;" xml:space="preserve">
<style type="text/css">
	.st0{fill:#88B8FD;}
	.st1{fill:#2A2A2D;}
	.st2{fill:#000080;}
	.st3{fill:#C00000;}
	.st4{opacity:0.42;}
	.st5{fill:#F2E270;}
	.st6{fill:#FFFFFF;}
	.st7{fill:#A7A9AC;}
	.st8{opacity:0.37;}
	.st9{fill:#B5F2F4;}
	.st10{fill:#C4CED6;}
	.st11{fill:#141416;}
	.st12{fill:#F2F492;}
	.st13{opacity:0.3;}
	.st14{fill:#1D1D1B;}
	.st15{fill:none;}
	.st16{opacity:0.2;}
	.st17{fill:#0A0808;}
</style>
<g>
	<g>
		<g id="COLOR">
			<g>
				<polygon class="st0" points="328.5,299.5 318.2,304.4 298,313.3 284.9,320.7 272.9,331 268.9,336.5 205.5,338.4 202.9,334.2 
					197,328 191,323.5 182.8,319 168.2,310.9 150.1,302.8 144.5,300.2 161.7,298.7 222.2,298.7 322.2,298.7 				"/>
			</g>
			<g>
				<path class="st1" d="M268.1,338.4c-0.2,14.6-16.7,26.4-34.7,25.1c-7.9-0.5-13.7-2.8-19.4-7.5c-4.2-3.5-7.1-7.9-8.2-12.6
					c-0.9-4.2-0.5-10,1.4-13.9c1.7-3.7,4.4-6.9,7.8-9.6c9-6.9,22.1-8.5,33.5-4.7c5.4,1.8,10.2,4.8,13.7,8.6
					C266.5,328.6,268.2,332.7,268.1,338.4z"/>
			</g>
			<g>
				<path class="st2" d="M214.6,334.1c2.3-8.1,11.2-14.3,22-14.3s19.8,6.1,22,14.3l0.2,7.1c-1.9,8.5-11.1,15-22.2,15
					c-11.1,0-20.3-6.5-22.2-15L214.6,334.1z"/>
			</g>
			<g>
				<path class="st3" d="M302.1,428.4c0.7,11.1,2.5,28.2-3.4,36.6c-0.3-5.4-5.8-7.7-8.2-12.7c-1.8-3.9-5-8.5-5.3-12.7
					c-5.3,16.9,12.4,33.5-3.4,52c0.1-6.5-7-17.4-9.1-24.7c-4.3,7.9-3.2,22.7-4.5,32.1c-1.4,9.4-4.3,16.3-9.6,24.8
					c-8.3,13.2-11.9,28.7-18.6,40.5c-6.7-11.8-10.4-27.3-18.6-40.5c-5.3-8.6-8.3-15.4-9.6-24.8c-1.4-9.3,2-27.9-2.3-35.7
					c-2,7.2-10.3,19-10.2,25.5c-18-17.8-1.5-32.2-6.8-49.1c-0.3,4.2,0,11.1-1.9,14.9c-2.4,5-9,5.2-9.4,10.5
					c-5.9-8.4-4.1-25.6-3.4-36.6c0.3-6-1.2-12.1-1.8-18.1c-0.3-3.5-2.2-15.7,4.3-16.7c0.8-0.1,1.6,0,2.4,0.2
					c2.7,0.5,5.2,1.4,7.9,1.9c3.2,0.6,6.4,0.7,9.5,0.9c6.9,0.4,13.9,0.6,20.9,1c6.2,0.3,12.2,1.7,18.6,1.9
					c8.6,0.2,17.2-0.7,25.7-1.7c5-0.5,10-1.1,14.7-2.1c6.5-1.4,13.3-3.4,20-1.8c5.3,1.3,4.1,6.8,4.1,10.5
					C304.2,412.4,301.6,420.5,302.1,428.4z"/>
			</g>
			<g class="st4">
				<path class="st5" d="M282.7,419.7c0.5,7.5,1.7,19.1-2.3,24.8c-0.2-3.7-3.9-5.2-5.6-8.6c-1.2-2.6-3.4-5.8-3.6-8.6
					c-3.6,11.4,8.4,22.7-2.3,35.2c0.1-4.4-4.8-11.8-6.1-16.7c-2.9,5.3-2.2,15.3-3.1,21.7c-0.9,6.4-2.8,11-6.5,16.8
					c-5.6,9-8.1,19.4-12.6,27.4c-4.5-7.9-7-18.5-12.6-27.4c-3.6-5.8-5.6-10.4-6.5-16.8c-0.9-6.3,1.4-18.8-1.5-24.1
					c-1.4,4.8-7,12.8-6.9,17.3c-12.2-12.1-1-21.7-4.5-33.3c-0.2,2.8,0,7.5-1.2,10.1c-1.6,3.4-6.1,3.5-6.4,7.1
					c-4-5.7-2.7-17.3-2.3-24.8c0.2-4-0.8-8.2-1.2-12.2c-0.2-2.4-1.5-10.7,2.9-11.2c0.6-0.1,1,0,1.6,0.1c1.8,0.4,3.5,0.9,5.3,1.3
					c2.2,0.5,4.3,0.5,6.5,0.6c4.6,0.2,9.4,0.5,14.1,0.6c4.2,0.2,8.3,1.2,12.6,1.3c5.8,0.2,11.7-0.5,17.5-1.2c3.4-0.4,6.7-0.7,10-1.5
					c4.3-0.9,9-2.3,13.5-1.2c3.6,0.8,2.7,4.6,2.7,7.1C284.2,408.8,282.4,414.3,282.7,419.7z"/>
			</g>
			<g>
				<polygon class="st6" points="430.5,277.2 438,283.2 441.7,286.6 443.9,298.2 444.6,306.7 499.9,280.6 507.7,274.4 507.7,266.6 
					497.6,253 491.7,250.5 458.5,261.8 				"/>
			</g>
			<g>
				<path class="st0" d="M401.1,14.1l2.5,103.3l1.4,11l4.8,13.2l8.2,29.2c1.1,10.7,3.7,17.1,16.3,22.1c9.9,3.9,20.2,7.2,30.8,9.8
					c-4.8,3.7-10.9,6.2-17.4,7.2c2,0.5,4.1,1,5.8,2.1c1.7,1.1,2.8,2.8,2.3,4.5c-0.3,1.1-1.4,2-2.3,2.8c-2.5,2.1-5.1,4-7.7,5.9
					c-2.5,1.9-2.5,1.3-1.4,4c0.6,1.4-0.8,2.7-2,3.7c-5.3,4.4-10.8,8.9-17,12.3c-10.4,5.9-25.2,8.7-34.5,15.7
					c-1.2,0.9-1.6,2.4-1.8,3.7c-0.9,4.4-0.5,9-1.8,13.2c-1.1,3.3-2.4,6.6-3.6,9.8l-5.7,6.2l-8.7,0.5l-20.9,2.1l-15.8,1.2l-24,0.9
					h-23.5h-78.7l-54.3-0.2h-20.5l-12-2.9l-11.2-1.6l-12.1-3.2l-7.4-8l-3.4-13.2l-0.1-9l-10.5-3.1c-6.6-1.9-13.6-6.5-19.5-9.6
					c-4.9-2.6-9.4-5.6-13.5-8.9c-2.4-1.9-8.3-6.9-8.8-9.5c-0.2-1.2,0.6-2.6,2-2.7c-2.6,0.3-7.1-3.7-8.6-4.9
					c-2.9-2.6-4.5-5.8-5.3-9.3c1-0.5,2.3-0.5,3.4-0.6c4.1-0.6,2.4-2.8,0.5-4.3c-0.9-0.6-2.6-0.8-3.6-1.6c-1.6-1-2.8-2.8-4.1-4.1
					c10.3-3.2,21.9-6,30.5-11.9c4.4-3.1,8.2-7.4,10.2-11.7c1-2.2,0.3-5.6,0.8-7.9c0.6-3.6,1.2-7.2,1.8-10.8l10.1-32l17-30.3
					l0.2-13.3L95,37.4l7.4-38.3l87.4,42.6l33-5.3l20.5-0.4l30.6,3.7l32.1,7.3l56.1-20.3l40.3-14.5h1.4L401.1,14.1z"/>
			</g>
			<g>
				<ellipse class="st7" cx="234.6" cy="133.2" rx="90.2" ry="72.6"/>
			</g>
			<g>
				<ellipse class="st6" cx="234.6" cy="133.2" rx="71.1" ry="57.3"/>
			</g>
			<g class="st8">
				<ellipse class="st9" cx="234.6" cy="133.2" rx="71.1" ry="57.3"/>
			</g>
			<g>
				<path class="st1" d="M229,163.7c1.4,1.2,2.8,2.3,4.5,3.3c1.2,0.7,2.8,1.5,4.3,1.1c0.9-0.3,1.6-0.8,2.2-1.5
					c8.6-8.2,11.6-21.2,12.4-31.8c0.8-10.2-2.3-20.6-8.7-29.6c-8.3-11.5-15.7-10.9-21.4,1.5C214.5,123.5,212.4,149.5,229,163.7z"/>
			</g>
			<g>
				<path class="st6" d="M189.3,298.2c0,0,93.8,0.8,95.6,0.5c1.8-0.4,7.9-13.2,7.9-13.2l3.5-14.3l-1.4-10.8l20.1,2.9l29.1,1.6
					l22.1-2.2l19.6-2.3l9.9-2.6l21.2-7.9l22-14.3l7.4-7.9l-6.7-1l13.9-9.7l3.6-5.8l-13.2-1.8l16.4-5.4l-7.6-4.8l-23.5-8.8l-3.7,2.2
					l-5.4,1.8l-3.3,3.4l-10.1,8.8l-7.6,4.7l-6,2.6l-47.1,6.5l-4.3,0.5l-12.1-1.2l-10.2-2l-18-5.6l-17.2-7.9l-8.3-5.6l-20.2,5.3
					l-19.3,1.2l-22.5-1.1l-18.8-4.8l-3.6,2.4l-13,7.5l-16.4,6.3l-11.5,3l-22.7,2.4h-4.4l-48.5-8.6l-12.5-8.6l-8.1-7.5l-9-4
					c0,0-4.4,0.1-4.8,0.1c-0.3,0-20.1,8.5-20.1,8.5l-6.8,1.7l5.4,3.4l9.3,3.6l-10.2,2.4l9.6,11.4l5.3,5l1.5,4.4l12.1,11.9l24.2,10.7
					l17,5.4l9.2,1.6l28.4,2.7l25.5-0.7l25.7-2.4h2.8l0.9,15.5l5.9,13.7L189.3,298.2z"/>
			</g>
			<g>
				<ellipse class="st6" cx="100.7" cy="217.2" rx="23" ry="18.5"/>
			</g>
			<g>
				<ellipse class="st2" cx="100.7" cy="217.2" rx="16.2" ry="13.1"/>
			</g>
			<g>
				<ellipse class="st6" cx="368.9" cy="215.7" rx="23" ry="18.5"/>
			</g>
			<g>
				<ellipse class="st2" cx="368.9" cy="217.2" rx="16.2" ry="13.1"/>
			</g>
			<g>
				<path d="M237.7,222.2c1.8-1,2.9-2.7,2.9-4.5c0-0.5-0.1-1.2-0.5-1.7c-0.8-1.2-2.6-1.6-4.3-1.8c-2.9-0.3-5.9,0.1-8.6,1.1
					c-0.3,0.1-0.7,0.3-0.9,0.5c-0.2,0.3-0.1,0.6,0,1c0.2,0.9,0.6,1.8,1,2.7C229.3,223.3,233.5,224.6,237.7,222.2z"/>
			</g>
			<g>
				<polygon class="st0" points="288.5,319.5 283.5,329.4 271.7,358.4 266.2,371.4 247.7,373.3 245.6,372.8 247.7,362.7 
					252.3,360.4 260.8,354.2 265.6,348.2 267.4,343.3 268.9,336.5 272.9,331 280.8,324.1 286.8,319.5 				"/>
			</g>
			<g>
				<polygon class="st0" points="182.8,319 187.1,330.3 195.4,349 204.9,369.9 212.9,372.4 228.1,374 227,369.9 225.9,362.7 
					220.8,360.4 216.4,357.9 210.8,353.3 207.4,347.8 205.9,343.4 205.5,337.2 198,328.7 192.1,324.3 				"/>
			</g>
			<g>
				<polygon class="st6" points="225.9,362.7 232.5,363.7 241.4,363.3 247.7,362.7 246.3,369.1 245.6,372.8 238.3,374 226.9,372.4 
									"/>
			</g>
			<g>
				<path class="st0" d="M279.7,339.2l7.1-2l11.7-3.1c0,0,12.6-2.1,13.2-2.2c0.6-0.1,13.8-0.9,13.8-0.9l12.5,0.5l5.7,0.5l6.9-32.2
					v-3.1l-20.2,2.3l-8.4,3.4l-20.9,9.8l-12.4,6.6l-2.9,5.8L279.7,339.2z"/>
			</g>
			<g>
				<path class="st0" d="M127.8,299.1c-0.1,0.1-0.2,0.5-0.1,1.2c0.5,6.1,7.9,34.8,7.9,34.8h5.1h16.1l18.3,2.7l16.1,4.8l-2.9-10.1
					l-5.2-13.4l-7.9-4.8l-19.7-9.1l-14.6-6.8L127.8,299.1z"/>
			</g>
			<g>
				<polygon class="st0" points="136.8,346.5 150.6,356.7 183.7,366.5 204.9,369.9 198.3,355.2 192.3,342.6 176.7,337.8 
					159.3,335.6 143,335.1 133.4,335.7 				"/>
			</g>
			<g>
				<polygon class="st0" points="269.1,371.4 288.5,367 315.2,361.7 330.2,355.7 340.6,348.3 343.7,331 336.8,331 325.5,331 
					313.1,331.7 298.5,334 286.8,337.2 279.1,340.2 267.1,370.2 				"/>
			</g>
			<g>
				<polygon class="st1" points="165.1,361.5 171.7,381.2 176.7,392.3 194.9,397.2 230.7,399.7 260.8,398.6 298.7,394.5 
					303.3,392.3 315.2,361.7 288.5,367 261,372.4 238.3,376.4 220.8,373.3 183.7,366.5 				"/>
			</g>
			<g>
				<path class="st6" d="M344.1,330.1c0,0,22.5-5.8,22.9-5.9c0.5-0.3,41.8-6.7,41.8-6.7l2.6-10.9l-5.7-15.8l-7.1-4.3l-20.9,5.5
					l-10.4,3.4c-2.5,0.4-4.9,0.8-7.4,1.2c-5.1,0.8-8.4-0.3-9.4,4.5c-0.8,3.7-1.6,7.4-2.5,11.1C346.8,318.2,345.4,324.1,344.1,330.1z
					"/>
			</g>
			<g>
				<polygon class="st6" points="128.3,298 135.3,339.5 117.8,362.6 112.2,362.1 101.4,358.2 91.5,352.2 85.2,345.7 106.8,310.3 
					117.4,297.4 				"/>
			</g>
			<g>
				<polygon class="st2" points="90.8,337.8 98,336.5 108,333.5 113.5,327.7 128.8,307.3 125.5,297.4 117.4,297.4 				"/>
			</g>
			<g>
				<polygon class="st2" points="130.3,319 117.8,337.8 116.7,342.6 121.7,355.8 135.5,337.3 				"/>
			</g>
			<g>
				<polygon class="st2" points="349,308.4 363.8,305.4 376.5,303.7 382.8,302 392.7,292 393.9,288.9 382.1,289.5 375.4,293.5 
					360.6,295.7 348.1,296.6 				"/>
			</g>
			<g>
				<polygon class="st2" points="347.1,316.3 344.3,329.3 365.1,325.6 385.8,322.8 397.7,319.5 391.5,315.8 382.9,311.3 
					377.8,311.3 363.1,313.7 				"/>
			</g>
			<g>
				<path class="st1" d="M408.8,318.4l2.6,1.1l4.4-2.6l2.4-0.3c0,0,0.3,1,1.2,0.7s1.8,0.3,1.8,0.3l0.8-2.7l4.5,2.3l2.8,0.3l-0.1-3.8
					l7.3,1.9l2.7-1.9l3.1-5.9l1.5-9.6l-3.6-11.6l-6.2-6.3l-8.1-4.7l-6.8-0.9l-0.3,1.9l-5.6-1.2l-1.1,1.6l-0.7,1.6l-4-2l-1.1,0.8
					l-0.6,5.2l-3.4-2.1l-0.7,1.3l0.2,3.6l8.7,15.6l-1.5,15.4L408.8,318.4z"/>
			</g>
			<g>
				<path class="st6" d="M435.8,280.3c0-0.6,7.3-4.4,7.3-4.4l7.3-4.5v-3.3l-19.8,9L435.8,280.3z"/>
			</g>
			<g>
				<path class="st2" d="M489.1,285l-6.9-3.1l-9.3,2.6L444,295.7c0,0,2.2,10.6,2.5,10.1C446.8,305.4,489.1,285,489.1,285z"/>
			</g>
			<g>
				<path class="st2" d="M435.4,279.5c0.5,0.2,5.1,3.9,5.1,3.9l13.4-7.7c0,0,18.1-10.1,18-10.4s0.7-7.8,0.7-7.8l-20.6,9.4l-2.7,5.4
					L435.4,279.5z"/>
			</g>
			<g>
				<path class="st1" d="M486.8,272.5c0.2-0.1,0.3-0.1,0.6-0.2c2.4-1,3.2-3.4,1.9-5.3c-1.2-1.9-4.2-2.6-6.6-1.6
					c-0.1,0.1-0.3,0.2-0.5,0.3c-1.5-1.2-3.7-1.5-5.7-0.6c-2.4,1-3.2,3.4-1.9,5.3c0.7,0.9,1.7,1.6,2.8,1.8c-0.3,0.9-0.2,2,0.5,2.9
					c1.2,1.9,4.2,2.6,6.6,1.6C486.3,275.8,487.2,274.1,486.8,272.5z"/>
			</g>
			<g>
				<path class="st3" d="M485.3,271.5c0.1,0,0.2-0.1,0.3-0.1c1.5-0.6,2-2.1,1.2-3.3c-0.8-1.2-2.6-1.6-4.1-1c-0.1,0-0.2,0.1-0.3,0.2
					c-0.9-0.7-2.4-0.9-3.6-0.5c-1.5,0.6-2,2.1-1.2,3.3c0.5,0.5,1,1,1.8,1.2c-0.2,0.6-0.1,1.3,0.2,1.8c0.8,1.2,2.6,1.6,4.1,1
					C484.9,273.6,485.5,272.5,485.3,271.5z"/>
			</g>
			<g>
				<ellipse class="st1" cx="484.9" cy="260.7" rx="3.3" ry="2.6"/>
			</g>
			<g>
				<ellipse class="st1" cx="494.9" cy="264.5" rx="3.3" ry="2.6"/>
			</g>
			<g>
				<ellipse class="st3" cx="494.9" cy="264.5" rx="1.7" ry="1.4"/>
			</g>
			<g>
				<ellipse class="st1" cx="494" cy="272.4" rx="3.3" ry="2.6"/>
			</g>
			<g>
				<ellipse class="st3" cx="494" cy="272.4" rx="1.9" ry="1.6"/>
			</g>
			<g>
				<ellipse class="st3" cx="484.9" cy="260.7" rx="1.9" ry="1.6"/>
			</g>
			<g>
				<polygon class="st1" points="84.5,347.2 90.8,351.5 101.2,357.4 109.5,361 116.7,362.6 120.9,362.6 123,363.9 125,365.9 
					121,367 125,369.7 125.8,371.1 122.4,372.8 121.2,374 122.8,375.7 118.5,378.4 119.5,380.6 113.1,383.6 103.5,383.6 86.5,380.6 
					76.1,375.8 70.4,368.6 69.1,365.1 75.4,361.5 71.9,359.5 75.9,356.6 78.6,356.1 77.2,353.6 79.9,352.2 81.9,351.7 79.9,347.8 
					83.7,346.5 				"/>
			</g>
			<g>
				<path class="st10" d="M72.9,375.2c-0.8,0.5-11.2,59.9-11.2,59.9l4.8,4.5l12.8,1l15.4,2.2l2.6-3.2l3.7-11.5l9.1-35.8l0.9-8.5
					l-7.6-0.2l-11.1-1.1l-10.7-4.1c0,0-4.8-0.9-5.2-1.7C76,375.8,72.9,375.2,72.9,375.2z"/>
			</g>
			<g>
				<polygon class="st11" points="64.5,436.2 71.9,432.4 83.9,432.3 91.2,435 97.4,439.6 92.9,442.8 83.9,442.8 70.8,439.9 				"/>
			</g>
			<g>
				<polygon class="st6" points="80.4,378.1 74.8,392.3 72.3,395 71.1,383.6 75.6,374.8 				"/>
			</g>
			<g>
				<path class="st2" d="M79.4,377.9c-0.3-0.7,5.1,2,5.1,2l-11,33.6l-7.5,3.8l4.5-22.4l4-1.6L79.4,377.9z"/>
			</g>
			<g>
				<polygon class="st2" points="100,383.2 96.8,397.6 94.8,418.1 102.1,423.9 111.2,383.8 				"/>
			</g>
			<g>
				<path class="st5" d="M275.8,418.1c0.5,6.2,1.5,16-1.9,20.7c-0.2-3-3.3-4.4-4.6-7.2c-1-2.2-2.8-4.8-3.1-7.2
					c-3.1,9.6,7,19-1.9,29.4c0.1-3.7-4-9.9-5.1-14c-2.5,4.4-1.8,12.9-2.6,18.2c-0.8,5.3-2.4,9.2-5.4,14.1
					c-4.6,7.5-6.7,16.3-10.5,22.9c-3.9-6.7-5.9-15.4-10.5-22.9c-3.1-4.8-4.6-8.7-5.4-14.1c-0.8-5.3,1.1-15.8-1.2-20.2
					c-1.1,4.1-5.9,10.7-5.8,14.4c-10.2-10-0.8-18.2-3.9-27.8c-0.2,2.4,0,6.2-1.1,8.4c-1.4,2.8-5.1,2.9-5.3,5.9
					c-3.3-4.8-2.3-14.4-1.9-20.7c0.2-3.4-0.7-6.9-1-10.2c-0.2-2-1.2-9,2.5-9.4c0.5-0.1,0.9,0,1.4,0.1c1.5,0.3,2.9,0.8,4.4,1.1
					c1.8,0.4,3.6,0.5,5.4,0.5c4,0.2,7.8,0.4,11.8,0.5c3.5,0.2,6.9,1,10.5,1.1c4.9,0.1,9.8-0.5,14.6-1c2.8-0.3,5.7-0.6,8.4-1.2
					c3.6-0.7,7.5-1.9,11.3-1c3.1,0.7,2.3,3.8,2.3,5.9C277.1,409,275.6,413.5,275.8,418.1z"/>
			</g>
			<g>
				<path class="st12" d="M264.1,411.6c-0.5,2.2-0.8,3.9-0.9,4.7c-0.9,5.7-2,12.5-5.7,17.4c-2.5-1-3.6-5.2-4.3-7.5
					c-1.7,3-1.2,8.7-1.7,12.2c-0.6,3.6-1.6,6.2-3.6,9.5c-3.2,5-4.5,11-7.1,15.4c-2.6-4.5-4-10.4-7.1-15.4c-2-3.3-3.2-5.8-3.6-9.5
					c-0.5-3.6,0.8-10.7-0.9-13.6c0.9,1.7-3.6,7.5-3.9,9.7c-4-4.3-10.7-11.5-10.1-17.1c0.1-1.7,1.7-3.4,1.9-5.2
					c0.3-2.6-0.5-5.1-0.7-7.6c-0.1-1.4-0.8-6,1.7-6.4c0.3,0,0.6,0,0.9,0.1c1,0.2,2,0.5,3.1,0.7c1.2,0.3,2.4,0.3,3.6,0.4
					c2.6,0.1,5.3,0.3,7.9,0.4c2.4,0.1,4.6,0.6,7.1,0.7c3.3,0.1,6.6-0.3,9.9-0.6c1.9-0.2,3.7-0.5,5.7-0.8c2.5-0.5,5.1-1.3,7.6-0.7
					C266.2,399,265.1,406.4,264.1,411.6z"/>
			</g>
			<g>
				<polygon class="st6" points="264.5,334.1 251.5,334.1 251.4,333.5 249.5,331 246.3,327.9 243,326.5 240.5,325.7 237.7,325.3 
					233.7,325.6 230.7,326.1 227,327.9 224,330.2 221.7,333.5 221.6,334.1 208.7,334.1 208.7,341.2 221.3,341.2 221.4,341.6 
					223.3,344.8 225.2,346.9 228.4,349 232.5,350.2 235.4,350.6 238.6,350.5 242.2,349.8 244.7,348.8 247,347.5 248.7,346.1 
					251,343.5 251.7,341.8 251.7,341.2 264.5,341.2 				"/>
			</g>
			<g>
				<ellipse class="st6" cx="246.5" cy="116.1" rx="9.1" ry="7.3"/>
			</g>
			<g>
				<path class="st7" d="M207.2,38.5c0-11.3,15.2-20,34-20s34,10,34,21.4c0,0-21-4-32.2-3.9L207.2,38.5z"/>
			</g>
			<g>
				<polygon class="st11" points="401.1,14.1 376.9,46.7 372.4,81.3 380.4,88.7 390.4,101.6 402.9,123.5 				"/>
			</g>
			<g>
				<polygon class="st11" points="101.8,0.5 126.6,34.2 130.9,65 116.4,72.5 94.7,89.2 85.5,100.3 88.8,75.8 95.4,30.2 				"/>
			</g>
		</g>
		<g id="SHADOWS">
			<g class="st13">
				<path class="st14" d="M212.4,26c0.6-0.4,1.1-0.7,1.8-1.1c5.1-3,9.5-7.1,16.4-6.8c-5.1,2.6-6.8,8.8-3.6,13
					c-8.8,1.3-15.1,7.6-19.7,13.8c-1.9,2.6-3.9,5.3-4.3,8.4c-0.5,3,0.7,6.4,3.9,8.1c-10.4,2.9-21.2,7.3-29.9,13
					c-12.5,7.9-22.2,18.5-28.1,30.4c-3.5,6.9-5.7,14.3-6.4,21.8c-2.4,26.2,15.2,53,43.6,66.2c-1.2,8.3-2.5,16.7-1.4,24.9
					c1.5,10.5,8.4,21.7,19.4,27.6c4.6,2.6,11.3,4.9,17,3.7c5.7-1.3,9.5-7.5,16.1-6.3c1.8,0.4,3.4,1.3,4.9,2.2
					c2.9,1.6,13.2,9.3,16.8,9.3c-6.6,0.1-13,1.7-18.5,4.7c-13.6,7.3-30.1,13.9-30.6,29.2c-0.1,3.3,1.5,7.3,5.4,7.6
					c0.6,0,1.2,0,1.6,0.4c0.8,0.7-0.7,1.6-1.9,1.8c-5.8,0.9-11.6-0.4-17.5,0c-2.6,0.2-5.4,0.4-7.7,1.5c-3.5,1.8-2.7,6.1-3.7,9
					c-1.2,3.8-2.2,7.8-2.6,11.7c-1.1,8.3-0.7,16.7,1.1,24.8c0.9,4.1,2.3,8.1,4,12.1c0.8,1.9,1.8,3.8,2.8,5.8
					c0.8,1.4,2.7,3.4,2.7,4.8c-7.9-0.8-16-3.8-23.1-6.5c-3.4-1.3-6.8-2.6-10.3-3.5c-2.5-0.6-5-1-7.4-1.6c-3.5-1-6.8-2.5-10-4
					c-1.2-0.6-2.5-1.2-3.6-2c-1.5-1.1-2.5-2.5-3.4-3.9c-1.1-2-0.9-3.8-1-5.9c-0.6-13.2-1.9-26.2-4.1-39.2c-0.2-1.5-0.6-3-1.7-4.1
					c-1.2-1.2-3.2-1.6-5.1-1.9c-4.3-0.8-8.6-1.7-13-2.6c-6.2-1.3-12.7-2.6-17.9-5.7c-4.2-2.5-7.6-6.5-7.7-10.8
					c0-0.9,0.3-1.9,0.1-2.8c-0.2-1.2-1-2.4-1.4-3.5c-0.7-2.7-0.9-5.5-0.5-8.2c0.1-1,0.3-2.1-0.5-2.9c-0.5-0.4-1.1-0.6-1.7-0.8
					c-2.6-0.8-5.2-1.6-7.9-2.4c-2.5-0.7-5.1-1.6-7.6-2.5c-14.7-5.3-26.7-14.5-37.1-24.5c-0.5-0.5-0.9-1.1-0.3-1.5
					c0.2-0.2,0.7-0.2,1.1-0.3c1.5-0.3,1.7-2,0.8-2.9c-0.8-1-2.3-1.5-3.5-2c-5.1-2.5-7.4-7.2-9.3-11.7c1.7-0.1,3.5-0.2,5.2-0.2
					c2-0.1,3.9-1.8,1.2-2.7c-3.5-1.3-7-2.6-10.7-3.9c-0.7-0.3-1.5-0.5-1.7-1.1c-0.3-0.6,0.1-1.5,0.8-1.9c0.7-0.5,1.6-0.6,2.5-0.8
					c10.8-2.1,22-4.9,29.6-11.4c1.7-1.5,3.2-3,4.6-4.7c1.8-2,3.6-4,4.9-6.3c1.7-3.2,2-6.7,2.5-10.1c0.2-2.6,0.6-4.6,1.8-6.9
					c1.4-2.6,2-5.4,2.9-8c2.7-8,4.3-16.2,7.3-24.2c2.2-5.8,4.6-11.7,7.9-17.2c1.5-2.6,3.9-5,4.8-7.8c1.1-3,0.8-6.2,0.9-9.3
					c0.2-4.3,1.7-8.1,2.8-12.2c0.5-1.6-0.1-3.2,0.3-4.8c0.5-2,1.6-3.9,2.4-5.9c1.1-3,1.5-5.4,1.2-8.5c-0.1-1.2,0-2.4,0-3.6
					c0.3-6.4,0.6-12.7,2.3-18.9c0.7-2.5,1.6-4.8,2.3-7.3c2.3-7.9,2-15.9,3.2-23.9c0.3-2.2-0.7-6.8,2.9-7.5c1.8-0.4,3.5,1.1,4.5,2.4
					c3.3,4,5.7,8.1,7.9,12.5c0.8,1.6,1.6,3.1,2.4,4.7c0.5,0.9,1,1.9,1.9,2.6c2.7,1.9,2.3-2.5,4.1-3.3c1.6-0.7,3.5-0.3,5.2,0.3
					c2.6,0.9,5,2,7.4,3.1c7,3.2,13.7,5.7,21.7,6.9c7.8,1.3,16,1.8,23.4,4.5c4.6,1.7,8.7,4.3,13.6,5.3c4.9,1.1,11.1,0.1,13.3-3.7
					C208.3,30.6,208,28.9,212.4,26z"/>
			</g>
			<g class="st13">
				<path class="st14" d="M87,350.1c2.6-0.7,5.4-3.5,7.6-4.2c4.6-1.6,10.2-0.2,14.3,2.4c4,2.5,6.9,5.9,10.1,9.2
					c0.9,0.9,2.2,2,3.6,1.9c1.7,0,2.9-1.3,3.9-2.5c5.6-7,11.3-14.5,11.3-22.8c0-3.9-1.4-7.7-2.5-11.5c-1.6-5.5-2.8-11-3.6-16.6
					c-0.2-1.7-0.5-3.5-1.5-5c-2.2-3.4-7.5-5.9-11.7-3.2c-4.4,2.8-3.5,9.9-6.8,13.8c-1.4,1.6-3.1,2.9-4.4,4.5
					c-2.4,2.6-3.6,5.8-5.1,8.8c-2.8,5.8-6.6,11.2-11.1,16.3c-2.4,2.6-5.7,5.7-6.4,9C85.4,350.5,86.2,350.4,87,350.1z"/>
			</g>
			<g class="st13">
				<path class="st14" d="M164.6,117.2c1.4-3.1,3.4-6.2,5.2-8.7c3.9-5.3,9.4-9.9,14.5-14.3c3.9-3.4,7.4-6.6,12-9.3
					c1.8-1,12.5-7.3,14.5-6.3c-3.1-1.5-3.4-5.1-1.7-7.6c1.7-2.5,4.9-4.1,7.9-5.5s6.4-2.6,8.6-4.8c-6.5-1.5-12.7,0.9-18.3,3.2
					c-5.7,2.3-11.6,4.3-17.4,6.4c-4.2,1.6-8.4,3.2-12,5.5c-4.1,2.6-7.3,5.9-10.4,9.3c-4.2,4.5-8.4,8.9-11.9,13.7
					c-10.4,14.3-13.8,31.7-10.8,48.1c0.6,3,1.4,6,2.9,8.8c1,1.8,2.5,3.5,3.5,5.3c1.8,3,2.8,6.4,4.4,9.5c4.3,8.3,12.6,14.7,21.5,19.9
					c4.6,2.6,9.8,4.8,14.5,7.3c3.4,1.8,7.6,1.9,11.5,2.6c3.9,0.7,6.9,2.4,10.5,3.4c0.8,0.2,8.6,0.7,8.5,0.5
					c-1.5-1.6-2.8-3.2-4.3-4.8c-0.9-1-1.7-1.9-2.3-3.1c-0.9-2-0.5-4.2-0.1-6.4c-7.8-3.2-15.2-5.4-22.3-9.5
					c-16.2-9.3-27.8-24.2-30.2-40.2c-0.5-3.1,0.1-6,0.1-9c-0.1-3.2-1-6.1-0.6-9.4C163.3,120.4,163.9,118.8,164.6,117.2z"/>
			</g>
			<g class="st13">
				<path class="st14" d="M327.8,46.8c21.4-0.6,42.5-7.2,59-18.4c-9.5,15.6-15.2,32.9-16.6,50.2c-19.4-5.5-32.7-20.6-51.9-26.2
					c-4.9-1.5-11.9-1.8-16-4.5C307.7,44.8,321.4,46.9,327.8,46.8z"/>
			</g>
			<g class="st13">
				<path class="st14" d="M378.8,271.1c4,0.2,8.3,0.5,11.6,2.3c0.3-4.7,0.1-9.2-0.6-13.9c-14.1,3.3-28.6,5.3-43.2,6.2
					c-4.1,0.3-8.2,0.4-12.2,0.1c-4.4-0.3-8.8-1-13.2-1.7c-7.5-1.3-15.8-3.5-23.4-3.7C300.8,274,365.5,270.8,378.8,271.1z"/>
			</g>
			<g class="st13">
				<path class="st14" d="M434,316.8c4,0.5,5.4-0.7,6.9-3.7c1.1-2.4,2.3-4.5,5.2-5.6c1.7-0.6,3.5-0.9,5.3-1.6
					c4.9-1.6,9-4.4,12.9-7.1c1.9-1.4,3.6-2.7,5.9-3.6c2.4-0.9,4.9-1.8,7.3-2.7c9.1-3.7,18.3-7.9,26.9-12.3c1.2-0.6,2.5-1.4,3.2-2.5
					c0.6-0.9,0.7-2,0.7-3.1c-0.2-3.4-2.2-6.7-5.3-8.9c0.7,4.2-2.7,7.8-6.7,10.2c-3.7,2.3-8.2,3.8-12.2,5.8
					c-7,3.3-13.2,7.8-20.2,11.1c-6.5,3.1-13.3,4.7-20.9,4.1c-3.1-0.2-4.3-0.4-5.9-2.7c-1.1-1.7-1.6-4.2-4.2-4.9
					c-3.1-0.7-5.7,2.2-6.2,4.8c-0.6,2.6-0.6,5.6-2.9,7.2c-0.5-1.6-2.9-2.7-4.9-2.2c-0.3,2.5-2.5,5.7-5.2,4.7
					c-0.9-0.4-1.5-1.2-2.3-1.7c-3.1-2.4-7.9-0.7-11.7,0.7c-13.4,5.2-30.7,7.2-42.1-0.5c-1.7-1.2-3.3-2.6-5-3.7
					c-3.3,4.5-4.6,10.8-5.8,15.9c-1.1,4.7-3.1,11.2-2.2,16c0.1,0.8,54.8-7.9,58.7-9c1.7-0.4,3.4-0.7,5.1-1.2c0.5-0.1,1-0.2,1.5-0.1
					c0.6,0.1,1,0.5,1.6,0.6c2.2,0.5,3.3-2.5,5.6-2.6c1.6-0.1,3.4,1.4,4.6,0.5c0.2-0.2,0.3-0.4,0.6-0.5c0.9-0.7,2.4,0,3.4,0.7
					c1,0.6,2.7,1.1,3.3,0.2c0.3-0.6-0.2-1.5,0.3-2c0.3-0.4,1.1-0.4,1.7-0.3C432,316.6,433,316.7,434,316.8z"/>
			</g>
			<g class="st13">
				<path class="st14" d="M209.6,371.8c-15.2-3-30.4-5.9-45.7-9c2.7,6.9,5.7,13.8,9,20.6c1.8,3.7,3.9,7.8,8.1,10
					c3.5,1.9,8.1,2.3,12.2,2.6c15,1.1,29.9,2.2,44.9,3.3c-5.9-0.5-13.2-2.7-17.1-6.4c-2.5-2.4-4.1-3.9-2.7-6.8
					c1.4-2.7,5.2-5,8.5-6.2c2.4-0.8,5.2-1.2,7.7-0.5c2.5,0.7,4.5,2.6,4.4,4.8c0.2-2.1,0.2-4.3,0-6.4c-0.1-0.5-0.1-1.1-0.6-1.6
					c-1.7-2.1-11.7-2-14.5-2.4C219,373.3,214.2,372.7,209.6,371.8z"/>
			</g>
			<g class="st13">
				<path class="st14" d="M250.5,380.3c0.5,0.5,0.8,1.1,1.4,1.6s1.2,0.6,1.9,1c2.2,1.1,3.5,3.2,3.3,5.2c0.8-2.6,1.7-5.5,4.3-7.1
					c1.2-0.7,2.7-1.2,4.2-1.5c1.6-0.3,3.2-0.5,4.8-0.2c1.6,0.3,2.9,1.2,3.5,2.4c2.7-3.4,6.4-6.2,10.4-8.4c0.9-0.5,1.9-0.9,2.9-1.2
					c1.9-0.5,4.2,0.1,5.7,1.2c1.5,1.2,2,2.9,1.6,4.6c0.8-2.1,2.2-4.1,4.4-5.4c2.2-1.3,5.2-1.7,7.7-0.8c2.5,0.9,4.1,3.4,3.2,5.5
					c0.2-3.2,1.1-6.3,2.8-9.2c0.9-1.6,2-3.2,2.5-4.9c0.1-0.3,0.1-0.6,0-0.9c-0.5-0.9-2.3-0.5-3.3,0c-14.7,7.1-32.9,7.5-49.6,11
					c-3.7,0.7-7.4,1.7-11.1,2.3c-2.8,0.5-7.7,0.1-10.1,1.4C244.1,378.2,248,377.6,250.5,380.3z"/>
			</g>
			<g class="st13">
				<path class="st14" d="M223.8,381.9c-0.3,0.4-0.8,0.6-1.4,0.7"/>
			</g>
			<g class="st13">
				<path class="st14" d="M172.7,89.4c0.2,0.2,0.6,0.4,0.8,0.5c0.9,0.4,1.9,0.6,2.9,0.5c1-0.2,1.9-0.7,2.2-1.6c-0.3,0-0.7,0.1-1,0.2
					c-0.6,0.2-1.1,0.3-1.7,0.2c-0.6-0.1-1.1-0.4-1.4-0.7c-0.1-0.2-0.2-0.5-0.2-0.6c0-0.4,0-0.6,0.1-1c0.1-0.2,0.7-0.6,0.7-0.8
					c0-0.5-1-0.5-1.5-0.3C171.8,86.2,171.4,88.3,172.7,89.4z"/>
			</g>
			<g class="st13">
				<path class="st14" d="M150.5,137.1c-0.9,0.4-1.6,1.3-1.6,2.1c0,0.8,0.6,1.7,1.4,2.3c1.2,0.7,3.2,0.5,4-0.5
					c0.6-0.6,0.7-1.5,0.8-2.2c-1,1-4,0.7-4.1-0.8c0-0.2,0-0.5-0.1-0.6c-0.1-0.2-0.6-0.3-0.7-0.1c-0.1,0.1-0.2,0.3-0.3,0.4"/>
			</g>
			<g class="st13">
				<path class="st14" d="M176,181.7c0.1,0,0.2,0,0.3-0.1c1-0.2,2.4-1,2.4-1.9c0.1-1.7-1.4-0.2-2.4-0.1c-0.5,0.1-1.7,0-2-0.4
					c-0.2-0.2-0.2-0.5-0.2-0.7c0-0.1-0.1-1.6,0-1.6C170.6,178.2,171.8,182.2,176,181.7z"/>
			</g>
			<g class="st13">
				<path class="st14" d="M235.8,199.3c-0.3,0-0.7,0-1.1,0c-1-0.2-1.7-1.1-1.5-1.9c-0.7,0.3-1,1-0.9,1.7c0.1,0.6,0.7,1.2,1.2,1.6
					c0.3,0.3,0.6,0.5,1,0.6c0.8,0.4,1.8,0.3,2.5-0.1c0.8-0.4,1.4-0.9,1.7-1.6c0.1-0.2,0.1-0.4,0.1-0.5
					C238.8,197.6,236.9,199.2,235.8,199.3z"/>
			</g>
			<g class="st13">
				<path class="st14" d="M231.4,66.7c0-0.1,0-0.3,0-0.4c0-0.6-2.2,0.3-2.3,0.4c-1,1-1.7,2.1-0.7,3.2c0.9,0.8,2.5,1.6,3.9,1.3
					c0,0,0.1,0,0.1-0.1c0.2-0.1,0.1-0.3,0-0.5c-0.1-0.1-0.3-0.2-0.6-0.2c-0.9-0.3-1.6-1.1-1.6-1.9C230.3,67.8,231.1,67.4,231.4,66.7
					z"/>
			</g>
			<g class="st13">
				<path class="st14" d="M293.3,92.7c0.5,0.1,1,0.1,1.6,0c1-0.2,2-0.5,2.5-1.2c0.2-0.3,0.3-0.7-0.1-0.9c-0.2-0.1-0.6,0-0.8,0.1
					c-1,0.3-2.2,0.4-2.9-0.3c-0.7-0.5-0.5-1.3-0.5-1.9c-0.5-0.1-0.8,0.2-1.1,0.5C290.7,90.3,291.5,92.3,293.3,92.7z"/>
			</g>
			<g class="st13">
				<path class="st14" d="M313.1,132.4c0,1,0.8,1.9,1.8,2.5c1,0.5,2.4,0.5,3.4-0.1c1-0.5,1.5-1.6,1.1-2.5c-0.5,0.2-0.8,0.5-1.2,0.7
					c-0.9,0.5-2.3,0.3-2.9-0.5C314.7,131.9,313.1,130.7,313.1,132.4z"/>
			</g>
			<g class="st13">
				<path class="st14" d="M298,174.9c-0.6,0-1.1-0.1-1.5-0.4c-0.6-0.5-0.3-1.3-0.8-1.7l-0.1-0.1c-0.1,0-0.1,0-0.2,0.1
					c-1.1,0.8-1.4,2.3-0.6,3.3c0.2,0.3,0.6,0.5,0.9,0.7c0.5,0.2,1,0.3,1.6,0.3c0.7,0.1,1.5,0.1,2-0.2c0.5-0.2,0.8-0.6,1-1
					c0.3-0.5,0.5-1.1,0.5-1.6c0-0.2-0.3-1.3-0.9-1c-0.2,0.1-0.1,0.7-0.2,0.9C299.5,174.7,298.7,174.9,298,174.9z"/>
			</g>
		</g>
		<g id="LIGHTS">
			<g>
				<path class="st6" d="M277.9,126.1c0.2,9.1-3.6,18.4-10.9,25.5c5.4,0.1,10.7-2.2,14.3-5.4c3.6-3.2,6-7.3,7.9-11.3
					c2.2-4.7,4-9.5,3.6-14.4c-0.3-5.5-3.2-10.6-6.7-15.3c-3.6-5-8.3-10.1-14.9-12.9c-5-2.1-10.8-3.1-9.2,2.6c1.4,4.8,6.8,9,9.6,13.2
					C275.6,113.5,277.6,119.8,277.9,126.1z"/>
			</g>
			<g class="st13">
				<path class="st6" d="M362.5,115.8c1.9,4.3,7.3,9,12.2,6.9c4.2-1.7,4.1-6.6,2.9-10.3c-1.6-5.2-45.8-66.3-55.5-41.3
					c-2.6,6.9,11.2,13.2,15.8,17.2c9.5,8.3,19.8,16.6,24.4,27.4C362.5,115.6,362.5,115.7,362.5,115.8z"/>
			</g>
			<g class="st13">
				<path class="st6" d="M360.6,28.6c-7,2.9-14.3,5.4-21.9,6.9c-2.4,0.5-5.3,1.2-5.6,3.1c16.6,0.6,30.8-8.5,46.7-12.3
					c4.3-1,9-1.7,12.9-3.5c4-1.7,7.4-5,7.1-8.7c-0.1-1.6-25.4,8.3-27.8,9.4C368.4,25.2,364.5,26.9,360.6,28.6z"/>
			</g>
			<g>
				<path class="st15" d="M390.2,151.6c-1.7,7.7-2.5,15.5-2.3,23.4c6.8,1.2,12.7-4.8,12.6-10.3c-0.1-5.6-4.3-10.5-8.3-15"/>
			</g>
			<g class="st13">
				<path class="st6" d="M286.6,79c-2.3-0.5-4.5-0.6-6.8-0.4c-0.5,0.1-0.9,0.1-1.1,0.4c-0.7,0.5-0.6,1.2-0.3,1.8
					c1,3,4.5,4.8,7.6,6.8c3.2,2,6,4.2,8.8,6.5c1.6,1.3,3.2,2.6,4.3,4.1c1.1,1.6,1.7,3.6,2.6,5.3c0.3,0.8,1.2,1.8,2.3,1.6
					c0.5-0.1,0.8-0.5,1.1-0.8c1.1-1.6,1.5-3.5,1.5-5.3c0-0.9,0-1.8-0.3-2.7c-0.3-0.8-0.8-1.5-1.4-2.2c-1.2-1.6-2.5-3.3-3.7-4.9
					c-1.7-2.3-3.5-4.6-6.4-6c-1.4-0.7-2.8-1.3-4.2-2C289.2,80.3,288.3,79.5,286.6,79z"/>
			</g>
			<g class="st13">
				<path class="st6" d="M243,23.1c-0.7,0.2-1.5,0.5-1.5,1.2c0,0.5,0.7,0.9,1.4,1.2c2.4,0.9,4.8,1.6,7.1,2.5c2.3,1,4.4,2.4,5.4,4.2
					c0.2,0.4,0.3,0.7,0.7,1c0.7,0.6,1.9,0.6,2.9,0.5c0.9-0.1,1.8-0.2,2.5-0.7c1.7-1.3,0.3-4.5-0.6-5.8c-1.1-1.6-2.8-2.7-4.9-3.6
					C252.2,22.1,247.1,21.9,243,23.1z"/>
			</g>
			<g>
				<path class="st15" d="M289.9,368.2c-3.1,6.4-6.7,12.6-10.7,18.7c6.7,1.6,15.1-0.2,18.1-5.3c3.1-5.1-3.1-12.4-9.8-10.8"/>
			</g>
			<g class="st13">
				<path class="st6" d="M368.8,281.5c-0.8,1-1.8,1.7-2.9,2.5c-3.2,2-6.6,3.7-10.3,4.8c-0.9,0.3-1.8,0.7-1.9,1.5
					c-0.1,0.9,1.1,1.5,2.2,1.7c6.2,1.6,13.3,0.5,18.4-2.7c1.4-0.8,2.5-1.8,3.3-3c1.1-1.7,1.4-3.8,1.4-5.8c0-1.4-0.2-2.7-1-3.9
					c-1.2-2-4.8-3.1-6.8-1C369.5,277.1,370.2,279.7,368.8,281.5z"/>
			</g>
			<g class="st16">
				<path class="st3" d="M489.7,257.6c0.3,0.5,0.7,1,1.2,1.4c0.8,0.5,1.9,0.3,2.8,0.3c2.2,0,4.3,1,5.3,2.6c1,1.6,1,3.5-0.1,5
					c-0.6,0.7-1.5,1.6-1.2,2.5c0.1,0.5,0.6,0.9,0.9,1.3c1.4,1.6,1.5,4.1-0.2,5.6c-1.7,1.5-5,1.6-6.6,0c-0.3-0.4-0.7-0.8-1.1-0.9
					c-1-0.2-1.6,0.8-2.2,1.5c-1.5,2.1-5,2.7-7.8,2.1c-2.8-0.6-5.1-2.5-6.7-4.5c-1.2-1.5-2.3-3.2-2.5-5c-0.5-4.6,5.2-5,7.3-8.4
					C480.5,257.8,485.9,253.1,489.7,257.6z"/>
			</g>
			<g class="st16">
				<path class="st3" d="M489.3,258.8c0.3,0.5,0.6,0.9,1.1,1.2c0.7,0.4,1.7,0.3,2.5,0.3c1.9,0,3.7,0.9,4.8,2.2
					c0.9,1.4,0.9,3.1-0.1,4.4c-0.6,0.6-1.2,1.4-1.1,2.1c0.1,0.5,0.5,0.7,0.8,1.1c1.2,1.5,1.2,3.6-0.2,4.9c-1.5,1.3-4.4,1.4-5.8,0
					c-0.3-0.3-0.6-0.7-1-0.8c-0.9-0.2-1.5,0.7-1.9,1.4c-1.4,1.8-4.4,2.5-6.9,1.8c-2.5-0.6-4.4-2.2-5.9-3.9c-1.1-1.4-2-2.8-2.2-4.4
					c-0.3-4,4.6-4.4,6.5-7.4C481.2,258.9,486,254.8,489.3,258.8z"/>
			</g>
			<g class="st16">
				<path class="st3" d="M490.3,256.2c0.5,0.5,0.8,1.2,1.5,1.6c0.9,0.5,2.2,0.3,3.3,0.3c2.5,0,5,1.1,6.2,2.9c1.2,1.7,1.1,4-0.1,5.8
					c-0.7,0.9-1.7,1.7-1.5,2.8c0.1,0.5,0.6,1,1,1.5c1.6,1.9,1.6,4.8-0.3,6.4c-1.9,1.7-5.8,1.8-7.6,0c-0.3-0.5-0.7-0.9-1.4-1.1
					c-1.1-0.3-1.9,0.9-2.5,1.7c-1.7,2.4-5.8,3.2-9,2.4s-5.8-2.8-7.7-5.1c-1.5-1.7-2.6-3.7-2.8-5.8c-0.5-5.2,6.1-5.8,8.4-9.7
					C479.7,256.4,485.9,251,490.3,256.2z"/>
			</g>
			<g class="st16">
				<path class="st3" d="M490.4,254.2c0.6,0.6,0.9,1.4,1.7,1.8c1.1,0.6,2.5,0.4,3.9,0.4c2.9,0,5.9,1.4,7.3,3.4
					c1.5,2.1,1.4,4.8-0.1,6.8c-0.8,1-2,2.1-1.7,3.3c0.1,0.6,0.7,1.2,1.1,1.7c1.9,2.3,1.9,5.6-0.3,7.6c-2.3,2-6.8,2.1-8.8,0
					c-0.5-0.5-0.9-1.1-1.6-1.3c-1.4-0.3-2.3,1.1-2.9,2c-2,2.8-6.8,3.7-10.7,2.8s-6.8-3.4-9.1-6c-1.7-2-3.2-4.4-3.4-6.9
					c-0.6-6.2,7.1-6.9,9.9-11.5C477.9,254.4,485.3,248.1,490.4,254.2z"/>
			</g>
			<g class="st13">
				<path class="st6" d="M323.2,340.5c-2.3,2.8-4.9,5.5-8.1,7.8c-7.5,5.6-16.2,10.8-26.4,11.7c10.4,1.5,21-2.1,30.4-6.1
					c3.2-1.4,6.4-2.8,8.8-4.8c1.8-1.5,3.3-3.2,4.5-4.9c4.6-6.5,7.3-14,7.5-21.5c0.1-4.9-1.1-11.7,3.6-15.3c1.6-1.2,2.9-3.3,1.4-4.5
					c-11.9,0.7-23.5,3.8-33.6,9c-0.8,0.5-1.8,1.1-1.5,1.9c0.1,0.4,0.6,0.6,1,0.8c5,2.1,10.7-3.1,16-2c2.8,0.5,4.8,2.7,5.3,5
					s0,4.7-0.7,6.9C329.7,330.2,327.1,335.6,323.2,340.5z"/>
			</g>
			<g class="st13">
				<path class="st6" d="M308.4,106.2c-1.2,0.8-2.6,1.6-3.2,2.9c-0.6,1.3,0.2,2.9,1.8,3.1c1.1,0.1,2.2-0.5,2.8-1.2
					c1.1-1.2,1.4-2.9,0.7-4.3c-0.1-0.2-0.2-0.5-0.5-0.5c-0.2-0.1-0.6,0-0.7,0.3"/>
			</g>
			<g>
				<path class="st6" d="M262.2,157.8c-1.2-0.1-2.3,0.9-2.7,1.9c-0.7,1.6-0.2,3.8,1.7,4.6c0.8,0.3,1.7,0.4,2.6,0.3
					c2-0.2,4.1-0.9,5.1-2.4c1-1.5,0.8-3.5-0.9-4.4c-1.9-1.1-4.6-0.3-6.9,0.5"/>
			</g>
			<g class="st13">
				<path class="st6" d="M378.3,208.3c3.2,5,3.3,11.1,0.3,16.3c-2.9,5.1-8.8,9-15.5,10.3c5.9,1.4,12.5,0.7,17.8-1.8
					c5.3-2.5,9.3-6.8,10.7-11.6c0.5-1.4,0.6-2.7,0.6-4.1c-0.1-3.7-2-7.2-4.3-10.4c-1.8-2.6-4-5-7.1-6.5c-2.6-1.2-5.7-1.6-8.6-1.6
					c-3.1,0-6.9,0.3-9.5,1.6c1.9,1,4.8,1,6.9,1.6C373.6,203.2,376.5,205.3,378.3,208.3z"/>
			</g>
			<g class="st13">
				<path class="st6" d="M102.3,225.3c-5.9-1.6-10.8-5.4-12.9-10.1c-0.6,0.8-0.3,1.9,0,2.8c0.9,2.5,1.9,5.1,4.2,6.9
					c2.3,1.8,6.4,2.5,8.7,0.7c-0.2-0.5-1.5-0.6-1.7,0"/>
			</g>
			<g class="st13">
				<path class="st14" d="M200.3,338.4c-0.1,2,0.3,4,0.8,6c2,8.1,6.9,16.4,16.1,20.2c5.4,2.2,11.7,2.5,17.7,2.7
					c3.6,0.2,7.3,0.3,10.8-0.2s7-1.6,9.5-3.7c2.6-2.3,3.7-5.3,4.9-8.2c-9.9,7.7-25.5,10.1-38.2,5.9c-10.7-3.6-16.4-14.3-16.8-23.2
					c0-1.3,0.3-2.6,0.7-3.7c0.6-1.9,1.1-3.9,1.7-5.8c0.2-0.6,0.3-1.3,0.7-1.8c0.8-1.3,2.6-2.3,2.7-3.7
					C204.7,325.3,200.5,332.9,200.3,338.4z"/>
			</g>
			<g class="st13">
				<path class="st14" d="M219.9,330.4c-0.8,0.5-1.5,1.3-2.4,1.7c-1.1,0.5-2.4,0.8-3.6,1.1c-1.5,0.3-3.1,0.5-4.5,0.9
					c2.3,0.1,4.6,0.1,6.9,0.1c1.1,0,2.4,0,3.5,0c0.8,0,1.9,0.1,2.3-0.7c0.2-0.6,0.7-1.1,1.1-1.6c0.5-0.5,0.9-1.1,1.5-1.6
					c0.5-0.5,1-0.9,1.6-1.5c0.2-0.3,0.5-0.5,0.7-0.7c0.1-0.1,0.5-0.8,0.7-0.8C224.8,327.7,221.9,328.9,219.9,330.4z"/>
			</g>
			<g class="st13">
				<path class="st14" d="M214.5,343.2c0.2,0.1,0.6,0.1,0.8,0.2c0.8,0.2,1.6,0.3,2.3,0.5c2.8,1.1,4.6,3.7,6.9,5.5
					c4.1,3.1,10.3,3.9,15.9,3c1.5-0.3,3.1-0.6,4.2-1.4c1.2-0.8,2-2.1,2.2-3.4c-2.9,1.8-7.1,3.1-10.9,2.7c-1-0.1-1.9-0.2-2.9-0.4
					c-2-0.4-4.2-0.9-5.9-1.9c-0.9-0.5-1.6-1.2-2.2-1.8c-0.8-0.8-1.5-1.6-2-2.5c-0.3-0.4-0.8-0.9-0.9-1.4c-0.1-0.3,0.1-0.7-0.2-1
					c-0.3-0.3-1.7-0.3-2.3-0.4c-1.1,0-2.3,0-3.4,0c-2.6,0-5.1,0.3-7.7,0.4c1.1,0.4,2.3,0.6,3.4,1C212.5,342.7,213.4,343,214.5,343.2
					z"/>
			</g>
		</g>
		<g id="DETAILS">
			<g>
				<path d="M412.7,320.5c-0.1,0-0.2,0-0.3,0c-1.4-0.3-3.2-0.8-4.5-2.4c-0.3-0.5-0.2-1,0.3-1.3c0.6-0.3,1.2-0.2,1.6,0.3
					c0.6,0.7,1.5,1.3,2.8,1.6c0.7-0.4,1.5-1.2,2.2-1.9c0.5-0.5,1-1,1.5-1.5c0.2-0.2,0.5-0.3,0.8-0.3l0,0c0.3,0,0.6,0.1,0.8,0.3
					l0.2,0.2c1,0.8,1.7,1.5,2.6,1.6c0-0.2,0-0.4,0-0.5c0-0.5,0-1.1,0.3-1.6c0.1-0.3,0.3-0.5,0.7-0.5c0.3-0.1,0.7,0,0.9,0.1
					c0.5,0.3,1,0.5,1.5,0.8c1.5,0.8,3.2,1.7,4.4,1.6c0-0.3-0.1-0.9-0.2-1.3c-0.1-0.6-0.3-1.3-0.2-1.8c0-0.3,0.2-0.5,0.5-0.7
					c0.3-0.2,0.7-0.2,1-0.1c0.8,0.2,1.6,0.5,2.4,0.8c1.8,0.6,3.5,1.3,4.9,0.9c0.9-0.5,1.9-2.6,2.8-4.4c0.8-1.6,1.5-3.1,2.4-4.1
					c0.3-0.4,1.1-0.5,1.6-0.2c0.5,0.3,0.6,0.9,0.2,1.3c-0.7,0.8-1.4,2.3-2,3.7c-1.1,2.4-2.2,4.6-3.9,5.4c-0.1,0-0.1,0.1-0.2,0.1
					c-2.3,0.7-4.6-0.2-6.8-1c-0.2-0.1-0.3-0.1-0.6-0.2l0,0c0.2,1.1,0.6,2.4-0.6,3.1c-0.1,0.1-0.2,0.2-0.3,0.2
					c-2.4,0.6-4.6-0.6-6.8-1.7c0,0.7-0.2,1.6-1.4,2c-0.1,0-0.1,0-0.2,0c-1.9,0.3-3.3-0.6-4.3-1.5c-0.2,0.2-0.3,0.4-0.6,0.6
					c-1,1.1-2.2,2.2-3.5,2.6C412.9,320.5,412.8,320.5,412.7,320.5z"/>
			</g>
			<g>
				<path d="M401.9,287.5L401.9,287.5c-0.7,0-1.1-0.5-1.1-0.9c0.1-3.4-0.2-4.5-0.2-4.8c-0.1-0.5-0.1-0.8,0.5-1.2
					c0.1-0.1,0.2-0.2,0.6-0.5c0.2-0.2,0.5-0.4,0.8-0.4c1.5-0.1,2.4,0.5,3.2,1.2c0-0.1,0-0.1-0.1-0.2c-0.5-1.2-0.9-2.8,0.6-4.5
					c0.1-0.2,0.5-0.3,0.7-0.4c1.8-0.3,3.2,0.3,4.4,1.1c-0.1-0.6,0.1-1.2,0.8-1.7c1.6-1.1,3.6-0.5,5.8,0.5c0.1-0.5,0.3-0.9,0.7-1.5
					c0.2-0.3,0.6-0.4,0.9-0.4c3.3-0.2,5.8,1.1,7.9,2.2c0.5,0.3,0.9,0.5,1.4,0.7c0.6,0.3,0.7,0.8,0.5,1.3s-1,0.5-1.6,0.4
					c-0.5-0.3-1-0.5-1.5-0.7c-1.9-1-3.7-1.9-6-1.9c-0.2,0.5,0,0.7,0.7,1.3c0.3,0.3,0.6,0.5,0.9,1c0.2,0.4,0.1,0.8-0.2,1.1
					c-0.3,0.3-1,0.3-1.4,0.1c-1.8-1-5.4-3.2-6.5-2.6c-0.3,0.3,0.1,1.1,0.8,2.2c0.5,0.6,0.8,1.4,1,2c0.1,0.4-0.1,0.7-0.5,1
					c-0.3,0.2-0.9,0.2-1.2,0c-0.9-0.5-1.7-1.3-2.4-1.9c-1.4-1.3-2.4-2.1-3.5-2.1l0,0c-0.5,0.8-0.3,1.6,0.1,2.6
					c0.3,1.1,0.8,2.4-0.2,3.6c-0.2,0.2-0.5,0.4-0.8,0.4c-0.3,0-0.7,0-0.9-0.2c-0.6-0.4-1-0.8-1.4-1.3c-0.6-0.6-0.9-1-1.4-1.1
					c0,0.1-0.1,0.1-0.1,0.1c0.1,0.6,0.3,1.9,0.2,4.9C403.1,287,402.5,287.5,401.9,287.5z"/>
			</g>
			<g>
				<path d="M408.8,319.4c-0.1,0-0.2,0-0.3,0c-1.2-0.1-2.2-1-1.9-2c0.1-1,0.5-1.9,0.7-2.7c0.2-0.8,0.5-1.6,0.6-2.4
					c0.3-2.4,0.8-4.9,0.5-7.3c-0.2-1.6-0.7-3.1-1.2-4.8c-0.2-0.5-0.3-1.1-0.6-1.6c-1.2-4.1-2.5-7.9-6.1-10.6c-0.9-0.6-1-1.8-0.1-2.6
					c0.8-0.7,2.3-0.8,3.2-0.1c4.6,3.4,6.1,7.9,7.5,12.4c0.2,0.5,0.3,1.1,0.6,1.6c0.6,1.7,1.1,3.5,1.4,5.3c0.3,2.8-0.1,5.5-0.5,8.1
					c-0.1,1-0.5,1.9-0.7,2.7c-0.2,0.8-0.5,1.6-0.6,2.5C411,318.7,410,319.4,408.8,319.4z"/>
			</g>
			<g>
				<path d="M443.9,307.8c-0.2,0-0.3,0-0.6-0.1c-1.2-0.3-1.9-1.3-1.6-2.2c1.4-4.2,0.1-7.9-1.4-12.1c-0.6-1.6-1-3.1-1.5-4.8
					c-0.1-0.6-1.1-1.9-1.7-2.8c-0.3-0.5-0.6-0.8-0.8-1.2c-0.8-1.3-2.7-2.4-4.6-3.4c-0.5-0.3-1-0.5-1.5-0.8c-0.8-0.5-1.2-0.9-1.6-1.2
					c-0.1-0.1-0.1-0.1-0.2-0.2c0,0-0.1,0-0.2,0c-1.2-0.2-2-1.1-1.8-2.1c0.2-1,1.4-1.6,2.6-1.5c1.8,0.3,2.5,0.9,3.2,1.6
					c0.2,0.2,0.3,0.4,0.7,0.5c0.5,0.3,0.9,0.5,1.4,0.7c2.3,1.2,4.9,2.6,6.1,4.8c0.2,0.3,0.5,0.6,0.7,1c0.9,1.3,1.9,2.7,2.2,3.8
					c0.5,1.6,0.9,3.1,1.5,4.7c1.6,4.5,2.9,8.8,1.4,14C445.8,307.2,444.9,307.8,443.9,307.8z"/>
			</g>
			<g>
				<path d="M238.3,400.7L238.3,400.7c-0.7,0-1.1-0.5-1.1-1c0.2-2.3,0.5-4.5,0.7-6.6c0.7-5.8,1.4-11.3,1-17.8c0-0.5,0.5-0.9,1.1-0.9
					c0.6,0,1.1,0.4,1.1,0.9c0.3,6.7-0.3,12.2-1,18.1c-0.2,2.1-0.5,4.2-0.7,6.5C239.4,400.3,239,400.7,238.3,400.7z"/>
			</g>
			<g>
				<path d="M255.2,399.8c-0.1,0-0.2,0-0.2,0c-0.6-0.1-1-0.6-0.8-1.1c1.9-6.4,3.9-15.9,1.7-25.3c-0.1-0.5,0.3-1,0.9-1.1
					c0.7-0.1,1.2,0.3,1.4,0.7c2.3,9.7,0.3,19.5-1.7,26C256.2,399.6,255.7,399.8,255.2,399.8z"/>
			</g>
			<g>
				<path d="M218.9,399.7c-0.5,0-0.9-0.3-1.1-0.6c-3.2-9.3-3.3-17.3-0.1-26.6c0.1-0.5,0.8-0.8,1.4-0.6c0.6,0.1,0.9,0.6,0.8,1.1
					c-3.1,9-2.9,16.6,0.1,25.6c0.1,0.5-0.2,1-0.8,1.1C219,399.7,218.9,399.7,218.9,399.7z"/>
			</g>
			<g>
				<path d="M269.1,398.8c-0.1,0-0.2,0-0.3-0.1c-0.6-0.2-0.9-0.7-0.7-1.2c2.9-6.7,6.2-16.8,4.9-27.1c-0.1-0.5,0.3-0.9,1-1
					c0.6,0,1.1,0.3,1.2,0.8c1.4,10.6-2,21-5,27.9C270,398.6,269.6,398.8,269.1,398.8z"/>
			</g>
			<g>
				<path d="M290.7,395.9c-0.1,0-0.2,0-0.3,0c-0.6-0.2-0.9-0.6-0.8-1.1c2.9-8,5.6-16.6,3.4-24.8c-0.1-0.4-0.2-0.8-0.3-1.2
					c-0.2-0.5-0.3-1.2-0.5-1.8c-0.1-0.5,0.3-1,0.9-1.1c0.6-0.1,1.2,0.3,1.4,0.7c0.1,0.6,0.3,1.2,0.5,1.7c0.1,0.4,0.2,0.8,0.3,1.2
					c2.3,8.7-0.5,17.4-3.5,25.7C291.7,395.6,291.2,395.9,290.7,395.9z"/>
			</g>
			<g>
				<path d="M200.3,398.1c-0.5,0-0.9-0.3-1.1-0.6c-2.7-7.4-0.5-15.3,1.5-22.2l0.2-0.8c0.5-1.6,0.8-2.9,1.7-4.6
					c0.2-0.5,0.9-0.6,1.5-0.5s0.8,0.7,0.6,1.2c-0.8,1.4-1.1,2.6-1.6,4.2l-0.2,0.8c-1.9,6.7-4,14.3-1.5,21.3c0.2,0.5-0.1,1-0.8,1.1
					C200.5,398.1,200.4,398.1,200.3,398.1z"/>
			</g>
			<g>
				<path d="M185.9,395.5c-0.5,0-0.9-0.2-1-0.5c-3.5-7-2.2-15.3-1-22.7c0.3-1.8,0.6-3.6,0.8-5.3c0.1-0.5,0.6-0.8,1.2-0.8
					c0.6,0.1,1.1,0.5,1,1c-0.2,1.7-0.5,3.5-0.8,5.3c-1.1,7.5-2.4,15.2,0.9,21.8c0.2,0.5,0,1-0.7,1.2
					C186.2,395.5,186,395.5,185.9,395.5z"/>
			</g>
			<g>
				<path d="M482.1,277.3c-1.8,0-3.5-0.7-4.5-2.1c-0.6-0.9-0.8-1.9-0.5-2.9c-1.1-0.4-2.2-1-2.7-1.9c-0.7-1-0.8-2.1-0.5-3.1
					c0.3-1.1,1.2-1.9,2.5-2.5c1.9-0.8,4.3-0.6,5.9,0.5c0.1-0.1,0.2-0.1,0.3-0.2c1.2-0.5,2.6-0.6,3.9-0.4c1.8,0.2,3.1,0.9,3.1,2
					c0.7,1,0.8,2.1,0.5,3.1c-0.3,1-1.2,1.9-2.5,2.5c-0.1,0.1-0.2,0.1-0.3,0.1c0.3,1.7-0.7,3.4-2.6,4.2
					C483.7,277.2,482.9,277.3,482.1,277.3z M478.8,264.8c-0.8,0-1.5,0.2-2.2,0.5c-1,0.5-1.8,1.3-2.2,2.2c-0.3,0.9-0.2,1.9,0.3,2.7
					c0.6,0.8,1.5,1.5,2.6,1.7c0.1,0,0.2,0.2,0.2,0.3c-0.3,0.9-0.2,1.9,0.3,2.7c1.2,1.7,4,2.4,6.1,1.5c1.7-0.7,2.6-2.4,2.3-3.9
					c0-0.1,0-0.2,0.2-0.3c0.1-0.1,0.3-0.1,0.5-0.2c1-0.5,1.8-1.3,2.2-2.2c0.3-0.9,0.2-1.9-0.3-2.7c-0.6-0.8-1.6-1.5-2.7-1.7
					c-1.1-0.3-2.4-0.2-3.4,0.3c-0.1,0.1-0.3,0.2-0.5,0.2c-0.1,0.1-0.2,0.1-0.3,0C481.2,265.2,480,264.8,478.8,264.8z"/>
			</g>
			<g>
				<path d="M482.3,274.6c-0.3,0-0.6,0-0.9-0.1c-0.8-0.2-1.5-0.6-1.9-1.2c-0.3-0.5-0.5-1.2-0.3-1.8c-0.8-0.2-1.4-0.6-1.7-1.2
					c-0.5-0.6-0.5-1.3-0.2-1.9c0.2-0.6,0.8-1.2,1.5-1.6c1.2-0.5,2.7-0.4,3.6,0.4c0.1,0,0.1-0.1,0.2-0.1c0.8-0.4,1.6-0.4,2.4-0.2
					c0.8,0.2,1.5,0.6,1.9,1.2c0.8,1.3,0.2,2.8-1.2,3.5c-0.1,0-0.1,0.1-0.2,0.1c0.2,1.1-0.5,2.1-1.6,2.6
					C483.4,274.4,482.8,274.6,482.3,274.6z M480.3,266.6c-0.5,0-0.9,0.1-1.4,0.3c-0.7,0.3-1.1,0.8-1.4,1.4c-0.2,0.6-0.1,1.2,0.2,1.7
					c0.3,0.5,1,0.9,1.7,1.1c0.1,0,0.1,0.1,0.1,0.2c-0.2,0.5-0.1,1.2,0.2,1.7c0.3,0.5,1,0.9,1.7,1.1c0.8,0.2,1.5,0.1,2.2-0.2
					c1.1-0.5,1.7-1.5,1.5-2.5c0-0.1,0-0.1,0.1-0.1c0.1,0,0.2-0.1,0.3-0.1c0.7-0.3,1.1-0.8,1.4-1.4c0.2-0.6,0.1-1.2-0.2-1.7
					c-0.8-1.1-2.5-1.6-4-0.9c-0.1,0-0.2,0.1-0.2,0.2c0,0-0.1,0-0.2,0C481.8,266.9,481,266.6,480.3,266.6z"/>
			</g>
			<g>
				<path d="M484.9,263.6c-1.2,0-2.4-0.5-3.1-1.4c-1-1.4-0.6-3.2,1.1-4c1.7-0.8,4-0.5,5,0.9c1,1.4,0.6,3.2-1.1,4l0,0
					C486.3,263.4,485.6,263.6,484.9,263.6z M484.9,258.2c-0.6,0-1.1,0.1-1.6,0.4c-1.5,0.7-1.8,2.3-1,3.4c0.9,1.2,2.8,1.5,4.2,0.8
					c1.5-0.7,1.8-2.3,1-3.4C487,258.6,486,258.2,484.9,258.2z M486.8,263L486.8,263L486.8,263z"/>
			</g>
			<g>
				<path d="M494.9,267.4c-0.2,0-0.6,0-0.8-0.1c-0.9-0.2-1.7-0.6-2.3-1.3c-0.6-0.6-0.7-1.5-0.5-2.2c0.2-0.7,0.8-1.4,1.6-1.8
					c0.8-0.5,1.8-0.5,2.7-0.4c0.9,0.2,1.7,0.6,2.3,1.3s0.7,1.5,0.5,2.2c-0.2,0.7-0.8,1.4-1.6,1.8
					C496.3,267.3,495.6,267.4,494.9,267.4z M494.9,262.1c-0.6,0-1.1,0.1-1.6,0.4c-0.7,0.4-1.1,0.9-1.4,1.6c-0.2,0.6,0,1.3,0.3,1.8
					c0.5,0.5,1.1,0.9,1.9,1.1c0.8,0.2,1.6,0,2.3-0.3l0,0c0.7-0.4,1.1-0.9,1.4-1.6s0-1.3-0.3-1.8c-0.3-0.5-1.1-0.9-1.9-1.1
					C495.4,262.1,495.2,262.1,494.9,262.1z"/>
			</g>
			<g>
				<path d="M494.9,266c-0.1,0-0.2,0-0.5,0c-0.5-0.1-0.9-0.4-1.1-0.6c-0.6-0.7-0.2-1.6,0.6-2c0.9-0.5,1.9-0.2,2.5,0.5
					c0.6,0.7,0.2,1.6-0.6,2C495.6,265.9,495.3,266,494.9,266z M494.9,263.3c-0.2,0-0.6,0.1-0.8,0.2c-0.7,0.4-0.9,1.1-0.5,1.7
					c0.2,0.3,0.6,0.5,0.9,0.5c0.5,0.1,0.8,0,1.1-0.2l0,0c0.3-0.2,0.6-0.5,0.7-0.7c0.1-0.4,0-0.6-0.2-0.9
					C495.9,263.4,495.4,263.3,494.9,263.3z"/>
			</g>
			<g>
				<path d="M494,275.3c-1.2,0-2.4-0.5-3.1-1.4c-1-1.4-0.6-3.2,1.1-4c1.7-0.8,4-0.5,5,0.9c1,1.4,0.6,3.2-1.1,4l0,0
					C495.3,275.1,494.7,275.3,494,275.3z M494,269.9c-0.6,0-1.1,0.1-1.6,0.4c-1.5,0.7-1.8,2.3-1,3.4c0.9,1.2,2.8,1.5,4.2,0.8l0,0
					c1.5-0.7,1.8-2.3,1-3.4C496.1,270.4,495,269.9,494,269.9z M495.7,274.7L495.7,274.7L495.7,274.7z"/>
			</g>
			<g>
				<path d="M494,274.1c-0.1,0-0.3,0-0.5,0c-0.6-0.1-1-0.4-1.4-0.7c-0.6-0.8-0.3-1.8,0.7-2.4c1-0.5,2.3-0.3,2.9,0.5
					c0.3,0.4,0.3,0.8,0.2,1.3c-0.1,0.5-0.5,0.8-0.9,1.1l0,0C494.8,274,494.4,274.1,494,274.1z M494,270.9c-0.3,0-0.7,0.1-0.9,0.2
					c-0.9,0.5-1.1,1.4-0.6,2c0.2,0.4,0.7,0.5,1.1,0.6s0.9,0,1.4-0.2l0,0c0.5-0.2,0.7-0.5,0.8-0.9c0.1-0.4,0-0.7-0.2-1.1
					C495.2,271.2,494.6,270.9,494,270.9z"/>
			</g>
			<g>
				<path d="M484.9,262.4c-0.7,0-1.4-0.3-1.8-0.8c-0.3-0.4-0.3-0.8-0.2-1.3c0.1-0.5,0.5-0.8,0.9-1.1c0.5-0.3,1-0.3,1.6-0.2
					c0.6,0.1,1,0.4,1.4,0.7c0.3,0.4,0.3,0.8,0.2,1.3c-0.1,0.5-0.5,0.8-0.9,1.1C485.7,262.4,485.3,262.4,484.9,262.4z M484.9,259.2
					c-0.3,0-0.7,0.1-0.9,0.2c-0.5,0.2-0.7,0.5-0.8,0.9c-0.1,0.4,0,0.7,0.2,1.1c0.6,0.7,1.7,0.9,2.5,0.5c0.5-0.2,0.7-0.5,0.8-0.9
					c0.1-0.4,0-0.7-0.2-1.1s-0.7-0.5-1.1-0.6C485.2,259.2,485.1,259.2,484.9,259.2z"/>
			</g>
			<g>
				<path d="M443.2,297.2c-0.5,0-0.8-0.2-1-0.5c-0.3-0.5-0.1-1,0.5-1.3c11.8-5.2,24-9.9,36.5-14.1c0.7-0.3,1.6-0.5,2.5-0.5
					c1,0,1.9,0.4,2.7,0.6l6.4,2.4c0.6,0.2,0.8,0.7,0.6,1.2s-0.9,0.6-1.5,0.5l-6.4-2.4c-0.6-0.2-1.2-0.5-1.7-0.5
					c-0.5,0-1.1,0.2-1.7,0.4c-12.4,4.1-24.6,8.8-36.3,14C443.5,297.2,443.3,297.2,443.2,297.2z"/>
			</g>
			<g>
				<path d="M438.3,284.6c-0.3,0-0.8-0.2-1-0.5c-0.3-0.5-0.1-1,0.5-1.3c11.7-5.5,21.1-10.9,31.5-17.1c0.5-0.3,1-0.6,1.2-0.9
					c0.2-0.4,0.3-0.9,0.5-1.5l0.7-5.6c0.1-0.5,0.6-0.9,1.2-0.8c0.6,0.1,1,0.5,1,1l-0.7,5.6c-0.1,0.6-0.2,1.5-0.7,2.2
					c-0.5,0.6-1.2,1.1-1.8,1.5c-10.5,6.3-20,11.7-31.8,17.3C438.8,284.6,438.6,284.6,438.3,284.6z"/>
			</g>
			<g>
				<path d="M435.8,280.4c-0.3,0-0.8-0.2-0.9-0.5c-0.3-0.5-0.2-1,0.3-1.3l13.5-6.9c0.1-0.1,0.3-0.2,0.3-0.3s0.1-0.2,0.1-0.4
					c0.2-1.4,0.9-2.6,1.7-3.7c0.3-0.5,1-0.5,1.6-0.3c0.6,0.3,0.7,0.8,0.3,1.3c-0.7,0.9-1.1,1.9-1.4,3c-0.1,0.4-0.1,0.7-0.5,1.1
					c-0.3,0.5-0.8,0.6-1.1,0.8l-13.5,6.9C436.3,280.4,436.1,280.4,435.8,280.4z"/>
			</g>
			<g>
				<path d="M347.5,309.3c-0.6,0-1-0.3-1.1-0.7c-0.1-0.5,0.2-1,0.9-1.1l28.4-4.6c2.4-0.4,5.2-0.8,7.3-2c1.7-1,3.1-2.5,4.3-3.9
					l7.4-8.6c0.3-0.5,1-0.5,1.6-0.3c0.6,0.3,0.7,0.8,0.3,1.3l-7.4,8.6c-1.2,1.6-2.7,3.2-4.9,4.4c-2.5,1.4-5.4,1.9-8.2,2.3l-28.4,4.6
					C347.7,309.3,347.6,309.3,347.5,309.3z"/>
			</g>
			<g>
				<path d="M398.6,320.5c-0.2,0-0.5-0.1-0.6-0.2l-10.9-5.7c-1.8-0.9-3.7-1.9-5.9-2.3c-2.5-0.5-5.2,0-7.7,0.4L347,317
					c-0.6,0.1-1.2-0.2-1.4-0.7c-0.1-0.5,0.2-1,0.9-1.1l26.5-4.3c2.6-0.5,5.7-0.9,8.6-0.4c2.5,0.5,4.6,1.6,6.6,2.6l10.9,5.7
					c0.6,0.3,0.7,0.8,0.3,1.3C399.4,320.4,399,320.5,398.6,320.5z"/>
			</g>
			<g>
				<path d="M266.2,373.3c-0.1,0-0.2,0-0.3,0c-0.6-0.2-0.9-0.6-0.8-1.1c2.9-7.9,5.7-14.3,8.3-20.6c2.6-6.2,5.3-12.7,8.3-20.5
					c1.6-4.3,3.4-9.1,7.4-12.9c3.4-3.2,8.1-5.2,12.1-7.1c4-1.7,9.8-4.5,15.3-7.1c5.6-2.6,11.3-5.4,15.3-7.1c0.6-0.3,1.2-0.1,1.6,0.4
					c0.3,0.5,0.1,1-0.5,1.3c-4,1.7-9.8,4.5-15.3,7.1c-5.6,2.6-11.3,5.4-15.3,7.1c-4.1,1.8-8.4,3.7-11.5,6.7
					c-3.6,3.5-5.4,8.1-6.9,12.2c-2.9,7.9-5.7,14.3-8.3,20.6c-2.6,6.2-5.3,12.7-8.3,20.5C267.1,373.2,266.6,373.3,266.2,373.3z"/>
			</g>
			<g>
				<path d="M205.5,372.3c-0.5,0-0.9-0.3-1.1-0.6c-2.9-7.8-6-14.3-9.1-20.5c-3.1-6.3-6.2-12.8-9.2-20.6c-1.6-4.1-3.3-8.8-6.9-12.2
					c-3.1-2.9-7.4-4.8-11.5-6.7L144,301.1c-0.6-0.3-0.8-0.8-0.5-1.3c0.3-0.5,1-0.6,1.6-0.4l23.7,10.7c4.1,1.8,8.7,3.9,12.1,7.1
					c4,3.7,5.8,8.6,7.4,12.9c2.9,7.8,6,14.3,9.1,20.5c3.1,6.3,6.2,12.8,9.2,20.6c0.2,0.5-0.1,1-0.8,1.1
					C205.7,372.3,205.6,372.3,205.5,372.3z"/>
			</g>
			<g>
				<path d="M417.1,316.7c-0.1,0-0.1,0-0.2,0c-0.6-0.1-1-0.5-0.9-1.1c5.3-20.3-10.3-31.7-10.4-31.8c-0.5-0.4-0.6-0.9-0.1-1.3
					c0.5-0.4,1.1-0.5,1.6-0.1c0.1,0.1,16.8,12.2,11.1,33.5C418.1,316.4,417.7,316.7,417.1,316.7z"/>
			</g>
			<g>
				<path d="M422.1,316c-0.1,0-0.1,0-0.2,0c-0.6-0.1-1-0.5-0.9-1.1c5.3-20.3-7.5-33-7.6-33.2c-0.5-0.4-0.3-1,0.1-1.3
					c0.5-0.4,1.2-0.3,1.6,0.1c0.6,0.5,13.6,13.4,8.1,34.7C423.1,315.7,422.7,316,422.1,316z"/>
			</g>
			<g>
				<path d="M429.3,314.1c-0.1,0-0.1,0-0.2,0c-0.6-0.1-1-0.5-0.9-1.1c5.3-20.4-8.5-34.1-8.6-34.2c-0.5-0.4-0.3-1,0.1-1.3
					c0.5-0.4,1.2-0.3,1.6,0.1c0.6,0.5,14.7,14.5,9.2,35.7C430.3,313.8,429.8,314.1,429.3,314.1z"/>
			</g>
			<g>
				<path d="M109.8,384.5c-25.6,0-36.3-9.2-36.7-9.7c-0.1-0.1-0.2-0.3-0.2-0.4c-0.3-0.9-1.2-2.3-2.2-3.7c-1.5-2.2-2.9-4.3-2.6-5.8
					c0-0.1,0-0.1,0-0.2c0.8-1.9,3.2-2.7,5.2-3.6c0.2-0.1,0.3-0.1,0.6-0.2l0,0c-1.2-0.5-2.6-1.2-2.6-2.3c0-0.1,0-0.3,0.1-0.4
					c0.9-1.8,3.6-2.5,6-3c-0.7-0.5-1.5-1.2-1-2.1c0-0.1,0-0.1,0.1-0.2c0.9-1.3,2.7-1.6,4.2-1.7c-0.1-0.3-0.1-0.5-0.2-0.7
					c-0.3-1.4-0.8-2.7-0.2-3.8c0.1-0.2,0.2-0.3,0.5-0.5c1.1-0.6,2.8-1.5,5.2-1.2c0.6,0.1,1,0.5,1,1c-0.1,0.5-0.7,0.8-1.2,0.8
					c-1.1-0.1-2.2,0.1-3.3,0.7c-0.1,0.6,0.1,1.6,0.5,2.6c0.2,0.6,0.3,1.3,0.5,1.9c0,0.3-0.1,0.5-0.2,0.7c-0.2,0.2-0.5,0.3-0.8,0.4
					h-0.3c-1.4,0.1-2.5,0.2-3.1,0.6c0.1,0.1,0.3,0.3,0.5,0.4c0.5,0.4,1,0.7,1.4,1.3c0.1,0.3,0.1,0.5,0,0.7c-0.1,0.2-0.3,0.5-0.7,0.5
					c-0.6,0.2-1.1,0.3-1.7,0.5c-1.8,0.4-3.7,0.8-4.4,1.7c0.2,0.2,0.9,0.5,1.4,0.6c0.7,0.3,1.4,0.6,1.9,1.1c0.2,0.2,0.3,0.5,0.3,0.7
					s-0.2,0.5-0.6,0.6c-0.8,0.4-1.6,0.6-2.4,1c-1.8,0.6-3.5,1.3-4.1,2.5c-0.1,0.9,1.2,2.9,2.4,4.6c1,1.4,1.9,2.7,2.3,3.8
					c1.5,1.2,12.5,9.2,36.6,8.9c2.6,0,5.1-1.1,6.9-2.8c-0.2-0.5-0.7-0.5-1.6-0.5c-0.5,0-0.9,0-1.5-0.1c-0.6-0.1-0.9-0.5-0.9-0.9
					c0-0.5,0.3-0.8,0.9-0.9c2.2-0.5,6.6-1.3,6.6-2.4c-0.1-0.4-1.1-0.6-2.6-0.9c-0.9-0.2-1.8-0.4-2.6-0.6c-0.5-0.2-0.7-0.5-0.7-0.9
					c0-0.4,0.3-0.7,0.9-0.8c1.1-0.2,2.3-0.2,3.4-0.2c2.2,0,3.5-0.1,4.3-0.8c-0.5-0.8-1.2-1.2-2.5-1.6s-2.7-1-3.3-2.5
					c-0.1-0.3,0-0.5,0.1-0.7s0.5-0.4,0.8-0.5c0.7-0.1,1.4-0.1,2,0c1,0.1,1.6,0.1,1.9-0.1c0-0.1,0-0.1,0-0.2c-0.7-0.4-2-1-4.9-3
					c-0.5-0.4-0.6-0.9-0.1-1.3s1.1-0.5,1.6-0.1c3.2,2.3,4.3,2.7,4.8,2.9c0.6,0.2,0.8,0.5,0.9,1c0,0.1,0,0.3,0.1,0.7
					c0.1,0.3,0,0.5-0.2,0.7c-0.9,0.9-2,1.2-3.1,1.2c0.1,0,0.1,0.1,0.2,0.1c1.4,0.5,3.3,1.2,4,3.2c0.1,0.2,0,0.5-0.1,0.6
					c-0.9,1.3-2.4,1.8-3.9,2c0.7,0.4,1.1,0.9,1.2,1.6c0.1,1.6-1.8,2.6-4.2,3.3c0.3,0.3,0.7,0.7,0.9,1.4c0.1,0.3,0,0.5-0.2,0.8
					c-2.3,2.5-5.6,3.9-9.1,3.9C110.9,384.5,110.3,384.5,109.8,384.5z"/>
			</g>
			<g>
				<path d="M64.5,418.3c-0.5,0-0.8-0.2-1-0.5c-0.2-0.5,0-1,0.6-1.2l6.4-2.4c0.6-0.2,1.2-0.5,1.6-0.8c0.3-0.3,0.6-0.8,0.7-1.3
					c4.4-11.2,7.9-24.1,10.2-32.9c0.1-0.5,0.7-0.8,1.4-0.7c0.6,0.1,1,0.5,0.9,1.1c-2.2,8.9-5.8,21.7-10.2,33.1
					c-0.2,0.5-0.6,1.3-1.1,1.9c-0.7,0.6-1.6,1-2.3,1.3l-6.4,2.4C64.7,418.2,64.6,418.3,64.5,418.3z"/>
			</g>
			<g>
				<path d="M101.2,424.8c-0.3,0-0.6-0.1-0.8-0.3l-4.9-4c-0.6-0.5-1.2-1-1.6-1.8c-0.3-0.7-0.2-1.5-0.2-2.1
					c0.8-11.3,2.4-22.8,4.5-33.1c0.1-0.5,0.7-0.8,1.4-0.7c0.6,0.1,1,0.5,0.9,1.1c-2.2,10.2-3.7,21.6-4.5,32.9c0,0.5-0.1,1,0.1,1.4
					c0.2,0.5,0.7,0.8,1.1,1.2l4.9,4c0.5,0.4,0.5,0.9,0,1.3C101.7,424.7,101.5,424.8,101.2,424.8z"/>
			</g>
			<g>
				<path d="M69.6,397.3c-0.2,0-0.6-0.1-0.8-0.3c-0.5-0.4-0.5-0.9-0.1-1.3c1.1-1,2.5-1.7,4-2.3c0.2-0.1,0.5-0.2,0.5-0.2
					c0.1-0.1,0.1-0.3,0.2-0.4c0.8-2,1.8-4.8,2.7-7.6c0.9-2.7,1.9-5.6,2.7-7.7c0.2-0.5,0.8-0.7,1.5-0.5c0.6,0.2,0.9,0.6,0.7,1.2
					c-0.8,2-1.8,4.8-2.7,7.6c-0.9,2.7-1.9,5.6-2.7,7.7c-0.1,0.3-0.3,0.7-0.7,1.1c-0.3,0.3-0.8,0.5-1.1,0.5c-1.2,0.5-2.4,1.1-3.3,1.8
					C70.2,397.2,69.9,397.3,69.6,397.3z"/>
			</g>
			<g>
				<path d="M122.2,358.3c-0.5,0-0.9-0.3-1.1-0.6c-0.6-1.6-1.4-3.7-2.2-5.7c-0.8-2-1.6-4-2.2-5.7c-0.6-1.7-1.2-3.7-1.1-5.8
					c0.2-2.5,1.7-4.6,3.1-6.5l11.7-17.3c0.3-0.5,1-0.6,1.6-0.4c0.6,0.3,0.8,0.8,0.5,1.3l-11.7,17.3c-1.1,1.7-2.5,3.7-2.7,5.8
					c-0.2,1.7,0.5,3.5,1,5.2c0.6,1.6,1.4,3.7,2.2,5.7c0.8,2,1.6,4,2.2,5.7c0.1,0.5-0.2,1-0.8,1.1
					C122.4,358.3,122.4,358.3,122.2,358.3z"/>
			</g>
			<g>
				<path d="M90.2,339.4c-0.5,0-0.9-0.3-1.1-0.6c-0.2-0.5,0.1-1,0.8-1.2l12.4-3.1c2.2-0.5,4.3-1.1,6-2.1c2-1.3,3.4-3.2,4.5-4.9
					c2.3-3.4,5-7.4,7.6-11.3c2.7-4,5.3-7.9,7.7-11.3c0.3-0.5,1-0.6,1.6-0.4c0.6,0.3,0.8,0.8,0.5,1.3c-2.3,3.4-5,7.4-7.6,11.3
					c-2.7,4-5.3,7.9-7.7,11.3c-1.2,1.9-2.7,4.1-5.1,5.6c-2,1.3-4.5,1.8-6.7,2.4l-12.4,3.1C90.4,339.4,90.3,339.4,90.2,339.4z"/>
			</g>
			<g>
				<path d="M116.8,367.6c-6.8,0-23-1.6-36-14.8c-0.3-0.4-0.3-1,0.2-1.3c0.6-0.3,1.2-0.3,1.6,0.2c15.9,16.3,36.7,14.1,37,14
					c0.6-0.1,1.2,0.3,1.2,0.7c0.1,0.5-0.3,1-0.9,1C120,367.5,118.8,367.6,116.8,367.6z"/>
			</g>
			<g>
				<path d="M116.7,373.7L116.7,373.7c-0.9,0-21.5-0.2-38.2-17.3c-0.3-0.4-0.3-1,0.2-1.3c0.5-0.3,1.2-0.3,1.6,0.2
					c15.9,16.4,36.2,16.6,36.4,16.6c0.7,0,1.1,0.5,1.1,0.9C117.8,373.3,117.3,373.7,116.7,373.7z"/>
			</g>
			<g>
				<path d="M115.6,379.3L115.6,379.3c-0.9,0-23.2-0.3-39.9-17.4c-0.3-0.4-0.3-1,0.2-1.3c0.5-0.3,1.2-0.3,1.6,0.2
					c16,16.4,37.9,16.6,38.1,16.6c0.7,0,1.1,0.5,1.1,0.9C116.7,378.9,116.2,379.3,115.6,379.3z"/>
			</g>
			<g>
				<path d="M96.1,442.5c-0.8,0-1.6-0.4-2-1c-2.7-4.1-6.2-6.6-10.7-7.5c-9-1.8-18.7,3.4-18.8,3.5c-1,0.5-2.5,0.4-3.2-0.5
					c-0.7-0.8-0.5-2,0.6-2.6c0.5-0.3,11.5-6.2,22.5-3.9c5.8,1.2,10.3,4.3,13.6,9.3c0.6,0.9,0.1,2-0.9,2.5
					C96.7,442.4,96.4,442.5,96.1,442.5z"/>
			</g>
			<g>
				<path d="M117.4,363.4c-14.4,0-32-14.3-32.7-15c-0.5-0.4-0.5-0.9,0-1.3c0.5-0.4,1.1-0.4,1.6,0c0.2,0.2,18.5,15.2,32.1,14.4
					c0.7,0,1.1,0.4,1.2,0.8c0,0.5-0.5,0.9-1,1C118.2,363.4,117.8,363.4,117.4,363.4z"/>
			</g>
			<g>
				<path d="M268.3,338.7c-0.1,0-0.2,0-0.5-0.1c-0.6-0.2-0.9-0.7-0.7-1.2c4.1-8.5,14.1-17.2,25.6-22c0.6-0.3,1.2-0.1,1.6,0.4
					c0.3,0.5,0.1,1-0.5,1.3c-11.1,4.7-20.8,13-24.6,21C269.1,338.4,268.8,338.7,268.3,338.7z"/>
			</g>
			<g>
				<path d="M205.5,339.4c-0.5,0-0.9-0.2-1-0.5c-3.6-7.7-13-15.3-25.2-20.4c-0.6-0.3-0.8-0.8-0.5-1.3c0.3-0.5,1-0.6,1.6-0.4
					c12.6,5.3,22.3,13.3,26.2,21.4c0.2,0.5-0.1,1-0.7,1.2C205.7,339.4,205.6,339.4,205.5,339.4z"/>
			</g>
			<g>
				<path d="M226.9,373.7L226.9,373.7c-0.7,0-1.1-0.5-1.1-1c0.3-3.3-0.3-6.7-2-9.8c-0.2-0.5,0-1,0.6-1.2c0.6-0.2,1.2,0,1.5,0.5
					c1.7,3.3,2.5,6.9,2.2,10.6C228.1,373.3,227.5,373.7,226.9,373.7z"/>
			</g>
			<g>
				<path d="M245.6,373.7c-0.6,0-1.1-0.4-1.1-0.8c-0.3-3.6,0.5-7.2,2.2-10.6c0.2-0.5,0.9-0.6,1.5-0.5c0.6,0.2,0.8,0.7,0.6,1.2
					c-1.6,3-2.3,6.4-2,9.8C246.8,373.3,246.3,373.7,245.6,373.7L245.6,373.7z"/>
			</g>
			<g>
				<path d="M281,340.1c-0.5,0-0.8-0.2-1-0.5c-0.2-0.5,0-1,0.6-1.2c18.5-6.9,39.8-9.7,60.1-7.6c0.6,0.1,1,0.5,1,1
					c0,0.5-0.7,0.8-1.2,0.8c-19.8-2-40.7,0.6-58.9,7.5C281.4,340,281.3,340.1,281,340.1z"/>
			</g>
			<g>
				<path d="M192.8,344.2c-0.1,0-0.3,0-0.5-0.1c-18.1-6.9-39-9.5-58.9-7.5c-0.6,0.1-1.1-0.3-1.2-0.8c-0.1-0.5,0.3-0.9,1-1
					c20.3-2.1,41.6,0.6,60.1,7.6c0.6,0.2,0.8,0.7,0.6,1.2C193.7,343.9,193.2,344.2,192.8,344.2z"/>
			</g>
			<g>
				<path d="M235.9,200.7c-1.7,0-3.1-1.1-3.1-2.5s1.4-2.5,3.1-2.5s3.1,1.1,3.1,2.5S237.5,200.7,235.9,200.7z M235.9,196.3
					c-1.4,0-2.5,0.9-2.5,2s1.1,2,2.5,2s2.5-0.9,2.5-2S237.3,196.3,235.9,196.3z"/>
			</g>
			<g>
				<path d="M176,180.9c-1.7,0-3.1-1.1-3.1-2.5s1.4-2.5,3.1-2.5c1.7,0,3.1,1.1,3.1,2.5S177.6,180.9,176,180.9z M176,176.5
					c-1.4,0-2.5,0.9-2.5,2s1.1,2,2.5,2c1.4,0,2.5-0.9,2.5-2S177.4,176.5,176,176.5z"/>
			</g>
			<g>
				<path d="M237.6,200.1C237.6,200.1,237.5,200.1,237.6,200.1l-3.6-3.5c0-0.1,0-0.1,0-0.2c0.1,0,0.1,0,0.2,0l3.5,3.5
					C237.7,200,237.7,200.1,237.6,200.1C237.7,200.1,237.6,200.1,237.6,200.1z"/>
			</g>
			<g>
				<path d="M177.1,180.6c0,0-0.1,0-0.1-0.1l-2.3-4c0-0.1,0-0.1,0.1-0.2c0.1,0,0.1,0,0.2,0.1l2.3,4
					C177.3,180.5,177.3,180.6,177.1,180.6L177.1,180.6z"/>
			</g>
			<g>
				<path d="M234.6,207.6c-51,0-92.4-33.4-92.4-74.5s41.5-74.5,92.4-74.5c51,0,92.4,33.4,92.4,74.5S285.6,207.6,234.6,207.6z
					 M234.6,62.4c-48.4,0-87.9,31.8-87.9,70.8s39.5,70.8,87.9,70.8s87.9-31.8,87.9-70.8S283.1,62.4,234.6,62.4z"/>
			</g>
			<g>
				<path d="M234.6,192.3c-40.5,0-73.4-26.5-73.4-59.1s32.9-59.1,73.4-59.1s73.4,26.5,73.4,59.1S275.1,192.3,234.6,192.3z
					 M234.6,77.6c-38,0-68.8,24.8-68.8,55.5s30.8,55.5,68.8,55.5s68.8-24.8,68.8-55.5S272.5,77.6,234.6,77.6z"/>
			</g>
			<g>
				<path d="M231.8,71c-1.7,0-3.1-1.1-3.1-2.5c0-1.4,1.4-2.5,3.1-2.5c1.7,0,3.1,1.1,3.1,2.5C234.9,69.9,233.5,71,231.8,71z
					 M231.8,66.5c-1.4,0-2.5,0.9-2.5,2c0,1.1,1.1,2,2.5,2c1.4,0,2.5-0.9,2.5-2C234.3,67.4,233.2,66.5,231.8,66.5z"/>
			</g>
			<g>
				<path d="M316.6,134.5c-1.7,0-3.1-1.1-3.1-2.5s1.4-2.5,3.1-2.5s3.1,1.1,3.1,2.5S318.3,134.5,316.6,134.5z M316.6,130.1
					c-1.4,0-2.5,0.9-2.5,2c0,1.1,1.1,2,2.5,2s2.5-0.9,2.5-2C319.1,131,318,130.1,316.6,130.1z"/>
			</g>
			<g>
				<path d="M152.4,141c-1.7,0-3.1-1.1-3.1-2.5s1.4-2.5,3.1-2.5c1.7,0,3.1,1.1,3.1,2.5S154,141,152.4,141z M152.4,136.7
					c-1.4,0-2.5,0.9-2.5,2c0,1.1,1.1,2,2.5,2c1.4,0,2.5-0.9,2.5-2C154.9,137.6,153.7,136.7,152.4,136.7z"/>
			</g>
			<g>
				<path d="M295,92.1c-1.7,0-3.1-1.1-3.1-2.5s1.4-2.5,3.1-2.5s3.1,1.1,3.1,2.5S296.7,92.1,295,92.1z M295,87.7
					c-1.4,0-2.5,0.9-2.5,2s1.1,2,2.5,2c1.4,0,2.5-0.9,2.5-2S296.3,87.7,295,87.7z"/>
			</g>
			<g>
				<path d="M297.7,176.6c-1.7,0-3.1-1.1-3.1-2.5s1.4-2.5,3.1-2.5s3.1,1.1,3.1,2.5S299.4,176.6,297.7,176.6z M297.7,172.1
					c-1.4,0-2.5,0.9-2.5,2s1.1,2,2.5,2c1.4,0,2.5-0.9,2.5-2S299.1,172.1,297.7,172.1z"/>
			</g>
			<g>
				<path d="M176,89.9c-1.7,0-3.1-1.1-3.1-2.5s1.4-2.5,3.1-2.5c1.7,0,3.1,1.1,3.1,2.5S177.6,89.9,176,89.9z M176,85.5
					c-1.4,0-2.5,0.9-2.5,2c0,1.1,1.1,2,2.5,2c1.4,0,2.5-0.9,2.5-2C178.5,86.4,177.4,85.5,176,85.5z"/>
			</g>
			<g>
				<path d="M296,175.9C296,175.9,295.9,175.9,296,175.9c-0.1-0.1-0.1-0.2-0.1-0.2l3.6-3.4c0-0.1,0.1-0.1,0.2,0c0.1,0,0.1,0.1,0,0.2
					L296,175.9C296.1,175.9,296,175.9,296,175.9z"/>
			</g>
			<g>
				<path d="M174.2,89.3C174.1,89.3,174.1,89.3,174.2,89.3c-0.1-0.1-0.1-0.2-0.1-0.2l3.6-3.4c0-0.1,0.1-0.1,0.2,0
					c0.1,0,0.1,0.1,0,0.2L174.2,89.3L174.2,89.3z"/>
			</g>
			<g>
				<path d="M231.6,70.8L231.6,70.8c-0.1,0-0.1-0.1-0.1-0.1l0.6-4.4c0-0.1,0.1-0.1,0.1-0.1c0.1,0,0.1,0.1,0.1,0.1l-0.6,4.4
					C231.7,70.8,231.7,70.8,231.6,70.8z"/>
			</g>
			<g>
				<path d="M297.5,90.8C297.5,90.8,297.4,90.8,297.5,90.8l-5-2.1c-0.1,0-0.1-0.1-0.1-0.2c0-0.1,0.1-0.1,0.2-0.1l4.9,2
					c0.1,0,0.1,0.1,0.1,0.2C297.6,90.8,297.5,90.8,297.5,90.8z"/>
			</g>
			<g>
				<path d="M149.6,138.8c-0.1,0-0.1-0.1-0.1-0.1c0-0.1,0-0.1,0.1-0.1l5.4-0.3c0.1,0,0.1,0,0.1,0.1s0,0.1-0.1,0.1L149.6,138.8
					L149.6,138.8z"/>
			</g>
			<g>
				<path d="M318.3,133.9c0,0-0.1,0-0.1-0.1l-3.3-3.6c0-0.1,0-0.1,0-0.2c0.1,0,0.1,0,0.2,0l3.3,3.6
					C318.5,133.8,318.5,133.8,318.3,133.9L318.3,133.9z"/>
			</g>
			<g>
				<path d="M393.4,214.5c-0.5,0-0.8-0.2-1-0.5c-0.2-0.5,0-1,0.6-1.2c7-2.6,12.4-5.8,16.6-9.9l1.2-1.2c3.7-3.7,7.5-7.5,13-9.5
					c2.3-0.8,6.5-2.1,9.2-1.4c0.6,0.2,0.9,0.6,0.7,1.2c-0.2,0.5-0.8,0.7-1.5,0.5c-1.6-0.5-5,0.4-7.5,1.4c-5,1.8-8.6,5.5-12.1,9
					l-1.2,1.2c-4.4,4.3-10.1,7.7-17.4,10.4C393.8,214.5,393.5,214.5,393.4,214.5z"/>
			</g>
			<g>
				<path d="M346.4,221.8L346.4,221.8c-16-0.3-31.3-3.1-45.4-8.6c-10.9-4.2-19.8-9.1-26.5-14.5c-0.5-0.4-0.5-0.9,0-1.3
					s1.1-0.4,1.6,0c6.5,5.3,15.2,10,25.9,14.2c13.8,5.3,28.8,8.1,44.5,8.4c0.7,0,1.1,0.5,1.1,0.9C347.5,221.4,347,221.8,346.4,221.8
					z"/>
			</g>
			<g>
				<path d="M77,213.8c-0.2,0-0.3,0-0.5-0.1c-6.4-2.6-11.5-5.8-15.4-9.7l-1.2-1.2c-3.5-3.5-7.1-7.1-12.1-9c-0.6-0.2-1.4-0.5-2.4-0.7
					c-0.6-0.2-0.9-0.7-0.7-1.2c0.2-0.5,0.9-0.7,1.5-0.5c1,0.3,1.9,0.6,2.5,0.8c5.4,2,9.3,5.8,12.9,9.5l1.2,1.2
					c3.7,3.7,8.6,6.7,14.6,9.1c0.6,0.2,0.8,0.7,0.5,1.2C77.8,213.6,77.5,213.8,77,213.8z"/>
			</g>
			<g>
				<path d="M123.8,221.8c-0.7,0-1.2,0-1.9,0c-0.7,0-1.1-0.5-1.1-0.9c0-0.5,0.5-0.9,1.1-0.9c16.9,0.2,33.6-2.6,48.4-8.4
					c10.7-4.1,19.4-8.9,25.9-14.2c0.5-0.4,1.1-0.4,1.6,0c0.5,0.4,0.5,0.9,0,1.3c-6.7,5.4-15.5,10.3-26.5,14.5
					C156.7,218.9,140.4,221.8,123.8,221.8z"/>
			</g>
		</g>
		<g id="LINEART">
			<g>
				<path d="M303.3,394.1c-0.2,0-0.6,0-0.8-0.1c-1.1-0.4-1.7-1.5-1.2-2.4c2.3-4.6,7.1-17.2,11.1-27.3l1.7-4.5c0.3-1,1.7-1.5,2.8-1.2
					c1.2,0.3,1.8,1.4,1.5,2.3l-1.7,4.5c-4.2,10.7-8.8,22.8-11.2,27.6C305,393.7,304.2,394.1,303.3,394.1z"/>
			</g>
			<g>
				<path d="M240.4,377c-0.5,0-0.8,0-1.1,0c-1.2-0.1-2.3-0.9-2.2-1.9c0.1-1,1.1-1.8,2.4-1.7h0.1c0.8,0,1.4,0.1,1.9-0.1
					c0.8-0.2,1.5-0.3,2.2-0.4c1.6-0.2,3.1-0.4,4.6-0.5c3.7-0.5,7.7-1.1,11.8-1.6c10.5-1.6,19.2-3,27-4.6c3.5-0.7,8.2-1.6,12.6-2.8
					c8.6-2.3,31.3-8.3,38.7-17.3l10-48.1c0.2-1,1.4-1.6,2.6-1.5c1.2,0.2,2,1.1,1.8,2.1L342.7,347c0,0.3-0.1,0.5-0.3,0.6
					c-7,9-25.7,14.9-41.3,19c-4.6,1.3-9.4,2.2-12.9,2.9c-7.9,1.6-16.6,3-27.2,4.6c-4.1,0.6-8.1,1.2-11.8,1.6
					c-1.6,0.2-3.2,0.4-4.8,0.6c-0.6,0.1-1.2,0.2-1.8,0.3C241.8,377,241.1,377,240.4,377z"/>
			</g>
			<g>
				<path d="M238,377c-1,0-1.7-0.1-2.4-0.2c-0.6-0.1-1.2-0.2-1.8-0.3c-1.6-0.2-3.2-0.4-4.8-0.6c-3.9-0.5-7.8-1.1-11.8-1.6
					c-10.7-1.6-19.3-3-27.2-4.6c-3.6-0.7-8.3-1.6-12.9-2.9c-15.5-4.1-34.3-10-41.3-19c-0.1-0.2-0.2-0.5-0.3-0.6l-9.9-47.7
					c-0.2-1,0.7-1.9,1.8-2.1c1.2-0.2,2.4,0.5,2.6,1.5l9.9,47.3c7.3,8.9,30.1,14.9,38.7,17.3c4.5,1.2,9.1,2.2,12.6,2.8
					c7.8,1.6,16.4,3,27,4.6c4,0.5,7.9,1.2,11.8,1.6c1.6,0.2,3.1,0.4,4.6,0.5c0.7,0.1,1.4,0.2,2.2,0.4c0.2,0.1,0.9,0.1,2.5,0.1
					c1.2-0.1,2.3,0.7,2.4,1.7c0.1,1-0.9,1.8-2.2,1.9C239,377,238.4,377,238,377z"/>
			</g>
			<g>
				<path d="M176.7,394.1c-0.9,0-1.8-0.5-2.2-1.2l-0.7-1.6c-4.3-9.4-9.2-20-13-29.9c-0.3-1,0.3-2,1.5-2.3c1.2-0.3,2.5,0.3,2.8,1.2
					c3.7,9.8,8.6,20.4,12.9,29.7l0.7,1.6c0.5,0.9-0.1,2-1.4,2.4C177.3,394.1,177,394.1,176.7,394.1z"/>
			</g>
			<g>
				<path d="M237,401.6c-2.8,0-5.8-0.1-8.7-0.3c-4.8-0.3-9.5-0.7-14.2-1.1c-3.1-0.3-6.1-0.5-9.2-0.7c-9.5-0.7-18.7-2.9-28.9-5.5
					c-1.2-0.3-1.8-1.4-1.5-2.3c0.3-1,1.7-1.5,2.8-1.2c9.9,2.6,18.8,4.7,27.9,5.4c3.1,0.2,6.1,0.5,9.2,0.7c4.6,0.4,9.4,0.7,14.1,1
					c9.8,0.6,19.3,0,29.3-0.7l2.7-0.2c16.2-1.1,29.9-3.1,41.8-6.2c1.2-0.3,2.5,0.2,2.8,1.2c0.3,1-0.2,2-1.5,2.3
					c-12.4,3.1-26.3,5.2-42.9,6.4l-2.6,0.2C251.4,401,244.2,401.6,237,401.6z"/>
			</g>
			<g>
				<path d="M240,566.1L240,566.1c-0.9,0-1.7-0.5-2-1.1c-3.1-5.5-5.6-11.5-8.1-17.9c-2.9-7.6-6.1-15.3-10.5-22.5
					c-5.9-9.4-8.5-16.3-9.9-25.4c-0.6-3.7-0.3-8.5-0.1-13.6c0.2-5.2,0.3-11-0.2-15.5c-0.7,1.4-1.4,2.8-2.2,4.3
					c-2.7,5.3-5.4,10.9-5.4,14.3c0,0.8-0.6,1.5-1.5,1.7c-0.9,0.3-1.9,0-2.5-0.5c-11.5-11.3-9.8-21.3-7.8-31.1
					c-0.9,0.7-1.7,1.3-2.6,1.8c-2.4,1.6-3.5,2.5-3.7,4.5c-0.1,0.8-0.8,1.5-1.7,1.6c-1,0.2-2-0.2-2.5-0.9c-5.8-8.1-4.6-23.5-3.9-34.6
					c0.1-1,0.1-2,0.2-2.9c0.1-2.5-0.3-6.4-0.9-10.5c-1.4-10.3-2.9-21.9,3.2-26.3c0.9-0.6,2.4-0.5,3.2,0.2c0.8,0.7,0.7,1.9-0.2,2.6
					c-4.3,3.1-2.8,14.7-1.7,23.2c0.6,4.5,1.1,8.3,0.9,11.1c-0.1,0.9-0.1,1.9-0.2,3c-0.7,9-1.5,20.8,1.2,28.7c0.9-0.9,2-1.6,3.1-2.4
					c1.7-1.1,3.3-2.2,4.2-4c1.2-2.6,1.4-7,1.6-10.6c0-1.4,0.1-2.6,0.2-3.7c0.1-0.9,0.9-1.6,2-1.6c1.1-0.1,2.2,0.5,2.4,1.4
					c2.2,6.9,0.9,13.4-0.3,19.6c-1.7,8.4-3.3,16.4,3.5,25.2c1-3.4,3.1-7.2,4.9-11c1.9-3.7,3.7-7.3,4.5-10.1c0.2-0.7,1-1.4,2-1.5
					c1-0.1,1.9,0.4,2.3,1.1c2.9,5.3,2.6,14.3,2.3,23.1c-0.2,5-0.3,9.7,0.1,13.1c1.2,8.7,3.7,15.2,9.4,24.2c4.5,7.4,7.7,15.3,10.8,23
					c1.9,4.8,3.7,9.4,5.8,13.6c2-4.2,3.9-8.9,5.8-13.6c3.1-7.7,6.2-15.6,10.8-23c5.6-9,8.2-15.5,9.4-24.2c0.5-2.9,0.6-6.4,0.8-10.1
					c0.3-8.3,0.8-16.8,4-22.5c0.5-0.7,1.4-1.2,2.3-1.1c1,0.1,1.8,0.6,2,1.5c0.8,2.7,2.3,6,4,9.5c1.6,3.4,3.2,6.9,4.2,10
					c5-8.7,3.1-16.9,0.9-25.6c-1.7-6.9-3.4-14.1-1.1-21.4c0.2-0.9,1.2-1.5,2.4-1.4s1.9,0.8,2,1.6c0.2,2.8,1.9,6,3.6,9
					c0.6,1.1,1.1,2.1,1.6,3.2c0.9,1.8,2.3,3.3,3.6,4.8c0.9,1,1.8,2,2.6,3.1c2.5-7.8,1.7-19.3,1.1-28c-0.1-1-0.1-2-0.2-3
					c-0.2-2.7,0.3-6.6,0.9-11.1c1.1-8.5,2.7-20.1-1.7-23.1c-0.9-0.6-1-1.8-0.2-2.6c0.8-0.7,2.3-0.8,3.2-0.2c6.1,4.3,4.5,16,3.2,26.3
					c-0.6,4.1-1,8-0.9,10.5c0.1,0.9,0.1,1.9,0.2,2.9c0.8,11.2,1.8,26.5-3.9,34.6c-0.5,0.7-1.5,1.1-2.5,0.9c-1-0.2-1.7-0.8-1.7-1.6
					c-0.2-2.6-1.8-4.4-3.7-6.5c-1.5-1.6-3.2-3.4-4.2-5.7c-0.5-0.9-1-1.9-1.6-3c-0.1-0.2-0.2-0.5-0.3-0.6c0.3,3.5,1.1,6.9,2,10.5
					c2.5,10.4,5.1,21.2-4.9,32.8c-0.6,0.6-1.6,0.9-2.6,0.7c-0.9-0.3-1.6-1-1.6-1.7c0.1-3.6-2.4-9-4.9-14.3c-0.7-1.4-1.2-2.7-1.8-4
					c-1,4.7-1.2,10.2-1.6,15.4c-0.2,3.7-0.3,7.4-0.8,10.4c-1.2,9.1-4,16-9.9,25.4c-4.4,7.1-7.5,14.9-10.5,22.5
					c-2.5,6.4-5,12.5-8.1,18C241.7,565.6,240.9,566.1,240,566.1z"/>
			</g>
			<g>
				<path d="M381.4,292.1c-1,0-1.9-0.5-2.2-1.5c-0.2-1,0.5-1.9,1.7-2.2l20.5-3.7c1.2-0.2,2.4,0.4,2.7,1.4c0.2,1-0.5,1.9-1.7,2.2
					L382,292C381.7,292.1,381.6,292.1,381.4,292.1z"/>
			</g>
			<g>
				<path d="M344.1,331.2c-1,0-1.9-0.5-2.2-1.5c-0.2-1,0.5-1.9,1.7-2.2l64.8-11.9c1.2-0.2,2.4,0.4,2.7,1.4c0.2,1-0.5,1.9-1.7,2.2
					l-64.8,11.9C344.4,331.1,344.3,331.2,344.1,331.2z"/>
			</g>
			<g>
				<g>
					<path d="M443.2,309c-1.2,0-0.8-1.2-0.7-1.9c0.2-1.2,0-2.6,1.1-3.5c0.3-0.3,1-0.5,1.5-0.6c1.2-0.6,2.6-1.2,3.9-1.8
						c3.6-1.6,7.1-3.4,10.8-5c8.6-4,17.2-8,25.7-12c5.4-2.6,11-5.1,16.4-7.7c0.2-0.1,0.3-0.2,0.6-0.3c3.4-1.6,4.5-5.1,2.6-7.9
						l-9.4-13.2c-1.9-2.7-6.4-3.7-9.8-2.1c-4.4,2.1-9,4.1-13.4,6.2c-8.6,4-17.2,8-25.9,12c-3.6,1.7-7.3,3.4-10.9,5.1
						c-1.2,0.5-2.5,1.2-3.7,1.7c-0.7,0.3-1.4,0.8-2.2,0.7c-1.6-0.1-6-2.6-3.5-3.7l56.6-26.3c3.1-1.4,6.5-1.7,9.9-1s6.1,2.5,7.9,4.8
						l9.4,13.2c3.6,5,1.5,11.4-4.8,14.3l-60.9,28.3C444.2,308.9,443.7,309,443.2,309z"/>
				</g>
			</g>
			<g>
				<path d="M119.5,363.5c-0.3,0-0.7-0.1-1-0.2c-1.1-0.5-1.6-1.6-1-2.5l16-25.1c0.6-0.9,1.9-1.3,3.1-0.8c1.1,0.5,1.6,1.6,1,2.5
					l-16,25.1C121.1,363.1,120.3,363.5,119.5,363.5z"/>
			</g>
			<g>
				<path d="M85.5,347.9c-0.3,0-0.7-0.1-1-0.2c-1.1-0.5-1.6-1.6-1-2.5l31.1-48.8c0.6-0.9,1.9-1.3,3.1-0.8c1.1,0.5,1.6,1.6,1,2.5
					l-31.1,48.8C87.2,347.5,86.4,347.9,85.5,347.9z"/>
			</g>
			<g>
				<g>
					<path d="M90.3,444.5c-0.8,0-1.5-0.1-2.3-0.2l-18.6-2.6c-3.4-0.5-6.5-2-8.4-4.3c-2-2.3-2.7-5.1-2.2-7.9L71,373.8
						c0.1-0.5,0.8-1.7,1.7-1.2c0.2,0.1,0.3,0.3,0.5,0.4c0.5,0.4,0.9,0.5,1.4,0.7c0.5,0.3,0.9,0.5,1,1c0,0.1,0,0.3,0,0.4
						c0.1,0.3,0.3,0.5,0.5,0.7c0.6,0.6,0,2-0.1,2.7c-0.8,3.4-1.5,6.9-2.3,10.2c-1,4.5-1.9,9-2.9,13.4c-1,4.5-1.9,9-2.9,13.5
						c-0.8,3.5-1.5,6.9-2.3,10.4c-0.3,1.4-0.6,2.7-0.9,4.2c-0.3,1.5,0.1,3,1.1,4.3c1.1,1.3,2.7,2.1,4.5,2.4l18.6,2.6
						c3.9,0.5,7.6-1.6,8.3-4.7c0.1-0.5,0.2-0.9,0.3-1.3c0.6-2.5,1-4.8,1.6-7.3c0.8-3.7,1.7-7.6,2.5-11.3c0.9-4.2,1.8-8.4,2.7-12.6
						c0.8-3.7,1.6-7.5,2.5-11.1c0.3-1.4,0.6-2.8,0.9-4.2c0.1-0.5,0.2-1.1,0.3-1.6c0.1-0.6,0.1-1.5,1.1-1.6c0.3-0.1,0.8,0,1.1-0.1
						c0.2,0,0.6-0.1,0.8-0.2c0.7-0.2,1.4-0.2,2.2-0.2c0.7,0,1.4-0.1,1.1,0.5L103,435.9C101.9,440.9,96.5,444.5,90.3,444.5z"/>
				</g>
			</g>
			<g>
				<path d="M236.1,364.6c-0.9,0-1.9,0-2.8-0.1c-8.2-0.6-14.2-2.9-20.1-7.8c-4.4-3.7-7.4-8.3-8.4-13.1c-0.9-4.6-0.3-10.5,1.5-14.3
					c1.7-3.7,4.5-7.2,8.2-9.9c9.2-6.9,22.8-8.9,34.7-4.8c5.7,1.9,10.7,5,14.2,9c4.3,4.8,6.1,9.1,6,15c-0.1,7.2-4.2,14.2-11,19.2
					C252,362.1,244.1,364.6,236.1,364.6z M236.2,314.2c-7.5,0-14.7,2.2-20.3,6.4c-3.3,2.6-6,5.8-7.6,9.2c-1.7,3.7-2.3,9.1-1.4,13.4
					c0.9,4.5,3.7,8.8,7.8,12.1c5.4,4.5,11.1,6.7,18.6,7.2c8.3,0.6,16.8-1.7,23.2-6.4c6.4-4.7,10.1-11.1,10.3-17.8l0,0
					c0.1-5.4-1.5-9.4-5.6-13.9c-3.3-3.7-7.9-6.5-13.3-8.3C244.3,314.9,240.2,314.2,236.2,314.2z"/>
			</g>
			<g>
				<path d="M322.2,300.5h-75.6c-1.2,0-2.3-0.8-2.3-1.8s1-1.8,2.3-1.8h75.6c8.5,0,17-1,25.4-2c1.8-0.2,3.6-0.5,5.4-0.6
					c2.3-0.3,4.6-0.4,7.3-0.5c6.9-0.4,13.9-0.7,18.6-3.7c1.4-0.9,2.8-3.5,3.3-4.3c2.2-3.7,4.1-7.2,4.4-11.1c0.1-1.1,0.3-2.1,0.6-3
					c0.2-1,0.6-2,0.6-3.2c0-1.6,0-2.7,0-4v-2.4c0-1,1-1.8,2.3-1.8c1.2,0,2.3,0.8,2.3,1.8v2.4c0,1.3,0,2.4,0,4c0,1.6-0.3,2.9-0.7,4
					c-0.2,0.8-0.5,1.6-0.5,2.5c-0.3,4.7-2.6,8.6-4.9,12.4c-1.1,2-2.6,4.3-4.5,5.6c-5.8,3.8-13.9,4.2-21.2,4.6
					c-2.5,0.1-4.8,0.3-6.9,0.5c-1.8,0.2-3.6,0.5-5.3,0.6C339.8,299.4,330.9,300.5,322.2,300.5z"/>
			</g>
			<g>
				<path d="M345.1,266.7c-12.9,0-26.1-1-39.4-2.9l-2.6-0.4c-10.1-1.5-20.4-3-30.5-5.2c-6-1.3-11.2-2.7-16.2-4.4
					c-1.1-0.4-2.3-0.7-3.5-1.1c-3.2-0.9-6.5-1.9-9.4-3.5l-0.6-0.3c-1.7-0.9-3.5-1.8-5.1-3c-1.4,1.1-2.6,1.7-4,2.4
					c-0.6,0.3-1.1,0.5-1.8,0.9c-2.9,1.6-6.2,2.6-9.4,3.5c-1.1,0.4-2.4,0.7-3.5,1.1c-4.9,1.6-10.2,3.1-16.2,4.4
					c-10.1,2.2-20.4,3.7-30.5,5.2l-2.6,0.4c-15.2,2.2-30.4,3.2-45,2.8c-3.1-0.1-5.9-0.5-8.6-0.9c-2.6-0.4-5-0.7-7.6-0.8
					c-31.3-1.1-62.7-15.3-82-37c-0.6-0.6-0.6-1.6,0-2.2c0.3-0.4,0.8-0.6,1.4-0.7c-5.3-3.5-9.4-8-11.7-13.2c-0.2-0.6-0.1-1.4,0.5-1.8
					c0.6-0.5,1.4-0.7,2.2-0.5c1.9,0.4,3.9,0.4,5.8,0.1c-5.6-1.4-10.7-3.7-15.2-6.7c-0.7-0.5-1-1.2-0.8-1.8s0.9-1.2,1.7-1.4
					c11.5-1.8,20.1-4.3,27.2-7.7c4.4-2.1,12.5-6.5,16.3-12.6c2-3.2,2.5-7.2,2.9-11.1c0.2-1.8,0.5-3.7,0.8-5.6
					c0.9-4.3,1.9-8.5,3.1-12.5c11.3-40.9,29.8-67.2,56.5-80.6c4.2-2.1,8.3-4.2,12.1-6.2c13.2-6.9,25.5-13.3,41.3-18
					c21.9-6.5,40.4-10.3,56.4-11.6c12.5-1,26.1-0.1,41.7,2.7c6.6,1.2,13.4,2.6,20.8,4.6c24.2,6.2,44.1,16.3,65.3,26.9l3.4,1.6
					c26.7,13.3,45.1,39.6,56.5,80.6c1.1,4,2.2,8.2,3.1,12.5c0.3,1.8,0.6,3.7,0.8,5.6c0.5,3.9,0.9,7.9,2.9,11.1
					c3.9,6,11.8,10.5,16.3,12.6c7.1,3.4,15.8,5.8,27.2,7.7c0.9,0.2,1.6,0.6,1.7,1.4c0.2,0.6-0.1,1.4-0.8,1.8
					c-4.5,3-9.6,5.3-15.2,6.7c1.9,0.3,3.9,0.2,5.8-0.1c0.8-0.2,1.7,0.1,2.2,0.5c0.6,0.5,0.7,1.2,0.5,1.8c-2.3,5.2-6.5,9.8-11.7,13.2
					c0.6,0.1,1,0.4,1.4,0.7c0.6,0.6,0.6,1.6,0,2.2c-19.3,21.7-50.7,35.9-82,37c-2.6,0.1-5,0.5-7.6,0.8c-2.7,0.4-5.6,0.8-8.6,0.9
					C348.8,266.7,347,266.7,345.1,266.7z M233.5,223.2h0.1c1.2,0.1,2.2,0.9,2.2,1.9l-0.1,1.5c-0.3,4.7-0.8,10.4,1.9,13.9
					c1.8,2.3,4.9,3.9,7.8,5.6l0.6,0.3c2.5,1.3,5.6,2.3,8.5,3.1c1.2,0.4,2.5,0.7,3.6,1.1c4.8,1.6,9.9,2.9,15.7,4.2
					c9.9,2.2,20.2,3.7,30.2,5.1l2.6,0.4c15,2.2,29.7,3.1,44.1,2.8c2.7-0.1,5.2-0.5,7.9-0.8c2.6-0.4,5.3-0.8,8.2-0.9
					c28-1,56.3-13,74.9-31.6c-1.5,0.1-2.9,0.1-4.4-0.1c-1-0.1-1.8-0.7-2-1.6c-0.1-0.8,0.5-1.6,1.4-1.9c7.3-2.4,13.4-7,16.9-12.7
					c-4.1,0-8.2-1-11.5-2.8c-0.8-0.5-1.1-1.2-0.9-1.9c0.2-0.7,1-1.3,1.9-1.4c5.7-0.6,11.2-2.3,16.1-4.8c-9.5-1.8-17.2-4.2-23.7-7.2
					c-4.9-2.3-13.7-7.2-18-14.1c-2.4-3.8-2.9-8.2-3.4-12.4c-0.2-1.8-0.5-3.6-0.8-5.3c-0.9-4.2-1.9-8.4-2.9-12.3
					c-11-39.9-28.8-65.5-54.4-78.3l-3.4-1.6c-21-10.5-40.7-20.4-64.3-26.4c-7.4-1.9-14.1-3.4-20.4-4.6c-15.1-2.7-28.4-3.6-40.3-2.6
					c-15.5,1.3-33.7,4.9-55.2,11.4c-15.2,4.5-27.4,10.9-40.4,17.6c-4,2-8.1,4.2-12.2,6.3c-25.6,12.8-43.3,38.4-54.4,78.3
					c-1.1,3.9-2,8.1-2.9,12.3c-0.3,1.6-0.6,3.4-0.8,5.3c-0.5,4.2-1,8.6-3.4,12.4c-4.3,6.9-13.2,11.8-18,14.1
					c-6.5,3.1-14.2,5.4-23.7,7.2c4.9,2.5,10.4,4.2,16.1,4.8c0.9,0.1,1.7,0.6,1.9,1.4s-0.1,1.5-0.9,1.9c-3.3,1.9-7.4,2.9-11.5,2.8
					c3.5,5.7,9.6,10.3,16.9,12.7c1,0.3,1.6,1.1,1.4,1.9c-0.1,0.8-1,1.5-2,1.6c-1.5,0.1-2.9,0.2-4.4,0.1
					c18.7,18.6,46.8,30.7,74.9,31.6c2.8,0.1,5.6,0.5,8.2,0.9c2.7,0.4,5.2,0.7,7.9,0.8c14.3,0.4,29.1-0.6,44.1-2.8l2.6-0.4
					c10-1.5,20.3-2.9,30.2-5.1c5.8-1.3,10.9-2.6,15.7-4.2c1.1-0.4,2.4-0.7,3.6-1.1c2.9-0.9,6-1.8,8.5-3.1c0.7-0.4,1.4-0.7,1.9-1
					c1.2-0.6,2.2-1,3.2-1.8c-0.3-0.4-0.6-0.6-0.9-1c-3.5-4.5-3.1-10.9-2.6-16.1l0.1-1.4C231.2,224,232.3,223.2,233.5,223.2z"/>
			</g>
			<g>
				<path d="M144.3,300.5c-3.6,0-7.4-0.3-11-0.5c-1.1-0.1-2.3-0.2-3.4-0.3c-6.4-0.5-12.1-1.7-18.1-3l-0.9-0.2
					c-1.5-0.3-2.9-0.5-4.5-0.8s-3.2-0.5-4.9-0.9c-6.4-1.4-10.3-3.7-13.2-8c-2.5-3.7-4.1-7.9-4.4-12.1c-0.1-0.9-0.2-1.6-0.5-2.5
					c-0.3-1.1-0.7-2.4-0.7-4c0-1.7,0-3.5,0-5.1v-2.6c0-1,1-1.8,2.3-1.8s2.3,0.8,2.3,1.8v2.6c0,1.7,0,3.5,0,5.2
					c0,1.2,0.2,2.2,0.6,3.2c0.2,0.9,0.5,1.8,0.6,3c0.3,3.7,1.7,7.4,3.9,10.5c2.3,3.3,5.3,5.1,10.4,6.2c1.5,0.4,2.9,0.5,4.5,0.8
					c1.6,0.3,3.2,0.5,4.8,0.9l0.9,0.2c5.9,1.3,11.5,2.5,17.5,2.9c1.1,0.1,2.3,0.2,3.4,0.3c3.6,0.3,7.5,0.5,11,0.5c1.9,0,4,0,5.9,0h2
					h93.8c1.2,0,2.3,0.8,2.3,1.8s-1,1.8-2.3,1.8h-95.8c-1.9,0-4,0-5.9,0C144.6,300.5,144.5,300.5,144.3,300.5z"/>
			</g>
			<g>
				<path d="M84.9,102.1c-0.1,0-0.2,0-0.3,0c-1.2-0.1-2.2-1-1.9-2L98.4-1.7c0.1-1,1.2-1.7,2.5-1.6c1.2,0.1,2.2,1,1.9,2L87.1,100.6
					C87.1,101.5,86.1,102.1,84.9,102.1z"/>
			</g>
			<g>
				<path d="M372.4,83.1c-0.1,0-0.1,0-0.2,0c-1.2-0.1-2.2-1-2-2l4.4-35c0-0.3,0.1-0.5,0.3-0.7c1.2-1.7,2.5-3.5,3.7-5.1
					c5.8-8,11.8-16.4,18.4-24.3l-90.3,32.6c-1.1,0.5-2.5,0-2.9-0.9c-0.6-0.9,0-2,1.1-2.4l96.5-34.9c0.8-0.3,1.7-0.2,2.4,0.3
					s0.9,1.2,0.7,1.9c-0.7,1.8-2,3.4-3.2,4.8c-6.7,7.9-12.8,16.4-18.7,24.7c-1.1,1.6-2.3,3.2-3.5,4.8l-4.4,34.6
					C374.5,82.5,373.6,83.1,372.4,83.1z"/>
			</g>
			<g>
				<path d="M403.5,126.8c-1.2,0-2.3-0.8-2.3-1.8L399.9,12c0-1,1-1.8,2.3-1.8l0,0c1.2,0,2.3,0.8,2.3,1.8l1.4,112.9
					C405.8,126,404.9,126.8,403.5,126.8L403.5,126.8z"/>
			</g>
			<g>
				<path d="M316.6,53.5c-1.1,0-2.2-0.7-2.3-1.6c-0.1-1,0.8-1.9,2-2l60.2-5.4c1.2-0.1,2.4,0.6,2.5,1.6c0.1,1-0.8,1.9-2,2l-60.2,5.4
					C316.9,53.5,316.8,53.5,316.6,53.5z"/>
			</g>
			<g>
				<path d="M130.2,66.9c-1.1,0-2.2-0.7-2.3-1.6l-4.1-32c-1.1-1.6-2.3-3.2-3.5-4.8c-5.9-8.2-12-16.7-18.7-24.7
					c-1.1-1.4-2.5-3-3.2-4.8c-0.2-0.7,0-1.5,0.8-1.9c0.7-0.5,1.7-0.5,2.6-0.1l90.7,43.5c1,0.5,1.5,1.6,0.8,2.5
					c-0.7,0.8-2,1.2-3.1,0.6L107.1,3.6c6.1,7.5,11.8,15.4,17.4,23c1.2,1.7,2.5,3.5,3.7,5.1c0.1,0.2,0.2,0.5,0.3,0.7l4.1,32.3
					c0.1,1-0.8,1.9-2,2C130.4,66.9,130.3,66.9,130.2,66.9z"/>
			</g>
			<g>
				<path d="M191.5,43.7c-0.1,0-0.2,0-0.3,0l-65.4-9.2c-1.2-0.2-2-1.1-1.8-2.1c0.2-1,1.4-1.6,2.6-1.5l65.4,9.2
					c1.2,0.2,2,1.1,1.8,2.1C193.6,43.1,192.6,43.7,191.5,43.7z"/>
			</g>
			<g>
				<path d="M241.2,20.5L241.2,20.5c-1.4,0-2.3-0.9-2.3-1.9l2-46.5c0-1,1.1-1.8,2.4-1.7c1.2,0,2.3,0.9,2.2,1.9l-2,46.5
					C243.5,19.6,242.5,20.5,241.2,20.5z"/>
			</g>
			<g>
				<path d="M100.7,237.5c-13.9,0-25.3-9.1-25.3-20.4c0-11.2,11.3-20.4,25.3-20.4s25.3,9.1,25.3,20.4
					C126,228.4,114.7,237.5,100.7,237.5z M100.7,200.5c-11.5,0-20.8,7.5-20.8,16.7c0,9.2,9.3,16.7,20.8,16.7s20.8-7.5,20.8-16.7
					C121.5,208,112.2,200.5,100.7,200.5z"/>
			</g>
			<g>
				<path d="M100.7,230.4c-9.1,0-16.3-5.9-16.3-13.2c0-7.3,7.4-13.2,16.3-13.2S117,210,117,217.2
					C117.1,224.4,109.8,230.4,100.7,230.4z M100.7,204.3c-8.8,0-16.1,5.8-16.1,13c0,7.1,7.3,13,16.1,13s16.1-5.8,16.1-13
					C116.8,210.1,109.7,204.3,100.7,204.3z"/>
			</g>
			<g>
				<path d="M368.9,237.5c-13.9,0-25.3-9.1-25.3-20.4c0-11.2,11.3-20.4,25.3-20.4s25.3,9.1,25.3,20.4
					C394.2,228.4,382.9,237.5,368.9,237.5z M368.9,200.5c-11.5,0-20.8,7.5-20.8,16.7c0,9.2,9.3,16.7,20.8,16.7
					c11.5,0,20.8-7.5,20.8-16.7C389.7,208,380.4,200.5,368.9,200.5z"/>
			</g>
			<g>
				<path d="M368.9,230.4c-9.1,0-16.3-5.9-16.3-13.2c0-7.3,7.4-13.2,16.3-13.2c9,0,16.3,5.9,16.3,13.2
					C385.4,224.4,378,230.4,368.9,230.4z M368.9,204.3c-8.8,0-16.1,5.8-16.1,13c0,7.1,7.3,13,16.1,13c8.8,0,16.1-5.8,16.1-13
					C385,210.1,377.8,204.3,368.9,204.3z"/>
			</g>
			<g>
				<path d="M232.5,225.3c-2.3,0-4.4-0.6-6.1-1.7c-1.5-0.9-2.4-2.4-2.8-4.4c-0.2-0.7-0.3-1.6,0-2.5c0.5-1.3,1.7-2.3,3.3-2.8
					c1.2-0.4,2.5-0.5,3.6-0.5l6.9-0.5c0.9-0.1,2.9-0.2,4.3,1c0.6,0.5,1,1.2,1.1,1.9c0.7,3.4-1.2,6.7-5.1,8.4
					C236.1,224.9,234.3,225.3,232.5,225.3z M238.3,216.4c-0.1,0-0.3,0-0.6,0l-6.9,0.5c-0.8,0.1-1.6,0.1-2.3,0.3
					c-0.5,0.1-0.7,0.4-0.7,0.5s0,0.4,0.1,0.7c0.2,1.1,0.7,1.9,1.4,2.3c2,1.4,4.6,1,6.2,0.3C237.1,220.2,238.7,218.6,238.3,216.4
					C238.4,216.4,238.4,216.4,238.3,216.4z"/>
			</g>
			<g>
				<path d="M191,300.5c-0.7,0-1.4-0.3-1.8-0.7c-4-4.5-6-9.7-8.1-14.6l-0.2-0.5c-1-2.4-1.9-4.9-2.6-7.5c-1.5-5.9-1-11.1-0.5-16.8
					c0.1-1,1.2-1.7,2.5-1.6c1.2,0.1,2.2,1,2,2c-0.6,5.6-1,10.3,0.3,15.8c0.6,2.4,1.6,4.8,2.5,7l0.2,0.5c2,4.9,3.9,9.6,7.5,13.6
					c0.7,0.8,0.5,1.9-0.6,2.6C191.9,300.4,191.4,300.5,191,300.5z"/>
			</g>
			<g>
				<path d="M284.9,300.5c-0.5,0-0.9-0.1-1.4-0.4c-1-0.5-1.2-1.7-0.6-2.6c3.6-4,5.4-8.7,7.5-13.6l0.2-0.5c0.9-2.3,1.9-4.7,2.5-7
					c1.4-5.5,1-10.2,0.3-15.7c-0.1-1,0.8-1.9,2-2c1.2-0.1,2.4,0.6,2.5,1.6c0.7,5.8,1,10.8-0.5,16.7c-0.7,2.6-1.6,5.1-2.6,7.5
					l-0.2,0.5c-2,4.9-4.1,10.1-8.1,14.6C286.2,300.3,285.6,300.5,284.9,300.5z"/>
			</g>
			<g>
				<path d="M275.2,41.7c-1.2,0-2.3-0.8-2.3-1.8c0-10.6-14.5-19.5-31.8-19.5c-17.8,0-31.8,7.9-31.8,18.2c0,1-1,1.8-2.3,1.8
					c-1.2,0-2.3-0.8-2.3-1.8c0-12.2,16-21.8,36.3-21.8c19.6,0,36.3,10.6,36.3,23.2C277.5,40.9,276.5,41.7,275.2,41.7z"/>
			</g>
			<g>
				<ellipse class="st3" cx="243.3" cy="-36.2" rx="10.3" ry="8.3"/>
			</g>
			<g>
				<path class="st17" d="M236.7,356.4c-11.1,0-20.6-6.4-22.7-15.3l0.8-0.1c1.9,8.5,11,14.7,21.8,14.7s20-6.2,21.8-14.7l0.8,0.1
					C257.3,350.1,247.8,356.4,236.7,356.4z"/>
			</g>
			<g>
				<path class="st17" d="M258.3,334.1c-2.3-8.1-11.3-14-21.7-14s-19.4,5.8-21.7,14l-0.8-0.2c2.3-8.4,11.8-14.5,22.5-14.5
					c10.8,0,20.2,6.1,22.5,14.5L258.3,334.1z"/>
			</g>
			<g>
				<path class="st17" d="M236.7,351c-7.3,0-13.6-3.8-15.5-9.5c-1.9,0-12.5,0-12.5,0h-0.5v-7.9h13.2c2.3-5.2,8.4-8.8,15.3-8.8
					c6.9,0,13,3.5,15.3,8.8h12.9v7.9h-12.7C250.3,347.1,243.9,351,236.7,351z M221.8,341.1c1.8,5.4,7.8,9.1,14.9,9.1
					c6.9,0,13-3.8,14.9-9.2l0.1-0.3h12.5v-6.5h-12.7l-0.2-0.1c-2-5.1-7.9-8.5-14.6-8.5c-6.7,0-12.5,3.5-14.6,8.5l-0.1,0.3h-12.9v6.5
					h5.9C221.5,340.8,221.8,340.8,221.8,341.1z"/>
			</g>
		</g>
	</g>
	<path class="st2" d="M237.2,338.2c-0.1,0.1-0.1,0.1-0.2,0.2c-0.9,1.1-1.9,2.2-2.8,3.2c-0.9,1-1.8,2-2.6,3c0,0-0.1,0.1-0.1,0.1
		c-1.2,0-2.4,0-3.6-0.1c0,0,0,0-0.1,0c0,0,0,0,0-0.1c0.9-1,1.7-2.1,2.6-3.1c0.8-0.9,1.5-1.9,2.3-2.8c0.9-1,1.7-2.1,2.6-3.1
		c0.1-0.2,0.3-0.3,0.4-0.5c0,0,0-0.1,0-0.1c-0.2-0.6-0.4-1.2-0.6-1.7c-0.1-0.2-0.2-0.5-0.3-0.7c0-0.1-0.1-0.1-0.2-0.1
		c-0.8,0-1.5,0-2.3,0c-0.1,0-0.1,0-0.1-0.1c0-0.8,0-1.5,0-2.3c0-0.1,0-0.1,0.1-0.1c1.5,0,3.1,0,4.6,0.1c0.1,0,0.1,0,0.2,0.1
		c0.8,1.6,1.6,3.3,2.3,4.9c0.9,1.9,1.8,3.8,2.7,5.7c0.3,0.6,0.6,1.2,0.8,1.8c0,0.1,0.1,0.1,0.2,0.1c0.8-0.2,1.6-0.4,2.4-0.6
		c0.1,0,0.1,0,0.2,0.1c0.3,0.7,0.5,1.4,0.8,2.1c0,0,0,0,0,0.1c-0.1,0-0.1,0-0.2,0c-1.8,0.4-3.7,0.9-5.5,1.3c-0.1,0-0.1,0-0.1-0.1
		c-0.5-1.1-1.1-2.3-1.6-3.4c-0.5-1.1-1.1-2.2-1.6-3.3C237.4,338.7,237.4,338.5,237.2,338.2C237.3,338.3,237.3,338.3,237.2,338.2
		L237.2,338.2z"/>
</g>
</svg>
