<?xml version="1.0" encoding="utf-8"?>
<!-- Generator: Adobe Illustrator 27.3.1, SVG Export Plug-In . SVG Version: 6.00 Build 0)  -->
<svg version="1.1" id="Layer_1" xmlns="http://www.w3.org/2000/svg" xmlns:xlink="http://www.w3.org/1999/xlink" x="0px" y="0px"
	 viewBox="0 0 500 500" style="enable-background:new 0 0 500 500;" xml:space="preserve">
<style type="text/css">
	.st0{fill:#90B5E0;}
	.st1{fill:#BAE1EF;}
	.st2{fill:#000080;}
	.st3{fill:#A7A9AC;}
	.st4{fill:#FFFFFF;}
	.st5{fill:#3AC6F4;}
	.st6{fill:#C00000;}
	.st7{fill:#EBF1F4;}
	.st8{fill:#8BA3B4;}
	.st9{fill:#5C97D1;}
	.st10{opacity:0.4;fill:#1B3E5E;enable-background:new    ;}
	.st11{opacity:0.4;fill:#55285B;enable-background:new    ;}
	.st12{opacity:0.4;}
	.st13{fill:#1B3E5E;}
	.st14{opacity:0.3;fill:#FFFFFF;enable-background:new    ;}
	.st15{fill:none;}
	.st16{fill:#010101;}
</style>
<g>
	<path class="st0" d="M222,252.8c0,0-96.5-17.3-136.7-44C14.8,161.9,4.4,120.5,38.7,87c16.7-16.3,53.4-11,74.6-3
		c39.9,15.1,94.9,70.6,94.9,70.6s-18.4,15.7-16.7,30.7c3.8,34.4,29.1,36.5,29,35.8L218,229l11.3,4c0,0-7.3,10.7-5.4,12.9
		c1.9,2.2,7.1-2,7.1-2L222,252.8"/>
	<path class="st0" d="M280.1,152.8c0,0,75-77.9,98.1-85.1c23-7.1,30.9-12.4,60.3-3.2c40.5,12.8,33.4,45.9,28.5,58.7
		c-5,12.8-18.5,43.7-63.2,69.3s-65.2,34.4-65.2,34.4s30.1-6.8,54.6-3c24.5,3.8,31.5,22,33.2,32.4c3,17.4-5.7,41.8-37.9,51.5
		c-29.8,9-81.7,8.8-105.5,3.6c-23.8-5.2-14.1-11-14.1-11l4.5-6.5l-6.7-10.9l4.8-2.2l-6.2-16.7l9.3,1.4l-7.4-15.6l5.8-4l-9.5-10.2
		c0,0,8.4-7.2,6.6-6.5c-1.9,0.6-1.2-5.2-1.2-5.2s18.6-7.2,23.3-16.2c4.7-8.9,12-21,5.7-35.1C291.6,158.3,280.1,152.8,280.1,152.8z"
		/>
	<path class="st0" d="M221.5,253.7c0,0-9.7-1-22.7-3.9c-13-2.9-29.2-4.1-29.2-4.1s-59.3-5.7-76.2,5.2S65.4,278,66.6,292.2
		c1.7,18.3,5.2,34.7,31.6,43.4s63.5,3.5,73.7,0.6c23.3-7,49.6-23.3,49.6-23.3l7.6-9.9c0,0-7.4,2.3-9.3-0.3s8.3-15.4,8.3-15.4
		s-10.3,2.4-12,0c-1.8-2.4,10.6-15.4,10.6-15.4s-10.8,2.7-12,0s10.7-10.2,10.7-10.2s-4.8,0.3-7-1.4
		C216.2,258.5,221.5,253.7,221.5,253.7z"/>
	<path class="st1" d="M299.3,186.5c0,22.5-23.4,40.8-53.7,40.8s-55-18.3-55-40.8s19.6-41.4,55-42C276,143.9,299.3,163.9,299.3,186.5
		z"/>
	<path class="st2" d="M306,193.6c-0.6-6.5,13.6-17.3,13.9-18.9c1.5-10-14.6-24.6-12.4-27.4c2.1-2.8,4.7-9.3,9.1-7.5
		c4.4,1.8,12.9,15.9,15.9,16.2c3,0.4,21.4-13.6,28.1-9.8c6.8,3.7,14.3,12.9,16,22.7c1.7,9.7-2,19.3-6.6,24.1s-32.5,29.5-38,29.6
		c-5.5,0.1-19.2-9.7-21.7-13.8C307.8,204.7,306,193.6,306,193.6z"/>
	<path class="st2" d="M189.7,200.7c0.6-6.5-13.6-17.3-13.9-18.9c-1.5-10,14.6-24.6,12.4-27.4c-2.1-2.8-4.7-9.3-9.1-7.5
		c-4.4,1.8-12.9,15.9-15.9,16.2c-3,0.4-21.4-13.6-28.1-9.8c-6.8,3.7-14.3,12.9-16,22.7s2,19.3,6.6,24.1c4.5,4.8,32.5,29.5,38,29.6
		c5.5,0.1,19.2-9.7,21.7-13.8C187.9,211.6,189.7,200.7,189.7,200.7z"/>
	<path class="st2" d="M307.4,260.2c7.1-1.7,16.5-0.5,20.7-1.2c4.1-0.7,5.2-24.4,10.8-24.4s5.2,0.6,7.7,1c2.5,0.5-2.1,17.1,1.2,20.6
		c3.3,3.5,20.1,5.2,22.5,14.5c2.8,11-7.3,28.3-15.8,30.5c-5.4,1.4-46-2.9-49.6-3.2c-3.7-0.3-8.2-16.5-5.7-22.7
		C301.9,269.2,307.4,260.2,307.4,260.2z"/>
	<path class="st3" d="M220.5,221.1c0,0,16.2,6.7,25.2,6.1c9-0.6,23.3-3.5,23.3-3.5s4.1-0.1,1.2,5.2c-2.9,5.3-18.4,6.6-24.4,6.5
		c-5.9,0-26.3-3.2-27.9-6.6C216.5,225.6,220.5,221.1,220.5,221.1z"/>
	<polygon class="st3" points="226.9,161.4 237.8,157.2 233.4,136 223.4,139.7 	"/>
	<polygon class="st3" points="255.2,157.2 259.3,136 269,138.8 265.2,163.2 	"/>
	<path class="st2" d="M182,271.7c0,0,11.7,7.1,13.2,12.7c1.5,5.8-2.6,22.9-2.6,22.9S151.6,325,147,323c-4.6-2.1-19.2-10.7-19.2-15.6
		c0-4.8-2.3-14.1,0.2-18s13.9-10.9,13.9-10.9s-4.2-19-2.9-20.6c1.3-1.7,6.3-4.3,9.6-1.8c3.3,2.4,7.8,18.5,15.3,19.1
		C171.4,275.9,182,271.7,182,271.7z"/>
	<path class="st2" d="M214.9,395.4c0,0-0.9,9.7,0,12.6c0.9,3,1.9,12.2,1.9,12.2s-11,9.1-11.7,11c-0.6,1.9-1.4,15.2,1.6,17.2
		s28.7,3.1,35.5-3.2c6.9-6.2,5.8-10.5,6.5-13.7s-1.9-10.4-1.9-10.4s5.4-18.9,3.2-22.1c-2.1-3.2-15.3-7.1-18.9-7.1
		C227.5,391.9,214.9,395.4,214.9,395.4z"/>
	<path class="st2" d="M240.7,377.7c0,0,3.1-5.3,1.5-7.1c-1.6-1.9-1.3-4.6-1.3-4.6s29.4-14.7,29.3-12.9c-0.2,1.8,6.7,6.6,10.6,12.3
		c3.8,5.7,5.6,15.6,3.9,17.7c-1.7,2.1-16.3,4.5-16.3,4.5s1.7,15-4.7,18.7c-6.4,3.7-13.2,4.5-13.2,4.5l-1.8-4.5l-1.9-8.5l-3.2-2.7
		L240.7,377.7z"/>
	<path class="st4" d="M146.3,216.7c0,0,12.3-1.5,21.3-9.1c9-7.7,10.8-21.4,10.8-21.4l5.3,5c0,0-0.3,9.8-10.9,20.1
		c-8.4,8.4-20.7,11.3-20.7,11.3L146.3,216.7z"/>
	<path class="st4" d="M168.8,275.1l5.8-1.3c0,0,8.8,7,10.8,13.3c3.1,9.8-0.7,24.1-0.7,24.1l-6.2,3.1c0,0,3.3-10,1.5-20.2
		C177.1,279.7,168.8,275.1,168.8,275.1z"/>
	<path class="st4" d="M316.5,259.2l5.3,0.9c0,0-7.6,7.4-6.5,19.1c1.1,11.7,6.5,20.8,6.5,20.8l-8-1.3c0,0-4.7-9.7-4.8-19
		C308.9,270.3,316.5,259.2,316.5,259.2z"/>
	<path class="st4" d="M312.1,182.8l4.5-4.5c0,0,2.1,13.6,9.1,20.4c7.6,7.5,23.4,9.9,23.4,9.9l-5,5.7c0,0-10-0.8-20.1-9.3
		C313.8,196.6,312.1,182.8,312.1,182.8z"/>
	<path class="st4" d="M214.9,408c0,0,7.4-2.3,10.4-2.4s13.2,1.2,13.2,1.2v-5.3c0,0-10.1-2-14.4-1c-4.3,1-9.2,2-9.2,2V408z"/>
	<path class="st4" d="M258.5,357.5c0,0,7.7,5.6,9.9,10.9c2.3,5.4,7,17.1,7,17.1l5.3-2.1c0,0-3.8-11.3-7.3-17.2
		c-3.5-5.8-9-11.2-9-11.2L258.5,357.5z"/>
	<ellipse class="st4" cx="246.2" cy="189.3" rx="33" ry="31.5"/>
	<circle class="st5" cx="220.4" cy="194.1" r="14.6"/>
	<circle class="st5" cx="274.1" cy="193.2" r="14.8"/>
	<path class="st4" d="M229.3,232.9c0,0,8.4,3.1,16.5,2.6c8-0.5,17.8-2.4,17.8-2.4l9.5,12.6l-5.8,4l5.8,9.5l-1.4,8.1l-4.7,0.6
		l4.7,12.7l-4.8,2.2l6.7,10.9l-4.5,6.5l1.9,11l-1.3,3.6l-4.3,2.7c0,0,2.1,6.9,1.8,10.1s-1.4,7.1-3.4,6c-2-1.1-2-1.1-2-1.1
		s-3.4,12.2-6.4,15.9s-8.7-5.4-8.7-5.4s-4.6,5.6-5.7,4.5c-1-1-3.1-13.8-3.1-13.8s-8-0.2-8-2.6c0-2.4,1.9-9.7,1.9-9.7
		s-11,1.3-10.7-2.2c0.3-3.5,8-16.2,8-16.2s-8.7,4.7-9.3-0.3c-0.6-5,8.3-15.4,8.3-15.4s-12.8,3.2-12,0c0.8-3.2,10.6-15.4,10.6-15.4
		s-12.4,5.7-12,0c0.5-5.7,10.7-10.2,10.7-10.2s-9.2,1.1-6-5.4c3.2-6.5,8.7-11.1,8.7-11.1s-2.5,4.7-4.5-0.7s3.5-10,3.5-10
		L229.3,232.9z"/>
	<path class="st6" d="M229.1,223.7l2-5.4c0,0,6.3,2.4,12.4,2.3c6.1-0.1,16.7-2.9,16.7-2.9l1.4,5.9c0,0-8.1,2.1-16,2.3
		C237.8,226.1,229.1,223.7,229.1,223.7z"/>
	<polygon class="st7" points="182,220.8 186.5,211.5 223.4,244.2 222,252.8 	"/>
	<polygon class="st7" points="273.1,245.7 269,239.2 310.2,208.7 316.5,214.8 	"/>
	<polygon class="st7" points="268.1,269.1 299.3,271.6 298.7,280.6 271.7,279.4 	"/>
	<polygon class="st7" points="224.1,271.2 216.7,281.3 196.9,289.8 195.2,282 	"/>
	<path class="st6" d="M261.3,136.3c-0.2,0.4-10.1-33.1-9.2-39.4c0.4-2.5,4.9,5.2,4.9,5.2s-2.6-15.1,0.9-22.8
		c3.5-7.7,5.9-18.5,8.6-16.9c1.4,0.8,2.2,10.4,1.8,11c0,0,10.2-14.2,14.8-16s37.3-8.2,37.3-8.2l-6.7,8.1c0,0,15.7,5.5,12.6,8.4
		c-3.1,2.9-30,8-30,8s8.6,2.9,8.9,5.5c0.3,2.6-24.7,9.8-24.7,9.8c11.7,1.6-8.9,19.3-8.9,19.3s2.6,4.4,1.4,6.4c-1.2,2-6,6.8-6,6.8
		v15.6L261.3,136.3z"/>
	<path class="st6" d="M225.9,137.9l4.5-0.7c0,0,2.1-8,0.5-11s-4.9-5-4.6-7.4c0.3-2.4,1-12.2,0-14.6c-1-2.4-8.1,1.3-8.1,1.3
		s1.7-21-3.6-31.6s-8.3-15.4-8.7-14.5c-0.5,0.9-4.3,12.9-4.3,12.9s-15-21.8-24.2-23.8c-9.2-1.9-12.2,0.6-12.2,0.6
		s-17.4-2.4-17.4-0.6c0,4.8,20.8,14.3,20.8,14.3s-14.3,1-14.3,3.3c0,2.3,25.5,11,25.5,11s-9.8,1-9.3,4.2s13.3,3.7,15,5.3
		c1.8,1.6,13.1,8.3,13.1,8.3s-6.1-0.6-6.9,2.1c-0.7,2.7,16.8,14,16.8,14s-2.1,5-1.5,5.9s7.4,3.3,10.5,6.8
		C220.7,127.3,225.9,137.9,225.9,137.9z"/>
	<polygon class="st8" points="225.5,147.3 235.4,145.7 237.8,157.2 226.9,161.4 	"/>
	<polygon class="st8" points="255.2,157.2 257.4,146.1 267.6,148 265.2,163.2 	"/>
	<polygon class="st7" points="267.4,331.9 267,319.4 292.1,345.5 286.4,350.3 	"/>
	<polygon class="st7" points="233.2,334.8 237.8,333.6 238.5,343.9 240.9,347.6 238.5,363.1 231.1,361 	"/>
	<polygon class="st7" points="277.8,359.1 286.2,355.9 289.9,362.3 280.8,365.4 	"/>
	<polygon class="st7" points="230.1,380.1 237.4,380.1 235,391.9 227.5,390.6 	"/>
	<circle class="st6" cx="234.1" cy="370.7" r="8.6"/>
	<circle class="st6" cx="295.6" cy="354" r="8.1"/>
	<path class="st3" d="M206.7,440.9c0,0-3.4,2.8,0.9,5.8c6.9,4.8,27.2,3.4,34.5-1.5c7.3-4.9,3.9-8.8,3.9-8.8s-2.9,7.1-19.9,6.8
		C206.7,442.7,206.7,440.9,206.7,440.9z"/>
	<path class="st3" d="M240.7,377.7l2.9-3.8c0,0,4.7,17.7,7,22.8c2.2,5.1,7,12.3,7,12.3h-6.1l-2.5-2.8l-1.9-8.5l-3.2-2.7L240.7,377.7
		z"/>
	
		<rect x="137.2" y="41.7" transform="matrix(0.5435 -0.8394 0.8394 0.5435 -35.5642 169.257)" class="st9" width="1.2" height="151.3"/>
	
		<rect x="183.6" y="168.9" transform="matrix(0.5102 -0.8601 0.8601 0.5102 -61.9146 245.0459)" class="st9" width="1.2" height="16"/>
	<rect x="91" y="58.4" transform="matrix(0.5101 -0.8601 0.8601 0.5101 -60.013 138.5491)" class="st9" width="1.2" height="127"/>
	
		<rect x="68.7" y="89.7" transform="matrix(0.5008 -0.8656 0.8656 0.5008 -93.4394 133.8294)" class="st9" width="1.2" height="116.5"/>
	
		<rect x="124.1" y="121.4" transform="matrix(0.4277 -0.9039 0.9039 0.4277 -120.7701 234.4083)" class="st9" width="1.2" height="182.4"/>
	
		<rect x="272.1" y="110.1" transform="matrix(0.7938 -0.6082 0.6082 0.7938 5.5626 237.8933)" class="st9" width="163" height="1.2"/>
	
		<rect x="323.2" y="114.9" transform="matrix(0.8383 -0.5452 0.5452 0.8383 0.8691 233.878)" class="st9" width="143.1" height="1.2"/>
	
		<rect x="366.8" y="135.2" transform="matrix(0.857 -0.5154 0.5154 0.857 -9.6639 236.8202)" class="st9" width="109.9" height="1.2"/>
	
		<rect x="344.3" y="179.8" transform="matrix(0.8715 -0.4904 0.4904 0.8715 -36.9185 219.8731)" class="st9" width="113.7" height="1.2"/>
	
		<rect x="206.8" y="202.8" transform="matrix(0.5145 -0.8575 0.8575 0.5145 -92.8916 287.4804)" class="st9" width="1.2" height="46"/>
	
		<rect x="296.6" y="172.5" transform="matrix(0.8166 -0.5773 0.5773 0.8166 -43.3642 209.8423)" class="st9" width="23.9" height="1.2"/>
	<path class="st9" d="M269.3,227.5l-0.6-1c6.2-3.8,37.4-22.7,38.3-23l0.4,1.2l-0.2-0.6l0.2,0.6C306.3,205.1,279.5,221.3,269.3,227.5
		z"/>
	
		<rect x="282.7" y="227.8" transform="matrix(0.9058 -0.4236 0.4236 0.9058 -68.1139 150.3023)" class="st9" width="42.7" height="1.2"/>
	
		<rect x="187.8" y="229.8" transform="matrix(3.424429e-03 -1 1 3.424429e-03 -76.9156 452.239)" class="st9" width="1.2" height="69.9"/>
	
		<rect x="106.6" y="231.6" transform="matrix(3.412020e-03 -1 1 3.412020e-03 -157.5716 370.694)" class="st9" width="1.2" height="65.6"/>
	
		<rect x="64.5" y="290.4" transform="matrix(0.9954 -9.564704e-02 9.564704e-02 0.9954 -27.3863 10.5847)" class="st9" width="64.4" height="1.2"/>
	<polygon class="st9" points="195.5,299.3 195.3,298.1 224.7,291.7 222.8,293.3 	"/>
	
		<rect x="77.4" y="317.4" transform="matrix(0.9775 -0.2107 0.2107 0.9775 -64.6319 29.3564)" class="st9" width="56.1" height="1.2"/>
	
		<rect x="116.9" y="326.7" transform="matrix(0.9625 -0.2714 0.2714 0.9625 -82.4363 58.466)" class="st9" width="106.6" height="1.2"/>
	
		<rect x="346.4" y="236.2" transform="matrix(0.9694 -0.2453 0.2453 0.9694 -46.593 99.5761)" class="st9" width="60.1" height="1.2"/>
	
		<rect x="270.6" y="254.7" transform="matrix(0.9694 -0.2453 0.2453 0.9694 -53.3611 82.1926)" class="st9" width="65.3" height="1.2"/>
	
		<rect x="362.8" y="257.3" transform="matrix(0.9855 -0.1698 0.1698 0.9855 -38.0789 70.573)" class="st9" width="61.5" height="1.2"/>
	
		<rect x="365.8" y="281.5" transform="matrix(0.9948 -0.1016 0.1016 0.9948 -26.6223 41.5833)" class="st9" width="58.2" height="1.2"/>
	
		<rect x="269.8" y="292.8" transform="matrix(0.9948 -0.1016 0.1016 0.9948 -28.3282 30.5614)" class="st9" width="32.1" height="1.2"/>
	<polygon class="st9" points="275.1,311.9 275.1,310.7 391.5,306.8 391.5,308 	"/>
	<path class="st10" d="M118.2,192.3c0,0,0.3,9.2,2.5,13.8c2.2,4.6,36.6,29.1,40.5,30.6s15.6-0.7,18.7-2.7c3.1-1.9,7.6-4.5,7.6-4.5
		l31.8,26.5l4.2-6.8l-37.8-31.6l-10.1,6.7l-11,5.8l-8-4.3L118.2,192.3z"/>
	<path class="st10" d="M191.4,185.2c0,0-2.7,15,0,25.4c2.2,8.6,3.8,11.2,3.8,11.2l26.4,22.3l5.8-7.1l-8.7-7.4l2.8-5.9
		c0,0-16.7-9.6-20.1-13C193.5,202.8,191.4,185.2,191.4,185.2z"/>
	<path class="st10" d="M263.7,234.4c0,0-3.8,3.5-13.6,6.8c-13.7,4.5-13.7,4.5-13.7,4.5s-9.7,4.1-7.1,8.2c2.6,4.2,8.4,0.4,8.4,0.4
		s-8.4,7.8-7.3,10.9c1,3.2,5.8,3.9,5.8,3.9s-11.9,8.5-8.4,10.1c3.5,1.6,7.5,2.3,7.5,2.3s-11.1,9.7-5.9,11.7c5.2,2,7.4,2,7.4,2
		s-11.7,15-7.4,16.6c4.2,1.6,13-0.4,13-0.4s-10.1,11.4-6.2,13c4,1.6,9.5-3.2,9.5-3.2s-6.1,10.1-1.4,12.3c4.7,2.2,6.5-4.4,6.5-4.4
		s-3.2,11.2,1.5,11.1s6.4-4.8,6.4-4.8s-0.1,15-3.2,14.7c-7.3-0.9-8.7-7.2-8.7-7.2s-3.2,8.2-5.7,4.5c-2.4-3.6-3.1-13.8-3.1-13.8
		s-8.4,0.2-8-2.6c0.4-2.8,2.8-9.7,2.8-9.7s-10.3,0.4-10.9-0.9c-0.6-1.3,8.1-19.1,8.1-19.1s-12.3,3.5-12.2,0
		c0.2-3.3,9.9-15.4,9.9-15.4s-10.8,2-9.7-0.2c1.1-2.2,8.8-13.8,8.8-13.8s-12.2,4.5-12,0c0.2-4.5,11.3-12.6,11.3-12.6
		s-8.5,5.1-7.6,1.1c0.9-4,9.7-15.1,9.7-15.1s-6.5,3.2-6.3-0.7c0.2-3.9,7.7-10.1,7.7-10.1l16.5,1.4L263.7,234.4z"/>
	<path class="st10" d="M269,223.7c0,0-9.1,5.4-22.1,5.4c-4.6,0-13.2-0.2-13.2-0.2l-2.4,5.6l-12.5-4.8l2.8-5.9c0,0,15.7,1.8,20.4,2
		C246.7,225.9,269,223.7,269,223.7z"/>
	<polygon class="st10" points="223.4,139.7 227.2,139.4 231.6,155.7 237.8,157.2 226.9,161.4 	"/>
	<polygon class="st10" points="259.3,136 263.2,138.6 260.2,156 265.2,163.2 255.2,157.2 	"/>
	<path class="st10" d="M124.9,294.1c0,0,3.9,5.5,8.1,5.2c0,0-1.9,4.7,1.7,8.2c3.4,3.2,9.8,1.9,9.8,1.9s1.7,2.7,6.5,2.9
		c16.3,0.6,44.4-14.2,44.4-14.2l-2.6,9.4c0,0-37,15.3-43.5,15.8c-6.5,0.4-15.5-8-18.5-11.9C127.7,307.4,124.9,294.1,124.9,294.1z"/>
	<path class="st10" d="M124.9,294.1c0,0-10.6,12.9,0.6,27.2c9.8,12.7,21.7,10.9,28,10.1c6.3-0.8,39.2-12,43.2-14.7s5.7-12.5,6-17.5
		c0.4-4.9,0-8.3,0-8.3l15.1-5.4l3.8-9.8l-25.5,10c0,0,0.6-1.5,0.6,7.5c-0.1,9-4,14.1-4,14.1s-38.5,15.8-43.5,15.8
		c-4.9-0.1-14.9-6.1-18.5-11.9C127.1,305.5,124.9,294.1,124.9,294.1z"/>
	<path class="st10" d="M226.5,206.2c0,0,3.8,5.6,8,7.9c9,4.9,25.8,3.7,25.8,3.7s-10.8,4.7-25.7,1.6c-5.4-1.1-14.7-8-14.7-8
		L226.5,206.2z"/>
	<path class="st10" d="M213.2,179.5l7.9-1.2c0,0-0.1-4.1,1.7-7.8c1.7-3.4,6.4-9.1,6.4-9.1s-12.5,6.8-13.8,9
		C214.1,172.6,213.2,179.5,213.2,179.5z"/>
	<path class="st10" d="M165.1,49.2c0,0-7.4-1.7-9.6,1.3c-1.3,1.8,7.1,6.4,14,9.9c4.7,2.4,8.9,4.3,8.9,4.3s-10.3-0.1-10.9,2.8
		c-0.6,2.9,20.5,9.9,20.5,9.9s-6.1,0.3-4.3,4.8c0.4,0.8,1.2,1.9,2.8,2.7c6.2,3.1,20.8,12.2,20.8,12.2s-11-0.1-8.1,1.8
		s14.1,11.7,14.1,11.7s3.9,7.1,8.4,11.3s5.6,17.4,5.6,17.4s-7-14.4-10.6-16.3s-9.6-5.8-9.6-5.8l1.8-5.9c0,0-18.1-11.9-17-14
		c1.4-2.7,6.9-2.1,6.9-2.1s-6.4-4.8-13.1-7.7c-7.3-3.1-14.9-4.3-15-5.8c-0.3-2.6,9.3-4.2,9.3-4.2l-25.2-10.1l3-2.8l9.4-1.9
		c0,0-20.5-10.3-19.3-14C148.4,46.2,165.1,49.2,165.1,49.2z"/>
	<path class="st10" d="M240.9,347.6c0,0-0.6,1.5-3.7,2.7c-1.9,0.7-2.2,2.7-2.2,2.7l-0.9,7.7L231,361l2.2-26.3l4.5-1.2l1.3,11.2
		L240.9,347.6z"/>
	<path class="st10" d="M268.1,321.9c0,0,0.8,5.8,2,8.5c1.2,2.7,18.2,18.1,18.2,18.1l-0.8,3.1l0,0L267,332.9L268.1,321.9z"/>
	<path class="st10" d="M300.6,271.2c0,0-1.6,19,11.5,20.7c8.7,1.1,36.5,4,41.4,2.8c5-1.3,14.9-11.7,14.9-11.7s-7.3,16.3-11.6,17.3
		c-4.3,0.9-49.3-0.9-51.9-2.3c-2.6-1.4-7.3-11.1-7.3-11.1L300.6,271.2z"/>
	<polygon class="st10" points="271.3,275.8 299,277.6 297.7,280.5 271.7,279.4 	"/>
	<path class="st10" d="M271.7,279.4l-4.1,4.6l25.2,1.8c0,0-1.5,11.4,2.9,15.5c4.4,4.1,51.2,6.7,57.9,4.3c6.8-2.4,9.4-10.9,9.4-10.9
		s-7.8,5.7-10.4,6.6c-2.6,0.9-43.6,0.4-47.6-3.3c-4-3.8-7.3-17.4-7.3-17.4L271.7,279.4z"/>
	<path class="st10" d="M227.8,390.6c0,0-4.2,1.5-4.8,5.5c-0.3,1.8-0.6,19.8-0.6,19.8s1.6-0.6,7.7,0.6c4,0.8,6.2,5.8,6.2,5.8
		s-7.7-2.2-11.3-1.8s-7.6,8.2-8.3,12.6c-0.6,4.5,6.1,16.7,6.1,16.7s-12.3,0.3-15.2-3.2c-2.9-3.4-4.9-10.6-3.2-13.8
		s13.1-12.1,13.1-12.1l-2.3-25.6L227.8,390.6z"/>
	<path class="st10" d="M277.8,361c0,0,0.8-0.6-4.3-0.6c-4.2,0-14.1,11-19.4,21.5c-3.8,7.5-2.2,28.8-2.2,28.8l-7.7-16.7l-3.2-15.1
		l1.9-8.2l-1.2-5.4l26.8-11.3l4.9,0.9L277.8,361z"/>
	<path class="st11" d="M229.3,363.5c0,0-2.3,6.5,0.8,9.5c4.9,4.6,10.8,0.9,10.8,0.9s-4,6.9-7.6,6.1c-3.6-0.7-9.2-5.5-9.2-5.5
		L229.3,363.5z"/>
	<g class="st12">
		<polygon class="st13" points="236.3,380.7 227.8,390.6 230.1,380.1 		"/>
	</g>
	<path class="st11" d="M288.5,348.6c0,0-0.2,3.7,2.8,6.3c2.9,2.6,11.1,3.6,11.1,3.6l-6.7,5l-9.7-5.2L288.5,348.6z"/>
	<polygon class="st10" points="289.9,363.1 277.8,359.1 285,356.4 	"/>
	<polygon class="st10" points="270.9,242.2 307.4,216.6 310.2,210.7 316.5,214.8 270.9,249 	"/>
	<path class="st10" d="M303.8,192.5c0,0-2.4,9.4-1.9,13.9c0.5,4.5,2.1,7.9,2.1,7.9l6.1-3.6L303.8,192.5z"/>
	<path class="st10" d="M270.9,249l45.6-34.4l6.6,4l11.2,2.3l34.1-27.9c0,0-27,29.3-30.7,31c-3.7,1.6-9.3,4.4-14.1,2.5
		c-4.7-1.9-10.3-2-10.3-2L270.9,249z"/>
	<path class="st10" d="M367,192l1.5-1.3l-2.6,0.3c-1.6-1.4-3.6-3.5-5.4-5.9c-3.3-4.7-1.5-9.3-1.5-9.3s-7.1-0.2-8.3-2.4
		c-1.2-2.2-1.7-9-1.7-9s-5.6-0.4-8.7-3.1c-3.2-2.7-2.2-8-2.2-8s-6.2,9.3-3.7,12.8c4.5,6.5,9.9,4.2,9.9,4.2s-1.5,4.1,1.2,6.8
		c2.7,2.8,8.1,4.2,8.1,4.2s-2.5,4.3,1.2,8.7c1.2,1.5,2.5,2.4,3.8,3c-4.6,4.8-23.1,21.4-26.1,21.6c-3.4,0.3-12.4-1.9-17.2-7.2
		c-6.1-7-8.7-17.5-8.7-17.5s-4.8,7,7.1,21.4c8.4,10.2,20.6,10.8,20.6,10.8l30.3-25.7c2.2-0.2,3.8-3.3,3.8-3.3S367.9,192.8,367,192z"
		/>
	<path class="st10" d="M141.8,197.1l1.3-4.8c0,0,2.8-1.9,5.6-4.3c3.6-3.1,3.6-10.3,3.6-10.3s3.2,0.7,7.1-1.7
		c5.8-3.8,1.3-11.8,1.3-11.8s-1.3,8.9-2.9,10.4c-1.6,1.5-9.8-0.5-9.8-0.5s2,8.2-0.8,11c-2.8,2.8-9.2,1.9-9.2,1.9s1.4,2.7,1,5.7
		c-0.1,0.6-1.7,1.2-2.9-0.6c-3.2-5-0.8-5.7-0.7-7.1c0.1-0.8-1.1-1.8-1.5-2.7c-0.8-2.7-4.2-6.1-3.4-9.6c1.2-5.3,4.3-5.8,4.8-8.4
		c0.9-4.2,1.6-5.8,4.5-9.5c0,0-10.3,0.6-16.7,10.9c-3.6,5.8-5.4,23.1-2.6,26.6c2.8,3.3,40.1,36.9,43.8,37.9c3.7,1,11-5.8,11-5.8
		S154.1,210.3,141.8,197.1z"/>
	<path class="st11" d="M150.8,285c0,0,0.2,0.2,0.1,4.5c0,2.1-1.8,6.1-1.8,6.1l-3-0.9L150.8,285z"/>
	<polygon class="st11" points="154.3,302.5 154.3,306.5 150.9,306.8 	"/>
	<path class="st10" d="M341.8,264.7c0,0-0.2,3.6,0,5.3c0.3,2.6,4.7,3.9,4.7,3.9l2.5-1L341.8,264.7z"/>
	<path class="st10" d="M341.8,278.9c0,0-1.5,2.6-0.4,4.8c1.1,2.1,3.1,3.4,3.1,3.4l0.8-1.4L341.8,278.9z"/>
	<ellipse transform="matrix(0.5 -0.866 0.866 0.5 -3.8657 318.3101)" class="st14" cx="273.7" cy="162.5" rx="6.8" ry="13.7"/>
	<path class="st14" d="M385.6,64.3l-11.1,144.2l21.8-12.8l32.2-134c0,0-17-3.8-27.4-0.9C396.2,62,385.6,64.3,385.6,64.3z"/>
	<path class="st14" d="M405.5,190.8l36.6-126.4c0,0,9.5,4.2,18.4,13.2c0.8,0.8,6.4,14.4,6.8,11.6c0.4-2.8-49.4,92.3-49.4,92.3
		L405.5,190.8z"/>
	<path class="st14" d="M375.1,222.6l-7.9,39.6l3.6,12.1c0.3,5-3.5,11.1-5.8,15.6l-5.3,10.2l-2.9,14.3h10.1l31.5-90.1L375.1,222.6z"
		/>
	<polygon class="st14" points="407.3,228.2 374,311.6 381.5,311.1 424.2,245.1 414.8,234.5 	"/>
	<g id="ink_1_">
		<path class="st15" d="M228.9,136.7c0.5-3.4,1-8.7,0.7-10.1c-0.2-1-2.6-3.6-4.6-5.4l-0.5-0.5l0.1-0.6c0.6-4.6,1-12.7,0.1-15
			c-0.1-0.3-0.3-0.4-0.4-0.4c-1.2-0.3-4,1.3-5.6,2.4l-2.1,1.6l0.2-2.7c0-0.2,1-20.1-1.9-27.4c-3.3-8.5-7.5-16.1-9.2-17.5
			c-0.8,1.5-1.9,7.2-2.5,12.3l-0.4,3.5l-1.9-3.1c-0.1-0.2-12.3-19.8-21.4-23.7c-8.8-3.7-13.3-0.3-13.5-0.2l-0.5,0.4l-0.6-0.1
			c-6.9-1.5-15.1-2.1-16.3-0.6c0.6,2,11.5,7.9,21.4,12.1l5,2.1l-5.4,0.2c-6.5,0.3-12.8,1.4-14,2.4c1.9,1.9,15,6.2,26.6,9.3l5.8,1.6
			l-5.9,0.8c-5,0.7-9.9,2.3-10.3,3.3c0.5,1,6.1,2.3,8.8,2.9c2.8,0.6,5.2,1.2,6.5,1.9c3.1,1.7,13.3,7.6,13.4,7.7l3.7,2.1l-4.3,0.2
			c-2.8,0.1-5.6,0.5-6.8,0.8c2,2.1,9.5,8,16.4,13.2l1,0.7l-0.7,1c-1.3,1.9-2.1,4.1-1.7,4.5c0.6,0.6,2.5,1.7,4.2,2.7
			c2.5,1.4,5.1,2.9,6.5,4.4c3.7,3.8,8,13.1,8.2,13.6L228.9,136.7z"/>
		<path class="st15" d="M192.6,185.4c0,20.6,15.2,32.5,34.1,37.1l2.4-4.3c-4.3-2.1-8.1-5-11-8.5c-8.2-1.1-14.4-8.2-14.4-16.6
			c0-5.9,3.2-11.2,7.8-14.2c2.4-7.8,7.6-14.5,14.7-18.8l-2.8-11.1C204.1,154.5,192.6,167.6,192.6,185.4z"/>
		<path class="st15" d="M182.3,222.3c-5,5.5-12.8,8.6-18.5,8.6c-0.7,0-1.4-0.1-1.9-0.2c-6.2-0.9-39.2-30.5-43.1-36.5
			c-4.5-7.1-0.6-29.3,11-38.7c9.6-7.8,23.1,0.1,29.6,3.9c0.7,0.5,1.7,0.9,2.1,1.2c1.3-0.9,4.5-4.2,6.6-6.4c5.4-5.7,7.7-8,9.5-8.3
			c3.2-0.6,6.1,0.4,8.4,2.6c2.3,2.3,3.5,5.7,3.2,8.6c-0.2,1.5-2.1,4.5-5.9,9.9c-0.7,1-1.3,1.9-1.7,2.4c-2.3,3.6-4.7,10.6-4.2,12.1
			c1,1.3,2.9,3.2,4.8,5.2c5.9,6,9.7,10.3,9.8,13.6c0,4-1.2,8.4-3.7,13.1l0.5-0.6l33.1,27.4c0.8-2,2.3-4.3,3.6-5.9
			c-4.9-1.9-8.5-4.2-8.7-6.6c-0.1-1.9,0.6-3.9,1.2-5.3c-17.3-6.6-27.8-20-27.8-37.1c0-12.9,5.6-23.4,15.5-30.7
			c-6.1-6.4-64.3-66-114.1-75.6c-33.6-6.5-51.4,7.1-59.1,15.9c-10.7,12.2-14.6,29-9.9,43c10.1,30.5,41.8,60.3,86.6,81.4
			c31.2,14.8,97.5,29.8,108.7,32.3L182.3,222.3z"/>
		<path class="st15" d="M221.5,244.8l-34.7-28.7c-0.6,1.1-1.4,2.2-2.2,3.3l36.9,30.3c0.6-0.9,1.3-1.9,1.9-2.8
			C222.6,246.5,221.9,245.8,221.5,244.8z"/>
		<path class="st15" d="M229.4,158.3c2.2-1.1,4.6-1.9,7.1-2.6l-2.4-9c-2.5,0.3-4.9,0.7-7.2,1.3L229.4,158.3z"/>
		<path class="st15" d="M245.1,154.7c2.9,0,5.8,0.4,8.4,1v-0.1l1.7-8.9c-3.2-0.4-6.4-0.6-9.7-0.6c-2.6,0-5.2,0.1-7.6,0.3l2.3,8.7
			C241.8,154.9,243.4,154.7,245.1,154.7z"/>
		<path class="st15" d="M126.7,298.8c0.1,0.5,0.2,1,0.3,1.5c2.4-0.8,15.1-6,19.1-9c1.4-1.1,2.3-2.9,2.3-4.6c0-1.5-0.6-2.9-1.8-3.7
			c-2.2-1.8-6-0.9-9.1,0.4C132.4,286.6,125.6,291.9,126.7,298.8z"/>
		<path class="st15" d="M132.1,158.4c-0.5,0.4-0.9,0.8-1.4,1.3c1.5,1.3,14.4,11.6,19.8,13.9c1.9,0.8,4.2,0.7,6-0.3
			c1.6-0.8,2.5-2.2,2.8-3.9c0.6-3.4-2.8-6.9-5.8-9.2c-4.1-2.1-9.2-4.4-13.9-4.4C136.8,156,134.3,156.7,132.1,158.4z"/>
		<path class="st15" d="M219.1,274.3L219.1,274.3l-23.4,8.8c0.5,0.9,0.9,1.9,1.4,2.9c0.2,0.4,0.3,0.7,0.5,1.1l19.1-7.2l0.1,0.1
			c1-1.6,2.4-3.5,4.4-5.8C220.4,274.3,219.7,274.3,219.1,274.3z"/>
		<path class="st15" d="M224.1,305.3c-2.6,0.4-5.6,0.2-7-1.9c-1.5-2.1,0.6-7,6.4-14.3c-3.8,0.5-7.7,0.4-9-1.8
			c-0.2-0.4-0.6-1.1-0.2-2.8l-15.9,5.9c1.2,6.5-0.3,13.5-3.2,17c-3.4,4.4-40.7,17-47.1,17.4c-0.1,0-0.2,0-0.3,0
			c-7.6,0-22.7-12.6-25-25.5c-1.9-10.9,10.7-18.2,16.1-21.4c0.6-0.4,1.3-0.7,1.8-1c-0.2-1.5-1.3-5.2-2-7.7c-2-6.7-2.8-9.5-2.2-11
			c1-2.7,3.1-4.6,5.8-5.5c2.9-0.8,6-0.3,8.2,1.4c1.1,0.8,2.5,3.5,5.1,9.1c0.5,1,0.8,1.9,1.1,2.3c1.8,3.2,5.9,8,7.3,8.4
			c1.4-0.2,3.7-0.8,6-1.4c7.3-1.9,12.3-3.1,14.9-1.7c3.2,1.8,6.1,4.8,8.7,9.1l19.3-7.2c-0.1-0.2-0.3-0.4-0.4-0.6
			c-0.4-0.9-1.3-3.2,7.9-9.9c-1.8-0.4-3.2-0.9-3.9-1.8c-0.5-0.6-0.6-1.2-0.6-1.9c0.1-0.6,0.6-1.8,1.5-3.2c-3.6-0.8-14.9-3.3-29.4-7
			l0,0c-0.6-0.1-64.4-7.4-90.3,2.7c-20.1,7.9-32.1,27.5-29.2,47.6c2.5,17.1,17,36.5,50.5,39.5c59.5,5.3,98.8-25.8,102.8-29.1
			C222.7,307.7,223.4,306.5,224.1,305.3z"/>
		<path class="st15" d="M265.4,148.8c-2.1-0.6-4.3-1.1-6.6-1.5l-1.8,9.1c0,0.2-0.1,0.3-0.2,0.5c2.2,0.7,4.4,1.8,6.3,3L265.4,148.8z"
			/>
		<path class="st15" d="M136.7,183.8c0.2,0,0.4,0.1,0.6,0.3c0.1,0.1,0.2,0.1,0.3,0.2c0.8,0.5,1.6,0.8,1.9,0.9c2.7,0.7,5.6,0.8,8.2-4
			c1.6-2.9-4.3-8.1-6.8-10.2c-0.8-0.6-1.4-1.2-1.7-1.6c0,0,0-0.1-0.1-0.1c-4.3-3-8.5-6.2-10-7.9l0,0c-3,3.5-5.1,8.1-6.5,12.7
			C126.9,177.3,133,181.5,136.7,183.8z"/>
		<path class="st15" d="M180.8,218.3c4.9-6.7,7.5-12.8,7.5-17.9c0-1.2-2-3.7-4.3-6.2c-0.7,3.6-3,11.6-9.6,17.9
			c-7.3,7-14.5,9.7-19,10.7c3.3,2.5,5.9,4.2,7,4.4C166.8,227.8,176,224.8,180.8,218.3z"/>
		<path class="st15" d="M133.4,198.1c1-0.1,2.7-1.3,4.1-3.2c0.7-1,1.9-3.2,1.3-5.3c-0.2-0.8-1.7-2.3-2.7-3.3
			c-4.2-2.4-11.1-7.4-14.1-9.6c-1.7,6.8-1.7,13.1,0,15.7c0.3,0.5,0.7,1,1.3,1.8C125.7,195.8,129.9,198.4,133.4,198.1z"/>
		<path class="st15" d="M172.9,210.3c8-7.6,9.1-18.2,9.1-18.4h0.1c-0.8-0.9-1.7-1.8-2.4-2.5l-0.1-0.1c-0.4,3.8-2.2,10.8-9.8,18.4
			c-7.8,7.8-16,9.7-20.4,10.1c1.3,1,2.5,2,3.7,3C156.6,220.2,164.7,218,172.9,210.3z"/>
		<path class="st15" d="M167.9,206.1c9.6-9.6,9.3-18.1,9.2-19.2c-1-1.1-1.9-2.1-2.6-3l0,0c-2.8-3.6,3.1-14.7,4-16.2
			c0.3-0.5,0.9-1.4,1.8-2.5c1.5-2.1,5.1-7.2,5.4-8.4c0.3-1.8-0.6-4-2-5.5c-1-0.9-2.7-2-5.2-1.7c-1,0.4-4.8,4.5-7.4,7.1
			c-5.9,6.2-7.6,7.9-9.4,7.7c-0.3,0-0.6-0.1-1-0.3c1,1.7,1.6,3.6,1.2,5.7c-0.4,2.4-1.9,4.5-4,5.7c-1.4,0.7-3,1.1-4.5,1.1
			c-1.3,0-2.5-0.3-3.7-0.7c-0.2-0.1-0.6-0.3-0.9-0.5c1.6,2.3,2.4,4.7,1.2,7c-2.4,4.5-5.4,5.7-7.9,5.7c-0.4,0-0.7,0-1.1-0.1
			c0.2,0.4,0.4,0.6,0.4,1c0.6,2.3,0,4.8-1.7,7.2c-1.6,2.3-3.9,4-5.8,4.3c-0.4,0.1-0.7,0.1-1.1,0.1c-1.3,0-2.6-0.3-3.8-0.6
			c4.8,4.7,11.4,10.6,17.5,15.6C148.3,215.5,158.5,215.4,167.9,206.1z"/>
		<path class="st15" d="M226.2,145.7c2.3-0.6,4.6-0.9,7.1-1.3l-1.3-4.7l-6.9,1.9L226.2,145.7z"/>
		<path class="st15" d="M342.4,152.4c-3.2,2.3-6.4,5.8-5.9,9.2c0.3,1.7,1.3,3.1,2.8,3.9c1.9,1,4.1,1.1,6,0.3
			c5.3-2.3,18.2-12.6,19.8-13.9c-0.5-0.5-0.9-0.9-1.4-1.3C357.6,145.6,348.7,149,342.4,152.4z"/>
		<path class="st15" d="M334.3,156.6c-1.7,0.1-3.4-1.5-9.4-7.7c-2.6-2.7-6.4-6.8-7.5-7.1c-0.4-0.1-0.6-0.1-1-0.1
			c-1.9,0-3.2,0.9-4.1,1.8c-1.5,1.5-2.3,3.7-2,5.5c0.3,1.1,3.8,6.2,5.4,8.4c0.7,1.1,1.4,2,1.7,2.5c0.9,1.6,6.8,12.5,4,16.2
			c-0.6,0.8-1.6,1.9-2.6,3c-0.1,1.1-0.5,9.7,9.2,19.2c9.5,9.5,19.6,9.6,21.6,9.5c6.1-5.1,12.6-11,17.5-15.6
			c-1.2,0.4-2.5,0.6-3.8,0.6c-0.4,0-0.7,0-1.1-0.1c-1.9-0.3-4.2-1.9-5.8-4.3c-1.7-2.4-2.2-4.9-1.7-7.2c0.1-0.3,0.3-0.6,0.4-1
			c-0.4,0.1-0.7,0.1-1.1,0.1c-2.6,0-5.5-1.2-7.9-5.7c-1.2-2.2-0.4-4.6,1.2-7c-0.4,0.2-0.6,0.4-0.9,0.5c-1.1,0.5-2.4,0.7-3.7,0.7
			c-1.6,0-3.2-0.4-4.5-1.1c-2.2-1.2-3.6-3.2-4-5.7c-0.3-2,0.2-3.9,1.2-5.7C335,156.5,334.6,156.6,334.3,156.6z"/>
		<path class="st15" d="M366.6,153.6L366.6,153.6L366.6,153.6c-1.6,1.7-5.8,4.9-10,7.9v0.1c-0.3,0.4-0.8,0.8-1.7,1.6
			c-2.5,2.2-8.4,7.3-6.8,10.2c2.6,4.8,5.5,4.7,8.2,4c0.4-0.1,1.1-0.5,1.9-0.9c0.1-0.1,0.2-0.2,0.3-0.2c0.2-0.1,0.4-0.2,0.6-0.3
			c3.7-2.2,9.8-6.6,14.1-9.7C371.7,161.7,369.6,157.1,366.6,153.6C366.6,153.5,366.6,153.5,366.6,153.6z"/>
		<path class="st15" d="M362.4,190.1c3.5,0.5,7.7-2.1,10.2-4c0.6-0.6,1-1.3,1.3-1.8c1.6-2.6,1.7-8.9,0-15.7c-3,2.1-9.8,7.1-14.1,9.6
			c-1.1,0.9-2.5,2.5-2.8,3.3c-0.6,2.1,0.6,4.3,1.3,5.3C359.7,188.9,361.3,190,362.4,190.1z"/>
		<path class="st15" d="M266.5,161.8c4.6,3.4,8.4,8.1,10.8,13.4c8.2,1.5,14.3,8.6,14.3,17.3c0,9.7-7.9,17.5-17.5,17.5
			c-0.6,0-1.3-0.1-1.9-0.1c-2.8,3.2-6.2,6-10.1,8.1h0.1l1.4,4.9c19.2-4.5,34.8-16.4,34.8-37.3c0-16.3-11.4-29.5-29.2-35.6l-2.1,11.2
			C266.8,161.3,266.6,161.6,266.5,161.8z"/>
		<path class="st15" d="M314.9,210.4c4.8,6.5,14,9.5,18.5,8.8c1-0.2,3.5-1.9,7-4.4c-4.5-1-11.7-3.7-19-10.7
			c-6.7-6.3-8.8-14.3-9.6-17.9c-2.3,2.5-4.3,5-4.3,6.2C307.4,197.5,310,203.7,314.9,210.4z"/>
		<path class="st15" d="M214.5,204.8c1.6,0.8,3.4,1.3,5.4,1.4c0.2,0,0.3,0,0.5,0c7.2,0,13.1-5.8,13.1-13.1c0-7.2-5.8-13.1-13.1-13.1
			c-2,0-4.1,0.5-5.8,1.4c-1.7,0.8-3.2,2-4.4,3.4c-1.9,2.2-3,5.1-3,8.3C207.3,198.3,210.3,202.7,214.5,204.8z M211.1,191.4
			c0.6-0.2,1.3,0.1,1.6,0.7c0.1,0.2,1.8,4.7,6.6,4.7l0,0c6.6,0,7.6-3.8,7.6-4c0.2-0.6,0.8-1.1,1.5-0.9c0.6,0.2,1.1,0.7,0.9,1.4
			c-0.1,0.3-1.3,5.9-10,5.9l0,0c-5.3,0-8.1-4.2-8.9-6.4C210.2,192.2,210.5,191.6,211.1,191.4z"/>
		<path class="st15" d="M259.8,223.4l-1.1-4.1c-4.2,1.7-8.7,2.6-13.6,2.6c-4.5,0-8.7-0.8-12.6-2.2l-2,3.6c4.9,0.9,9.9,1.4,15,1.4
			C250.3,224.7,255.1,224.3,259.8,223.4z"/>
		<path class="st15" d="M288,192.3c0-5.9-3.8-11-9.1-13c-1.3-0.5-2.7-0.7-4.2-0.8c-0.2,0-0.4,0-0.6,0c-7.6,0-13.8,6.2-13.8,13.8
			c0,6.4,4.5,11.9,10.4,13.4c1.1,0.3,2.3,0.5,3.5,0.5c0.3,0,0.5,0,0.7,0C282.1,205.8,288,199.7,288,192.3z M274.3,199.6L274.3,199.6
			c-5.3,0-8.2-4.2-8.9-6.4c-0.2-0.6,0.1-1.3,0.7-1.6c0.6-0.2,1.3,0.1,1.6,0.7c0.1,0.2,1.8,4.7,6.6,4.7l0,0c6.6,0,7.6-3.8,7.6-4
			c0.2-0.6,0.8-1.1,1.5-0.9c0.6,0.2,1.1,0.7,0.9,1.4C284.2,193.9,283,199.6,274.3,199.6z"/>
		<path class="st15" d="M265.7,136v-15.1l0.4-0.4c2.6-2.4,5.6-5.6,5.8-6.7c0.3-1.5-0.6-4.3-0.9-5.1l-0.3-0.7l0.5-0.6
			c5.6-6.2,11.5-13.4,12.5-15.1c-0.4-0.5-1.7-1.6-3-2.3l-2.3-1.4l2.6-0.8c9.9-3.2,20.7-7.1,23.1-8.7c-1-0.9-4.4-2.7-7.8-4l-3.9-1.5
			l4.1-0.8c12.8-2.7,26.8-6.4,29.2-8.1c-1.1-1.4-7-4.5-13.5-7l-2.3-0.9l2.1-1.3c2.7-1.6,5.8-3.6,7.1-5c-2.8,0.3-10.3,1.8-30.9,7.5
			c-10.5,2.9-18.8,15-18.9,15.1l-2.1,3.1l-0.1-3.7c-0.1-3.1-0.5-6.6-0.9-8.3c-1,1.7-2.6,5.5-3.7,8.2c-1.2,3-2.5,6-3.6,8
			c-2.1,3.9-1.5,15.6-1.1,19.8l0.6,6l-2.9-5.3c-1.1-1.9-2.6-3.7-3.4-4c-0.1,1.9,1.9,8.2,3.2,12.1c1,3.2,2,6.1,2.5,8.3
			c1.2,5.4,4.2,16,4.7,18.2L265.7,136z"/>
		<path class="st15" d="M273,243.6l40.8-29c-0.6-0.6-1.2-1.3-1.8-2c-0.3-0.4-0.6-0.7-0.8-1.2l-40.3,27.9
			C271.7,240.8,272.5,242.3,273,243.6z"/>
		<path class="st15" d="M268,208.7c-6.7-2.5-11.4-8.9-11.4-16.4c0-9.3,7.3-17,16.5-17.5c-5.2-9.7-15.8-16.4-28-16.4
			c-1.9,0-3.9,0.2-5.8,0.6h-0.1c-0.1,0-0.3,0.1-0.4,0.1C228.6,161,220,167.9,216,177c1.4-0.4,2.8-0.6,4.3-0.6
			c9.3,0,16.8,7.5,16.8,16.8c0,8.4-6.1,15.2-14.1,16.5c5.7,5.4,13.5,8.6,22.1,8.6C254.1,218.3,262.3,214.6,268,208.7z M236.1,209.3
			c0.3-0.6,1-0.8,1.7-0.6c0.1,0,5.9,3.1,11.2,3.1l0,0c8.3,0,12.1-2.9,12.1-3c0.6-0.4,1.3-0.4,1.8,0.2c0.5,0.6,0.4,1.3-0.2,1.7
			c-0.2,0.2-4.5,3.5-13.6,3.5l0,0c-5.9,0-12.1-3.2-12.3-3.3C236,210.7,235.7,210,236.1,209.3z"/>
		<path class="st15" d="M267.3,224.3c-6.5,1.9-13.8,2.8-21.8,2.8c-8.8,0-16.9-1.2-24-3.4c-0.6,1.1-1.1,2.5-1.1,3.7
			c1.1,1.9,12.1,6.6,23.5,6.7c12.7,0.1,22.7-2.9,24.5-4.5C269,229.1,268.4,226.7,267.3,224.3z"/>
		<path class="st15" d="M267.1,140.1l-6.6-1.3l-1.1,6c2.2,0.4,4.5,0.9,6.6,1.5L267.1,140.1z"/>
		<path class="st15" d="M313.7,184L313.7,184c0.1,0.1,1.2,10.7,9.2,18.4c8.2,7.7,16.2,9.8,20,10.5c1.2-0.9,2.4-1.9,3.7-3
			c-4.5-0.4-12.6-2.3-20.4-10.1c-7.6-7.6-9.5-14.6-9.8-18.4l-0.1,0.1C315.5,182.3,314.6,183.1,313.7,184z"/>
		<path class="st15" d="M297.2,277.6c0.2-1.3,0.5-2.4,0.7-3.6l-26.6-2.2c0.7,1.8,1.5,3.6,1.8,5.3l23.9,1.5
			C297.1,278.2,297.2,277.9,297.2,277.6z"/>
		<path class="st15" d="M272.3,252.9c-0.5,0.2-0.8,0.3-1.2,0.4c3.1,4.7,5.5,9.9,3.4,12.3c-1.1,1.3-2.5,1.9-3.9,2.3l28.3,2.4
			c1.5-4.5,3.5-8,6.1-10.5c2.1-2,7.2-2.1,14.9-2c2.5,0,4.8,0.1,6.2-0.1c1.3-0.6,4.2-6.3,5-9.8c0.1-0.5,0.3-1.4,0.6-2.5
			c1.2-6,1.9-8.9,2.8-10c1.7-2.1,4.6-3.4,7.6-3.3c2.9,0.1,5.3,1.5,7,3.9c0.9,1.4,0.8,4.4,0.6,11.2c-0.1,2.7-0.3,6.5-0.2,8
			c0.5,0.2,1.3,0.4,1.9,0.6c5.9,1.8,19.9,5.8,20.7,16.8c1,13.3-11,29.4-18.3,30.9c-0.9,0.2-2.6,0.3-4.8,0.3c-12.4,0-41.2-2.8-45-5.7
			c-3.7-2.9-7-9.7-7.1-16.4v0.6l-23.8-1.5c-0.7,1.9-2.1,2.7-3.6,3.1c2.9,4.9,5.8,11.3,3,13.9c-1.3,1.3-2.5,2-3.4,2.5
			c1,2.1,2,4.7,2.9,7.1v-0.1c0.2,0,14.4,4.1,38.8,6.3c24.8,2.2,82.3,0.3,101.9-20.4c10.5-11,14.9-26.6,11.4-40.4
			c-3.1-12.4-12.1-21.7-25.3-26.3c-17.4-5.9-61.8,3.5-68,4.8C308.7,240.4,288.1,247.7,272.3,252.9z"/>
		<path class="st15" d="M263.7,297.6l2.6-0.3l0,0c0,0,1.5-0.3,3.6-2.3c0.6-1.2-1.9-7.1-5.5-12.3l-3.2-4.8l5.4,2.1
			c0.3,0.1,2.5,0.9,3.1-0.6c0.5-1.3-1.8-7.1-4.8-12.3l-2.3-4l4.5,1.3c0,0,3,0.8,4.6-1c0.4-1.6-3.1-7.7-7.4-13.4l-3.3-4.3l5.2,1.4
			c0,0,2.9,0.6,3.6-0.9c0.3-1.2-2.6-6.1-6.1-10.6c-5,1.4-11.9,2.3-19.1,2.3c-0.2,0-0.4,0-0.6,0c-4.6,0-9.9-0.9-14.7-2.2
			c-2.5,3.2-4.5,6.6-4.4,7.6c0.2,0.8,1,0.6,1.4,0.6l4.8-1.1l-3,4c-3.2,4.3-6.8,9.5-7.9,11.6c1.2,0.4,3.5,0.6,5.8,0.7l5.8,0.2
			l-4.8,3.2c-4.6,3.1-8.9,6.5-10.2,8.2c1.6,0.2,5.4-0.2,8.7-1l5.7-1.4l-3.9,4.4c-4.3,4.7-8.8,10.9-9.4,13c1.4,0.5,5.8,0.1,9.8-0.8
			l5.5-1.3l-3.6,4.3c-5,5.8-9.1,12-9.3,13.8c0.8,0.6,4.1,0.3,7.2-0.8l5.2-1.8l-3.1,4.5c-4.6,6.9-8,14.5-6.9,15.8
			c1.4,1.8,6.8,0.6,10-0.6l5.2-2l-2.9,4.7c-2.3,3.7-4.1,8.7-2.8,9.9c2,2,5.6-0.2,5.7-0.2l3.3-2.1l-0.6,4c-0.8,5.8-0.5,11.8,0.7,12.4
			c0.1,0.1,0.2,0.1,0.5,0c1.4-0.5,3.2-3.2,4.1-5l3.5-7.2v8.1c0,1.8,0.6,7,3.2,7.2c1.7-0.3,4.8-9.1,6.5-18.1l1.3-7.2l2.2,7
			c0,0.1,0.2,0.5,0.6,0.6c0.3,0.1,0.8,0,1.5-0.4c1-1.1-0.2-8.6-2.6-15.8l-2.8-8.4l5.9,6.6c0,0,2.5,2.7,4,1.5c0.6-1.2-1.4-8-4.5-14.1
			L263.7,297.6z"/>
		<path class="st15" d="M279.5,359.6c0.7,1.1,1.4,2.3,2,3.5l5.9-1.8c-0.9-1-1.7-2.2-2.2-3.5L279.5,359.6z"/>
		<path class="st15" d="M346,237.9c-1.2-1.8-2.9-2.1-4-2.1c-1.8-0.1-3.7,0.7-4.6,1.9c-0.6,0.9-1.6,6.2-2,8.4
			c-0.3,1.2-0.5,2.1-0.6,2.7c0,0.1-3.5,12.1-8.1,12.6c-0.9,0.1-2.2,0.1-3.6,0.2c-1,0.9-6.3,5.9-6.5,17.4c-0.3,11.3,5.4,17.8,7,19.4
			c6.7,0.7,14.2,1.4,20.1,1.7c-1.1-0.6-2-1.5-2.8-2.5c-1-1.4-1.3-3.9-0.8-6.4c0.6-2.5,1.9-4.5,3.7-5.6c0.2-0.1,0.5-0.2,0.7-0.3
			c-2.5-2.2-3.2-5.2-1.9-9.2c0.6-2,2.5-3.1,4.7-3.4c-0.1,0-0.2-0.1-0.3-0.1c-2.3-1-4.2-3.2-4.8-5.6c-0.6-2.2-0.2-4.4,1.2-6.1
			c1-1.3,2.4-2.1,4-2.6c-0.2-0.1-0.3-0.2-0.5-0.3c-1.2-1.1-1.2-3.2-0.8-10.9C346.2,243.8,346.4,239,346,237.9z"/>
		<path class="st15" d="M268.4,330.8l18.2,17.6c0.8-1.2,1.9-2.2,3.2-3.1L268.3,324C268.8,326.5,268.9,328.9,268.4,330.8z"/>
		<circle class="st15" cx="295.2" cy="354.3" r="6.8"/>
		<path class="st15" d="M363,290.6c-3.3-0.6-10.4-1.9-14.5-3.2c-1.4-0.1-3.2-0.1-3.7,0.3c-1.7,0.9-2.3,2.9-2.5,4
			c-0.5,1.9-0.1,3.7,0.4,4.5c1.8,2.4,5.7,3.5,8.4,4c0.9,0,1.7-0.1,2.2-0.2C355.9,299.4,359.8,295.7,363,290.6z"/>
		<path class="st15" d="M300.8,278.2c-1.2,7,2.4,14.6,5.6,17c0.7,0.6,3.2,1.1,6.6,1.7c-2-3.6-4.5-9.7-4.5-18.5
			c0-7.9,3.5-14,5.5-16.9c-2.9,0.1-5.5,0.4-6.1,1C304.4,265.6,302.1,271,300.8,278.2z"/>
		<path class="st15" d="M386.6,66.6c-37.4,11.1-98.4,79.9-104.5,86.8c11.6,7.5,18.6,18.8,18.6,32c0,17.8-11.3,31.5-29.8,37.9
			c1.2,2.6,2.5,6.8,0.1,9.1c-0.7,0.6-1.9,1.3-3.5,1.9c0.5,0.6,1,1.3,1.5,2l40.2-27.9c-3.6-5.8-5.4-11.1-5.4-15.9
			c0-3.2,3.9-7.4,9.8-13.6c1.9-2,3.8-3.9,4.8-5.2c0.6-1.5-1.9-8.4-4.2-12.1c-0.3-0.5-0.9-1.3-1.6-2.3c-3.9-5.6-5.8-8.4-6-10
			c-0.5-3,0.8-6.3,3.2-8.6c2.2-2.2,5.2-3.2,8.4-2.6c1.8,0.3,4.1,2.6,9.5,8.3c2.1,2.2,5.3,5.6,6.6,6.4c0.6-0.3,1.4-0.7,2.1-1.2
			c6.5-3.8,20.1-11.7,29.6-3.9c11.6,9.5,15.5,31.7,11,38.7c-3.8,6-36.9,35.6-43.1,36.5c-0.6,0.1-1.3,0.2-1.9,0.2
			c-4.6,0-10.7-2.1-15.5-5.8l-43.6,31c-0.2,0.4-0.5,0.6-0.6,0.8c15.6-5.1,35.6-12.2,56.9-21.1V228c0.1,0,0.3-0.1,0.5-0.1
			c38.7-16.3,81.8-38.5,110.6-65.6c26.5-24.9,35.3-63.3,18.8-82.2C443.2,61.9,418.2,57.2,386.6,66.6z"/>
		<path class="st15" d="M148,306.2c0.1-0.1,0.3-0.3,0.5-0.3c0.1,0,0.2-0.1,0.3-0.1c0.7-0.5,1.3-0.8,1.6-1c1.8-1.8,3-3.9,0.5-7.9
			c-1.5-2.4-7.9-0.2-10.7,0.8c-0.9,0.3-1.5,0.6-1.9,0.6H138c-4,1.9-8.2,3.7-10.2,4.3c1.4,3.7,3.9,7.2,6.8,10.3
			C138.8,310.9,144.7,308.1,148,306.2z"/>
		<path class="st15" d="M270.1,354.9c-0.5,0.1-1.6,0.4-3.1,0.9c2.1,2.1,5.2,5.8,7.7,10.8c3,6,5.6,13,6.5,15.4
			c0.8-0.2,1.4-0.4,1.7-0.6c1.1-0.7-1.5-8.5-2.7-12.2C277.3,360.7,271.7,355.4,270.1,354.9z"/>
		<path class="st15" d="M357.5,275.1L357.5,275.1c-0.6,0-1.2,0-2.1-0.1c-2.9-0.3-9.7-0.8-10.6,1.9c-1.5,4.5,0.3,6.3,2.4,7.5
			c0.3,0.2,0.9,0.4,1.8,0.6c0.1,0,0.2,0,0.3,0c0.2,0,0.4,0.1,0.6,0.2c3.6,1,10,2.3,14.6,3.2c2-3.6,3.6-7.7,4.1-11.6
			C366.4,276.7,361.9,276,357.5,275.1z"/>
		<path class="st15" d="M354.2,260.4c-3.2-0.5-7.1-0.5-8.9,1.9c-0.8,1.1-1.1,2.6-0.7,4.1c0.5,1.8,1.8,3.2,3.4,4
			c4.6,1.9,18.2,3.8,20.7,4.1c0-0.5,0-1,0-1.5C368,265.9,360.1,262.4,354.2,260.4z"/>
		<path class="st15" d="M316.9,261.5c-0.5,0.6-6.1,7.5-6.1,16.9c0,9.7,3.4,16.2,5.4,18.9c1.2,0.2,2.4,0.4,3.7,0.5
			c-2.5-3.2-6-9.6-5.8-19c0.2-9.3,3.3-14.7,5.6-17.4c-0.7,0-1.7,0-2.6,0C317.1,261.5,317,261.5,316.9,261.5z"/>
		<path class="st15" d="M262.2,334.2c-1.7,7.9-4.7,17.9-9.5,17.9c-0.2,0-0.3,0-0.5,0c-3.2-0.4-4.9-3-5.8-5.8c-1,1.1-2.2,2.2-3.5,2.6
			c-0.3,0.1-0.6,0.2-0.9,0.2l-1.3,13.3c0.3,0.2,0.5,0.5,0.7,0.6c12.1-5.7,26.6-12.3,29.2-11.8c1.8,0.3,4.3,2.2,6.7,5.2l7.5-2.3
			c0-0.7,0.1-1.6,0.3-2.3l-18.8-18.2C264.4,334.6,263.1,334.5,262.2,334.2z"/>
		<path class="st15" d="M239.1,380.1c-0.1,0-0.1,0.1-0.2,0.1l-1.6,10.2c1.8,0.4,3.2,0.8,4.6,1.5L239.1,380.1z"/>
		<path class="st15" d="M237.2,360.4l1.3-12.7c-2.1-2.5-2.1-8-1.9-12.1c-0.5,0.1-0.9,0.2-1.4,0.3l-1.9,24c0.2,0,0.4,0,0.6,0
			C235,359.8,236.1,360,237.2,360.4z"/>
		<circle class="st15" cx="233.8" cy="370.7" r="7.1"/>
		<path class="st15" d="M233.8,389.8l1.3-8.4c-0.4,0.1-0.8,0.1-1.2,0.1c-0.8,0-1.7-0.1-2.5-0.3l-1.2,8.4c0.4,0,0.7,0,1.1,0
			C232.1,389.7,232.9,389.8,233.8,389.8z"/>
		<path class="st15" d="M178.7,292c-3.1-11.1-9.3-14.7-10.6-15.3c-1.4,0.4-2.6,0.6-3.5,0.7c-4.5,0.6-10.9-10.1-11-10.2
			c-0.3-0.5-0.6-1.3-1.2-2.4c-1-2.1-3.3-7-4.1-7.8c-1.2-0.9-3.2-1.2-4.9-0.7c-1.1,0.3-2.6,1.1-3.3,3.1c-0.1,1.2,1.3,5.8,2.2,8.8
			c2.2,7.4,2.7,9.4,1.9,10.8c-0.1,0.2-0.2,0.3-0.4,0.4c1.6,0.1,3.2,0.5,4.5,1.5c1.8,1.4,2.7,3.4,2.6,5.7c0,2.5-1.3,5-3.3,6.6
			c-0.1,0.1-0.2,0.1-0.3,0.2c2.3-0.1,4.4,0.4,5.5,2.2c2.2,3.5,2.3,6.6,0.5,9.4c0.3,0,0.6,0.1,0.7,0.1c2,0.6,3.8,2.2,4.9,4.5
			c1.1,2.3,1.4,4.8,0.7,6.4c-0.5,1.1-1.2,2.1-2.1,3.1c5.7-1.7,12.7-4.1,19-6.5C177.8,310.7,181.7,303,178.7,292z"/>
		<path class="st15" d="M150.4,321c2.4-1.1,5.9-3.2,7.1-5.9c0.3-0.7,0.2-2.6-0.7-4.4c-0.5-1-1.6-2.7-3.4-3.2
			c-0.6-0.2-2.3,0.2-3.7,0.6c-3.6,2.1-10.2,5.2-13.3,6.6c4.4,4.1,9.1,6.8,11.8,6.6C148.7,321.3,149.5,321.2,150.4,321z"/>
		<path class="st15" d="M183.5,309.9c1.2-3.2,3-10.2,0.6-19.7c-2.3-9.2-9.5-14.5-10-14.9c-1,0.3-1.9,0.5-2.7,0.6
			c2.8,2,7.2,6.5,9.7,15.5c2.5,9.1,0.6,16.1-1,19.9C181.3,310.8,182.4,310.3,183.5,309.9z"/>
		<path class="st15" d="M192.5,305.4c2.4-3.1,4.1-11.4,1.2-17.8c-3-6.7-6.6-11.3-10.4-13.5c-0.8-0.5-3.4-0.1-6.2,0.6
			c2.6,2.3,7.5,7.4,9.4,15c2.1,8.4,1.2,15,0,19C189.8,307.2,192,306.1,192.5,305.4z"/>
		<path class="st15" d="M237.3,405.5l0.3-3c-2.2-0.4-7.3-1-10.3-1c-4.5,0-8.8,1.4-10.4,2c0.1,0.9,0.2,1.9,0.4,2.9
			c2-0.8,5.3-1.9,10.1-1.9C231.6,404.6,235.3,405.1,237.3,405.5z"/>
		<path class="st15" d="M224.3,445c-8.4,0-13.6-1.5-16.5-2.9c0.2,1.5,0.6,2.7,1.5,3.6c2.4,2.3,8.2,3.1,17.6,2.3
			c13.3-1,17.1-5.8,18.4-9.1C241.6,441.5,234.6,445,224.3,445z"/>
		<path class="st15" d="M224.3,442.6c12.5,0,19.9-5.6,21.8-7.2c0-1.4-0.2-4.5-0.4-6.9c-0.2-2.8-0.4-5.7-0.4-7.5
			c0-1.2,0.2-3.1,0.6-5.4c0.6-4.8,1.9-14.9-0.5-16.9c-0.6-0.6-1.4-1.2-2.1-1.8l0,0l0,0c-2.8-1.9-6.1-3.2-12.3-3.4
			c-7.7-0.4-14.3,1.9-14.7,3.2c-0.1,1.1,0,2.7,0.2,4.5c2.1-0.7,6.1-1.9,10.7-1.9c4,0,11.5,1.2,11.8,1.2l1.1,0.2l-0.6,8.1l-1.4-0.4
			c-0.1,0-4.8-1.2-10.9-1.2c-5,0-8.2,1.2-9.7,1.9c0.6,4.7,1.4,9,1.6,10.1c1.9-0.5,3.8-0.7,5.8-0.9c0.6,0,0.9-0.1,1.6-0.1
			c0.6,0,1.1,0.1,1.7,0.2c1,0.2,2,0.5,3.1,0.7c1,0.3,1.9,0.6,2.9,1c0.8,0.6,1.6,1.5,2.2,2.3c-1.1,0.1-2.2,0.1-3.2,0
			c-0.8-0.4-1.8-0.7-2.7-1c-0.9-0.3-1.9-0.6-2.7-0.6c-0.5-0.1-0.9-0.1-1.3-0.1c-0.4,0-0.9,0.1-1.4,0.1c-1.9,0.2-3.8,0.5-5.7,0.9
			c-0.8,0.2-1.6,0.5-2.3,0.7c-3.4,2.9-9.3,8.7-9.3,13.7c0,0.7,0,1.5-0.1,2.2c0,0.4,0,0.7,0,1.1C209.9,440.6,214.9,442.6,224.3,442.6
			z"/>
		<path class="st15" d="M244.4,381.8c-0.6-2.2-1.1-4-1.6-5.4c-0.2,0.4-0.5,0.6-0.6,0.9l4.3,17.4c0.5,0.4,0.9,0.7,1.4,1.2
			c2.1,1.9,2.6,5.6,2.5,10.3c0.7,0.7,1.9,1.9,2.9,1.9c0.6,0,1.2,0,1.9,0c-1.6-1.7-3.3-4.3-5-8.4C248.3,394.7,246,387.2,244.4,381.8z
			"/>
		<path class="st15" d="M259.2,359.1c-4.6,2-10.2,4.5-15.6,7.1c0.6,1.4,1,2.9,1,4.5c0,0.6-0.1,1.2-0.2,1.8
			c1.4,5.2,5.2,18.9,8.1,26.3c2.1,5.3,4.5,7.9,5.9,8.9c1.9-0.4,4.2-1.2,6-2.8c2.5-2.1,2.5-12,1.7-18.4l-0.2-1.8l1.8-0.3
			c1.9-0.3,3.7-0.6,5.6-0.8c-0.6-1.9-2.3-7-5.2-12.7C265.1,364.6,260.7,360.4,259.2,359.1z"/>
		<path class="st15" d="M264.5,356.8c-0.9,0.4-1.9,0.7-2.9,1.2c2,1.9,5.8,5.9,8.6,11.7c3.2,6.4,4.9,11.9,5.5,13.4
			c1.1-0.2,2.1-0.4,3.1-0.6c-0.9-2.6-3.4-9.1-6.2-14.9C269.9,362.4,266.5,358.7,264.5,356.8z"/>
		<path class="st16" d="M219.2,199.3C219.3,199.3,219.3,199.3,219.2,199.3c8.7,0,10-5.8,10-5.9c0.1-0.6-0.3-1.3-0.9-1.4
			c-0.6-0.2-1.3,0.3-1.5,0.9c0,0.2-1,4-7.6,4l0,0c-4.8,0-6.5-4.5-6.6-4.7c-0.2-0.6-0.9-1-1.6-0.7c-0.6,0.2-1,0.9-0.7,1.6
			C211.1,195.1,214,199.3,219.2,199.3z"/>
		<path class="st16" d="M283.4,192.2c-0.6-0.2-1.3,0.3-1.5,0.9c0,0.2-1,4-7.6,4l0,0c-4.8,0-6.5-4.5-6.6-4.7c-0.2-0.6-0.9-1-1.6-0.7
			c-0.6,0.2-1,0.9-0.7,1.6c0.7,2.2,3.6,6.4,8.9,6.4l0,0c8.7,0,9.9-5.8,10-5.9C284.4,193,284,192.3,283.4,192.2z"/>
		<path class="st16" d="M248.9,214.3c9.2,0,13.5-3.3,13.6-3.5c0.6-0.5,0.6-1.2,0.2-1.7c-0.5-0.6-1.2-0.6-1.8-0.2c0,0-3.8,3-12.1,3
			l0,0c-5.3,0-11.1-3.1-11.2-3.1c-0.6-0.3-1.3-0.1-1.7,0.6c-0.3,0.6-0.1,1.3,0.6,1.7C236.8,211.1,243.1,214.3,248.9,214.3
			L248.9,214.3z"/>
		<path class="st16" d="M461.8,77.6c-11.8-13.5-34.5-27-76.2-14.6c-40,11.9-103.3,84.6-106.6,88.5c-2.9-1.6-6.1-3-9.5-4.1l1.9-10.1
			l-3.2-0.6v-14.5c1.8-1.6,5.8-5.5,6.2-7.6c0.4-1.9-0.4-4.5-0.7-5.8c13-14.6,12.8-15.8,12.7-16.3c-0.1-0.9-1.1-1.9-2.1-2.8
			c23.3-7.5,22.9-9.4,22.7-10.5c-0.4-1.6-3.2-3.2-6-4.5c27.9-6,27.6-8.6,27.5-9.7c-0.3-2.7-7.4-6.1-12.9-8.4c8.1-5.1,7.3-6.7,7-7.3
			c-0.6-1.3-1.3-2.6-34.6,6.7c-8.2,2.3-14.9,9.5-18.2,13.4c-0.6-7.7-2.1-7.9-2.9-7.9c-1.7-0.2-2.8,1.9-6.3,10.3
			c-1.2,2.9-2.5,5.8-3.5,7.7c-1.9,3.6-1.9,11.8-1.7,16.9c-1.2-1.2-2.6-2-4.1-1.6c-2.4,0.8-1.4,4.8,1.9,15.1c1,3.2,1.9,6,2.4,8
			c1.1,4.7,3.4,13.5,4.5,17.1l-2.3-0.5l-1.9,9.8c-3.3-0.4-6.7-0.6-10.2-0.6c-2.9,0-5.7,0.1-8.4,0.4l-2.4-8.8l-3.2,0.8
			c0.4-2.7,0.9-8.1,0.6-9.8c-0.4-2.1-3.6-5.2-5-6.4c0.3-2.8,1.2-12.3-0.2-15.6c-0.4-0.9-1.1-1.6-2-1.8c-1.8-0.5-4,0.6-5.6,1.5
			c0.2-5.7,0.4-19.7-2.1-26c-1.4-3.4-8.3-20.5-12.3-19c-1.6,0.6-2.8,4.3-3.7,11c-3.9-5.8-13-18.6-20.8-21.8
			c-8.5-3.6-13.8-1.1-15.4-0.2c-4.5-0.9-16.4-3.1-18.6,0.7c-0.2,0.4-0.5,1-0.2,1.9c1.1,3.3,11.7,8.6,18.2,11.6
			c-6,0.6-11.5,1.9-11.5,4.5c0,1.1,0,2.8,14.7,7.5c3.2,1,6.3,1.9,8.8,2.7c-3.8,0.9-7.4,2.5-7.2,4.9c0.3,2.5,4.2,3.6,10.7,5.1
			c2.4,0.6,4.9,1.1,5.8,1.7c1.9,1,6.6,3.7,9.9,5.7c-5.4,0.6-5.5,2-5.6,2.7c-0.1,0.7-0.2,2.1,16.9,14.8c-1,1.7-2.5,4.9-0.7,6.7
			c0.8,0.8,2.7,1.9,4.7,3.1c2.2,1.3,4.8,2.8,6,4c3.1,3.1,6.7,10.7,7.5,12.4l-3.8,1l1.9,7.7c-5.2,1.5-9.8,3.5-13.9,6
			c-3.8-4.1-63.6-66.9-116.4-77.1c-35.5-6.9-54.4,7.7-62.5,17c-11.5,13.1-15.7,31.4-10.6,46.5c10.5,31.5,42.7,61.9,88.6,83.7
			c15.1,7.1,38.3,14.3,59.5,20.1c-21.4-1.4-53.5-1.9-70.6,4.8C75,256.3,62,277.6,65.1,299.4c2.7,18.5,18.2,39.4,53.9,42.5
			c4.7,0.5,9.4,0.6,13.8,0.6c43.5,0,74.7-18.4,86.6-26.8c-0.6,2.4-0.6,4.5,0.5,5.9c2.1,2.8,6.6,2.6,10,1.9
			c-1.5,3.4-2.8,8.1-0.2,10.6c0.6,0.6,1.2,1,1.9,1.3l-2,25.4c-3.8,1.7-6.5,5.5-6.5,9.9c0,3.7,1.9,7.1,4.8,9l-1.4,10.1
			c-6.5,0.5-13.4,2.5-13.6,6.6c-0.3,5.4,1.9,18.7,2.6,22.7c-2.9,2.3-11.2,9.7-11.2,17.1c0,0.7,0,1.4-0.1,2.1
			c-0.1,3.7-0.3,7.5,2.7,10.3c2.5,2.4,7,3.6,13.9,3.6c1.9,0,4.2-0.1,6.6-0.3c13.3-1,20.7-5.8,22.3-14.4c0-0.2,0.1-0.3,0.1-0.4
			c0.3-1,0.2-3.3-0.2-8.7c-0.2-2.7-0.4-5.6-0.4-7.3c0-1,0.2-2.8,0.5-4.9c0.2-1.9,0.5-3.6,0.6-5.3c0.9,0.6,2,1,3.2,1
			c2.6,0,8.6,0,13.6-4.1c4.3-3.5,3.6-14.9,3.2-19.9c4.8-0.6,13.1-2,14.9-3.3c3.2-2.2,1.8-7.1-1.4-16.3c-0.2-0.5-0.4-0.9-0.6-1.5
			l8.4-2.5c1.1,0.5,2.3,0.6,3.6,0.6c5.8,0,10.4-4.6,10.4-10.4c0-5.8-4.6-10.4-10.4-10.4c-0.5,0-0.9,0-1.4,0.1l-26.1-25.9
			c1.3,0.2,2.7-0.1,3.9-1.2c1.3-1.1,1.5-3.2,1.1-5.7c4.6,1.2,17.6,4.1,37.5,5.9c4.9,0.5,11,0.7,18,0.7c28.8,0,70.4-4.8,86.8-22.3
			c11.3-12,16.1-28.7,12.3-43.7c-3.3-13.6-13.3-24-27.8-28.9c-12.4-4.3-36.8-1.3-53.4,1.6c34.7-15.6,71-35.7,96.4-59.6
			c12.9-12.2,22.6-28.4,26.5-44.7C473.3,103.1,470.7,87.9,461.8,77.6z M269,149.8c17.8,6.1,29.2,19.2,29.2,35.6
			c0,20.9-15.7,32.9-34.8,37.3l-1.4-4.9h-0.1c3.9-2,7.3-4.8,10.1-8.1c0.6,0.1,1.3,0.1,1.9,0.1c9.7,0,17.5-7.9,17.5-17.5
			c0-8.5-6.2-15.7-14.3-17.3c-2.4-5.3-6.1-9.8-10.8-13.4c0.2-0.2,0.3-0.5,0.3-0.7L269,149.8z M357,181.6c0.2-0.8,1.7-2.3,2.8-3.3
			c4.2-2.4,11.1-7.4,14.1-9.6c1.7,6.8,1.7,13.1,0,15.7c-0.3,0.5-0.7,1.1-1.3,1.8c-2.4,1.9-6.6,4.4-10.2,4c-1-0.1-2.7-1.3-4.1-3.2
			C357.6,185.9,356.5,183.8,357,181.6z M359,175.9c-0.2,0-0.4,0.1-0.6,0.3c-0.1,0.1-0.2,0.1-0.3,0.2c-0.8,0.5-1.6,0.8-1.9,0.9
			c-2.7,0.7-5.6,0.8-8.2-4c-1.6-2.9,4.3-8.1,6.8-10.2c0.8-0.6,1.4-1.2,1.7-1.6v-0.1c4.3-3,8.5-6.2,10-7.9l0,0l0,0l0,0
			c3,3.5,5.1,8.1,6.5,12.7C369,169.4,362.7,173.6,359,175.9z M345.4,165.8c-1.9,0.8-4.2,0.7-6-0.3c-1.6-0.8-2.5-2.2-2.8-3.9
			c-0.6-3.4,2.8-6.9,5.9-9.2c6.3-3.3,15.2-6.8,21.3-1.9c0.5,0.4,0.9,0.8,1.4,1.3C363.6,153.1,350.7,163.4,345.4,165.8z M334.1,161.9
			c0.4,2.4,1.9,4.5,4,5.7c1.4,0.7,3,1.1,4.5,1.1c1.3,0,2.5-0.3,3.7-0.7c0.2-0.1,0.6-0.3,0.9-0.5c-1.6,2.3-2.4,4.7-1.2,7
			c2.4,4.5,5.4,5.7,7.9,5.7c0.4,0,0.7,0,1.1-0.1c-0.2,0.4-0.4,0.6-0.4,1c-0.6,2.3,0,4.8,1.7,7.2c1.6,2.3,3.9,4,5.8,4.3
			c0.4,0.1,0.7,0.1,1.1,0.1c1.3,0,2.6-0.3,3.8-0.6c-4.8,4.7-11.4,10.6-17.5,15.6c-2,0.1-12.2,0-21.6-9.5c-9.6-9.6-9.3-18.1-9.2-19.2
			c1-1.1,1.9-2.1,2.6-3c2.8-3.6-3.1-14.7-4-16.2c-0.3-0.5-0.9-1.4-1.7-2.5c-1.5-2.1-5.1-7.2-5.4-8.4c-0.3-1.8,0.6-4,2-5.5
			c0.8-0.8,2.2-1.8,4.1-1.8c0.3,0,0.6,0,1,0.1c1.1,0.5,5,4.5,7.5,7.1c5.9,6.2,7.7,7.8,9.4,7.7c0.3,0,0.6-0.1,1-0.3
			C334.3,158,333.8,159.9,334.1,161.9z M316.3,181.4c0.4,3.8,2.2,10.8,9.8,18.4c7.8,7.8,16,9.7,20.4,10.1c-1.3,1-2.5,2-3.7,3
			c-3.7-0.6-11.8-2.7-20-10.5c-8-7.6-9.1-18.2-9.1-18.4h-0.1c0.8-0.9,1.7-1.8,2.4-2.5C316.2,181.5,316.3,181.4,316.3,181.4z
			 M311.8,186.3c0.7,3.6,3,11.6,9.6,17.9c7.3,7,14.5,9.7,19,10.7c-3.3,2.5-5.9,4.2-7,4.4c-4.5,0.6-13.6-2.3-18.5-8.8
			c-4.9-6.7-7.5-12.8-7.5-17.9C307.4,191.3,309.4,188.8,311.8,186.3z M312,212.6c0.6,0.7,1.1,1.4,1.8,2l-40.8,29
			c-0.5-1.3-1.2-2.8-2-4.2l40.3-27.9C311.5,211.8,311.7,212.2,312,212.6z M244,234.2c-11.4-0.1-22.4-4.7-23.5-6.7
			c0-1.2,0.6-2.7,1.1-3.7c7.1,2.2,15.1,3.4,24,3.4c8,0,15.3-1,21.8-2.8c1.1,2.3,1.7,4.7,1.1,5.3C266.6,231.2,256.6,234.2,244,234.2z
			 M214.5,181.4c1.8-0.8,3.7-1.4,5.8-1.4c7.2,0,13.1,5.8,13.1,13.1c0,7.2-5.8,13.1-13.1,13.1c-0.2,0-0.3,0-0.5,0
			c-1.9-0.1-3.7-0.6-5.4-1.4c-4.3-2.1-7.2-6.6-7.2-11.7c0-3.2,1.1-6,3-8.3C211.4,183.4,212.9,182.2,214.5,181.4z M237.1,193.1
			c0-9.3-7.5-16.8-16.8-16.8c-1.5,0-2.9,0.2-4.3,0.6c4-9.1,12.4-15.9,22.8-17.9c0.1,0,0.3,0,0.4-0.1h0.1c1.9-0.4,3.8-0.6,5.8-0.6
			c12.3,0,22.8,6.7,28,16.4c-9.2,0.6-16.5,8.2-16.5,17.5c0,7.5,4.7,13.9,11.4,16.4c-5.8,5.8-13.9,9.6-22.9,9.6
			c-8.6,0-16.3-3.3-22.1-8.6C231,208.4,237.1,201.4,237.1,193.1z M274.2,206.2c-1.2,0-2.3-0.2-3.5-0.5c-5.9-1.6-10.4-7-10.4-13.4
			c0-7.6,6.2-13.8,13.8-13.8c0.2,0,0.4,0,0.6,0c1.5,0.1,2.9,0.4,4.2,0.8c5.3,1.9,9.1,7.1,9.1,13c0,7.4-5.8,13.5-13.2,13.8
			C274.6,206.1,274.3,206.2,274.2,206.2z M232.5,219.7c3.9,1.5,8.2,2.2,12.6,2.2c4.8,0,9.4-0.9,13.6-2.6l1.1,4.1
			c-4.6,0.8-9.5,1.2-14.3,1.2c-5,0-10.1-0.5-15-1.4L232.5,219.7z M257.8,117.3c-0.5-2-1.5-5.1-2.5-8.3c-1.3-3.9-3.3-10.2-3.2-12.1
			c0.8,0.3,2.3,2,3.4,4l2.9,5.3l-0.6-6c-0.4-4.2-1-16,1.1-19.8c1.1-1.9,2.3-5,3.6-8c1.1-2.7,2.8-6.5,3.7-8.2
			c0.5,1.7,0.8,5.2,0.9,8.3l0.1,3.7l2.1-3.1c0.1-0.1,8.4-12.3,18.9-15.1c20.6-5.8,28.1-7.2,30.9-7.5c-1.5,1.3-4.5,3.3-7.1,5
			l-2.1,1.3l2.3,0.9c6.5,2.5,12.3,5.7,13.5,7c-2.4,1.8-16.3,5.4-29.2,8.1l-4.1,0.8l3.9,1.5c3.4,1.3,6.8,3.1,7.8,4
			c-2.4,1.7-13.2,5.6-23.1,8.7l-2.6,0.8l2.3,1.4c1.3,0.8,2.6,1.9,3,2.3c-1,1.8-7,8.8-12.5,15.1l-0.5,0.6l0.3,0.7
			c0.4,0.8,1.2,3.7,0.9,5.1c-0.2,1.1-3.2,4.3-5.8,6.7l-0.4,0.4v15.1l-3.2-0.6C261.9,133.2,259,122.7,257.8,117.3z M260.5,138.8
			l6.6,1.3l-1.2,6.2c-2.1-0.6-4.3-1.1-6.6-1.5L260.5,138.8z M257.2,156.3l1.8-9.1c2.2,0.4,4.5,0.9,6.6,1.5l-2.1,11
			c-1.9-1.2-4.1-2.1-6.3-3C257.1,156.7,257.2,156.5,257.2,156.3z M245.5,146.1c3.3,0,6.7,0.2,9.7,0.6l-1.7,8.9v0.1
			c-2.7-0.6-5.6-1-8.4-1c-1.7,0-3.3,0.1-4.9,0.4l-2.4-8.5C240.3,146.3,242.9,146.1,245.5,146.1z M236.6,155.7
			c-2.5,0.6-4.8,1.5-7.1,2.6l-2.5-10.2c2.3-0.6,4.7-0.9,7.2-1.3L236.6,155.7z M232.2,139.7l1.3,4.7c-2.5,0.3-4.8,0.7-7.1,1.3l-1-4.2
			L232.2,139.7z M218.9,123.7c-1.5-1.5-4-3-6.5-4.4c-1.8-1-3.5-2-4.2-2.7c-0.5-0.5,0.4-2.7,1.7-4.5l0.7-1l-1-0.7
			c-7-5.1-14.5-11-16.4-13.2c1.2-0.4,4.1-0.7,6.8-0.8l4.3-0.2l-3.7-2.1c-0.1-0.1-10.4-6-13.4-7.7c-1.3-0.7-3.7-1.3-6.5-1.9
			c-2.7-0.6-8.4-1.9-8.8-2.9c0.4-1,5.2-2.6,10.3-3.3l5.9-0.8l-5.8-1.6c-11.5-3.1-24.6-7.4-26.6-9.3c1.2-1,7.5-2.1,14-2.4l5.4-0.2
			l-5-2.1c-9.9-4.3-20.8-10-21.4-12.1c1.2-1.5,9.5-0.8,16.3,0.6l0.6,0.1l0.5-0.4c0.2-0.2,4.7-3.5,13.5,0.2
			c9.2,3.8,21.4,23.5,21.4,23.7l1.9,3.1l0.4-3.5c0.6-4.9,1.7-10.7,2.5-12.3c1.7,1.4,5.8,8.9,9.2,17.5c2.9,7.3,1.9,27.2,1.9,27.4
			l-0.2,2.7l2.1-1.6c1.5-1.2,4.4-2.7,5.6-2.4c0.2,0,0.3,0.1,0.4,0.4c0.9,2.2,0.5,10.4-0.1,15l-0.1,0.6l0.5,0.5
			c2.1,1.8,4.5,4.4,4.6,5.4c0.3,1.4-0.3,6.7-0.7,10.1l-1.9,0.5C226.9,136.8,222.6,127.5,218.9,123.7z M223.3,149l2.8,11.1
			c-7,4.4-12.3,11-14.7,18.8c-4.7,3-7.8,8.2-7.8,14.2c0,8.4,6.3,15.4,14.4,16.6c3.1,3.5,6.8,6.4,11,8.5l-2.4,4.3
			c-18.8-4.5-34.1-16.5-34.1-37.1C192.6,167.6,204.1,154.5,223.3,149z M109.3,219.3c-44.9-21.2-76.5-50.9-86.6-81.4
			c-4.6-13.9-0.7-30.8,9.9-43c7.6-8.7,25.4-22.3,59.1-15.9c49.8,9.6,108,69.2,114.1,75.6c-9.9,7.2-15.5,17.8-15.5,30.7
			c0,17.2,10.5,30.5,27.8,37.1c-0.6,1.5-1.4,3.4-1.2,5.3c0.2,2.3,3.8,4.7,8.7,6.6c-1.3,1.7-2.8,3.9-3.6,5.9l-33.1-27.4l-0.5,0.6
			c2.5-4.7,3.8-9.1,3.7-13.1c0-3.2-3.9-7.4-9.8-13.6c-1.9-2-3.8-3.9-4.8-5.2c-0.6-1.5,1.9-8.4,4.2-12.1c0.3-0.5,0.9-1.3,1.7-2.4
			c3.9-5.6,5.8-8.4,5.9-9.9c0.5-3-0.8-6.3-3.2-8.6c-2.2-2.2-5.2-3.2-8.4-2.6c-1.8,0.3-4.1,2.6-9.5,8.3c-2.1,2.2-5.3,5.6-6.6,6.4
			c-0.6-0.3-1.4-0.7-2.1-1.2c-6.5-3.8-20.1-11.7-29.6-3.9c-11.6,9.5-15.5,31.7-11,38.7c3.8,6,36.9,35.6,43.1,36.5
			c0.6,0.1,1.3,0.2,1.9,0.2c5.7,0,13.5-3.2,18.5-8.6l35.7,29.4C206.8,249.2,140.5,234.1,109.3,219.3z M221.4,249.7l-36.9-30.3
			c0.8-1.1,1.6-2.2,2.2-3.3l34.7,28.7c0.5,1,1.1,1.8,1.9,2.2C222.7,247.8,222.1,248.8,221.4,249.7z M153.4,160.3
			c3.2,2.3,6.4,5.8,5.8,9.2c-0.3,1.7-1.3,3.1-2.8,3.9c-1.9,1-4.1,1.1-6,0.3c-5.4-2.3-18.2-12.6-19.8-13.9c0.5-0.5,0.9-0.9,1.4-1.3
			c2.1-1.8,4.7-2.4,7.3-2.4C144.3,156,149.4,158.1,153.4,160.3z M129.1,161.4C129.1,161.5,129.1,161.5,129.1,161.4
			c1.6,1.7,5.8,4.9,10,7.9c0,0,0,0.1,0.1,0.1c0.3,0.4,0.8,0.8,1.7,1.6c2.5,2.2,8.4,7.3,6.8,10.2c-2.6,4.8-5.5,4.7-8.2,4
			c-0.4-0.1-1.1-0.5-1.9-0.9c-0.1-0.1-0.2-0.2-0.3-0.2c-0.2-0.1-0.4-0.2-0.6-0.3c-3.7-2.2-9.8-6.6-14.1-9.7
			C124,169.6,126.2,165,129.1,161.4z M121.9,192.3c-1.6-2.6-1.7-8.9,0-15.7c3,2.1,9.8,7.1,14.1,9.6c1.1,0.9,2.5,2.5,2.7,3.3
			c0.6,2.1-0.6,4.3-1.3,5.3c-1.3,1.9-3.1,3.1-4.1,3.2c-3.5,0.5-7.7-2.1-10.2-4C122.6,193.4,122.3,192.8,121.9,192.3z M132.6,200.5
			c0.4,0,0.7,0,1.1-0.1c1.9-0.3,4.2-1.9,5.8-4.3c1.7-2.4,2.2-4.9,1.7-7.2c-0.1-0.3-0.3-0.6-0.4-1c0.4,0.1,0.7,0.1,1.1,0.1
			c2.6,0,5.5-1.2,7.9-5.7c1.2-2.2,0.4-4.6-1.2-7c0.4,0.2,0.6,0.4,0.9,0.5c1.1,0.5,2.4,0.7,3.7,0.7c1.6,0,3.2-0.4,4.5-1.1
			c2.2-1.2,3.6-3.2,4-5.7c0.3-2-0.2-3.9-1.2-5.7c0.4,0.2,0.6,0.3,1,0.3c1.7,0.2,3.4-1.5,9.4-7.7c2.6-2.7,6.4-6.8,7.4-7.1
			c2.5-0.4,4.2,0.6,5.2,1.7c1.5,1.5,2.3,3.7,2,5.5c-0.3,1.2-3.8,6.3-5.4,8.4c-0.7,1.1-1.4,2-1.8,2.5c-0.9,1.6-6.8,12.5-4,16.2l0,0
			c0.6,0.8,1.6,1.9,2.6,3c0.1,1.1,0.5,9.7-9.2,19.2c-9.5,9.4-19.6,9.6-21.6,9.5c-6.1-5.1-12.6-11-17.5-15.6
			C130.1,200.3,131.4,200.5,132.6,200.5z M169.6,207.7c7.6-7.6,9.5-14.6,9.8-18.4l0.1,0.1c0.7,0.7,1.6,1.6,2.4,2.5h-0.1
			c0,0.1-1.1,10.7-9.1,18.4c-8.2,7.7-16.2,9.8-20,10.5c-1.2-0.9-2.4-1.9-3.7-3C153.6,217.4,161.8,215.5,169.6,207.7z M174.5,212.1
			c6.7-6.3,8.8-14.3,9.6-17.9c2.3,2.5,4.3,5,4.3,6.2c0,5-2.6,11.2-7.5,17.9c-4.8,6.5-14,9.6-18.5,8.8c-1-0.2-3.5-1.9-7-4.4
			C160,221.7,167.2,219.1,174.5,212.1z M119.3,338.2c-33.5-3-48.1-22.3-50.5-39.5c-2.9-20.1,9.1-39.7,29.2-47.6
			c25.8-10.1,89.6-2.8,90.3-2.7l0,0c14.5,3.6,25.8,6.2,29.4,7c-0.8,1.4-1.4,2.5-1.5,3.2c-0.1,0.6,0.1,1.4,0.6,1.9
			c0.7,0.8,2.2,1.4,3.9,1.8c-9.2,6.7-8.3,9-7.9,9.9c0.1,0.2,0.2,0.4,0.4,0.6l-19.3,7.2c-2.6-4.2-5.6-7.2-8.7-9.1
			c-2.6-1.4-7.5-0.3-14.9,1.7c-2.4,0.6-4.6,1.2-6,1.4c-1.4-0.3-5.6-5.1-7.3-8.4c-0.2-0.5-0.6-1.3-1.1-2.3c-2.7-5.6-4-8.2-5.1-9.1
			c-2.1-1.7-5.4-2.2-8.2-1.4c-2.8,0.7-4.8,2.7-5.8,5.5c-0.6,1.6,0.2,4.4,2.2,11c0.7,2.5,1.9,6.2,2,7.7c-0.5,0.3-1.1,0.6-1.8,1
			c-5.4,3.2-17.9,10.4-16.1,21.4c2.1,13,17.4,25.5,25,25.5c0.1,0,0.2,0,0.3,0c6.3-0.3,43.6-12.9,47.1-17.4c2.8-3.5,4.4-10.5,3.2-17
			l15.9-5.9c-0.5,1.7-0.1,2.4,0.2,2.8c1.3,2.1,5.2,2.2,9,1.8c-5.8,7.3-7.9,12.1-6.4,14.3c1.4,2,4.4,2.2,7,1.9
			c-0.7,1.2-1.4,2.4-2,3.7C218.1,312.4,178.7,343.5,119.3,338.2z M216.7,280.1L216.7,280.1l-19.2,7.1c-0.1-0.4-0.3-0.7-0.5-1.1
			c-0.5-1-0.9-1.9-1.4-2.9l23.4-8.7l0,0c0.6,0,1.2-0.1,1.9-0.2C219.1,276.5,217.7,278.5,216.7,280.1z M137.7,283.2
			c3.1-1.3,6.9-2.2,9.1-0.4c1.1,0.9,1.8,2.2,1.8,3.7c0,1.8-0.9,3.6-2.3,4.6c-4,3.1-16.7,8.2-19.1,9c-0.1-0.5-0.3-1-0.3-1.5
			C125.6,291.9,132.4,286.6,137.7,283.2z M138,298.3L138,298.3c0.6-0.1,1.1-0.3,2-0.6c2.8-0.9,9.2-3.2,10.7-0.8
			c2.5,4,1.3,6.1-0.5,7.9c-0.3,0.3-0.8,0.6-1.6,1c-0.1,0-0.2,0.1-0.3,0.1c-0.2,0.1-0.4,0.2-0.5,0.3c-3.2,1.9-9.2,4.6-13.5,6.6
			c-2.9-3-5.4-6.6-6.8-10.3C129.9,302,134,300.2,138,298.3z M149.6,308.1c1.4-0.5,3.1-0.8,3.7-0.6c1.9,0.6,3,2.2,3.4,3.2
			c0.8,1.8,1,3.6,0.7,4.4c-1.1,2.8-4.6,4.8-7.1,5.9c-0.9,0.2-1.7,0.3-2.2,0.3c-2.6,0.1-7.4-2.5-11.8-6.6
			C139.4,313.3,146,310.2,149.6,308.1z M159.8,316c0.6-1.6,0.4-4.1-0.7-6.4c-1.1-2.3-2.9-4-4.9-4.5c-0.2-0.1-0.5-0.1-0.7-0.1
			c1.9-2.8,1.8-5.8-0.5-9.4c-1.1-1.9-3.2-2.3-5.5-2.2c0.1-0.1,0.2-0.1,0.3-0.2c2-1.5,3.2-4.1,3.3-6.6c0-2.3-0.9-4.3-2.6-5.7
			c-1.3-1-2.9-1.5-4.5-1.5c0.1-0.1,0.3-0.3,0.4-0.4c0.9-1.3,0.4-3.3-1.9-10.8c-0.9-3.1-2.3-7.6-2.2-8.8c0.7-1.9,2.2-2.8,3.3-3.1
			c1.7-0.5,3.7-0.2,4.9,0.7c0.7,0.7,3.2,5.7,4.1,7.8c0.6,1.1,0.9,1.9,1.2,2.4c0.1,0.1,6.4,10.9,11,10.2c0.9-0.1,2.1-0.4,3.5-0.7
			c1.2,0.6,7.5,4.1,10.6,15.3c3,11-0.9,18.7-2,20.5c-6.3,2.4-13.4,4.8-19,6.5C158.6,318.1,159.3,317.1,159.8,316z M181,291.4
			c-2.4-8.9-6.9-13.4-9.7-15.5c0.8-0.2,1.8-0.5,2.7-0.6c0.6,0.5,7.7,5.8,10,14.9c2.4,9.5,0.6,16.5-0.6,19.7
			c-1.1,0.5-2.2,0.9-3.4,1.4C181.7,307.5,183.5,300.6,181,291.4z M186.5,289.6c-1.9-7.6-6.8-12.7-9.4-15c2.8-0.6,5.4-1,6.2-0.6
			c3.8,2.1,7.4,6.8,10.4,13.5c2.9,6.5,1.2,14.8-1.2,17.8c-0.6,0.6-2.8,1.9-5.9,3.2C187.7,304.6,188.6,298,186.5,289.6z M235.3,335.9
			c0.5-0.1,0.9-0.1,1.4-0.3c-0.4,4.1-0.3,9.6,1.9,12.1l-1.3,12.7c-1.1-0.4-2.2-0.6-3.4-0.6c-0.2,0-0.4,0-0.6,0L235.3,335.9z
			 M266.2,333.6l18.8,18.2c-0.2,0.7-0.3,1.5-0.3,2.3l-7.5,2.3c-2.4-3-4.9-4.9-6.7-5.2c-2.6-0.5-17.1,6.1-29.2,11.8
			c-0.3-0.3-0.5-0.5-0.7-0.6l1.3-13.3c0.3,0,0.6-0.1,0.9-0.2c1.3-0.5,2.5-1.5,3.5-2.6c0.8,2.8,2.6,5.5,5.8,5.8c0.2,0,0.3,0,0.5,0
			c4.8,0,7.9-10,9.5-17.9C263.1,334.5,264.4,334.6,266.2,333.6z M238.9,380.2c0.1,0,0.1-0.1,0.2-0.1l3,11.9c-1.4-0.6-3-1.1-4.6-1.5
			L238.9,380.2z M226.6,370.7c0-3.9,3.2-7.1,7.1-7.1c3.9,0,7.1,3.2,7.1,7.1c0,3.9-3.2,7.1-7.1,7.1
			C229.9,377.7,226.6,374.6,226.6,370.7z M231.3,381.2c0.8,0.2,1.7,0.3,2.5,0.3c0.5,0,0.8,0,1.2-0.1l-1.3,8.4
			c-0.7-0.1-1.6-0.2-2.5-0.2c-0.4,0-0.7,0-1.1,0L231.3,381.2z M216.8,403.6c1.7-0.6,5.8-2,10.4-2c2.9,0,8.1,0.7,10.3,1l-0.3,3
			c-1.9-0.4-5.7-0.9-10-0.9c-4.7,0-8.1,1-10.1,1.9C217,405.4,216.9,404.5,216.8,403.6z M207.8,436.1c0-5,5.8-10.9,9.3-13.7
			c0.7-0.3,1.6-0.6,2.3-0.7c1.9-0.5,3.7-0.7,5.7-0.9c0.5,0,1-0.1,1.4-0.1c0.4,0,0.8,0.1,1.3,0.1c0.9,0.2,1.8,0.4,2.7,0.6
			c0.9,0.3,1.9,0.6,2.7,1c1,0.1,2,0.1,3.2,0c-0.6-0.9-1.4-1.7-2.2-2.3c-0.9-0.3-1.9-0.7-2.9-1c-1-0.3-1.9-0.6-3.1-0.7
			c-0.6-0.1-1.1-0.2-1.7-0.2c-0.6,0-1,0.1-1.6,0.1c-1.9,0.2-3.8,0.5-5.8,0.9c-0.2-1.1-0.9-5.4-1.6-10.1c1.6-0.7,4.7-1.9,9.7-1.9
			c6,0,10.8,1.2,10.9,1.2l1.4,0.4l0.6-8.1l-1.1-0.2c-0.3-0.1-7.8-1.2-11.8-1.2c-4.5,0-8.5,1.2-10.7,1.9c-0.2-1.8-0.2-3.3-0.2-4.5
			c0.4-1.3,7-3.6,14.7-3.2c6.1,0.4,9.5,1.5,12.3,3.4l0,0l0,0c0.7,0.6,1.4,1.1,2.1,1.8c2.3,2.1,1,12.2,0.5,16.9
			c-0.3,2.3-0.6,4.2-0.6,5.4c0,1.9,0.2,4.7,0.4,7.5c0.2,2.3,0.4,5.5,0.4,6.9c-1.9,1.7-9.4,7.2-21.8,7.2c-9.4,0-14.3-1.9-16.6-3.2
			c0-0.4,0-0.7,0-1.1C207.8,437.5,207.8,436.8,207.8,436.1z M226.9,448c-9.5,0.7-15.3,0-17.6-2.3c-0.9-0.9-1.4-2.1-1.5-3.6
			c3,1.4,8.1,2.9,16.5,2.9c10.3,0,17.3-3.5,21-6C244,442.3,240.2,447,226.9,448z M253.4,408c-0.9,0-2.2-1.1-2.9-1.9
			c0.2-4.7-0.4-8.4-2.5-10.3c-0.5-0.5-0.9-0.8-1.4-1.2l-4.3-17.4c0.3-0.3,0.5-0.6,0.6-0.9c0.4,1.5,0.9,3.2,1.6,5.4
			c1.6,5.5,3.8,12.9,5.8,17.7c1.7,4.1,3.5,6.8,5,8.4C254.6,408,253.8,408,253.4,408z M267.8,384.3l-1.8,0.3l0.2,1.8
			c0.8,6.4,0.7,16.2-1.7,18.4c-1.9,1.6-4.1,2.4-6,2.8c-1.4-1.1-3.8-3.6-5.9-8.9c-3-7.2-6.8-21-8.1-26.3c0.1-0.6,0.2-1.2,0.2-1.8
			c0-1.6-0.4-3.2-1-4.5c5.4-2.5,11-5,15.6-7.1c1.6,1.4,5.8,5.5,9,11.8c2.9,5.8,4.6,11,5.2,12.7C271.5,383.9,269.6,384.1,267.8,384.3
			z M275.7,383.1c-0.5-1.6-2.2-7-5.5-13.4c-2.9-5.8-6.6-9.7-8.6-11.7c1-0.5,1.9-0.8,2.9-1.2c1.9,1.9,5.4,5.6,8,10.9
			c2.9,5.8,5.3,12.3,6.2,14.9C277.9,382.8,276.9,382.9,275.7,383.1z M282.9,381.5c-0.3,0.2-0.8,0.4-1.7,0.6
			c-0.8-2.4-3.4-9.3-6.5-15.4c-2.5-4.9-5.6-8.6-7.7-10.8c1.5-0.6,2.5-0.8,3.1-0.9c1.6,0.4,7.2,5.8,10,14.3
			C281.4,372.9,284,380.6,282.9,381.5z M281.6,363.2c-0.6-1.2-1.3-2.4-2-3.5l5.8-1.8c0.5,1.3,1.2,2.5,2.2,3.5L281.6,363.2z
			 M295.2,347.6c3.7,0,6.8,3.1,6.8,6.8s-3.1,6.8-6.8,6.8s-6.8-3.1-6.8-6.8C288.5,350.5,291.5,347.6,295.2,347.6z M289.9,345.3
			c-1.3,0.7-2.4,1.8-3.2,3.1l-18.2-17.6c0.5-1.9,0.4-4.2,0-6.8L289.9,345.3z M269.2,314.1c-1.5,1.2-3.9-1.5-4-1.5l-5.9-6.6l2.8,8.4
			c2.4,7.1,3.6,14.7,2.6,15.8c-0.6,0.4-1.2,0.5-1.5,0.4c-0.3-0.1-0.5-0.6-0.6-0.6l-2.2-7l-1.3,7.2c-1.6,9-4.8,17.8-6.5,18.1
			c-2.7-0.4-3.2-5.5-3.2-7.2v-8.1l-3.5,7.2c-0.8,1.8-2.8,4.5-4.1,5c-0.3,0.1-0.4,0-0.5,0c-1.2-0.6-1.5-6.7-0.7-12.4l0.6-4l-3.3,2.1
			c0,0-3.5,2.2-5.7,0.2c-1.2-1.2,0.5-6.2,2.8-9.9l2.9-4.7l-5.2,2c-3.2,1.3-8.7,2.3-10,0.6c-1-1.4,2.2-8.9,6.9-15.8l3.1-4.5l-5.2,1.8
			c-3.2,1.1-6.5,1.3-7.2,0.8c0.2-1.9,4.3-8,9.3-13.8l3.6-4.3l-5.5,1.3c-4.1,0.9-8.4,1.3-9.8,0.8c0.6-2.1,5.1-8.2,9.4-13l3.9-4.4
			l-5.7,1.4c-3.4,0.8-7.1,1.2-8.7,1c1.3-1.7,5.6-5.1,10.2-8.2l4.8-3.2l-5.8-0.2c-2.1-0.1-4.5-0.4-5.8-0.7c1.2-2.1,4.7-7.2,7.9-11.6
			l3-4l-4.8,1.1c-0.4,0.1-1.2,0.2-1.4-0.6c-0.1-1,1.9-4.5,4.4-7.6c4.7,1.3,10,2.2,14.7,2.2c0.2,0,0.4,0,0.6,0c7.2,0,14.1-1,19.1-2.3
			c3.5,4.5,6.4,9.5,6.1,10.6c-0.8,1.7-3.6,0.9-3.6,0.9l-5.2-1.4l3.3,4.3c4.4,5.7,7.8,11.8,7.4,13.4c-1.7,1.9-4.6,1-4.6,1l-4.5-1.3
			l2.3,4c3.1,5.3,5.3,11,4.8,12.3c-0.6,1.5-2.9,0.6-3.1,0.6l-5.4-2.1l3.2,4.8c3.4,5.3,6,11.1,5.5,12.3c-2.1,2-3.6,2.3-3.6,2.3l0,0
			l-2.6,0.3l1.2,2.3C267.8,306.1,270,312.9,269.2,314.1z M271.5,271.7l26.6,2.2c-0.3,1.1-0.6,2.3-0.7,3.6c-0.1,0.4-0.1,0.6-0.1,1
			l-23.9-1.5C272.9,275.3,272.2,273.5,271.5,271.7z M398.6,226.4c13.3,4.5,22.3,13.8,25.3,26.3c3.4,13.8-0.9,29.3-11.4,40.4
			c-19.5,20.7-77.1,22.7-101.9,20.4c-24.4-2.2-38.6-6.2-38.8-6.3v0.1c-0.7-2.4-1.9-5-2.9-7.1c0.9-0.5,2.1-1.3,3.4-2.5
			c2.8-2.6-0.1-9-3-13.9c1.5-0.3,2.9-1.2,3.6-3.1l23.8,1.5v-0.6c0.2,6.8,3.4,13.6,7.1,16.4s32.5,5.7,45,5.7c2.2,0,3.9-0.1,4.8-0.3
			c7.3-1.5,19.3-17.6,18.3-30.9c-0.8-11-14.8-15-20.7-16.8c-0.7-0.2-1.5-0.5-1.9-0.6c-0.2-1.5,0-5.3,0.2-8c0.4-7,0.4-9.9-0.6-11.2
			c-1.7-2.4-4.1-3.7-7-3.9c-3-0.1-5.9,1.2-7.6,3.3c-0.8,1.1-1.6,4-2.8,10c-0.2,1.1-0.4,2-0.6,2.5c-0.9,3.5-3.8,9.2-5,9.8
			c-1.5,0.2-3.8,0.1-6.2,0.1c-7.5-0.1-12.7,0-14.9,2c-2.6,2.4-4.6,5.9-6.1,10.5l-28.3-2.4c1.3-0.3,2.7-0.9,3.9-2.3
			c2.1-2.4-0.4-7.7-3.4-12.3c0.4-0.1,0.7-0.3,1.2-0.4c15.8-5.2,36.3-12.4,58.2-21.5C336.6,229.9,381.1,220.5,398.6,226.4z
			 M346.9,257.9c0.1,0.1,0.3,0.2,0.5,0.3c-1.6,0.5-3,1.2-4,2.6c-1.3,1.8-1.8,4-1.2,6.1c0.6,2.4,2.5,4.5,4.8,5.6
			c0.1,0,0.2,0.1,0.3,0.1c-2.2,0.5-4.1,1.4-4.7,3.4c-1.3,4-0.6,7,1.9,9.2c-0.3,0.1-0.5,0.2-0.7,0.3c-1.9,1-3.2,3.1-3.7,5.6
			c-0.6,2.5-0.2,5,0.8,6.4c0.7,1,1.7,1.8,2.8,2.5c-5.8-0.3-13.4-0.9-20.1-1.7c-1.5-1.6-7.2-8.1-7-19.4c0.3-11.5,5.5-16.5,6.5-17.4
			c1.4,0,2.6,0,3.6-0.2c4.5-0.5,8.1-12.4,8.1-12.6c0.1-0.5,0.3-1.5,0.6-2.7c0.5-2.2,1.6-7.6,2-8.4c0.9-1.2,2.9-2,4.6-1.9
			c1.1,0,2.8,0.5,4,2.1c0.4,1.1,0.1,5.9,0,9.1C345.7,254.7,345.7,256.8,346.9,257.9z M353.3,299.8c-0.6,0.1-1.3,0.2-2.2,0.2
			c-2.6-0.5-6.6-1.6-8.4-4c-0.5-0.6-0.8-2.5-0.4-4.5c0.2-1.1,0.8-3.1,2.5-4c0.6-0.3,2.3-0.4,3.7-0.3c4.1,1.2,11.1,2.5,14.5,3.2
			C359.8,295.7,355.9,299.4,353.3,299.8z M364.4,288.3c-4.5-0.8-11-2.1-14.6-3.2c-0.2-0.1-0.4-0.2-0.6-0.2c-0.1,0-0.2,0-0.3,0
			c-0.8-0.3-1.5-0.5-1.8-0.6c-2.1-1.2-3.8-3.1-2.4-7.5c0.8-2.7,7.6-2,10.6-1.9c0.9,0.1,1.6,0.2,2,0.1h0.1c4.4,0.8,8.8,1.6,11,1.6
			C367.9,280.6,366.5,284.7,364.4,288.3z M347.9,270.2c-1.7-0.7-3-2.2-3.4-4c-0.4-1.5-0.1-2.9,0.7-4.1c1.8-2.3,5.7-2.3,8.9-1.9
			c5.9,1.9,13.8,5.5,14.4,12.4c0,0.5,0.1,1,0,1.5C366.1,274.1,352.5,272.2,347.9,270.2z M314.1,278.9c-0.2,9.5,3.2,15.8,5.8,19
			c-1.3-0.2-2.5-0.4-3.7-0.5c-1.9-2.8-5.4-9.2-5.4-18.9c0-9.4,5.7-16.3,6.1-16.9c0.1,0,0.1,0,0.2,0c0.9,0,1.9,0,2.6,0
			C317.5,264.2,314.3,269.7,314.1,278.9z M308.3,278.4c0,8.7,2.5,14.9,4.5,18.5c-3.4-0.6-5.8-1.2-6.6-1.7c-3.2-2.4-6.8-10-5.6-17
			c1.2-7.2,3.6-12.6,6.9-15.6c0.6-0.6,3.3-0.9,6.1-1C311.9,264.4,308.3,270.6,308.3,278.4z M440.2,162.2
			c-28.8,27.1-71.9,49.3-110.7,65.6c-0.2,0-0.4,0.1-0.5,0.1v0.1c-21.4,8.9-41.3,16-56.9,21.1c0.3-0.3,0.5-0.6,0.6-0.8l43.6-31
			c4.8,3.8,10.9,5.8,15.5,5.8c0.6,0,1.4-0.1,1.9-0.2c6.2-0.9,39.2-30.5,43.1-36.5c4.5-7.1,0.6-29.3-11-38.7
			c-9.6-7.8-23.1,0.1-29.6,3.9c-0.7,0.5-1.7,0.9-2.1,1.2c-1.3-0.9-4.5-4.2-6.6-6.4c-5.4-5.7-7.7-8-9.5-8.3c-3.2-0.6-6.1,0.5-8.4,2.6
			c-2.3,2.3-3.5,5.7-3.2,8.6c0.2,1.5,2.1,4.5,6,10c0.7,1,1.3,1.9,1.6,2.3c2.3,3.6,4.7,10.6,4.2,12.1c-1,1.3-2.9,3.2-4.8,5.2
			c-5.9,6-9.7,10.3-9.8,13.6c0,4.7,1.8,10.1,5.4,15.9l-40.2,27.9c-0.5-0.7-1-1.4-1.5-2c1.6-0.6,2.8-1.3,3.5-1.9
			c2.5-2.2,1.1-6.5-0.1-9.1c18.5-6.3,29.8-20,29.8-37.9c0-13.3-7-24.5-18.6-32c6-6.9,67-75.8,104.5-86.8
			c31.6-9.4,56.6-4.7,72.4,13.5C475.5,98.9,466.6,137.3,440.2,162.2z"/>
	</g>
</g>
</svg>
