<?xml version="1.0" encoding="utf-8"?>
<!-- Generator: Adobe Illustrator 27.3.1, SVG Export Plug-In . SVG Version: 6.00 Build 0)  -->
<svg version="1.1" id="Layer_1" xmlns="http://www.w3.org/2000/svg" xmlns:xlink="http://www.w3.org/1999/xlink" x="0px" y="0px"
	 viewBox="0 0 500 500" style="enable-background:new 0 0 500 500;" xml:space="preserve">
<style type="text/css">
	.st0{fill:#88B8FD;}
	.st1{fill:#FFFFFF;}
	.st2{fill:#000080;}
	.st3{fill:#BAE1EF;}
	.st4{fill:#C3A3CD;}
	.st5{fill:#C00000;}
	.st6{fill:#EBF1F4;}
	.st7{fill:#3AC6F4;}
	.st8{fill:#A7A9AC;}
	.st9{fill:#2DB9EC;}
	.st10{fill:#433643;}
	.st11{opacity:0.4;fill:#1B3E5E;enable-background:new    ;}
	.st12{opacity:0.4;fill:#88B8FD;enable-background:new    ;}
	.st13{opacity:0.4;fill:#284459;enable-background:new    ;}
	.st14{opacity:0.4;fill:#282859;enable-background:new    ;}
	.st15{opacity:0.3;fill:#FFFFFF;enable-background:new    ;}
	.st16{opacity:0.5;fill:#FFFFFF;enable-background:new    ;}
	.st17{fill:#010101;}
</style>
<g>
	<path class="st0" d="M86.7,417.2c-4.7,3-2.8-7.8-6.4-19.3c-6-19.2-39.5-18-45.8-32.8c-5.6-13.2-1.3-25.3,4.8-34.2
		c4.6-6.6,20.2-12.4,20.2-12.4s-9.8-36.1,3.1-53.4s31.2-27.5,44-30.5c22.5-5.3,63.5,4.2,73.3,18.1c17.3,24.7,7.7,51.1,15.2,56.7
		c7.4,5.7,16.4,10,14.7,14c-1.7,4-11.2,2.3-20.8-2.4c-13.2-6.6-8.5-27.5-17.9-34.4c-11.2-8.2-31.7-16.2-46.6-16.8
		c-5.2-0.2-9.7,0.4-12.8,2.3c-11.6,6.7-6.6,18.4-6.6,18.4s10.4-10.6,11.7-11.3c1.3-0.7,10.1-2.5,10.1-2.5s7.5,2.9,9.3,8.6
		c1.7,5.8,9.5,7.6,9.5,7.6c10.8-2,8.2,0.2,13.3,8.8c2.9,4.8,4.2,15.3,4.2,15.3c-4.3-2.6-1.5,3.4-1.5,3.4c3.4,2.2,12.3,4,18.3,8.4
		c9.7,7.1,14,15.6,14,15.6s-18.8,3.7-16.9,7.7c2,4,5,18.5,5,18.5s-17.9,1.6-17,12.9c1.1,11.3,21.9,18.1,40.6,15
		c18.7-3.1,29.3-16.2,29.3-16.2l-4.7-18.3c0,0,12.4,3.9,15.7,9.7c3.3,5.8,16.6,30.3-1.3,46.5c-18,16.2-58.8,25.1-82,21
		c-25.1-4.4-40.3-22.1-45.6-41.2c-7.2-25.8,8.4-49.3,8.4-49.3s-19.6,0.4-25.7-1.3s-15.3-5.5-15.3-5.5s-13,7.9-13.5,15.5
		c-0.3,5,21.6,14.4,21.9,26.4C93,398,96.2,411.2,86.7,417.2z"/>
	<path class="st0" d="M298.5,361c0,0,0.7-23.2,6.7-38.3c4.2-10.8,14.7-18.8,14.7-18.8l-19.7-11.8l19.7-54.2c0,0,7.4-4.8,16.7-4.8
		c19.3,0,31.9,25.4,31.9,25.4s12.6,2.8,18.7,5.6s14.4,7.9,14.4,7.9s-5.7-22.5-13.8-31.4c-8.1-8.9-18.2-17.1-20.5-24
		c-2.3-6.8-3.6-12.4-3.6-12.4s15.4-6,16.6-8.8c1.2-2.8-15.6-34.5-15.6-34.5s7.8-21,18-23.6c15.1-3.9,34.5,7.9,33.9,15.3
		c-1.3,15.3-14.7,15.7-16.8,13s8.8-5.2,5.5-8.8c-3.3-3.6-11.9-7.5-15.1-3c-6.7,9.7-4.7,37.1-1.3,42.9c3.4,5.8,29.6,26.1,43.4,47.9
		c18.5,29.2,9.8,69.7,9.8,69.7s5.3,5.1,7.7,15.4c4.3,19-12.5,33.3-4.5,41.9c0,0,4,8.6,12.2,13.4c3,1.7,14.4,9,12.2,10.8
		c-2.2,1.9-21.4,0.6-25.8-3.8c-4.4-4.4-16.4-7.8-20.2-23.1c-2-8.2,7.2-23.1,4.6-24.9c-2.6-1.9-3-4.5-3-4.5l-15.2,14.5
		c0,0,0.4,16.7-4.8,31.8c-4.7,13.6-30.5,48-50.8,50.7c-29.8,3.9-37.1-8.1-43.4-10.4c-6.4-2.4-36.7-6.9-43.7-13.2
		c-7-6.3-5.8-15.6-2.4-19.1c3.4-3.5,5.7,5.7,12.3,6.3c6.5,0.6,31.2,0.2,38.6,2.1c7.4,1.9,12.9,6.8,21.8,7.1
		c9.4,0.4,24.3-8.2,28.5-22.6c4.2-14.4,3.8-24.3,3.8-24.3s-4.7,0.8-9.9,2.2c-5.2,1.3-8.3,0-8.3,0l-8.3-11.7l-15.9,7.4l0.8,8.2
		L298.5,361z"/>
	<path class="st1" d="M227.3,356c0,0,11.2-5,26.4-5.5c15.2-0.4,44.8,10.4,44.8,10.4s-0.2-32.3,7.3-42.4
		c7.4-10.1,14.1-14.6,14.1-14.6l-19.7-11.8c0,0,23-59.9,24.1-64.5c1.3-4.7,0-13,0-13s-9.1-11.2-25-13.5c-16-2.2-70.1-2.1-70.1-2.1
		l-42.5,23.2l-6.7,30.5c0,0,7.9,9.5,10.2,16.4c2.3,6.9,1.7,38,4.9,40.3c3.2,2.3,16.6,8.5,14.7,14c-1.9,5.5-20.5-1.5-26.2-7
		c-5.7-5.5-6.6-26.7-12.6-29.9s-6.6-5.3-6.6-5.3l-11.8,11.2l7.1,10.9L163,317l-4,4.7c0,0,12.3-0.3,20.8,7.2c8.4,7.4,14,15.6,14,15.6
		s24.7-10.2,26.6-6.7C222.3,341.2,227.3,356,227.3,356z"/>
	<path class="st2" d="M185.5,221.8l43.6-22.8h8.3l0.4-20.1h-11.8l-44.8-9.3c0,0,3.9,17.7,4.2,24.4S185.5,221.8,185.5,221.8z"/>
	<path class="st3" d="M142.8,136.5c0,0,9.9-44.2,84.3-44.2c68.1,0,83.5,43.3,87.8,52.8c7.8,17.9,11.2,44.3,11.2,44.3
		s-14.9-7.2-29.3-9.9c-13.9-2.7-70.4-1.8-70.4-1.8l-46-6.8c0,0-3.8-14.2-12.7-24.7C154.6,131.3,142.8,136.5,142.8,136.5z"/>
	<path class="st2" d="M237.4,199l0.4-20.1c0,0,49.9-2.2,58.8,0.6c8.8,2.8,29.3,9.9,29.3,9.9s1.4,12.6,0,14.7
		c-1.4,2.2-1.8,10.4-1.8,10.4s-15.6-12.7-29.3-14.3C281.3,198.7,237.4,199,237.4,199z"/>
	<path class="st4" d="M161.9,140.8c0,0-0.9-7,4.3-8.5c5.2-1.4,12.7-3.3,12.7-3.3s1.5-8.2,7-12.2c9.2-6.7,22.6-2.5,22.6-2.5
		s0.8-4.9,6.7-4.6c10.1,0.5,16.3,9.7,16.3,9.7l4.2-0.4c0,0-2.9-3.3,2.9-8c7.2-5.8,15,3.9,15,3.9s5.4-3.7,11.8-2.6
		c6.4,1.1,11,11.7,11,11.7s5.9,0.4,10.9,3.1c9.2,5,7.5,19.3,7.5,19.3s7.8-2.2,11.8,3.8c4.2,6.3,4.2,23.1,4.2,23.1s1.4-2.2,4.2,1.3
		c2.8,3.4,0,10.6,0,10.6s-27.1-9.9-52.1-7.4c-6.8,0.6-36.8,0.2-36.8,0.2l-46-6.8c0,0-7.7-17.1-10.2-20.9
		C167.4,146.2,161.9,140.8,161.9,140.8z"/>
	<ellipse class="st5" cx="225.7" cy="259.1" rx="20.2" ry="24"/>
	<ellipse class="st5" cx="283" cy="257.8" rx="19.1" ry="24"/>
	<path class="st6" d="M241.5,260.3c-1,11.8-7,17.5-15.7,17.5s-16.2-7.9-15.9-20.6c0.2-10.1,7-18.3,15.7-18.3
		C234.3,238.9,242.3,250.3,241.5,260.3z"/>
	<path class="st6" d="M297.9,257.1c0,10.1-5.5,18.9-14.7,19.5c-7.4,0.4-13.5-9.4-13.5-19.5c0-10.1,6-18.2,13.5-18.2
		C290.7,239,297.9,247.1,297.9,257.1z"/>
	<path class="st2" d="M128.2,150.5c0,0,9.6-12.5,14.5-14c16.2-4.9,33.3,18.1,39.1,42.9c7.1,30-2.1,73.3-2.1,73.3
		s-11.7-9.3-18.1-12.5c-4.8-2.3-33.8-10.6-45.7-8.3s-9.4,2.6-9.4,2.6s-6.6-24-6.6-37c0-8,7-22.9,7-22.9L88,96.7
		c0,0,7.5-5.6,12.4-7.1C105.2,88.1,128.2,150.5,128.2,150.5z"/>
	<path class="st2" d="M124.4,269.8c0,0,19.2,1,24.2,2.8c5,1.7,15.9,8.7,15.9,8.7s-4.7,10.7-11.8,11.1c-7.2,0.4-17.3-4.8-20.1-9.5
		C129.8,278.3,124.4,269.8,124.4,269.8z"/>
	<circle class="st7" cx="222.5" cy="265.2" r="9.6"/>
	<circle class="st7" cx="279.8" cy="263.6" r="9.1"/>
	<path class="st2" d="M189,397.9l-12.2-45.7l6.1-4.2l34.3-11.5l5.3,2.1l14.4,44.5c0,0-5.7,7.5-18.8,12.3
		C206.1,399.7,189,397.9,189,397.9z"/>
	<polygon class="st8" points="92.7,93.2 86.2,67.1 90.1,65.2 99.6,89.4 	"/>
	<circle class="st5" cx="86" cy="55.6" r="9.6"/>
	<path class="st2" d="M326.6,194c1.9-0.2,7.8,21.7,11.4,22.5c3.6,0.8,41.9-21.2,41.9-21.2s2.3-4.5,0-5.9c-2.3-1.5-36.3-73-36.3-73
		l-7.6-3.8l-29.3,16.6c0,0,7.8,15.2,11.3,21.2C323.9,160.5,326.6,194,326.6,194z"/>
	<path class="st9" d="M326.8,178.3l7,12.4c0.8,1.3,2.5,1.9,3.9,1.1l25.1-12.7c1.3-0.8,1.8-2.4,1.1-3.8l-25.2-49.5
		c-0.7-1.4-3.8-2-5.2-1.2l-19.9,10.6c-1.3,0.7-0.5,2.3,0.1,3.7c2,4.1,5.8,12.7,6.5,17.4c0.8,5.8,5.7,19.7,6.5,21.6
		C326.6,178,326.7,178.2,326.8,178.3z"/>
	<path class="st8" d="M203.2,366.2l-8,2.3c-1.4,0.4-3.1-0.4-3.4-1.9l-2.3-8c-0.4-1.4,0.4-3.1,1.9-3.4l8-2.3c1.4-0.4,3.1,0.4,3.4,1.9
		l2.3,8C205.6,364.2,204.7,365.9,203.2,366.2z"/>
	<path class="st2" d="M273.1,398.3c0,0-6.3-15.9-4.1-17.2c2.1-1.3,20.5-9.4,19.9-7.4c-0.6,2,7.4,9.3,9.2,9.2
		c1.9-0.1,24-6.9,27.7-11.7c3.8-4.8-3.2-8.5,1.9-10.9s16-7.3,19.3-2.7c4.9,6.9,17.2,32.9,17.2,32.9s-8,17.1-23.1,18.4
		c-9.3,0.8-16.3-4.2-25.2-6.7c-8.8-2.5-20.4-1.7-27.1-1.7C282.2,400.5,273.1,398.3,273.1,398.3z"/>
	<path class="st2" d="M279.8,418.4l31.3,7.7l5.2,3.1c0,0-5.6,16.4-14.3,19.3s-9.9-3.6-13.3-6.1C285.5,439.9,279.8,418.4,279.8,418.4
		z"/>
	<path class="st10" d="M268.9,381c0,0,1.7,6.2,5,5.6c3.3-0.6,13.8-3.9,15.1-6.3c1.3-2.3-0.3-6.7-0.3-6.7L268.9,381z"/>
	<path class="st10" d="M326.5,360.2l17.1-7.4c0,0,5.7,1.3,3.3,4.8s-13.3,9.2-16.5,8.5C327.1,365.5,326.5,360.2,326.5,360.2z"/>
	<path class="st5" d="M182.6,257.1l22.8-6.8c0,0-1.3,2.4-1.3,8.8c0,6.1,0.4,7.4,0.4,7.4l-17.4,0.4L182.6,257.1z"/>
	<path class="st5" d="M245.9,252.7c0,0,6.2-3.2,9.7-2.4c3.5,0.7,10.1,1.2,10.1,1.2l-1.7,6.4c0,0-6.5-0.6-8.2-0.2
		c-1.7,0.4-9.9,1.4-9.9,1.4V252.7z"/>
	<polygon class="st5" points="302.1,250.3 313,253.2 309.7,263.6 302.1,265.2 	"/>
	<path class="st5" d="M152.6,292.5l4.5-1.7c0,0,5.3,8.2,6,10.2c0.7,2.1,3.1,13.2,3.1,13.2l-3.4,2.7c0,0-0.7-9-3.2-13.6
		C157.1,298.7,152.6,292.5,152.6,292.5z"/>
	<path class="st5" d="M158.9,321.6l4-4.7c0,0,13.8,2.2,19.7,7.6c5.5,5.1,14.6,18.5,14.6,18.5l-3.5,1.4c0,0-10.4-14.4-16.9-17.9
		C170.3,323.2,158.9,321.6,158.9,321.6z"/>
	<path class="st5" d="M294.5,360.7l3.9,0.2c0,0,0.6-22.9,5.5-34.9c4.8-11.9,15.9-22.3,15.9-22.3l-5.7-3.3c0,0-12.3,15.7-15,21.7
		C291.6,339,294.5,360.7,294.5,360.7z"/>
	<path class="st11" d="M129.7,272.9c0,0,9,18.1,17.4,18.3c8,0.1,13.4-9.1,13.4-9.1s-10.2-6.7-16.4-6.5
		C137.9,275.9,129.7,272.9,129.7,272.9z"/>
	<g>
		<path class="st11" d="M155.4,169.6c3.3-7.4,5.1-16.6,5.9-21.1c-6.1-5.5-12.8-6.5-18.6-4.4c-7.6,2.9-11.5,11.8-11.5,11.8v8.6
			c0,0,10.1,4.8,16.9,16.3C150.2,178.8,152.9,175.2,155.4,169.6z"/>
		<path class="st11" d="M164.5,199c-5.2,0.5-8.5,1.8-10.2,2.6c0.1,1.5,0.1,3.1,0,4.8c-0.5,13.6-1.6,29-1.6,29s2.7,3.1,9.1,4.8
			c6.4,1.7,12.1,7.7,12.1,7.7c1.2,3.4,8.2-10.5,5.7-43.8C177.3,201.5,170,198.4,164.5,199z"/>
	</g>
	<path class="st11" d="M148.3,211.6c-0.1-5.7-0.7-13.6-2.5-20.9c-0.4,1.3-1,2.5-2,3.5c-4.2,4.2-12.7,2.5-18.8-3.8
		c-6.3-6.3-7.6-14.1-4.6-17.5c3-3.3,9.8-3.3,14.5-1.5c-5.7-7.7-23.3-1.7-23.3-1.7l12.8-5c0,0-20.3-67.6-26.5-69.7
		c-4.6-1.6-5.6,0.2-5.6,0.2l16.9,79.7c0,0-5.7,14.7-5,31.8c0.4,11.9,4.1,25.6,4.1,25.6l39.1,1C147.5,233.1,148.4,224.6,148.3,211.6z
		 M126.8,205.6l3.9-1l1.6,1.9l1.1,6.6c0,0-1.4-2-4.2-5C127.6,206.2,127.1,205.7,126.8,205.6L126.8,205.6
		C126.7,205.6,126.6,205.4,126.8,205.6z M112.3,208.4l-0.7,0.3C111.5,208.6,111.8,208.4,112.3,208.4l3.4-1.3h2.2l1.8,7.5
		c0,0-2.6-3.4-4.8-5.2C113.6,208.4,112.8,208.3,112.3,208.4z M136.7,225.2l-0.1-1c-0.3-1-1.3-2.5-4.3-3.2
		c-4.8-1.3-19.4-0.4-19.4-0.4l22.3-3c0.3-0.1,0.6,0.2,0.6,0.4l0.7,6.1C136.8,224.7,136.7,225.2,136.7,225.2z"/>
	<path class="st11" d="M294,199c-23.2-4-67.5-1.3-67.5-1.3l-37.2,17.9c0,0,0.1-1.2,0.2-3l32.8-16.8l-32.3,5.7c0.1-2.5,0.1-5-0.1-6.8
		c-0.8-11.9-8.6-25-8.6-25s2,12.9,3.2,22.5c1.3,9.6,0,35.1,0,35.1l47.5-23c0,0,44.5-1.3,61.9,2.5c20.2,4.4,30.8,15.2,30.8,15.2
		l1.3-10.2C325.8,211.5,316.9,202.9,294,199z"/>
	<path class="st11" d="M215.7,237.4c0,0-13.1,11.1-11.4,26.2c1.2,10.5,16,20.4,21.4,19.5c5.5-0.9,15.3-4.5,15.9-8.2
		c0.6-3.7-6.6,11.8-19,10.7s-20.7-10.7-22.6-20.3c-1.7-8.5,2.5-19.6,8.7-24.4C214.8,235.9,215.7,237.4,215.7,237.4z"/>
	<path class="st12" d="M62.3,289.4c1.1-16.9,11.7-40.7,37.4-45c24.3-4,61.7,5.7,76.1,25.5c11.3,15.6,10.8,38.1,14.4,41.9
		c4.8,4.8,11.6,6.7,15.2,9c1.3,0.8,0.6,1.5-0.9,1.3c-5.3-0.6-17.8-5.9-19.8-10.9c-4.5-11.1-6.6-36.3-31.9-41.3
		c-26.3-5.1-46.8-4.7-53.6,11.8c-4.2,10.1,0.8,19.1,19.4,22.2c18.5,3.1,34.3-11.4,34.3-11.4L161,308l2.2,9l-35.4,29.7
		c0,0-28.4,1.4-39.7-5.6C71.7,330.9,60.4,318.5,62.3,289.4z"/>
	<path class="st13" d="M106.2,291.9c0,0,7-7.6,12.8-9.7c5-1.8,10.1-2.2,10.1-2.2s2.6-0.4,5.6,5.4c3,5.8,6.7,6,6.7,6
		S130,298.1,124,298C115.2,297.8,106.2,291.9,106.2,291.9z"/>
	<path class="st11" d="M82.5,384.3c-4.3-6.6-27.2-17-28.1-34.2c-0.4-7,4.1-10.9,8.7-12.9c0.2,0.2,0.4,0.4,0.5,0.5
		c8.1,8.4,15.7,10.1,15.7,10.1l5.1-3.7c0,0-13-9.6-16.2-13.4C65,327,60.9,317,60.9,317l-14.4,7.8c0,0,1.3,0.2,3.9,1.7
		c-8.2,4.8-18,18.3-13.8,32.8c3.3,11.4,31,20.4,39.5,25.6s9,23.5,9.2,25.1s0.3,1.3,2-1.4C88.8,406.1,86.8,390.9,82.5,384.3z"/>
	<path class="st11" d="M382.6,406.3c-1.4-0.7-2.7-3.7-3.3-7.2c-0.5-2.8-0.4-5.7,0.6-8.3c4.6-13,6.7-26.4,5-44.1
		c-2.5-25.9-15.7-48.7-41.1-63.7c-19-11.2-37-9.7-37-9.7l-6.8,18.8c0,0,14.1,7.2,26.4,16.1c12.3,8.9,37.4,21.4,43.7,52.8
		c4.5,23-16.2,43.4-26.2,47.9s-23.1-4.5-30.9-7.4c-7.8-3-31.2-1.4-35.6-1.4c-4.4,0-7.6-8.5-9.4-6.6c-1.9,1.9-7.4,3.5-7.6,10
		c-0.2,6.5,9.8,12.5,13.5,13c3.7,0.5,23.4,5.2,33.7,8.7c10.3,3.5,18.2,11.4,29.4,11.9c1.1,0.1,2.2,0,3.3-0.2l0.8,2.4
		c0,0,19.2-7.2,31.7-11.7c12.6-4.5,25.9-29.3,25.9-29.3S387.7,408.9,382.6,406.3z"/>
	<path class="st13" d="M300.1,292.1c0,0-1.8,25.9,9.6,44.3c10.1,16.3,19.9,22.4,19.9,22.4s11.2-5.1,14.4-3.2s7.4,11.7,7.4,11.7
		l16.5-1.9c0,0,2.1-14.4-1.8-21c-3.9-6.6-18.5-21.9-29-29.1C326.5,308.2,300.1,292.1,300.1,292.1z"/>
	<path class="st11" d="M227.3,349.2c0,0,20.3-4.7,35.1-3c10.5,1.3,41.6,13.5,50.7,14.8s13,0.6,13,0.6l0.6,8.1c0,0-31-9.6-37.1-10.2
		c-6.1-0.6-25.9-10.1-33.8-9c-8,1.3-28.4,5.5-28.4,5.5L227.3,349.2L227.3,349.2L227.3,349.2z"/>
	<path class="st14" d="M195.6,343.7c0,0-14.7,6.7-14.2,10.7s11.6,43.7,11.6,43.7l-4.9-2.2l-11.2-43.8c0,0,1.3-1.8,4-3.6
		C182.7,347.5,195.6,343.7,195.6,343.7z"/>
	<path class="st12" d="M161.8,322.2c0,0-38,28-41.2,51.5c-3.1,23.5,6.8,44.5,20.3,55.1c15.4,12.2,68.7,13.6,97-8.5
		c12.2-9.6,13.4-22.4,10.1-29.6c-3.3-7.2-6.4-9.9-13.6-4.9c-0.9,0.6-6.1,8.4-19.2,15.6c-13.8,7.6-59.1,22.3-68.9-3.1
		c-8.5-22.2,32.7-30.8,32.7-30.8l-2.2-15.2l4-3.6l12.1-4.6c0,0-7.1-12.8-11.7-16C176.7,324.9,161.8,322.2,161.8,322.2z"/>
	<path class="st11" d="M366.6,202.9c0,0,2.1,10,4.4,13.7c4.6,7.1,24.6,25.5,29.9,35.4c8.9,16.3,4.4,37.3-2.2,43.2
		c-4.1,3.7-6.4,4.4-6.4,4.4s9.1,12.9,10.3,22.6c1.3,9.7,8,27.3,8,27.3s24.9-26.4,27.1-42.2c3.4-23.9-7.2-48.3-20.2-63.3
		c-8.5-9.9-26.8-18.5-35.6-32.8c-3.6-5.7-5.9-12.8-5.9-12.8L366.6,202.9z"/>
	<path class="st11" d="M361.4,270.1c0,0,5.4-1.6,12.9,0c11.7,2.5,22.3,14.1,22.3,14.1l-6.6,12.3c0,0-14.2-16.6-18.6-19.1
		C367,275,361.4,270.1,361.4,270.1z"/>
	<path class="st11" d="M315.3,250.3c0,0,6.5-9.8,14.3-9.8c14.4,0,26.8,20.5,26.8,20.5l-4.8,4.2c0,0-17.9-0.2-25.2-1.7
		c-7.2-1.4-17.3,3.7-17.3,3.7L315.3,250.3z"/>
	<path class="st11" d="M165.2,281.8c0,0,5.7,12.2,6.4,18.8c0.6,6.6-0.6,13.2,5.2,18.7c5.8,5.4,21.4,7.7,26.1,7.6
		c4.7-0.2,5.6-1.9,5.6-1.9s-18.8-0.2-23.9-6.4c-5-6.2-6.2-27.4-11.9-30.3C167,285.2,165.2,281.8,165.2,281.8z"/>
	<path class="st11" d="M268.9,241.7c0,0-7.9,7.7-6.6,19.7c1,9.7,4.8,17.3,10.3,19.8c9.4,4.4,14.4,0,14.4,0s-9.8,1.3-13.6-3.4
		c-3.9-4.7-11.2-18-9.5-22.2C265.6,251.4,268.9,241.7,268.9,241.7z"/>
	<polygon class="st14" points="326.5,177.9 334.4,193.7 337.8,191.8 366.6,202.9 343.9,214.7 336.1,214.7 326.6,194 	"/>
	<polygon class="st15" points="306.7,129.2 372.9,177.9 361.4,153.4 319.8,121.9 	"/>
	<polygon class="st15" points="315.1,141.8 377.1,186.7 379.3,192.1 317.8,148.3 	"/>
	<path class="st13" d="M372.9,177.9c0,0-2.5-21.8,14.8-31c5.7-3,14.3-4.6,11-6.1c-8.9-4.3-22.3,5-25.8,10.3
		c-4.7,6.9-4.9,15.8-4.9,15.8L372.9,177.9z"/>
	<path class="st11" d="M437.1,326.5c0,0,3.3,4.7,3.9,10.6s-8.7,28.3-6.6,34.1c2.2,5.8,15,14.6,16.7,18.2c1.7,3.6-19.1-8.3-21.9-15.2
		c-2.7-6.7,0.4-18.6,2.7-24.8c1.9-5.3-1.7-12.8-1.7-12.8L437.1,326.5z"/>
	<path class="st11" d="M194,115.1c0,0-8.3,2-7.2,9.1c1.1,7.1,11.1,24.1,15.3,22.8c4.3-1.3,4.3-1.3,4.3-1.3l-3.4,8.2
		c0,0-2.9,6.6,2.3,10.9c5.2,4.3,11.7-2.6,11.7-2.6s2.8,4.3,8.5,1.6c5.7-2.7,7.2-7,7.2-7s0.9,13.7,6.2,13c5.3-0.7-7.4-50.3-7.4-50.3
		l5.8-7.3c0,0,4.5,28.6,9.5,31c6.8,3.2,10.2,3.5,10.2,3.5l-3.4-0.3c-2,3.8-4.2,3.4-4.3,7.6c-0.2,6.6,1.3,12.9,4.3,15.7
		c3.7,3.5,17.9,1.1,18.7,0c0,0-1.2,3.2,2.3,5.1s9.6,3.1,9.6,3.1s-23.2-0.6-32.5-0.3c-9.2,0.3-25.6,0.1-25.6,0.1l-44.8-8.1
		l-19.6-28.7c0,0,0.8-7.2,4.6-9.4c6.8-4,15.1-1.2,15.1-1.2s-3-9.7,3.2-12.4C188.7,116.1,194,115.1,194,115.1z"/>
	<path class="st15" d="M299.9,181.5c0,0,7.2,3.9,9.2,5.4c2,1.4,0,12.1,0,12.1l10.7,5.2c0,0,1.8-7.7,2.1-11.3c0.2-3.6,0-6.6,0-6.6
		L299.9,181.5z"/>
	<path class="st15" d="M164.5,153.7c-3.9,0.1,4.3,11.6,8,19.3c3.8,7.9,3.8,21.6,5.5,22.3c1.7,0.6,0-17.9-3-24.1
		C172,164.9,168.6,153.7,164.5,153.7z"/>
	
		<ellipse transform="matrix(0.7681 -0.6403 0.6403 0.7681 -84.5619 129.4067)" class="st15" cx="136.4" cy="181.5" rx="4.8" ry="9.2"/>
	<path class="st15" d="M314.6,269.4c0,0,37.7,0,61.6,31.1c24.1,31.4,16,78.2,20.4,86.1c4.4,8,14.3-37.2-2.7-74.7
		C373.8,268,328.3,262,314.6,269.4z"/>
	<path class="st15" d="M117.5,237.2c-5.9,4.5,13.8,1.8,39.8,13c20.7,9,21.7,28.6,28.9,28.6c3.2,0-8-26.6-24.4-34.1
		C145.5,237.3,121.8,233.9,117.5,237.2z"/>
	<ellipse class="st16" cx="229.3" cy="254.3" rx="8.6" ry="10.4"/>
	<ellipse class="st16" cx="286.2" cy="253.7" rx="7.8" ry="9.9"/>
	<path class="st11" d="M282,376.2c0,0,0.8,11.8,2.2,16s4.9,8.4,4.9,8.4l13-1.7c0,0-0.7-7,0-11.1c0.7-4.1,25.1-11.4,27.5-11.5
		c2.3,0,21.9,27.8,21.9,27.8s-10.9,9.2-16.1,7.1c-5.1-2.2-22.3-8.4-27.7-10.3c-5.4-1.9-20.8-0.2-25.5-0.4c-4.8-0.3-9-5.3-9-5.3
		l-4.2-14L282,376.2z"/>
	<path class="st15" d="M337,357.8c0,0,9.4,11.3,14.4,22.3c5,11.1,7.7,18.1,7.7,18.1l5-6.5c0,0-3.3-14.4-7.8-20.8
		s-12.6-15.3-12.6-15.3L337,357.8z"/>
	<g>
		<path class="st17" d="M468.1,391.4c-1.2-1.1-2.9-2-5.1-3.1c-5.7-2.9-14.1-7.3-17.5-17.4c-2.2-6.7,0-11.7,2.5-17.3
			c2.6-5.8,5.7-12.5,4.3-22.3c-1.3-9-7.1-15.9-9.3-18.3c1.3-4.1,2.2-8.3,2.4-12.8c2.7-52.1-24.9-76-41.4-90.3
			c-5.2-4.5-9.8-8.4-11.8-11.8c-7.6-13.1-8-37.9-0.6-42.8c4.8-3.1,9.3-1.2,11,1.2c0.3,0.4,0.8,1.3,0.3,1.6c-1,0.7-2,1.3-2.8,1.8
			c-2.2,1.4-4.8,3-3.3,6.3c0.7,1.6,2.7,2.7,5.5,2.9c3.9,0.4,9.9-1.3,13.3-6.8c3-4.8,3-10.9-0.1-16.4c-4-7.3-12.6-11.7-22.8-11.7l0,0
			c-18.7,0-25.5,14.6-27.9,22.8L345,117c-1.9-3.9-6.5-5.6-10.4-4l-27.3,14c-5-6.9-11-13.1-18.1-18c-25.9-18.2-58.5-23.7-91.5-15.6
			c-25.2,6.2-53.9,22.3-57.8,43.3c-5.3,3-9.2,7.8-11.6,11.3c-7.9-20.7-20.7-53.9-23.1-57.3c-1.1-1.6-2.7-2.4-4.8-2.2l-8.3-23
			c3.1-2,5.1-5.5,5.1-9.4c0-6.2-5-11.2-11.2-11.2c-6.2,0-11.2,5-11.2,11.2c0,5.8,4.5,10.7,10.2,11.2l6.5,25.7c-1.9,1.7-3.4,3.6-4,5
			l-0.2,0.5l16.5,78.6h0.2c-4,7.3-5.7,17.1-5.2,29.6c0.5,11.7,3.1,22.2,4.3,26.4c-6.5,1.8-12.8,4.4-18.8,8.2
			c-20.7,12.9-27.2,31-29.1,44c-1.5,10.6-0.3,21.5,3.1,31.1c-8.2,3.3-28.9,14.2-28.2,38.6c0.4,16,13.1,21.2,25.3,26.2
			c5.9,2.4,12.1,5,16.5,8.7c9.3,8,9.3,12.7,9.3,17.3c0,1.7,0,3.5,0.5,5.3c0.7,2.6,1.9,5.7,4.3,6.2c0.2,0,0.4,0.1,0.6,0.1
			c2,0,3.5-1.9,4-2.6c2.3-3,8.3-27.9,0-38.9c-3.6-4.8-7.5-7.4-10.8-9.5c-3.9-2.6-6.6-4.3-7.1-8.3c-0.8-5.7,8.3-10.8,12.8-12.7
			c11.6,5.4,23.7,6.5,31.8,6.5c2.2,0,4.2-0.1,5.7-0.2c-6.7,10.1-11.1,21-10.1,32.1c2.2,22.9,9.2,38.8,21.6,48.4
			c9.6,7.4,22.3,11.2,38.2,11.2c6.5,0,13.4-0.6,21-1.8c51.2-8.1,62-28.4,62-44c0-31.3-24.4-36.1-24.6-36.2l0,0l-1.8-6
			c5.5-1.5,21.8-5.5,33.7-3.6c8.5,1.3,14,3.5,20.3,5.9c4.7,1.8,10,3.9,17.3,5.9c13.8,3.9,21,5.1,23.3,5.6c-1.8,0.7-4.8,2-10.2,4.4
			c-5.4,2.3-13.3,5.8-15.5,6.5c-1.1-0.9-3.7-3.9-5.1-5.6c-2.3-2.7-2.9-3.3-3.4-3.6c-2.3-1.3-18,5.5-20.9,7.8
			c-1.4,1.2-1.9,2.3-1.6,3.5c0.4,1.3,1.4,4.8,2.4,8.3c-1-0.7-2.3-1-4.4-0.2c-2.3,0.9-4.1,2.9-4.8,5.5c-1.3,4.6,0.3,10.9,4,15.9
			c2.3,3.1,7.4,5.6,14,7.5c1.3,5.5,7.7,28.4,17,30.1c0.8,0.2,1.7,0.3,2.5,0.3c9.2,0,16.4-9.6,18.2-15c0.4-1.2,0.6-2.2,0.8-3.1
			c4.8,3.4,10.9,6.8,24,6.8c1.5,0,3.2-0.1,4.9-0.2c27.9-1.5,61.5-31.9,64.7-70.4c0.4-4.5,0.4-8.8,0.4-13.1c2.2-1.7,8-6.4,14.3-13.3
			l0.7,1.4c0.6,1.3,0.1,3.2-1.1,6.5c-1.7,4.9-4,11.6-2.2,21.7c3.1,17.5,30.6,25.8,35.5,26.7c0.5,0.1,1.6,0.2,3,0.2c3,0,7-0.5,8.2-3
			C469.8,394.9,470.1,393.3,468.1,391.4z M428,333c-0.6-5.4-3.1-17.7-13.5-27c-7.4-6.7-17.5-10.1-20.9-11c3.1-3.2,8.8-10.5,9.1-19.9
			c2-0.6,10.4-3.1,18.5-1.8c10.7,1.6,17.7,7.9,20.3,10.7c0.4,5,0.4,10.4,0.2,16.2C441,312.6,434.9,324,428,333z M407.3,362.3
			c-2.5-2.2-7-5-13.6-6c-11.7-1.7-19.8,3.2-22.3,4.9c-0.4-4.5-1.2-8.8-2.6-12.7c-1.4-4.1-3.9-8.3-6.7-12.3c1.3-3,6.3-11.2,20.2-14
			c9.8-2,17,0.7,19.7,2C405.7,335.7,407.8,348.5,407.3,362.3z M364.6,385.5c-1.2-3-2.8-7-4.4-10.1c-0.9-1.9-2.5-4.8-4.3-7.7
			c1,0,2.2-0.1,3.5-0.3c3.1-0.4,6.3-1.3,8.4-1.9C367.9,372.2,366.7,379.2,364.6,385.5z M328.2,362c2.2-1.8,13.3-6.1,15.6-5.3
			c0.4,0.4,0.9,1,1.4,1.6c-0.2,0.6-0.5,1.2-1.3,1.6c-3.2,2.3-11,5.4-13.6,5l-2.2-2.8C328.2,362.1,328.2,362,328.2,362z M346.4,353.9
			c-1-1-2.7-1.3-5.2-0.9c-3.1,0.5-8.7,2.4-12.5,4.4c-0.3-3.1-1-12.5,1.3-20.3c3-10,6.7-15.8,8.9-18.6c6.9,5.5,13.8,11.8,19.1,18.6
			c-0.4,2.6-0.8,7-0.7,13.1c0.1,5.1,0.7,10.7,1.1,13.5c-2.2,0.3-3.8,0.2-4.8,0.2C350.9,359.6,348.1,355.5,346.4,353.9z M365.2,349.7
			c1.3,3.6,2.1,7.6,2.4,11.8c-1.7,0.5-4.9,1.4-8.1,1.9c-0.4-2.8-0.9-8.3-1-13.4c-0.1-5,0.2-9,0.5-11.6
			C361.7,342.2,363.9,345.9,365.2,349.7z M382,321c-13.7,2.8-19,10.4-20.8,14c-6.4-8.3-15.2-16-23.4-22.3c1.2-4.2,5.7-15.8,20.4-22
			c13.8-5.8,22.4-1.5,25.8,0.9c7.2,8.6,13.2,19,17.4,30.9C397.9,321.2,391.1,319.2,382,321z M298.9,327.1
			c5.8-15.4,14.1-22.7,16.5-24.6c0.6,0.4,1.3,0.8,2.2,1.3c-3.3,2.8-10.9,10.3-16.6,25.1c-3.9,10.4-3.9,24.6-3.8,30.9
			c-0.6-0.2-1.3-0.4-1.9-0.6C295.1,354.9,294.6,338.4,298.9,327.1z M248,257.4c-0.1-1.5-0.3-3.1-0.6-4.5c0.8-0.3,4.3-1.3,8.3-1.3
			c3.7,0,6.5,0.5,8.1,0.9c-0.3,1.5-0.4,3.1-0.5,4.6c-1.5-0.4-3.9-0.7-7.9-0.6C252.8,256.5,249.7,257,248,257.4z M225.6,233.2
			c-9.6,0-17.8,6.8-21,16.5l-21.7,5.3c-0.5-0.8-1.1-1.5-1.7-2.3c0.7-2.8,3.9-14.9,5.5-30.5c11.3-5.9,38.3-19.7,41.5-20.5
			c3.9-0.9,35.3-2.1,58.8,0c21.7,1.9,33.2,10.8,36.4,13.6c-2.2,10.8-6.4,23.8-10.7,36.1l-9.9-2.3c-3-9.2-10.4-15.9-19.1-15.9
			c-9,0-16.6,7-19.4,16.7c-1.7-0.4-4.7-1-8.4-1c-0.1,0-0.2,0-0.3,0c-4.1,0-7.7,1.1-8.9,1.4C243.7,240.4,235.4,233.2,225.6,233.2z
			 M245.6,258.9c0,12.7-9,23.2-20,23.2c-11,0-20-10.4-20-23.2c0-12.7,9-23.2,20-23.2C236.6,235.7,245.6,246.2,245.6,258.9z
			 M203.7,264.9h-9.2l-1.3-9.8l10.5-2.6c-0.4,2.1-0.7,4.2-0.7,6.4C203.1,261,203.3,263,203.7,264.9z M190.6,319.8
			c-0.1-1.7,0-4.1,1.3-5.8c1.1-1.4,2.8-2,4.2-2.2c2,2,4.3,3.3,6.4,4.6c2.9,1.7,5.3,3.1,5.9,5.4c0.4,1.2,0.2,1.6,0.1,1.7
			c-0.3,0.3-1.7,0.5-4.5-0.3c-0.4-0.1-1.2-0.3-2.2-0.4C199.4,322.2,194.7,321.4,190.6,319.8z M190.9,313.3c-1.3,1.8-1.5,4.2-1.5,6
			c-2.6-1.2-4.9-2.6-6-4.5c-1.3-2.2-1.9-5.2-2.6-8.8c-0.1-0.6-0.3-1.3-0.4-1.9c1-1.3,3.1-4,5.4-4.7c3-0.8,5.1-0.1,6.1,0.4
			c0.2,3.8,0.5,6.6,1.6,8.6c0.4,0.8,1,1.6,1.6,2.2C193.6,311,191.9,311.8,190.9,313.3z M185.4,298.3c-2.2,0.6-4.2,2.7-5.4,4.2
			c-1.1-4.9-2.8-10.4-6.5-15.5c1.1-1.9,3.1-4.8,6.4-6.6c3.3-1.7,7.4-1.7,9.6-1.6c1.6,7,2,13.3,2.2,18.3c0,0.4,0,0.9,0.1,1.3
			C190.4,297.9,188.2,297.5,185.4,298.3z M179.3,279.3c-3.3,1.7-5.5,4.6-6.6,6.6c-0.9-1.2-2-2.3-3.1-3.4c-3.1-3-7.4-5.7-12.5-7.9
			c-0.1-2.2-0.1-10.6,5.6-17.3c3.9-4.7,9.5-5.5,12.6-5.6c1.1,1.1,2.1,2.2,2.9,3.2c6,7.8,9.2,15.5,11,22.6
			C186.7,277.4,182.7,277.6,179.3,279.3z M185.4,328.4c6.6,6.3,9.2,11.6,10.1,14.2l-1.8,0.5c-1-2.5-3.9-8.4-12.4-15.1
			c-8.3-6.6-15.2-7.9-19.8-7.7c0.6-0.4,1.3-0.9,1.8-1.3C165.9,318.6,174.4,318,185.4,328.4z M243.2,419.2
			c-5.9,5.8-14.9,10.7-26.6,14.4c-1.6-3.3-5.1-11.3-6.2-17c-1.1-5.7-0.1-13.4,0.4-16.8l0,0c8.4-1.6,14.5-4.6,18.8-7.4
			c1.1,0.4,7.4,3.1,10.1,9.4C243.1,409.3,243.2,417.1,243.2,419.2z M234.8,382.5c-1.3,1.9-8.2,10.4-24.7,13.6
			c-7,1.3-14.2,1.3-20.6,0.4l-9.1-34.8c-0.1-0.9-0.4-2.1-0.9-3.5l-0.8-3.1c-0.5-2.2,0.7-4.5,2.9-5.2l35.2-11.4
			c1.1-0.4,2.3-0.3,3.3,0.3c1.1,0.5,1.8,1.4,2.2,2.5 M167.5,385.2c-0.6-1.9-0.4-3.7,0.4-5.3c2.9-5.3,12.2-7.8,12.3-7.8
			c0.1,0,0.2-0.1,0.3-0.1l6.2,24C176.8,394,169.1,389.8,167.5,385.2z M139.7,319.6c-1.6-11.7-5.8-19.7-6.8-21.5
			c1-0.3,1.8-0.5,2.4-0.8c3.4-1.3,5.7-2.9,7.2-4.1c2,0.9,4.1,1.4,6.2,1.4c1,0,2.1-0.1,3.1-0.4c0.2-0.1,0.4-0.1,0.6-0.2
			c1.3,1.9,3.9,5.9,5.2,8.7c2.1,4.6,3.1,10.5,3.5,13c-6,4.3-14,10.5-21.8,18C140,330.1,140.4,324.7,139.7,319.6z M71.1,331.2
			c-4.8-5.3-8.3-12.3-10.5-20c5.8-0.7,20-2.7,27.4-6c6.8-3.1,12.3-9.8,14.9-13.3c0.3,0.7,0.6,1.3,1.1,1.8c2.7,3.1,6.3,4.8,10.1,5.6
			c-0.4,4.6-1.8,17.5-5.5,25.4c-4.1,9.1-12.6,18-15.2,20.7C85.5,342.8,77.5,338.4,71.1,331.2z M138.8,235.2
			c-2.1,2.2-6.2,7.5-7.3,14.5c-1.3,8.1,0.6,15.3,1.8,18.8c-6.4-0.5-12.6,0-17.8,1.9c-0.9,0.4-1.7,0.7-2.5,1.1
			c-2.2-1.9-8.1-7.4-11.1-17.7c-2.5-8.6,0.6-14.9,2-17C115.5,233.5,127.6,233.3,138.8,235.2z M173.9,250.5c-3.3,0.3-8.4,1.5-12.2,6
			c-5.6,6.6-6,14.4-5.9,17.5c-6.5-2.7-13.8-4.7-21.1-5.5c-1.1-3-3.2-10.4-2-18.7c1.2-7.3,5.9-12.8,7.4-14.4
			C154.1,238,166.3,243.6,173.9,250.5z M116.8,273.9c2.2-0.8,4.8-1.3,7.4-1.6c0.4,0.9,0.9,2,1.4,3.1c-2.5,0-6,0.6-9.9,2.6
			c-4.9,2.6-8,5.9-9.8,8.7c0.1-0.7,0.2-1.4,0.4-2.2C107.1,281.7,109.4,276.6,116.8,273.9z M107.5,291.9c0.8-2,3.1-6.6,9.2-10.1
			c1.6,1,5.1,3.5,7.2,7.8c0.8,1.6,1.8,4.8,2.2,6.3C119.7,296.8,112.1,296.3,107.5,291.9z M127.3,295.6c-0.4-1.4-1.4-4.8-2.3-6.6
			c-2-4.1-5.1-6.6-7-7.9c4.8-2.4,8.6-2.1,10.1-1.9c2.8,4.3,6.6,8.9,11,11.9c-1.3,0.8-2.9,1.8-5,2.6
			C132.4,294.5,129.9,295.1,127.3,295.6z M176.3,352.5c-2.2-2.8-5.3-6-10-9.4c-10-7.4-18.4-8.1-22.8-7.7c4.6-4.3,9.2-8.3,13.5-11.5
			c2.6-1,11-3.1,22.8,6.3c7.9,6.2,10.7,11.7,11.6,13.9l-10.4,3.4C178.5,348.2,176.8,350.2,176.3,352.5z M142,336.8
			c3.4-0.5,12.6-0.9,23.6,7.3c5.3,3.9,8.6,7.4,10.6,10.4c0,0.4,0.1,0.8,0.2,1.2l3.3,12.7c-0.1,0-0.2,0-0.4,0.1
			c-0.4,0.1-6.6,1.8-11.2,5.6c-2.2-4.1-8.3-12.3-21.8-16.9c-8.4-2.9-16.3-1.6-21.3-0.2C129.7,349.7,135.7,342.8,142,336.8z
			 M163.5,314.2c-0.5-3.1-1.6-8.2-3.5-12.5c-1.3-2.8-3.7-6.6-5.1-8.6c0.4-0.3,1-0.5,1.4-0.8c1.4,2.1,3.5,5,4.5,7.3
			c2.4,5.1,3.7,11.8,4,13.7C164.4,313.5,163.9,313.9,163.5,314.2z M151,290.6c-9.2,2.2-19.3-11.2-22.8-18.6
			c11.6-0.1,24.9,3.9,33.7,9.3C159.7,284.5,155.3,289.6,151,290.6z M184.4,257.3l5.2-1.3l1.2,8.9h-2.2
			C187.5,262.4,186,259.9,184.4,257.3z M184.2,166.6c0.1,0.3,0.4,0.4,0.6,0.4c0.1,0,0.2,0,0.3,0c0.3-0.1,5.7-2.2,6.9-5.4
			c0.5-1.4-0.7-3.8-1.9-5.4c-2.4-3.4-7.3-8-10.1-8l0,0c-3.1,0-6.5,2-7.6,2.8c-2.6-4-5.5-7.6-8.6-10.4l0.6-0.1
			c-0.1-0.5-0.8-4.9,3.9-7.2c5.7-2.6,11.2-1.5,11.3-1.5l2.2,0.4c2.7,3.2,15.2,18,19.9,18.3h0.1c2.1,0,5.7-3.3,6.1-4.4
			c0.4-1.2-3.9-10.2-6.5-13.9c-1.3-2-2.4-2.9-3.3-2.9c-1.5,0-3.1,0.9-4,2.4c-1.1,1.8-1.2,4.1,0,6.4c2.2,4.5,4.8,5.6,4.9,5.6
			c0.4,0.1,0.7,0,0.8-0.4c0.1-0.4,0-0.7-0.4-0.8c0,0-2.2-1-4.3-5c-0.9-1.8-0.9-3.7,0-5.1c0.7-1.1,1.8-1.9,3-1.9
			c1.9,0,8.3,12.9,8.5,15.2c-0.4,0.8-3.5,3.6-4.8,3.6c0,0,0,0-0.1,0c-3.6-0.2-14.3-12.1-18.8-17.6l-1.3-2.6
			c-0.1-0.2-2.2-4.4,4.1-9.9c8.6-7.5,20.8-3.1,20.9-3l0.8,0.3c-0.9,4.4-2.2,14.1,2,17.5c3.2,2.7,7.6,4.4,11.4,4.4
			c2.1,0,3.9-0.5,5.3-1.8c3.6-3.3,0.4-10.5,0.4-10.8l-0.2-0.3l-9.8-1.7c-0.4-0.1-0.6,0.2-0.7,0.5c-0.1,0.4,0.2,0.6,0.5,0.7l9.2,1.6
			c0.5,1.3,2.4,6.6-0.2,9.1c-3,2.8-10,1.5-15-2.7c-4.1-3.4-1.8-15-1.2-17.8c0.3-0.5,2.4-3.9,8.3-3.6c7.6,0.4,12.1,7.4,12.1,7.4
			l0.6,1h0.2c1.7,3.1,5.3,10.1,7.2,17.8c0.4,1.8,0.9,4.2,1.4,6.9c-1.2-1.3-3-2.5-5.8-3c-5.9-0.9-9.9-0.5-12,1.2
			c-1.2,1-1.8,2.2-1.9,3.9c-0.1,0.8-0.4,2.2-0.8,3.8c-1.3,5.3-3.3,13.2,2.5,14.8c1.9,0.5,3.7,0.7,5.3,0.7c2.2,0,4-0.5,5.2-1.5
			c1.2-1,1.6-2.3,1.4-3.9c-0.1-1.2,0-2.7,0.2-4.2c0.3-2.8,0.5-5.4-0.7-6.7c-0.5-0.6-1.4-0.9-2.4-0.8c-4.7,0.3-5.2,1.6-5.2,2.2
			c0,0.4,0.3,0.7,0.6,0.7c0.4,0,0.6-0.2,0.6-0.5c0,0,0.4-0.8,4-1c0.6,0,1.2,0.1,1.4,0.4c0.9,0.9,0.6,3.3,0.4,5.7
			c-0.2,1.5-0.4,3.1-0.2,4.5c0.1,1.3-0.3,2.2-1.1,2.9c-1.7,1.4-5.1,1.6-9.3,0.4c-4.3-1.2-3.2-6.9-1.6-13.3c0.4-1.6,0.8-3.1,0.8-4
			c0.1-1.3,0.5-2.3,1.4-3.1c1.9-1.5,5.6-1.8,11-1c4.5,0.7,6.1,3.6,6.6,5c2,10.8,4.2,24.4,4.8,28.3c-8.9,0.1-15.5,0.3-16.8,0.4
			c-1.7-0.3-19.9-3.6-24.6-4.5c-6.7-1.3-15.3-2.3-21.4-2.5c-2.2-6.1-5.1-12.2-8.5-17.6c1.1-0.7,4.1-2.6,7-2.6l0,0
			c2,0,6.3,3.6,9.1,7.5c1.6,2.2,2,3.7,1.8,4.2c-0.8,2.2-4.7,4.1-6.1,4.7C184.3,165.9,184.1,166.3,184.2,166.6z M251.4,115.2l0.9,1.9
			c0.9,2.3,2.1,6.3,2.1,10.7c0,3.1-2.2,5.3-4.1,5.9c-1.3,0.4-2.4,0.2-3.1-0.6c-0.4-0.4-0.8-1.1-1.3-1.6c-1.4-1.7-3.3-3.9-3-5.6
			c0.1-0.7,0.6-1.3,1.5-1.8c2.5-1.3,3.5-1.7,3.9-1.8c0.1,0,0.1,0.1,0.2,0.1c0.4,0.1,0.7-0.1,0.8-0.4l0.1-0.4l-0.4-0.3
			c-0.4-0.3-0.8-0.6-5.1,1.8c-1.3,0.7-2,1.5-2.2,2.6c-0.4,2.2,1.6,4.7,3.2,6.6c0.4,0.5,0.9,1.1,1.3,1.5c0.6,0.9,1.6,1.3,2.8,1.3
			c0.5,0,1.1-0.1,1.6-0.3c2.4-0.8,4.9-3.3,4.9-7.1c0-4.7-1.2-8.7-2.2-11.1l0.9-0.9c0.2-0.2,3.7-3.4,9.5-2.1
			c9.5,2.2,10.8,9.9,10.9,10.1l0.2,0.9c-3.9,0.9-10.6,3.1-11.1,7.5c-0.2,1.3-0.4,2.4-0.5,3.4c-0.6,3.3-1,5.3,2.2,6.9
			c1.6,0.9,3.9,1.4,6,1.4c1.4,0,2.7-0.3,3.5-0.8c0.9-0.6,1.3-1.4,1.1-2.5c-0.4-3.3-0.4-7.2-0.4-7.3c0-0.4-0.3-0.6-0.6-0.6
			c-0.4,0-0.6,0.3-0.6,0.6c0,0,0,4,0.4,7.4c0.1,0.5-0.1,1-0.5,1.3c-1.5,1.1-5.7,0.7-8.3-0.6c-2.2-1.3-2.1-2.3-1.5-5.6
			c0.2-1,0.4-2.2,0.5-3.5c0.6-5.3,12.8-7,13-7c0.1,0,0.2-0.1,0.3-0.2c1.6,0,4.9,0.5,9.5,3.6c7.8,5.3,5.3,17.2,5.3,17.3l-0.4,1.7
			c-2.4,2.6-6.2,7.6-4.4,11.9c0.8,2,1.3,3.9,1.9,5.7c0.8,3,1.4,5.1,2.6,5.7c0.2,0.1,0.4,0.2,0.7,0.2c0.2,0,0.4-0.1,0.6-0.1
			c0.7-0.3,1.6-0.5,2.6-0.9c2.9-0.9,4.8-1.6,5.6-2.5c1-1.3-2-7.3-4.6-12c-0.2-0.3-0.5-0.4-0.9-0.3c-0.3,0.2-0.4,0.5-0.3,0.9
			c2.5,4.5,4.9,9.8,4.7,10.7c-0.5,0.7-3.1,1.5-4.9,2.2c-1,0.4-1.9,0.6-2.7,0.9c-0.2,0.1-0.3,0.1-0.4,0c-0.7-0.4-1.3-2.7-2-4.9
			c-0.5-1.8-1.1-3.9-1.9-5.9c-1.3-3.1,1.2-7,3.2-9.5l3.1-1.6c0,0,4.5-2.2,9.2,4c5.6,7.4,3.6,19.8,3.5,19.9l-0.4,2.2h2.2
			c0,0,3.4,0.1,3.7,2.3c0.3,2.2,0.2,4.7,0.1,6.3c-4.4-1.6-9.8-3.3-16.1-4.6c-10.4-2.1-32.2-2.4-48.9-2.3c-0.4-2.4-1.7-9.3-3.2-17
			c0.1-0.1,0.2-0.3,0.2-0.4c0-3.3,0.9-11.9,5.2-12.4c4.8-0.5,12.2,0.9,15,3.5c0.8,0.7,1.2,1.5,1.2,2.3c0,1,0,2.2,0,3.4
			c0.1,4.2,0.3,11.2-2,11.4c-2.5,0.2-6.7-1-8.7-2.9c-0.8-0.7-1.2-1.5-1.2-2.3c0-3.4,1.8-7.5,1.8-7.6c0.2-0.4,0-0.7-0.4-0.8
			c-0.4-0.2-0.7,0-0.8,0.4c-0.1,0.2-1.9,4.5-1.9,8.1c0,1.2,0.5,2.3,1.6,3.3c2.3,2.2,6.6,3.2,9.2,3.2c0.2,0,0.4,0,0.4,0
			c3.4-0.2,3.2-6.8,3.1-12.7c0-1.3-0.1-2.4,0-3.3c0-1.2-0.5-2.3-1.6-3.3c-3.4-3.1-11.7-4.3-16-3.9c-4.1,0.4-5.6,5.8-6.1,9.7
			c-1-4.9-2-10-2.8-14.3c-2.4-12.2-5.2-20.7-5.8-22.7l-0.2-0.7c0-0.2-1-4,3.9-5.7C247.9,108.8,251.2,114.5,251.4,115.2z
			 M313.3,136.3l22.3-11.3c0.4-0.2,0.6-0.2,1-0.1c0.4,0.1,0.6,0.4,0.7,0.6l26.2,49.9c0.2,0.4,0.2,0.7,0.1,1
			c-0.1,0.4-0.4,0.6-0.7,0.7l-26.7,14c-0.4,0.2-0.7,0.2-1,0.1c-0.4-0.1-0.6-0.4-0.8-0.7l-7.4-14.7
			C324.8,161.7,320.4,148.8,313.3,136.3z M334.6,213.4L334.6,213.4c1.6,2.5,4.3,3.9,7.1,3.9c1.3,0,2.7-0.4,3.9-1l16.1-8.7
			c0.4,3.7,2.1,11,8.3,18.2c1.6,1.9,3.7,3.9,5.7,6c8.3,8.3,19.3,19.3,22.5,36.3c-4.5-2.7-12.9-7-22.9-9.2c-1.5-0.4-3.1-0.5-4.5-0.6
			c-2-4.2-10.1-19.6-24-25.8c-10.3-4.7-19.7-0.5-25.1,3.2c3.3-10.8,5.9-21.1,6.6-29.2c0.1-1.5,0.2-3.1,0.3-4.7L334.6,213.4z
			 M441.3,282c-3.3-3.1-10.1-8.4-19.9-10c-8-1.3-16.1,0.9-18.7,1.7c0-0.6-0.1-1.3-0.1-1.9c-1-8.9-3.9-16.3-7.6-22.6
			c1.8-2.4,6.5-7.7,14.7-8.7c10-1.1,18.7,3.2,20.1,4C435.5,254.5,439.8,266.6,441.3,282z M356.1,265.5c3.2-2,9.5-4.7,18.5-2.7
			c4.2,0.9,8.3,2.3,11.8,3.8c-1.6,1.1-4.1,3.1-5.9,5.8c-1.5,2.4-2.1,5.5-2.2,7.8C371.1,273.8,363.7,268.8,356.1,265.5z M330.7,261.1
			c0.2-3.1,0.9-9.6,3.9-14.4c4.2-7,10.9-8.7,13.8-9.1c9.5,5.7,15.7,16,18.2,20.8c-7.8,0.4-12.8,3.9-14.8,5.5
			C344.9,261.5,337.4,260.9,330.7,261.1z M319.7,242.3c1.8-1.8,12.9-12,25.7-6.3c0.4,0.2,0.8,0.4,1.3,0.6c-3.6,0.8-9.3,3-13.2,9.3
			c-3.1,5.2-3.9,11.9-4,15.1c-7.3,0.3-13.6,1.4-17,2.2C314.8,256.7,317.4,249.5,319.7,242.3z M324.6,206.4c-0.1,1.9-0.4,3.9-0.7,6.1
			c-4.6-3.8-16.2-11.5-36.7-13.3c-16-1.4-35.5-1.3-47.9-0.9v-19.4c16.5-0.3,46.1-0.4,58.5,2.2c14.1,2.8,23.8,7.8,27,9.6
			C324.9,196.1,324.9,201.4,324.6,206.4z M229.1,199l-0.4-19.9c1.5,0,4.3-0.1,8-0.2v19.5C233.3,198.6,230.7,198.8,229.1,199z
			 M235.7,119.4c1,3.1,3.3,10.9,5.5,21.4c2.4,12.1,5.9,30.7,6.8,35.4c-0.8,0-1.7,0-2.4,0c-0.5-3.5-2.7-16.6-4.7-27.4
			c0-0.1,0.1-0.2,0-0.3c0,0-0.1-0.4-0.3-0.9c-0.8-4-1.5-7.7-2.2-10.2c-1.8-7.4-5.2-14.3-7-17.6L235.7,119.4z M202.4,174.6
			c4.3,0.9,19.7,3.7,23.8,4.4l0.4,20.6c-6.2,2.3-31.3,15.3-39.8,19.7c0.8-10.1,0.9-21.2-0.8-32.1c-0.7-4.6-2-9.7-3.8-14.9
			C188.3,172.4,196.1,173.3,202.4,174.6z M263.2,259c0,0.2,0,0.4,0,0.5C263.2,259.3,263.2,259.2,263.2,259z M265.7,259
			c0-0.4,0-0.6,0-1c0-12.2,8.1-22.2,17.9-22.2s17.9,10,17.9,22.2c0,12.2-8.1,22.2-17.9,22.2c-9.4,0-17.2-9.1-17.9-20.5l0.2-0.2
			L265.7,259z M303.5,251.9l8.3,2c-0.9,2.6-1.9,5.2-2.8,7.7l-5.3,1c0.3-1.5,0.4-3.1,0.4-4.7C304.1,255.9,303.8,253.9,303.5,251.9z
			 M310.9,267.6c2.1-0.5,14.4-3.6,27.5-2.5c-4.4,1.1-9.7,3-13.7,6.6c-10.6,9.6-12.3,20.1-12.6,24.8c-3.8-1.9-7.6-4.2-8.5-5.2
			C303.5,288.5,307.1,278.2,310.9,267.6z M313.7,297.1c-0.1,0-0.2-0.1-0.3-0.1c0.1-4.1,1.3-14.7,12.1-24.5c5-4.5,12.4-6.3,17.1-7
			c3.1,0.4,6,1.2,8.9,2.2c10.4,3.9,20.8,11.1,29.8,21c-4.7-2.2-12.7-3.9-23.8,0.8c-14.5,6.2-19.5,17.6-20.9,22.3
			C325,303.4,314.7,297.7,313.7,297.1z M389.9,293.4c-3.3-4.4-6.9-8.4-10.7-12c0.1-2.2,0.5-5.7,2.1-8.3c1.9-3,4.8-5,6.3-5.9
			c5.6,2.4,9.6,4.9,11.2,6C399.5,283.2,392,291.4,389.9,293.4z M428.7,242.7c-3.4-1.5-10.7-4.2-19.1-3.3c-8.3,0.9-13.2,6-15.3,8.8
			c-4.7-7.4-10.3-13.3-15.3-18.2c0.7-3.2,3-10.3,9.4-13.9c5.7-3.1,12.6-1.5,16.8,0C412.9,222.7,421.6,231.1,428.7,242.7z M389,200
			c2.3,3.9,6.8,7.9,12.6,12.8c0.4,0.4,0.8,0.7,1.2,1.1c-4.3-1.2-10-1.7-14.9,1.1c-6.5,3.6-8.9,10.2-9.9,13.9c-2-2-3.8-3.8-5.2-5.5
			c-6.7-7.7-7.4-15.9-7.4-17.7l11.6-6.3c3.9-2.2,5.5-6.9,3.5-10.9l-5.9-11.8c3.3,0.2,6.6,2,8.5,3.2C383.8,187.4,385.9,194.7,389,200
			z M412.2,147.7c2.3,4.2,2.4,9,0.2,12.7c-2.6,4.2-6.6,4.9-8.3,5c-2.2,0.2-3.6-0.4-3.7-0.6c-0.1-0.2-0.1-0.2-0.1-0.3
			c0.2-0.3,1.2-0.9,2-1.4c0.8-0.5,1.9-1.2,3-2c2.2-1.5,2.3-4.3,0.6-6.9c-1-1.4-2.7-2.8-4.8-3.6c0.7-0.5,1.5-1.6,2.4-3.4
			c1-2.2,0.4-5-0.3-7.4C407.1,141.6,410.3,144.2,412.2,147.7z M392.7,137.9L392.7,137.9c3.2,0,6.2,0.4,8.8,1.3
			c0.9,2.2,1.7,5.3,0.7,7.4c-1.6,3.3-2.8,3.4-2.8,3.4v0.1c-2.9-0.7-6.4-0.4-9.9,2c-1.1,0.7-2,1.7-2.8,2.9c-1.1-2.2-3-5.5-5.8-7.3
			c-2.2-1.4-4.6-1.8-6.4-1.8C378.3,141.5,384.1,137.9,392.7,137.9z M373.5,147.3c1.7-0.2,4.3,0,6.8,1.5c3,1.9,4.8,5.6,5.7,7.5
			c-2.9,5.2-3.9,13.6-3.1,22c-2.2-1.3-5.5-3-8.9-3v0.2l-6.6-13.3C367.6,160.4,369,153.3,373.5,147.3z M336.1,116.6
			c2.2-0.8,4.6,0.2,5.6,2.2l35.4,71.4c1.1,2.2,0.3,4.8-1.9,5.9L343.8,213c-2.1,1.1-4.6,0.4-5.8-1.5l-9.4-17.6
			c-0.1-3.1-0.3-7.5-0.6-10.7l2.6,4.4c1.2,1.9,2.9,5.7,3.9,6.1c0.4,0.2,0.9,0.3,1.3,0.3c0.5,0,1.2-0.1,1.6-0.4l26.7-14
			c0.9-0.4,1.6-1.3,2-2.2c0.4-1,0.3-2.1-0.2-3l-26.2-49.9c-0.4-0.9-1.3-1.6-2.2-1.9c-1-0.4-2-0.3-3,0.2L312,134.1
			c-0.8-1.3-1.6-2.7-2.5-3.9L336.1,116.6z M198.5,97c31.9-7.8,63.4-2.5,88.5,15.1c23.7,16.6,35.3,47.3,37.5,75.6
			c-1.5-0.8-3.8-1.9-6.6-3.1c0.1-1.4,0.3-4.9-0.1-8.1c-0.4-3.3-3.1-4.8-5.3-5.4c0.4-4.1,0.6-14-4.5-20.9c-3.7-4.9-7.8-6.1-10.8-5.9
			c0.4-4.6,0.1-13.5-7.3-18.4c-5.5-3.7-9.5-4.3-11.8-4.3c-1-3.1-4.1-9.4-13.3-11.6c-5.2-1.3-9.1,0.4-11.2,1.7
			c-2.4-3.1-7.4-6.3-14.7-3.8c-4.9,1.7-6.4,5.4-6.5,8.1l-0.6,0.1c-1.7-2.3-6.6-7.9-14.4-8.3c-6.1-0.4-9.4,2.5-10.9,4.3
			c-3.9-1.1-14.8-3.3-23.3,4.1c-5.2,4.5-6,8.7-5.8,11.5c-2.6-0.1-6.6,0.2-10.8,2.2c-4.2,2-5.7,5.4-6.1,8.3c-2.8-1.9-5.7-3.2-8.6-3.7
			c-2.8-0.4-5.3-0.2-7.7,0.5C149.4,116.8,175.4,102.7,198.5,97z M151.3,138.1c14.9,2.2,28.1,30.4,31,49.5c3.9,25.5-2,52.8-4.2,61.6
			c-5.7-5.7-14.1-10.8-24-14.2c1.6-4.3,4.1-15.4,0.4-38.5c-2.4-15.1-8.8-26.5-17.5-31.2c-1-0.5-1.9-1-2.9-1.3l0.2-0.1
			c-0.6-1.5-2.2-5.8-4.4-11.6C132.4,148.3,140.3,136.4,151.3,138.1z M77.2,56c0-4.8,3.9-8.7,8.7-8.7c4.8,0,8.7,3.9,8.7,8.7
			c0,4.8-3.9,8.7-8.7,8.7C81.1,64.7,77.2,60.8,77.2,56z M87.5,67.1c0.8-0.1,1.6-0.3,2.3-0.6l8.1,22.3c-1.4,0.5-3,1.3-4.4,2.3
			L87.5,67.1z M91.2,98.9c1.3-2.4,6.2-6.5,9.3-6.7c1-0.1,1.4,0.3,1.6,0.6c1.9,2.8,13.8,33.5,23.7,59.4l0,0l0,0
			c1.4,3.8,2.9,7.4,4.1,10.9c-4.2-0.5-8.7,0.2-13.5,2.2c-3.9,1.7-7.2,4.2-9.9,7.4L91.2,98.9z M102.4,206.4
			c-0.9-20.4,4.2-32.7,15.6-37.7c6.4-2.8,12.2-2.8,17.2-0.1c7.7,4.2,13.4,14.6,15.6,28.5c3.7,23,0.9,33.4-0.4,36.7
			c-13.3-4-28.9-5.2-43.9-1.9C105.5,228.1,102.8,217.8,102.4,206.4z M86.1,244.4c5-3.1,10.5-5.5,16-7.2c-1.5,3-3.8,9-1.4,16.9
			c3,10.1,8.4,15.7,11.1,18c-4.7,2.6-7.1,6.2-8.3,9.1c-4.1,0-14.7-0.6-22.3-5.5c-7.9-4.9-11.3-11.9-12.5-15.2
			C72.9,254.8,78.4,249.1,86.1,244.4z M58.9,285.6c1-7,3.4-15.5,9-23.9c1.4,3.6,5,10.1,12.7,15c7.7,4.8,17.9,5.6,22.5,5.7
			c-0.2,0.4-0.3,0.8-0.4,1.2c-0.6,2.3-0.7,4.8-0.3,6.8c-2.2,3.1-7.9,10.6-15,13.7c-7.2,3.2-21.5,5.3-27.2,5.9
			C58.2,302.2,57.7,293.8,58.9,285.6z M87.7,413.6c-0.4,0.6-0.8,0.9-1,1.1c-0.3-0.4-0.7-1.2-1.3-3.3c-0.4-1.3-0.4-2.7-0.4-4.3
			c0-4-0.1-9-6.2-15.8h0.4c0-0.2,0.1-3.5,4.4-6.1c2.2-1.3,4.8-1.3,6.5-1.2C93.1,394.6,89.3,411.4,87.7,413.6z M77.8,370.6
			c3.1,2.1,6.6,4.4,9.9,8.6c0.8,1,1.3,2.2,1.9,3.5c-1.9-0.2-4.5,0-6.7,1.3c-3.6,2.2-4.6,4.9-4.8,6.3c-1.1-1.1-2.2-2.2-3.7-3.5
			c-4.8-4.1-11.3-6.8-17.5-9.3c-3.2-1.3-6.4-2.7-9.3-4.1c1.3-2.4,4-6.8,9.2-8.4c6.6-2.2,11.5-1.3,14.4-0.3
			C72.6,367.2,75.2,368.9,77.8,370.6z M69,359.7c0.2,1.3,0.5,2.4,1,3.4c-3.1-0.9-7.7-1.3-13.8,0.7c-5.6,1.8-8.6,6.5-9.9,9.1
			c-7-3.8-12.3-8.8-12.5-18.1c-0.2-5.1,0.7-9.6,2.2-13.5l0.1,0.1c0-0.1,3.8-5,14.1-3.8c14.2,1.7,20.9,10.2,22.5,12.7
			C70.3,352.8,68.6,356,69,359.7z M73.8,349.4c-2-3-9-11.4-23.3-13.1c-6.9-0.8-11,0.9-13.3,2.4c5.7-11.3,17-17,22.3-19
			c2.2,5.3,5.1,10.1,8.7,14.1c3.9,4.4,8.5,7.9,13.2,10.5C79.1,345.5,76.2,347.2,73.8,349.4z M94.7,345.9c3.1-3.1,10.9-11.8,15-20.6
			c3.7-8.1,5.1-20.9,5.6-25.7c5.9,1,12.2,0.1,16.4-1.1c0.4,0.8,5.1,9,6.8,21.4c0.8,5.7,0.1,11.8-0.5,15.5
			c-4.1,4.1-8.3,8.6-11.8,13.4C123.8,349,109.7,350.4,94.7,345.9z M124,358.6c4.6-1.5,12.8-3.3,21.9-0.3
			c13.2,4.5,19.1,12.7,21.2,16.6c-1,1-1.9,2-2.5,3.2c-0.8,1.4-1.2,3-1.3,4.6c-3.5-1.5-12.7-5.2-20.2-4
			c-14.8,2.4-21.6,12.2-24.5,18.5c-0.8-3.9-1.4-8.2-1.9-12.7C116,375.7,119.1,366.9,124,358.6z M119.2,399.3
			c2.2-5.8,8.5-16.9,24.2-19.4c7.5-1.2,17.3,3,20,4.2c0.1,0.8,0.3,1.5,0.5,2.3c0.7,2.2,2.3,4.3,4.6,6.1c-4.4,1-11.8,3.5-18.9,10.3
			c-8.1,7.7-10,24.9-10.3,29.1c-0.7-0.5-1.5-1.1-2.2-1.6C128.3,423.5,122.4,413.2,119.2,399.3z M140.4,432.6
			c0.2-2.2,1.8-21.1,10-28.9c7.4-7.1,15.4-9.4,19.5-10.1c2.9,2,6.6,3.6,10.7,4.8c-2,2.3-7,9.5-7,20.5c0,8.5,1.7,17.3,3.3,21.5
			C161.9,441.1,149.7,438.4,140.4,432.6z M193.4,438.9c-5.4,0.8-10.4,1.3-15.2,1.6c-1.3-3.3-3.4-11.7-3.4-21.5
			c0-11.3,5.7-18.7,7.1-20.2c5.1,1.3,10.9,2.2,16.8,2.2c3.6,0,7.3-0.3,10.9-0.9c-0.5,3.7-1.4,11.1-0.4,16.8
			c1.1,5.8,4.6,13.7,6.3,17.1C208.9,435.9,201.5,437.6,193.4,438.9z M244.4,417.9c-0.1-3.2-0.5-9.9-3.4-16.6
			c-2.6-5.9-7.9-8.8-10.1-9.8c5.1-3.7,7.2-7.2,7.4-7.4c0.5-0.9,0.3-2.1-0.6-2.6c-0.2-0.1-0.4-0.2-0.6-0.2l-1.2-3.9
			c1.3,0,4.7,0.2,7.6,1.8c2.1,1.1,5.2,4.2,6.7,5.9c1.2,3.7,1.9,8.2,1.9,13.5C252.2,405.9,249.6,412.3,244.4,417.9z M249.1,382.2
			c-1.6-1.6-3.5-3.3-5-4.1c-3.7-2-7.9-2-8.6-2l-2.9-9.4C236.4,367.9,244.6,371.8,249.1,382.2z M263.8,349.2
			c-12.8-2.1-29.7,2.1-35.4,3.7l-3.8-12.4c-0.5-1.8-1.8-3.2-3.4-4s-3.5-1-5.3-0.4l-18.1,5.8c-1-3-3.7-8.6-10.7-15.3
			c-8.3-7.9-15.4-10-20.1-10.2c3.3-2.3,5.4-3.6,5.6-3.7l-2-3.2c-0.4,0.2-1.6,1-3.5,2.2c-0.5-2.8-1.8-8.6-4-13.3
			c-1.2-2.4-3.2-5.6-4.8-7.7c3-2.4,5.4-5.5,6.6-7.3c0.7,0.5,1.3,1.1,2,1.6c7,6.6,8.6,14.5,10.1,21.5c0.8,3.9,1.5,7.3,3.1,10
			c3.8,6.6,15.4,8.7,21.1,9.7c0.8,0.2,1.6,0.3,1.9,0.4c2.7,0.8,6.2,1.3,8.3-0.6c0.9-0.8,1.7-2.5,0.9-5.4c-1.1-3.6-4.4-5.7-7.6-7.5
			c-3-1.7-6-3.6-7.6-6.6c-1-1.8-1.1-5.3-1.3-9.7c-0.4-7.6-0.8-18-5.7-29.5h14.6c3.1,10,11.4,17.1,21.2,17.1
			c12.1,0,22-10.9,22.4-24.7c1.5-0.4,4.8-1,7.3-1c5.7-0.1,7.4,0.5,7.9,0.8c0.7,12.8,9.6,23,20.4,23c9.2,0,17-7.4,19.6-17.4l4.8-0.9
			c-5.7,15.9-8.6,24.4-8,27.7c0.2,0.8,0.5,2.9,11.9,8.4c0,0,0.4,0.3,1,0.5c-3.3,2.8-10.9,10.3-16.5,25.1
			c-4.2,11.1-3.9,26.6-3.8,32.1c-3-1-5.5-2.1-7.9-3C278.4,352.8,272.7,350.6,263.8,349.2z M299.7,360.5c-0.2-5.7-0.3-20.4,3.6-30.8
			c5.7-15.3,14-22.6,16.5-24.6c4.8,3.1,11.4,7.4,18.1,12.6c-2.2,2.9-6.1,8.8-9.2,19c-2.6,8.6-1.6,18.8-1.3,21.3
			c-1.3,0.8-2.3,1.5-2.7,2.2c-0.5,1.1-0.4,2.8-0.2,6.3c-2.3-0.4-9.4-1.7-22.8-5.4C301.1,360.9,300.4,360.7,299.7,360.5z
			 M297.4,384.9c1.3,0.4,3.1-0.2,17.9-6.7c4.2-1.9,9.4-4.1,10.9-4.7l0.5,0.2l0.8-0.6c1.2-0.9,1.1-2.2,0.7-6.2
			c-0.1-0.7-0.2-1.7-0.2-2.7l1.4,1.8l0.2,0.1c0.3,0.1,0.6,0.1,1,0.1c3.7,0,11.1-3.3,13.8-5.3c0.6-0.4,1.1-0.9,1.3-1.4
			c1.5,2.1,3.4,4.8,5.2,7.7v0.2c0,0,0.1,0,0.2,0c2.2,3.6,4.3,7.3,5.6,9.7c2.2,4.7,4.8,11.4,5.7,13.6c-0.1,0.1-0.1,0.2-0.2,0.4
			c-3.9,7.8-9.5,13-16.3,15.2c-9.6,3.1-14.2,0.6-20-2.4c-3.2-1.7-6.9-3.6-11.8-4.6c-3.7-0.7-8.2-0.5-13.3-0.3
			c-5.7,0.3-12.2,0.5-19.6-0.3c-2.7-0.3-4.6-0.8-6-1.4c-0.6-2.2-2.1-7.1-3.2-10.8c0.6,0.3,1.3,0.5,2,0.5c0.1,0,0.2,0,0.2,0
			c3.3,0,13-4.8,14.6-6.3c0.6-0.6,0.9-1.9,0.9-3.1c0.2,0.2,0.4,0.4,0.5,0.5C294.5,382.8,296,384.4,297.4,384.9z M272.3,404.7
			c0.7-1.9,2.2-2.9,3.6-3.4c1.4,0.4,3.1,0.8,5.1,1c3.1,0.4,5.9,0.4,8.6,0.5c-1.3,2.2-3.2,5.7-3.6,9.3c-0.3,2.8,0.1,4.8,0.5,6.3
			c-5.6-1.3-11-2.9-14.8-4.8C271.1,411.8,270.7,408.7,272.3,404.7z M288,418.8c-0.5-1.3-1.2-3.4-0.8-6.6c0.4-3.9,2.5-7.5,3.9-9.5
			c3.6,0,6.9-0.1,10.1-0.3c4.1-0.2,7.8-0.4,10.8,0c-1.4,2.2-3.3,5.8-3.3,10.5c0,4.3,1.4,8.3,2.9,11.1c-1.7-0.8-3.6-1.5-5.9-2
			c-1.3-0.3-2.7-0.5-4.3-0.8C297.5,420.8,292.8,419.9,288,418.8z M288.2,375.6c0.1,0.1,0.2,0.3,0.4,0.4c0.1,1.5,0,3.1-0.5,3.7
			c-1.3,1.3-11.1,6.1-13.8,5.9c-1-0.1-1.9-0.5-2.6-1.1c-0.2-0.6-0.4-1.3-0.4-1.7C273.3,380.7,285,376.3,288.2,375.6z M267.5,410.5
			c-3.1-4.1-4.4-9.2-3.4-12.6c0.4-1.5,1.3-2.5,2.6-3.1c0.6-0.3,0.9-0.3,0.9-0.3c0.2,0.1,0.4,0.5,0.6,0.9c0.9,1.5,2.2,3.7,5.9,5.2
			c-1.3,0.7-2.4,1.8-3.1,3.5c-1.3,3.5-1.3,6.5-0.9,8.5C269,412.1,268.1,411.3,267.5,410.5z M312.7,434.4
			c-1.4,4.2-8.2,13.8-16.4,12.3c-5.2-1-10.8-15-13.6-25.2c5.5,1.4,11.6,2.6,17.7,3.7c1.6,0.3,3.1,0.5,4.3,0.8
			c3.7,0.7,6.1,2.1,8.5,3.8C313.4,430,313.7,431.5,312.7,434.4z M315.7,426.8C315.6,426.8,315.6,426.7,315.7,426.8L315.7,426.8
			c-0.8-0.5-1.5-1.1-2.3-1.5c-1.5-2.8-3.6-7.3-3.6-12.2c0-4.7,2.2-8.4,3.5-10.3c0.1,0,0.2,0,0.3,0c4.3,0.8,7.6,2.5,10.8,4.2
			c3.1,1.6,6.1,3.1,9.8,3.9c-0.8,2.3-2,6.7-2,12.7c0,5.6,1.9,9.5,3.1,11.6c-9.3-0.9-13.6-4-17.7-7.1
			C316.9,427.7,316.3,427.2,315.7,426.8z M345.8,435.3c-3.5,0.2-6.5,0.2-9.1,0c-1.1-1.5-3.5-5.7-3.5-11.8c0-5.9,1.2-10.3,2-12.5
			c3.2,0.4,7.1,0.1,11.8-1.4c3.7-1.2,7.1-3.1,10.1-5.7c1.2,0.5,7.3,3.3,9.8,8.3c2.2,4.4,2.2,12.6,2.1,15.6
			C361.4,432.2,353.4,434.9,345.8,435.3z M370.3,427c0.1-3.7,0-11.1-2.2-15.4c-2.5-4.8-7.9-7.6-9.9-8.6c2.9-2.8,5.4-6.3,7.4-10.4
			c1.3-2.5,2.2-5.1,3.1-8c2.3-0.8,7.4-1.9,13,0.5c10.9,4.6,14.2,13,14.7,14.9C389.8,411.4,380.5,420.7,370.3,427z M397.4,398.6
			c-1.3-3.1-5-10.4-15.1-14.6c-5.5-2.3-10.3-1.6-13.1-0.8c1.8-6.6,2.6-13.6,2.2-20.5c0.8-0.6,9.4-7.1,22-5.2
			c7.1,1.1,11.6,4.4,13.8,6.5c-0.1,1.4-0.2,3-0.3,4.5C406.1,379.3,402.6,389.6,397.4,398.6z M410.9,350.9
			c-1.4-21.2-8.6-39.8-18.8-54.5c0.1-0.1,0.3-0.3,0.4-0.4c2.3,0.6,13.3,3.9,21.1,10.9c11,10.1,12.8,23.5,13.2,27.5
			C420.9,342.2,414.5,347.9,410.9,350.9z M441.6,317.2c2.3,2.9,6.1,8.2,7,14.7c0.5,4.1,0.3,7.6-0.5,10.8c-1.3-2.2-4-5.4-9.1-6
			c-4.9-0.6-8.3,2-10.2,3.9l-0.7-1.4C433.2,333.1,438.3,325.6,441.6,317.2z M428.6,351.3c1.2-3.5,2.2-6.6,0.9-9.3l-0.1-0.2
			c1.5-1.8,4.8-4.6,9.4-3.9c5.5,0.7,8,4.9,8.8,6.6c-0.8,2.7-1.9,5.2-3.1,7.6c-2.2,4.8-4.1,9.3-3.8,14.9c-1.7-1.8-4.2-3.1-8.8-2.1
			c-2.6,0.5-4.6,2.1-5.9,3.6C425.3,360.7,427.2,355.4,428.6,351.3z M426.5,371.2c-0.1-0.4-0.1-0.7-0.2-1.1c1.2-1.4,3.1-3.4,6-4
			c5.1-1.1,7.1,0.8,8.8,3.1c0.2,0.9,0.4,1.9,0.8,2.9c1,3,2.2,5.4,3.8,7.5c-0.7,0-1.4,0.2-2.2,0.4c-3.1,1.2-4.5,4.2-5.1,6
			C432.6,382.4,427.6,377.4,426.5,371.2z M458.9,394.8c-2.1-0.4-11.3-3-19.5-8c0.4-1.4,1.7-4.5,4.4-5.5c1.1-0.4,2-0.4,2.8-0.4
			c4.4,5.6,10.2,8.5,14.5,10.8c1.9,1,3.5,1.8,4.3,2.5c0,0,0.1,0,0.1,0.1C464.4,394.8,461.4,395.2,458.9,394.8z"/>
		<path class="st17" d="M265.3,333.7c-2.5,3.2-5.4,6.7-6.5,7.8c-2-0.9-8.8-5.7-14.4-9.4c-6.6-4.5-13.3-9.2-16.1-10.5l-1.1,2.2
			c2.6,1.3,9.3,5.9,15.8,10.3c12.4,8.5,14.8,10.1,16,10.1c0.1,0,0.3,0,0.4,0c0.9-0.2,2-1.3,7.9-8.8c4-5.1,10.9-13.7,12.6-14.3
			l-0.4-2.5C277.3,318.8,273.5,323.3,265.3,333.7z"/>
		<path class="st17" d="M225.8,237.9c-9.5,0-17.2,9.2-17.2,20.5s7.7,20.5,17.2,20.5s17.2-9.2,17.2-20.5S235.3,237.9,225.8,237.9z
			 M213.7,265.2c0-4.8,3.6-8.8,8-8.8s8,3.9,8,8.8s-3.6,8.8-8,8.8S213.7,270,213.7,265.2z M225.8,276.6c-0.8,0-1.5-0.1-2.2-0.3
			c4.9-0.9,8.7-5.6,8.7-11.1c0-6.3-4.7-11.3-10.5-11.3c-5,0-9.2,3.9-10.2,9.1c-0.3-1.4-0.4-2.9-0.4-4.4c0-10,6.6-18,14.7-18
			s14.7,8.1,14.7,18C240.5,268.4,233.9,276.6,225.8,276.6z"/>
		<path class="st17" d="M283.6,277.5c8.6,0,15.6-8.9,15.6-19.7c0-10.9-7-19.7-15.6-19.7c-8.6,0-15.6,8.9-15.6,19.7
			C267.9,268.6,274.9,277.5,283.6,277.5z M272.5,263.7c0-4.8,3.4-8.6,7.5-8.6c4.1,0,7.5,3.9,7.5,8.6c0,4.8-3.4,8.6-7.5,8.6
			C275.9,272.4,272.5,268.5,272.5,263.7z M283.6,240.4c7.3,0,13.1,7.7,13.1,17.2c0,9.5-5.9,17.2-13.1,17.2c-0.6,0-1.3-0.1-2-0.2
			c4.8-0.8,8.6-5.4,8.6-11c0-6.1-4.5-11.1-10.1-11.1c-4.4,0-8.2,3.1-9.5,7.5c-0.1-0.8-0.2-1.6-0.2-2.4
			C270.4,248.1,276.3,240.4,283.6,240.4z"/>
		<path class="st17" d="M113.6,216.7l3.9-0.6c1.6-0.3,2.7-1.7,2.4-3.3l-0.6-3.9c-0.3-1.6-1.7-2.7-3.3-2.4l-3.9,0.6
			c-0.8,0.1-1.4,0.5-1.9,1.2c-0.4,0.6-0.6,1.4-0.5,2.2l0.6,3.9c0.2,1.4,1.4,2.5,2.9,2.5C113.3,216.8,113.4,216.8,113.6,216.7z
			 M111.5,214.1l-0.6-3.9c-0.1-0.4,0-0.9,0.3-1.3s0.6-0.6,1.1-0.6l3.9-0.6c0.1,0,0.2,0,0.3,0c0.8,0,1.5,0.6,1.6,1.4l0.6,3.9
			c0.2,0.9-0.4,1.8-1.3,1.9l-3.9,0.6c-0.4,0.1-0.9,0-1.3-0.3C111.8,214.9,111.5,214.6,111.5,214.1z"/>
		<path class="st17" d="M124.6,212.1c0.2,1.4,1.4,2.5,2.9,2.5c0.2,0,0.3,0,0.4,0l3.9-0.6c0.8-0.1,1.4-0.5,1.9-1.2
			c0.4-0.6,0.6-1.4,0.5-2.2l-0.6-3.9c-0.3-1.6-1.7-2.7-3.3-2.4l-3.9,0.6c-1.6,0.3-2.7,1.7-2.4,3.3L124.6,212.1z M125.5,206.8
			c0.3-0.4,0.6-0.6,1.1-0.6l3.9-0.6c0.1,0,0.2,0,0.3,0c0.4,0,0.7,0.1,1,0.4c0.4,0.3,0.6,0.6,0.6,1.1l0.6,3.9c0.1,0.4,0,0.9-0.3,1.3
			c-0.3,0.4-0.6,0.6-1.1,0.6l-3.9,0.6c-0.9,0.2-1.8-0.4-1.9-1.3l-0.6-3.9C125.2,207.6,125.3,207.1,125.5,206.8z"/>
		<path class="st17" d="M136.7,225.2c0.4-0.6,0.6-1.4,0.5-2.2l-0.6-3.9c-0.3-1.6-1.7-2.7-3.3-2.4l-19.3,3c-1.6,0.3-2.7,1.7-2.4,3.3
			l0.6,3.9c0.2,1.4,1.4,2.5,2.9,2.5c0.2,0,0.3,0,0.4,0l19.3-3C135.6,226.1,136.2,225.8,136.7,225.2z M115.3,228
			c-0.9,0.2-1.8-0.4-1.9-1.3l-0.6-3.9c-0.2-0.9,0.4-1.8,1.3-1.9l19.3-3c0.1,0,0.2,0,0.3,0c0.8,0,1.5,0.6,1.6,1.4l0.6,3.9
			c0.1,0.4,0,0.9-0.3,1.3c-0.3,0.4-0.6,0.6-1.1,0.6L115.3,228z"/>
		<path class="st17" d="M360.8,189.2c-1.2-0.4-2.3-0.3-3.3,0.3l-7.6,3.9c-1.1,0.5-1.8,1.4-2.2,2.6c-0.4,1.2-0.3,2.3,0.3,3.3
			c0.5,1,1.4,1.8,2.6,2.2c0.5,0.2,1,0.3,1.5,0.2c0.6,0,1.3-0.2,1.8-0.4l7.6-3.9c1.1-0.5,1.8-1.4,2.2-2.6c0.4-1.2,0.3-2.3-0.3-3.3
			C362.9,190.2,362,189.5,360.8,189.2z M360.9,196.2l-7.6,3.9c-0.7,0.4-1.6,0.4-2.4,0.2c-0.8-0.3-1.4-0.8-1.9-1.5
			c-0.4-0.7-0.4-1.6-0.2-2.4c0.3-0.8,0.8-1.4,1.5-1.9l7.6-3.9c0.4-0.2,0.9-0.4,1.3-0.4c0.4,0,0.7,0,1.1,0.2c0.8,0.3,1.4,0.8,1.9,1.5
			C363.1,193.4,362.4,195.4,360.9,196.2z"/>
		<path class="st17" d="M204.1,356c-0.3-1.3-1.2-2.4-2.3-3.2c-1.2-0.7-2.5-1-3.9-0.6l-4.9,1.2c-2.8,0.6-4.5,3.4-3.9,6.2l1.2,4.9
			c0.3,1.3,1.2,2.4,2.3,3.2c0.8,0.5,1.8,0.8,2.7,0.8c0.4,0,0.8-0.1,1.2-0.2l4.9-1.2c2.8-0.6,4.5-3.4,3.9-6.2L204.1,356z M201.2,366
			l-4.9,1.2c-1,0.3-2.1,0.1-3-0.4c-0.9-0.5-1.5-1.4-1.7-2.4l-1.2-4.9c-0.4-2.1,0.8-4.2,2.9-4.7l4.9-1.2c0.3-0.1,0.6-0.1,0.9-0.1
			c0.7,0,1.4,0.2,2.1,0.6c0.9,0.5,1.5,1.4,1.7,2.4l1.2,4.9C204.6,363.3,203.2,365.4,201.2,366z"/>
		<path class="st17" d="M197.2,356c-2.3,0-4.2,1.9-4.2,4.2s1.9,4.2,4.2,4.2s4.2-1.9,4.2-4.2S199.6,356,197.2,356z M197.2,363.3
			c-1.6,0-3-1.3-3-3s1.3-3,3-3s3,1.3,3,3S198.9,363.3,197.2,363.3z"/>
	</g>
	
		<ellipse transform="matrix(0.5476 -0.8367 0.8367 0.5476 20.764 279.4259)" class="st15" cx="268.8" cy="120.5" rx="13.5" ry="23.1"/>
</g>
</svg>
