<?xml version="1.0" encoding="utf-8"?>
<!-- Generator: Adobe Illustrator 27.3.1, SVG Export Plug-In . SVG Version: 6.00 Build 0)  -->
<svg version="1.1" id="Layer_1" xmlns="http://www.w3.org/2000/svg" xmlns:xlink="http://www.w3.org/1999/xlink" x="0px" y="0px"
	 viewBox="0 0 500 500" style="enable-background:new 0 0 500 500;" xml:space="preserve">
<style type="text/css">
	.st0{fill:#88B8FD;}
	.st1{fill:#FFFFFF;}
	.st2{fill:#3C9EEF;}
	.st3{fill:#3AC6F4;}
	.st4{fill:#000080;}
	.st5{fill:#EBF1F4;}
	.st6{fill:none;}
	.st7{fill:#C00000;}
	.st8{opacity:0.4;fill:#1B3E5E;enable-background:new    ;}
	.st9{opacity:0.4;fill:#55285B;enable-background:new    ;}
	.st10{opacity:0.4;}
	.st11{fill:#55285B;}
	.st12{fill:#1B3E5E;}
	.st13{opacity:0.3;fill:#FFFFFF;enable-background:new    ;}
	.st14{fill:#010101;}
	.st15{opacity:0.31;fill:#3F5C7E;enable-background:new    ;}
</style>
<g>
	<g>
		<path class="st0" d="M216.4,354.4c-6.3-9-51.5-191.2-15.1-222.9s78.5-26.1,97.3-22.6c47.6,8.9,59.8,118.6,65.4,150.3
			c5.5,31.7,6.2,58.2,6.4,66.9c0,3.4-23.6,63.4-27.4,70.1s-72.8,11.8-78.5,9.1S216.4,354.4,216.4,354.4"/>
		<path class="st1" d="M351.8,199.7c0,0,14.7-8,27.3-22.4c12.6-14.4,34.3-36.6,34.3-36.6s15.2,50.1-2.3,81.2
			c-23.9,42.6-48.5,48.3-48.5,48.3L351.8,199.7z"/>
		<path class="st1" d="M100.1,255.2c0,0,29-1.9,50.8-10.3c21.8-8.3,36.9-15.7,36.9-15.7l13.4,74.6c0,0-43.1-4.2-58.7-12.9
			C108.5,272.1,100.1,255.2,100.1,255.2z"/>
		
			<ellipse transform="matrix(0.1557 -0.9878 0.9878 0.1557 20.7413 377.8808)" class="st1" cx="231.4" cy="176.8" rx="28.7" ry="28.7"/>
		<path class="st1" d="M329.1,170.1c-0.6,15.9-13,28.3-27.7,27.8c-14.7-0.6-27.2-13.9-26.6-29.8s14-28.3,28.7-27.7
			C318.3,140.8,329.7,154.2,329.1,170.1z"/>
		<path class="st2" d="M253.6,178.6c-0.4,11.8-11.4,21-23.2,20.5c-11.8-0.4-21-10.4-20.6-22.2c0.4-11.8,10.4-22.1,22.2-21.6
			C243.8,155.8,254,166.8,253.6,178.6z"/>
		
			<ellipse transform="matrix(3.776212e-02 -0.9993 0.9993 3.776212e-02 121.0311 464.9686)" class="st2" cx="302" cy="169.6" rx="21.6" ry="20.3"/>
		
			<ellipse transform="matrix(3.776215e-02 -0.9993 0.9993 3.776215e-02 38.9543 403.1071)" class="st3" cx="228.8" cy="181.3" rx="16.7" ry="16.7"/>
		<path class="st3" d="M316.9,175.1c-0.3,8.9-7.9,15.9-16.8,15.6s-17-7.9-16.6-16.8s8.9-16.9,17.9-16.6S317.2,166.1,316.9,175.1z"/>
		<path class="st4" d="M188.2,216.6c0,0,32.2,7.7,43.4,8.6s42.1-1.2,42.1-1.2s2.4,4.3,4.8,5s4.1-5.3,4.1-5.3s29.5-6.3,41.3-11
			c13.3-5.3,28-16.2,28-16.2l7.5,37.6c0,0-15.3,17.6-18.6,22.4c-3.3,4.9-19.5,18.7-19.5,18.7l-69.4,5.5c0,0-24.3-7.5-32-11.2
			s-27.1-12.3-27.1-12.3L188.2,216.6z"/>
		<path class="st1" d="M321.6,270.9c-0.7,19.7-19.7,35-38.4,34.3c-18.7-0.7-33.3-17.3-32.5-37c0.7-19.7,16.5-35.1,35.2-34.4
			C304.7,234.5,322.4,251.1,321.6,270.9z"/>
		<path class="st5" d="M315.2,270.5c-0.6,14.7-14.1,26.2-30.3,25.6c-16.2-0.6-28.8-13.1-28.3-27.8c0.6-14.7,14.2-28.3,30.4-27.7
			C303.2,241.2,315.8,255.8,315.2,270.5z"/>
		<path class="st1" d="M192.8,257.2c0,0,12.8,6.9,27.1,12.3c14.2,5.4,32,11.2,32,11.2s10,23.7,31.4,24.4s35.7-21.4,36.8-25.7
			c1.2-4.3,14.1-14.6,20.7-23c6.6-8.3,18.6-22.4,18.6-22.4l6.5,40.2c0,0-23.7,31.4-31.9,36.9c-8.2,5.5-31.3,25-31.3,25
			s-42.8-11-56.6-15.1c-22.6-6.6-46.2-23.1-46.2-23.1L192.8,257.2z"/>
		<line class="st6" x1="187.8" y1="213.3" x2="188.4" y2="213.3"/>
		<path class="st1" d="M188.4,211.6c0,0,26.6,7.1,41.7,7.7c15.1,0.6,41.4,0.1,41.4,0.1l2.3,4.5c0,0-30,2.9-45.5,0.8s-40-8.2-40-8.2
			L188.4,211.6z"/>
		<path class="st1" d="M282.6,223.7l1.5-5.5c0,0,30.1-6.3,35.2-8.3c11.7-4.5,30.7-17.4,30.7-17.4l1.9,4c0,0-24.5,16.6-32.8,18.8
			C310.8,217.6,282.6,223.7,282.6,223.7z"/>
		<path class="st7" d="M278.5,229c0,0-4.8-3.9-8.1-9.6c-3.3-5.6-4.3-9.8-4.3-9.8s0.8-7,1.7-11.5c0.7-3.6,3.2-9.8,3.2-9.8
			s6.8,7,8.6,10.6s4.6,10,4.6,10s0.4,3.5-0.1,9.1C283.4,226.3,278.5,229,278.5,229z"/>
		<path class="st4" d="M202.3,300.9c0,0,29.5,16.2,43.7,20.1c14.3,4,56.6,15.1,56.6,15.1s31.1-23.3,37.9-31s25.3-30.9,25.3-30.9
			l2.7,38.9c0,0-20.3,25.4-28,31.6s-35.6,24.2-35.6,24.2s-36.2-7.3-49.9-11.7c-13.7-4.4-46.3-21.2-46.3-21.2L202.3,300.9z"/>
		<path class="st1" d="M263.4,405.3l-14.2-16c0,0,26.2,5.9,50.1,1s49.6-10.5,49.6-10.5l-5,17.5c0,0-24.1,5.5-43.7,6.2
			C280.7,404.2,263.4,405.3,263.4,405.3z"/>
		<path class="st0" d="M100.1,255.2c0,0-23.3,4.5-44.2,4.7s-40.4-0.3-40.4-0.3L32,279.7c14.8,2.3,30.2,4.8,44.9,5.1
			c15.7,0.4,38.6-1.8,38.6-1.8s-13.4,11.1-23.7,15.4c-10.3,4.4-44.7,2.2-44.7,2.2L80,320.3c0,0,26.2-0.7,36.1-8.1
			s22.6-15.1,22.6-15.1s-1.2,11.7-8.5,22.5c-6,8.8-22.8,17.3-22.8,17.3l28.4,5.5c0,0,13.2-7.1,19.4-18c6.3-10.9,9.4-16.6,9.4-16.6
			s4,13.7,1.2,21.1s-7.2,16-7.2,16l15.9-1c0,0,6.5-3.1,10.5-15.5c3.6-11.2,4.2-17,4.2-17s7.1,4.2,7.6,10.8
			c0.5,6.6-2.6,15.1-2.6,15.1l7.8-1.1l4.1-5.8l-5.2-26.5c0,0-38.9-1.7-66.7-18.4C106.4,268.6,100.1,255.2,100.1,255.2z"/>
		<path class="st0" d="M366.4,268.6l1.9,23c0,0,1.2,0.1,2.9-3.3c1.7-3.4,1.3-5.9,1.3-5.9s3.1,3.3,9.6,5.3c7.6,2.4,21.6,0.2,21.6,0.2
			s-8.9-4.4-12.8-9.3C386.4,273,388,265,388,265s0.2,3,13.6,6.7s25,3.3,25,3.3l14.7-14.5c0,0-9.6,2.9-18.1,0.4
			c-8.7-2.6-14.7-12.5-14.7-12.5s9.3,3.5,17.9,3.6c9.8,0.1,26.3-7.1,26.3-7.1l11.8-14.8c0,0-16.3-0.3-27.9-0.4
			c-11.6-0.2-18-7.6-18-7.6s9.2,0.9,26.9-2.9c17.5-3.7,25.6-12.8,25.6-12.8l8.1-29.8c0,0-15.3,15.8-28.7,17.7
			c-13.3,1.9-19.9,0.2-19.9,0.2s21.2-19.2,29.9-24.7c8.7-5.5,10.9-19.6,12.8-23.3c1.8-3.7-2.6-29.3-2.6-29.3s-11.3,18.6-20.5,28.7
			s-21.4,14.2-21.4,14.2s21.3-30.5,27.7-46.2c6.4-15.7,5.5-27.2,5.5-27.2l-10.7-26c0,0-4.4,18.8-11.4,32.5S412,140.9,412,140.9
			s7.3,13,7,43.2c-0.4,37.8-21.8,59.2-27.1,66.1C387.1,256.8,366.4,268.6,366.4,268.6z"/>
		<polygon class="st1" points="178.1,92.4 183.4,89 211.8,121.7 200.2,131.5 		"/>
		<polygon class="st1" points="299.7,109 314.9,72.3 320.5,74.9 312.4,115.5 		"/>
		<ellipse class="st7" cx="176.4" cy="82.3" rx="9" ry="9"/>
		
			<ellipse transform="matrix(3.776220e-02 -0.9993 0.9993 3.776220e-02 242.4299 382.3798)" class="st7" cx="319.8" cy="65.3" rx="8.7" ry="8.7"/>
		<path class="st8" d="M271,188.4c0,0-0.3,8.3,1.9,19.8c2,10.5,6.6,21.9,6.6,21.9s-7.8-2.2-12.5-6.5s-7-7.6-6.5-10.5
			C262.2,204.5,271,188.4,271,188.4z"/>
		<path class="st8" d="M274.2,159.4c0,0-2.1,11.8-1.1,19.5c1,7.6,7.6,20.7,20.6,22.7c20,3.2,29.3-10.9,29.3-10.9
			s-17.6,11.4-29.1,5.6s-20.6-20.8-20.5-23.5C273.3,170.3,274.2,159.4,274.2,159.4z"/>
		<path class="st8" d="M252.9,252.7c0,0-4.6,20.8-2.2,27.7c3,8.3,12,20,27.8,23.9c16,4,33.6-9.5,33.6-9.5s-25.3,33.3-54.4,9.5
			C233.4,284.2,252.9,252.7,252.9,252.7z"/>
		<path class="st8" d="M183.8,88.5c0,0,1.8,2.5,0.2,4.6c-1.2,1.5-1.4,1.7-1.4,1.7L201,125l8.9-3.4l-11,10.9l-20.8-40.1l5.2-3.4
			L183.8,88.5z"/>
		<path class="st8" d="M187.8,229.3c0,0-1,25.3,1,41.7c4,33.5,17.6,59.4,17.6,59.4s-9.1-41.8-9.9-51.8
			C195.7,268.6,187.8,229.3,187.8,229.3z"/>
		<path class="st8" d="M98.4,256.4c0,0,16.2,27,47.7,39.4c33.1,13,51.5,8.8,51.5,8.8s-35.1-3.3-54.3-14.2
			C124.4,279.7,98.4,256.4,98.4,256.4z"/>
		<path class="st8" d="M22.5,259.8c0,0,5.3,12.6,12.5,15.9c21.3,9.5,80.3,5.8,80.3,5.8l-31.6,4.6L33,280.8l-17.5-21.2L22.5,259.8z"
			/>
		<path class="st8" d="M61.7,300.9c0,0-6.5,1.2-2.2,4s15.6,9.8,21.2,11.8c3.4,1.2,26.1-3.7,34.7-7.3c10.3-4.3,26-15.5,26-15.5
			l-23.2,18.6c0,0-16.8,5.9-24.1,6.7S82,322,82,322l-34.9-21.3L61.7,300.9z"/>
		<path class="st8" d="M109.4,336c0,0,1.4,1.5,10.7,3.3s15.8,3.1,15.8,3.1s18.9-12.8,21.7-17.5c2.8-4.8,7.9-21.5,7.9-21.5
			s-9.7,18.1-16.7,24.8c-7,6.7-9.5,8.9-14,10.2C130.3,339.7,109.4,336,109.4,336z"/>
		<path class="st9" d="M161.6,338.9l-3,6.6l18.5-2.1l8.1-17.6c0,0-5.6,9-9.5,14c-2.6,3.3-10.5,2.6-10.5,2.6
			C162.8,342.1,161.6,338.9,161.6,338.9z"/>
		<path class="st9" d="M197.1,330c0,0-0.1,4.1,2.4,4.1c2.6,0.1,6.7-5,6.7-5s0.6,3.4-1,4.7s-4.8,2.9-4.8,2.9l-6.1,1L197.1,330z"/>
		<path class="st8" d="M315.6,72.3l5.6,2.7c0,0-2.5,1.8-4.9,1.5l-14.1,31.7c0,0,3.1,2.3,5.8,4c2.3,1.5,5.1,3.4,5.1,3.4l-14.3-6.6
			L315.6,72.3z"/>
		<path class="st9" d="M318.3,57.1c0,0-6.7,2.6-2.8,9.9c2.9,5.6,9.5,4.3,9.5,4.3l-2.7,2.7c0,0-5.8,1.3-9-2.4
			c-3.3-3.8-2.5-9.2-0.5-11.1C314.8,58.5,318.3,57.1,318.3,57.1z"/>
		<path class="st9" d="M170.6,75.4c0,0-3.8,5.5,2.9,9.8s11.9-1.8,11.9-1.8l-2.1,5.6l-6.6,2.9l-7.3-3.5l-2.7-7.5L170.6,75.4z"/>
		<g class="st10">
			<path class="st11" d="M255.1,111.4C255.2,111.4,255.2,111.4,255.1,111.4C255.2,111.4,255.2,111.4,255.1,111.4z"/>
			<path class="st11" d="M331.5,399.8c0.1,0,0.2,0,0.2,0S331.6,399.7,331.5,399.8z"/>
			<path class="st12" d="M335.7,343.6c-5.7,5.6-34.2,25.8-36.5,24.6c-2.3-1.1-35.2-7.6-47.3-12.8c-3.8-1.6-9.4-4-15.4-6.5
				c-9.1-22.1-17.9-49.7-23.5-78.1c-4.9-24.5-6.9-60.8-6.9-60.8s16.4,3.5,25.1-0.4c9.1-4.1,17.8-12.9,17.8-12.9s-25.4,20.1-43.8-3.2
				c-7.3-9.3-5.1-26.4-3.2-30.3c1.9-4,12.6-12.4,12.6-12.4s3.3-12.7,12.4-25.8c8.7-12.7,23.2-14.6,24.3-14.8
				c-1.5,0.2-31.3,3.9-50,22.4c-19.1,19-11.8,92.4-9.1,119.1c2,19.9,12.7,61.7,20.6,87.4c-2.8-1.1-4.5-1.8-4.5-1.8s1.8,1.1,4.7,2.7
				c1,3.2,1.9,6.2,2.8,8.8c1,3,2.4,5.9,4.5,8.4l39.8,43.2l3.6,3.9c0,0,18-1.4,24.6-1.6c6.2-0.3,36.7-3.7,39.3-4
				c-3.5,0.4-52.7,5.8-63.7-2.4c-6.7-5.1-16.3-20.9-25.6-42.7c6.4,3.1,12.6,5.8,17.2,7.2c15.1,4.5,39.2,10.3,43.5,10.2
				c4.4-0.1,21.1-9.7,33.4-20.4c12.3-10.7,30.9-37,30.9-37S341.4,338,335.7,343.6z"/>
		</g>
		<path class="st8" d="M366.4,268.6c0,0,31.3-14.3,45.7-49.7c12.8-31.6,3.9-67.7,3.9-67.7s11.5,41.4-2.6,70.5
			C394.4,261.2,366.4,268.6,366.4,268.6z"/>
		<path class="st8" d="M368.1,267.4c0,0,1.4,5,7.2,10.3c5.8,5.3,11.1,8.2,14.4,8.2c3.2,0,7.9-1.7,7.9-1.7l6.3,3.7
			c0,0-14.4,2-17.8,2.1s-13.9-8.6-13.9-8.6s2.1,3.7-0.8,7s-2.9,3.3-2.9,3.3l-4.1-24.2L368.1,267.4z"/>
		<path class="st8" d="M386.3,262.4c0,0,11.2,5.8,20.3,7.7c9,1.9,14.8,1.2,18.3,1.6c3.6,0.3,11.1-9.4,11.1-9.4l3.4-2.6
			c0,0-8.5,12.7-11.3,14s-19.9,0.2-21.6,0C397,272.5,386.3,262.4,386.3,262.4z"/>
		<path class="st8" d="M403.6,246.3c0,0,9.7,1.1,22.5,1.6c11,0.4,18.3-2.3,22.4-3.8c4.1-1.6,14.2-14.4,14.2-14.4l3.2-0.8
			c0,0-10.9,16.7-14.3,18.4s-20.6,4.8-24.9,4.6C422.9,251.8,404.1,246.5,403.6,246.3z"/>
		<path class="st8" d="M413.5,221.7c0,0,39.1-6,43.8-9.3c4.7-3.3,7-3.9,9.4-6.8c2.5-2.9,10.1-24.6,10.1-24.6l2-2.3l-7.5,27.6
			l-4.8,5.2l-18.2,7L413.5,221.7z"/>
		<path class="st8" d="M429.6,194.4c0,0,25.7-22.3,29.9-28c4.1-5.7,9.9-15.8,10.5-20.1c0.6-4.3-0.2-24-0.2-24l4.1,16.6l-2.6,14.3
			l-6.9,13.4L429.6,194.4z"/>
		
			<ellipse transform="matrix(0.3116 -0.9502 0.9502 0.3116 89.5751 361.303)" class="st13" cx="294.1" cy="118.8" rx="4.7" ry="14"/>
		<ellipse class="st13" cx="178.5" cy="78.1" rx="2.3" ry="2.3"/>
		
			<ellipse transform="matrix(3.776217e-02 -0.9993 0.9993 3.776217e-02 248.806 380.8357)" class="st13" cx="322.2" cy="61.2" rx="2.2" ry="2.2"/>
		
			<ellipse transform="matrix(0.9909 -0.1345 0.1345 0.9909 -30.3062 49.594)" class="st13" cx="351.9" cy="249.1" rx="3.6" ry="66.2"/>
		<g id="inks">
			<path class="st14" d="M301.1,191.9c-12-0.5-21.3-10.9-20.9-23.4c0.5-12.4,10.6-22.2,22.6-21.7c12,0.5,21.3,10.9,20.9,23.4
				S313.1,192.4,301.1,191.9z M302.7,149c-10.8-0.4-20,8.4-20.4,19.7c-0.4,11.3,8,20.8,18.9,21.2c10.8,0.4,20-8.4,20.4-19.7
				S313.5,149.4,302.7,149z"/>
			<path class="st14" d="M272.4,406.8c-4.3-0.2-7.7-0.6-9.5-1.5l0,0c-4.1-2.2-38.8-39.3-44.8-46.6c-14.8-17.9-30.7-115.5-31.5-140
				c0-1.5-0.1-3.4-0.2-5.5c-1-20.5-3.4-68.5,19-88.2c21-18.5,81.3-28,105.8-11.7c25.6,17.1,40.5,69.9,48.4,111.2
				c9,46.8,11.8,91.7,11.4,101.7c-0.5,11.8-23.3,65.8-27.4,71.2c-3.1,4-32.6,7.2-38.5,7.8C300.6,405.6,283.7,407.2,272.4,406.8z
				 M264.4,402.5c3.4,1.8,19.8,1.6,39.8-0.4c20.7-2.1,35.2-5.1,36.8-6.7c3.9-5.1,26.3-58.3,26.8-69.3c0.4-9.9-2.4-54.4-11.3-100.9
				c-7.8-40.7-22.3-92.7-47-109.2c-23.5-15.7-81.7-6.4-102,11.4c-21.2,18.7-18.9,65.7-17.9,85.7c0.1,2.2,0.2,4.1,0.3,5.6
				c0.9,27,17.3,121.8,30.8,138.1C227.8,365.4,261.1,400.8,264.4,402.5L264.4,402.5z"/>
			<path class="st14" d="M284.3,306.6c-20.6-0.8-36.7-18.2-35.9-38.7c0.8-20.6,18.2-36.7,38.7-35.9c20.6,0.8,36.7,18.2,35.9,38.7
				S304.8,307.4,284.3,306.6z M287,235.1c-18.9-0.7-34.8,14-35.5,32.9s14,34.8,32.9,35.5s34.8-14,35.5-32.9S305.8,235.8,287,235.1z"
				/>
			<path class="st14" d="M284.7,298.4c-16.2-0.6-28.8-14.3-28.2-30.4c0.6-16.2,14.3-28.8,30.4-28.2c16.2,0.6,28.8,14.3,28.2,30.4
				C314.6,286.4,300.9,299.1,284.7,298.4z M286.9,241.9c-15-0.6-27.7,11.2-28.2,26.2s11.2,27.7,26.2,28.2
				c15,0.6,27.7-11.2,28.2-26.2C313.6,255.2,301.9,242.5,286.9,241.9z"/>
			<path class="st14" d="M230.7,207.8c-16.6-0.6-29.5-14.6-28.9-31.2s14.6-29.5,31.2-28.9s29.5,14.6,28.9,31.2
				C261.2,195.5,247.3,208.4,230.7,207.8z M232.9,150.9c-14.8-0.6-27.3,11-27.9,25.9c-0.6,14.8,11,27.3,25.9,27.9
				c14.8,0.6,27.3-11,27.9-25.9C259.3,164,247.7,151.4,232.9,150.9z"/>
			<path class="st14" d="M300.9,199.3c-16.4-0.6-29.2-14.4-28.5-30.8s14.4-29.2,30.8-28.5c16.4,0.6,29.2,14.4,28.5,30.8
				C331.1,187.1,317.2,199.9,300.9,199.3z M303,143.1c-14.6-0.6-27,10.9-27.5,25.5c-0.6,14.6,10.9,27,25.5,27.5
				c14.6,0.6,27-10.9,27.5-25.5C329.1,156,317.6,143.7,303,143.1z"/>
			<path class="st14" d="M367.6,293.3c-0.7,0-1.1-0.5-1.3-0.8c-0.8-1.4,0.5-2.3,2.4-3.7c2.6-1.9,2.3-6.7,2.3-6.7l-0.3-3.5l2.8,2.2
				c0,0,4.5,3.5,9.4,6c2.9,1.5,10.7,0.9,16,0.2c-3.2-2.2-7.6-5.3-9.2-7.3c-2.6-3.2-3.3-13.2-3.3-14.3l-0.2-3l2.6,1.5
				c0.1,0.1,12.8,7.7,18.6,8.4l1.6,0.2c5.8,0.7,14.7,1.8,17.9,0.5c2-0.8,6.3-5.5,9.8-9.7c-3.2,0.3-8,0.3-13.3-1.5
				c-9.6-3.2-17.4-12.6-17.7-13l-3-3.7l4.6,1.1c7.5,1.9,18.9,4.3,20.9,3.9c0.5-0.1,1.1-0.2,2-0.3c4.6-0.7,15.5-2.5,19.7-5.2
				c5-3.3,10.4-10,13.3-13.7c-6.6,0.5-20.9,1.4-28.4,0.6c-7.7-0.8-16.9-8-17.3-8.3l-3.1-2.5l4-0.3c0.2,0,23-2,30.7-3.9
				c12-2.9,19.3-8.3,21.2-11.3c1.3-2,4.5-14.5,6.8-24.4c-4,3.3-10.6,8.4-17.5,11.6c-10.9,5-28.1,3.3-28.9,3.3l-4-0.4l3.2-2.4
				c8.8-6.7,32.4-25.1,35-29.4c3.3-5.4,6.3-13.4,7.5-18.2c0.7-2.9-0.8-14.1-2.3-23.1c-3.2,5.8-9.6,16.7-17.4,24.8
				c-11.1,11.5-23.2,14.2-23.7,14.3l-4.1,0.9l2.5-3.3c0.2-0.3,19.5-26.3,26.5-39.6c7.5-14.1,7-28.4,6.7-32.4
				c-0.3-3.7-5.4-15.8-9-23.8c-2.2,13.9-12,51.7-54.3,98.7c-17.3,19.1-43.4,39.6-43.6,39.8l-1.9-2.5c0.3-0.2,26.2-20.5,43.2-39.5
				c51.9-57.5,54.2-102,54.2-102.4l0.2-6.5l2.7,5.9c0.5,1,11.1,23.8,11.6,30c0.3,4.3,0.8,19.3-7,34.2c-5.5,10.5-18.1,28.2-23.9,36
				c4.3-1.8,11.2-5.3,17.6-11.9c10.6-11,18.9-27.9,19-28.1l2.1-4.3l0.9,4.7c0.5,2.4,4.4,23.8,3.1,28.9c-1.2,5-4.4,13.4-7.9,19.1
				c-2.9,4.7-23.8,21.1-32.4,27.7c5.7,0.2,16,0,23.1-3.2c10.3-4.7,20.3-14.2,20.4-14.2l3.8-3.6l-1.1,5.1c-0.6,2.7-6,26.7-8.3,30.2
				c-2.7,4.2-10.9,9.7-23.1,12.6c-5.9,1.4-19.8,2.9-26.9,3.5c3.2,2.1,8.1,4.8,12.2,5.2c9.4,1,31-0.9,31.2-0.9l3.3-0.3l-1.9,2.7
				c-0.3,0.5-8.4,12.3-16.1,17.3c-4.7,3.1-15.7,4.9-20.9,5.7c-0.8,0.1-1.5,0.2-1.9,0.3c-2.4,0.4-11.1-1.4-17-2.7
				c3,2.9,7.6,6.6,12.7,8.3c8.7,2.9,15.7,0.7,15.7,0.6l4.9-1.6l-3.1,4.1c-1,1.3-9.6,12.3-13.7,14c-3.7,1.5-11,0.8-19.5-0.3l-1.6-0.2
				c-4.8-0.6-13-4.9-17.2-7.3c0.4,3.7,1.2,8.1,2.4,9.5c1.8,2.2,9.2,7.1,11.9,8.9l3.4,2.2l-3.9,0.7c-1.7,0.3-16.5,2.9-22,0.1
				c-3-1.5-5.7-3.3-7.5-4.6c-0.3,2.1-1.2,4.8-3.5,6.4c-1.3,0.9-1.6,1.2-1.6,1.2c0.3-0.3-0.5,0.5-0.9-0.1c-0.3-0.5,0,0-0.4,0l1.4,0.5
				C368.4,293.3,368,293.4,367.6,293.3z"/>
			<path class="st14" d="M155.9,346.9l1.4-2.3c0.1-0.1,5.9-9.8,7.4-16.1c1-3.8,0.1-11-0.7-16c-1.6,3.7-3.9,8.7-6.5,12.4
				c-4.7,6.9-13.6,15-18.6,18c-5.3,3.1-29.1-3.4-33.8-4.7l-6.1-1.7l6.2-1.3c0.1,0,13.7-3,22.2-13.8c3-3.8,6.8-14.2,8.9-20.4
				c-4.3,3.4-11.2,8.7-15.4,11.8c-6,4.4-31.1,9.9-38.9,9.2c-7.5-0.6-34.2-18.2-37.2-20.2l-4.5-3l5.4,0.1c16.5,0.4,42.4,0.3,46.2-1.4
				c6.9-3.1,14.5-8.9,18.9-12.5c-7.8,0.6-23,1.8-31,1.7c-10.2-0.1-40.1-3.4-46.8-5.9c-6.4-2.4-17.6-19-18.8-20.9l-1.8-2.6l3.2,0.2
				c0.7,0,70.7,4.4,124.6-11.5c26.3-7.7,47.7-19.4,47.9-19.5l0.4,3.8c-0.2,0.1-20.8,10.9-47.4,18.7c-47.8,14.1-108,12.4-122.5,11.7
				c4.1,5.8,11.6,15.5,15.5,17c5.8,2.2,34.9,5.6,45.7,5.7c10.6,0.1,35.3-2.1,35.6-2.1l4.6-0.4l-3.4,3.1
				c-0.5,0.5-12.4,11.3-23.4,16.2c-4.7,2.1-30.3,2-42.1,1.8c9.8,6.3,26.4,16.3,31.2,16.7c7.1,0.6,31.5-4.7,36.8-8.6
				c6.5-4.8,19.3-14.9,19.4-15l4-3.1l-1.5,4.8c-0.3,0.8-6.3,20.3-11,26.3c-5.8,7.4-13.6,11.3-18.7,13.2c10.6,2.7,23.5,5.2,26.1,3.6
				c4.7-2.8,13.3-10.7,17.6-17c4.3-6.2,8.1-16.7,8.2-16.8l1.9-5.2l1.1,5.4c0.1,0.6,3.3,15.9,1.6,22.8c-1.2,4.8-4.5,11.2-6.4,14.6
				c4.8,0,10.9-0.4,12.9-1.6c3.4-2.2,7.2-8.1,9.2-14.4c0.1-0.5,0.4-1,0.6-1.7c1.1-3,3-8.1,3.1-15.1v-3.1l2.5,1.9
				c0.2,0.2,5.3,4,7.8,10.6c2,5.3,0,11.9-1.3,15.3c1.5-0.1,3.5-0.3,5.1-1c2.4-1.1,4.5-5,5.1-6.5l2.9,1.2c-0.3,0.6-2.8,6.3-6.7,8.1
				c-3.8,1.7-8.7,1.3-8.9,1.3l-2.3-0.2l1-2.1c0-0.1,4.4-9,2.1-15.1c-1.1-3-2.9-5.4-4.3-7c-0.5,5.9-2.2,10.2-3.1,12.8
				c-0.2,0.6-0.4,1.1-0.5,1.5c-2.2,7-6.5,13.4-10.5,16.1c-3.9,2.5-15.9,2.1-17.3,2.1L155.9,346.9z"/>
			<path class="st14" d="M202.1,183.5l-6.3-0.2c-1.2,0-2.1-1-2-2.2c0-1.2,1-2.1,2.2-2l6.3,0.2c1.2,0,2.1,1,2,2.2
				C204.2,182.6,203.2,183.5,202.1,183.5z"/>
			<path class="st14" d="M199,196c-0.8,0-1.5-0.5-1.8-1.3c-0.5-1.1,0-2.3,1.1-2.8l6.6-2.8c1.1-0.5,2.3,0,2.8,1.1s0,2.3-1.1,2.8
				l-6.6,2.8C199.6,195.9,199.3,196,199,196z"/>
			<path class="st14" d="M206.1,207.4c-0.5,0-1-0.2-1.3-0.6c-0.8-0.8-0.9-2.1-0.1-3l5.3-5.6c0.8-0.8,2.1-0.9,3-0.1
				c0.8,0.8,0.9,2.1,0.1,3l-5.3,5.6C207.2,207.2,206.6,207.4,206.1,207.4z"/>
			<path class="st14" d="M332,193.7c-0.5,0-1-0.2-1.4-0.6l-5.4-5.4c-0.8-0.8-0.8-2.1,0-3c0.8-0.8,2.1-0.8,3,0l5.4,5.4
				c0.8,0.8,0.8,2.1,0,3C333.2,193.5,332.6,193.7,332,193.7z"/>
			<path class="st14" d="M337.4,180.6c-0.1,0-0.1,0-0.2,0l-6.6-0.9c-1.1-0.2-1.9-1.2-1.8-2.4s1.2-1.9,2.4-1.8l6.6,0.9
				c1.1,0.2,1.9,1.2,1.8,2.4C339.4,179.9,338.5,180.6,337.4,180.6z"/>
			<path class="st14" d="M331.2,169c-1,0-1.8-0.8-2-1.8c-0.2-1.1,0.6-2.2,1.7-2.4l5.3-0.8c1.1-0.2,2.2,0.6,2.4,1.7
				c0.2,1.1-0.6,2.2-1.7,2.4l-5.3,0.8C331.5,169,331.4,169,331.2,169z"/>
			<path class="st14" d="M197.6,304.6c-8.5-0.3-32.5-2.1-51.2-11.5c-34.6-17.5-47.5-36-48-36.7l1.7-1.2c0.1,0.2,13.2,18.8,47.2,36.1
				c22.5,11.4,53,11.4,53.3,11.4v2.1C200.6,304.7,199.5,304.7,197.6,304.6z"/>
			<path class="st14" d="M364.8,269.4l-0.6-2c0.3-0.1,29.5-9,46-47.6c16.6-38.7,2.3-78.7,2.2-79.1l2-0.7c0.1,0.4,14.7,41.2-2.2,80.7
				C395.2,260.2,365.1,269.4,364.8,269.4z"/>
			<g>
				<path class="st6" d="M277.4,220.1c-1.7,0.2-3.5,0.4-5.2,0.6c0.5,0.8,1.1,1.6,1.6,2.3c1.4-0.1,2.8-0.3,4.2-0.5
					c1.3-0.2,2.5-0.3,3.8-0.5c0.2-0.8,0.3-1.7,0.5-2.5C280.7,219.7,279,219.9,277.4,220.1z"/>
				<path class="st6" d="M282.6,217.3c0.5-3.9,0.6-7.5,0.4-8.8c-0.6-3.3-9.7-17.5-12-18.9c-1.6,1.9-3.5,15.1-3.7,20.3
					c-0.1,1.7,1.6,5.3,3.7,8.8c2-0.2,4.1-0.4,6.2-0.7C279,217.8,280.8,217.5,282.6,217.3z"/>
				<path class="st6" d="M275.3,224.9c1.5,1.8,2.9,3.1,3.9,3.4c0,0,0.1,0,0.3-0.1c0.7-0.6,1.3-2.1,1.8-4c-1,0.1-2,0.3-3,0.4
					C277.3,224.7,276.3,224.8,275.3,224.9z"/>
				<path class="st14" d="M350.3,193.1c0.4-0.4,0.3-1.1-0.1-1.5s-1.1-0.3-1.5,0.1c-0.2,0.2-17,18-64,25.2c-0.1,0.7-0.2,1.4-0.3,2.2
					C332.7,211.9,349.7,193.9,350.3,193.1z"/>
				<path class="st14" d="M188.8,210.5c-0.5-0.2-1.1,0.1-1.4,0.6c-0.2,0.5,0.1,1.1,0.6,1.4c0.3,0.1,21.1,7.9,53.9,9.2
					c8.8,0.3,17.5,0.1,27.9-0.8c-0.4-0.7-0.8-1.3-1.2-2C220.8,222.8,189.2,210.6,188.8,210.5z"/>
				<path class="st14" d="M351.1,196.1c-0.4-0.4-1.1-0.3-1.5,0.1c-0.2,0.2-17.4,18.4-65.6,25.5c-0.1,0.8-0.3,1.5-0.5,2.2
					c49.7-7.1,67-25.5,67.7-26.3C351.6,197.1,351.6,196.4,351.1,196.1z"/>
				<path class="st14" d="M189.7,215c-0.5-0.2-1.1,0.1-1.4,0.6c-0.2,0.5,0.1,1.1,0.6,1.4c0.3,0.1,21.1,7.9,53.9,9.2
					c9.4,0.4,18.8,0.1,30-1c-0.5-0.6-1-1.3-1.5-2C222.5,227.6,190,215.1,189.7,215z"/>
				<path class="st14" d="M267.2,209.8c0.2-5.2,2.1-18.4,3.7-20.3c2.3,1.4,11.4,15.6,12,18.9c0.3,1.3,0.1,5-0.4,8.8
					c0.7-0.1,1.5-0.2,2.2-0.3c0.4-3.9,0.5-7.5,0.3-8.9c-0.6-3.3-9.8-18.5-13.2-20.4c-0.7-0.4-1.2-0.3-1.5-0.2l0,0
					c-3.2,1.3-5,18.9-5.1,22.3c-0.1,1.9,1.4,5.4,3.5,9.1c0.8-0.1,1.5-0.1,2.3-0.2C268.8,215.1,267.1,211.6,267.2,209.8z"/>
				<path class="st14" d="M272.2,220.6c-0.8,0.1-1.6,0.1-2.4,0.2c0.5,0.8,1,1.6,1.5,2.3c0.8-0.1,1.6-0.1,2.5-0.2
					C273.3,222.2,272.7,221.4,272.2,220.6z"/>
				<path class="st14" d="M281.8,222c0.7-0.1,1.5-0.2,2.2-0.3c0.2-0.8,0.3-1.7,0.4-2.5c-0.7,0.1-1.5,0.2-2.2,0.3
					C282.1,220.3,282,221.1,281.8,222z"/>
				<path class="st14" d="M279.5,228.1c-0.2,0.2-0.3,0.2-0.3,0.1c-1-0.3-2.4-1.6-3.9-3.4c-0.8,0.1-1.7,0.2-2.5,0.3
					c2.1,2.6,4.2,4.6,5.8,5.1c0.2,0.1,0.4,0.1,0.6,0.1c0.6,0,1.2-0.2,1.8-0.7c1.1-1,2-3.2,2.6-5.8c-0.7,0.1-1.5,0.2-2.2,0.3
					C280.8,226,280.2,227.5,279.5,228.1z"/>
				<path class="st14" d="M270.9,218.6c-0.8,0.1-1.6,0.1-2.3,0.2c0.4,0.7,0.8,1.3,1.2,2c0.8-0.1,1.6-0.1,2.4-0.2
					C271.8,220,271.3,219.3,270.9,218.6z"/>
				<path class="st14" d="M282.3,219.4c0.8-0.1,1.5-0.2,2.2-0.3c0.1-0.7,0.2-1.4,0.3-2.2c-0.7,0.1-1.4,0.2-2.2,0.3
					C282.5,218,282.4,218.7,282.3,219.4z"/>
				<path class="st14" d="M281.8,222c-0.2,0.8-0.3,1.5-0.5,2.2c0.7-0.1,1.5-0.2,2.2-0.3c0.2-0.7,0.3-1.4,0.5-2.2
					C283.3,221.8,282.5,221.9,281.8,222z"/>
				<path class="st14" d="M273.8,222.9c-0.8,0.1-1.6,0.2-2.5,0.2c0.5,0.7,1,1.3,1.5,2c0.8-0.1,1.7-0.2,2.5-0.3
					C274.8,224.3,274.3,223.6,273.8,222.9z"/>
			</g>
			<path class="st14" d="M251.9,282.8c-0.1,0-14.3-4.4-27.4-9.2c-14.9-5.4-32.9-15.4-33.1-15.5l1-1.8c0.2,0.1,18.1,10,32.8,15.3
				c13,4.7,27.1,9.1,27.3,9.1L251.9,282.8z"/>
			<path class="st14" d="M321.9,276l-1.4-1.6c0.1-0.1,14.8-12.5,23.3-22.1c7.5-8.5,14.7-18.6,14.8-18.7l1.7,1.2
				c-0.1,0.1-7.3,10.4-14.9,18.9C336.8,263.4,322.1,275.9,321.9,276z"/>
			<path class="st14" d="M301.5,336.5c-3-0.1-36.7-7.4-60.9-16.3c-24-8.9-41.6-20.8-41.7-20.9l1.2-1.7c0.2,0.1,17.6,11.9,41.3,20.7
				c23.4,8.7,57.4,16.1,60.2,16.2c2.8-0.4,26.7-19.1,37-29c9.6-9.2,25.7-31,25.9-31.2l1.7,1.2c-0.2,0.2-16.4,22.1-26.1,31.5
				C332,314.5,305.2,336.6,301.5,336.5z"/>
			<path class="st14" d="M230.9,200.3c-12.5-0.5-22.2-11-21.8-23.5c0.5-12.5,11-22.2,23.5-21.8c12.5,0.5,22.2,11,21.8,23.5
				S243.3,200.7,230.9,200.3z M232.5,157.1c-11.3-0.4-20.9,8.4-21.3,19.7c-0.4,11.3,8.4,20.9,19.7,21.3s20.9-8.4,21.3-19.7
				C252.7,167.1,243.8,157.6,232.5,157.1z"/>
			
				<rect x="188" y="89.2" transform="matrix(0.8812 -0.4728 0.4728 0.8812 -30.4899 102.692)" class="st14" width="2.1" height="45.6"/>
			<polygon class="st14" points="209.9,121.6 182.8,89.3 184.5,88 212.5,121.3 			"/>
			
				<rect x="287" y="90.1" transform="matrix(0.3934 -0.9194 0.9194 0.3934 102.3926 337.4382)" class="st14" width="39.9" height="2.1"/>
			<polygon class="st14" points="313.2,116.7 311.2,116.2 319.4,74.9 321.5,74.3 			"/>
			<path class="st14" d="M176.2,92.7c-5.8-0.2-10.3-5.1-10.1-10.9c0.2-5.8,5.1-10.3,10.9-10.1c5.8,0.2,10.3,5.1,10.1,10.9
				C186.8,88.4,181.9,92.9,176.2,92.7z M176.9,73.9c-4.6-0.2-8.5,3.4-8.7,8.1c-0.2,4.6,3.4,8.5,8.1,8.7c4.6,0.2,8.5-3.4,8.7-8.1
				C185.1,77.9,181.5,74,176.9,73.9z"/>
			<path class="st14" d="M319.3,75.2c-5.4-0.2-9.7-4.8-9.5-10.2s4.8-9.7,10.2-9.5c5.4,0.2,9.7,4.8,9.5,10.2
				C329.3,71.2,324.7,75.4,319.3,75.2z M319.9,57.7c-4.3-0.2-7.9,3.2-8,7.4c-0.2,4.3,3.2,7.9,7.4,8c4.3,0.2,7.9-3.2,8-7.4
				C327.5,61.4,324.2,57.8,319.9,57.7z"/>
			<path class="st14" d="M228,199.1c-9.7-0.4-17.2-8.5-16.9-18.2c0.4-9.7,8.5-17.2,18.2-16.9c9.7,0.4,17.2,8.5,16.9,18.2
				C245.8,191.9,237.6,199.5,228,199.1z M229.2,166.1c-8.5-0.3-15.7,6.3-16,14.9s6.3,15.7,14.9,16c8.5,0.3,15.7-6.3,16-14.9
				C244.4,173.6,237.7,166.4,229.2,166.1z"/>
			<path class="st14" d="M299.3,191.5c-9.7-0.4-17.2-8.5-16.9-18.2c0.4-9.7,8.5-17.2,18.2-16.9c9.7,0.4,17.2,8.5,16.9,18.2
				C317.1,184.3,308.9,191.9,299.3,191.5z M300.5,158.5c-8.5-0.3-15.7,6.3-16,14.9c-0.3,8.5,6.3,15.7,14.9,16
				c8.5,0.3,15.7-6.3,16-14.9C315.7,166,309,158.8,300.5,158.5z"/>
			<path class="st14" d="M303.2,369.9c-6-0.2-31-6.5-45-10.7c-15.1-4.5-48.3-21.7-49.7-22.4l1-1.9c0.3,0.2,34.4,17.8,49.4,22.2
				c15.8,4.7,40.4,10.6,44.8,10.6c4.1-0.1,22.8-11.9,34.2-22.5c10.7-9.9,29.8-32.6,30-32.8l1.6,1.3c-0.2,0.2-19.4,23-30.2,33
				c-10.3,9.6-30.2,23-35.6,23.1C303.5,369.9,303.3,369.9,303.2,369.9z"/>
			<path class="st14" d="M264,392c-9.2-0.3-14.9-1.1-15-1.1l0.3-2.1c0.2,0,23.8,3.2,54.4-0.6c27.2-3.3,46.1-10.2,46.3-10.3l0.7,2
				c-0.2,0.1-19.4,7.1-46.8,10.4C288,392.3,273.9,392.4,264,392z"/>
			<path class="st14" d="M202.4,256c-1.6-0.1-2.8-1.4-2.8-3c0.1-1.6,1.4-2.8,3-2.8c1.6,0.1,2.8,1.4,2.8,3
				C205.3,254.9,204,256.1,202.4,256z M202.6,251.3c-1,0-1.9,0.8-1.9,1.8s0.8,1.9,1.8,1.9s1.9-0.8,1.9-1.8S203.6,251.4,202.6,251.3z
				"/>
			<path class="st14" d="M221,264.1c-1.6-0.1-2.8-1.4-2.8-3c0.1-1.6,1.4-2.8,3-2.8c1.6,0.1,2.8,1.4,2.8,3
				C223.9,262.9,222.6,264.1,221,264.1z M221.1,259.4c-1,0-1.9,0.8-1.9,1.8s0.8,1.9,1.8,1.9s1.9-0.8,1.9-1.8
				C223,260.2,222.2,259.4,221.1,259.4z"/>
			<path class="st14" d="M240.7,270.1c-1.6-0.1-2.8-1.4-2.8-3c0.1-1.6,1.4-2.8,3-2.8c1.6,0.1,2.8,1.4,2.8,3
				C243.6,268.9,242.3,270.1,240.7,270.1z M240.8,265.3c-1,0-1.9,0.8-1.9,1.8s0.8,1.9,1.8,1.9s1.9-0.8,1.9-1.8
				C242.6,266.2,241.9,265.4,240.8,265.3z"/>
			<path class="st14" d="M328,261.8c-1.6-0.1-2.8-1.4-2.8-3c0.1-1.6,1.4-2.8,3-2.8s2.8,1.4,2.8,3C330.9,260.7,329.6,261.9,328,261.8
				z M328.2,257.1c-1,0-1.9,0.8-1.9,1.8s0.8,1.9,1.8,1.9s1.9-0.8,1.9-1.8S329.2,257.1,328.2,257.1z"/>
			<path class="st14" d="M340,249.7c-1.6-0.1-2.8-1.4-2.8-3c0.1-1.6,1.4-2.8,3-2.8c1.6,0.1,2.8,1.4,2.8,3
				C342.9,248.5,341.6,249.8,340,249.7z M340.1,245c-1,0-1.9,0.8-1.9,1.8s0.8,1.9,1.8,1.9s1.9-0.8,1.9-1.8
				C342,245.9,341.2,245,340.1,245z"/>
			<path class="st14" d="M350.9,237.5c-1.6-0.1-2.8-1.4-2.8-3c0.1-1.6,1.4-2.8,3-2.8c1.6,0.1,2.8,1.4,2.8,3
				C353.8,236.4,352.5,237.6,350.9,237.5z M351.1,232.8c-1,0-1.9,0.8-1.9,1.8s0.8,1.9,1.8,1.9s1.9-0.8,1.9-1.8
				C352.9,233.7,352.1,232.9,351.1,232.8z"/>
			<polygon class="st7" points="193.7,73.5 206.2,73.8 206.1,73.8 216.4,63.5 216.6,63.3 216.8,63.5 225.9,77.6 225.4,77.6 
				230.3,71.5 230.7,71 230.9,71.6 236.1,83.2 235.3,83.4 236.4,53.5 236.4,51.2 237.3,53.3 243.6,68.5 242.8,68.3 248.1,65 
				248.5,64.7 248.8,65.1 257.5,75.5 256.7,75.6 264.2,63.1 264.7,62.4 265.1,63.1 274.3,79.4 273.4,79.5 275.1,71.1 275.2,70.3 
				275.8,70.9 281.2,76.5 280.5,76.7 283.2,55.2 283.3,54.3 283.7,55.1 290.2,68.3 290,68.2 305.8,67.6 290.1,68.5 290,68.5 
				289.9,68.4 283.2,55.4 283.7,55.3 281.3,76.8 281.2,77.6 280.6,77 275.2,71.4 275.9,71.2 274.3,79.7 274.1,80.9 273.5,79.8 
				264.2,63.6 265.1,63.6 257.6,76.1 257.2,76.7 256.8,76.2 248,65.7 248.7,65.8 243.4,69.1 242.9,69.4 242.6,68.9 236.4,53.7 
				237.3,53.5 236.2,83.4 236.1,85.3 235.3,83.6 230.3,71.9 230.9,71.9 225.9,78 225.6,78.4 225.4,78 216.4,63.8 216.7,63.8 
				206.3,74 206.3,74 206.2,74 			"/>
			<path class="st7" d="M289,432c-3.1-0.1-6-0.3-8.6-0.6c-10.5-1.2-11.8-3.2-11.9-4.7s1-3.6,11.3-5.9c6.9-1.5,16.1-2.6,26-3.1
				c13-0.7,37.7-0.5,38,5.1l0,0c0.3,5.6-24.3,8.3-37.3,9C300.3,432.2,294.3,432.2,289,432z M323.2,419.6c-4.9-0.2-10.6-0.2-17.3,0.2
				c-22.8,1.2-35.1,5-35.3,6.8c0.4,1.7,13,4.3,35.8,3.1s35.1-5,35.3-6.8C341.5,421.7,335,420.1,323.2,419.6z"/>
			<path class="st7" d="M302.6,451c-5.6-0.2-11.9-1-12.1-3.7c-0.1-1.6,1.9-2.9,6.3-3.9c3.7-0.9,8.6-1.5,13.8-1.8
				c2.1-0.1,20.3-0.9,20.6,3.7l0,0c0.1,1.6-1.9,2.9-6.3,3.9c-3.7,0.9-8.6,1.5-13.8,1.8C310.2,450.9,306.6,451.1,302.6,451z
				 M292.7,447.1c1,0.9,7.6,2.2,18.3,1.7c10.7-0.5,17.1-2.5,18-3.5c-1-0.9-7.6-2.2-18.3-1.7C300.1,444.1,293.7,446.1,292.7,447.1z"
				/>
			<path class="st14" d="M208.9,299.8c-1.6-0.1-2.8-1.4-2.8-3c0.1-1.6,1.4-2.8,3-2.8c1.6,0.1,2.8,1.4,2.8,3
				C211.8,298.6,210.5,299.8,208.9,299.8z M209.1,295c-1,0-1.9,0.8-1.9,1.8s0.8,1.9,1.8,1.9s1.9-0.8,1.9-1.8S210.1,295.1,209.1,295z
				"/>
			<path class="st14" d="M228.5,307.8c-1.6-0.1-2.8-1.4-2.8-3c0.1-1.6,1.4-2.8,3-2.8c1.6,0.1,2.8,1.4,2.8,3
				C231.4,306.7,230.1,307.9,228.5,307.8z M228.7,303.1c-1,0-1.9,0.8-1.9,1.8s0.8,1.9,1.8,1.9s1.9-0.8,1.9-1.8
				S229.7,303.2,228.7,303.1z"/>
			<path class="st14" d="M249.2,316c-1.6-0.1-2.8-1.4-2.8-3c0.1-1.6,1.4-2.8,3-2.8c1.6,0.1,2.8,1.4,2.8,3
				C252.1,314.8,250.7,316,249.2,316z M249.3,311.2c-1,0-1.9,0.8-1.9,1.8s0.8,1.9,1.8,1.9s1.9-0.8,1.9-1.8S250.4,311.3,249.3,311.2z
				"/>
			<path class="st14" d="M331.3,305.8c-1.6-0.1-2.8-1.4-2.8-3c0.1-1.6,1.4-2.8,3-2.8c1.6,0.1,2.8,1.4,2.8,3
				C334.2,304.6,332.9,305.9,331.3,305.8z M331.5,301.1c-1,0-1.9,0.8-1.9,1.8s0.8,1.9,1.8,1.9s1.9-0.8,1.9-1.8
				C333.3,302,332.5,301.1,331.5,301.1z"/>
			<path class="st14" d="M345.5,291.3c-1.6-0.1-2.8-1.4-2.8-3c0.1-1.6,1.4-2.8,3-2.8c1.6,0.1,2.8,1.4,2.8,3
				C348.4,290.1,347.1,291.4,345.5,291.3z M345.7,286.6c-1,0-1.9,0.8-1.9,1.8s0.8,1.9,1.8,1.9s1.9-0.8,1.9-1.8
				S346.7,286.6,345.7,286.6z"/>
			<path class="st14" d="M357.6,277.1c-1.6-0.1-2.8-1.4-2.8-3c0.1-1.6,1.4-2.8,3-2.8c1.6,0.1,2.8,1.4,2.8,3
				C360.5,275.9,359.1,277.1,357.6,277.1z M357.7,272.3c-1,0-1.9,0.8-1.9,1.8s0.8,1.9,1.8,1.9s1.9-0.8,1.9-1.8
				S358.7,272.4,357.7,272.3z"/>
			<path class="st14" d="M271,322.6c-1.6-0.1-2.8-1.4-2.8-3c0.1-1.6,1.4-2.8,3-2.8c1.6,0.1,2.8,1.4,2.8,3
				C273.9,321.4,272.6,322.6,271,322.6z M271.2,317.8c-1,0-1.9,0.8-1.9,1.8s0.8,1.9,1.8,1.9s1.9-0.8,1.9-1.8
				S272.2,317.9,271.2,317.8z"/>
			<path class="st14" d="M294.9,328.7c-1.6-0.1-2.8-1.4-2.8-3c0.1-1.6,1.4-2.8,3-2.8c1.6,0.1,2.8,1.4,2.8,3
				C297.8,327.5,296.5,328.8,294.9,328.7z M295,324c-1,0-1.9,0.8-1.9,1.8s0.8,1.9,1.8,1.9s1.9-0.8,1.9-1.8
				C296.9,324.9,296.1,324,295,324z"/>
			<path class="st14" d="M315.6,320.9c-1.6-0.1-2.8-1.4-2.8-3c0.1-1.6,1.4-2.8,3-2.8s2.8,1.4,2.8,3
				C318.5,319.7,317.2,320.9,315.6,320.9z M315.8,316.1c-1,0-1.9,0.8-1.9,1.8s0.8,1.9,1.8,1.9s1.9-0.8,1.9-1.8
				S316.8,316.2,315.8,316.1z"/>
			<path class="st14" d="M214.5,333.6c-1.6-0.1-2.8-1.4-2.8-3c0.1-1.6,1.4-2.8,3-2.8c1.6,0.1,2.8,1.4,2.8,3
				C217.4,332.4,216.1,333.6,214.5,333.6z M214.7,328.9c-1,0-1.9,0.8-1.9,1.8s0.8,1.9,1.8,1.9s1.9-0.8,1.9-1.8
				C216.5,329.7,215.7,328.9,214.7,328.9z"/>
			<path class="st14" d="M234.1,341.7c-1.6-0.1-2.8-1.4-2.8-3c0.1-1.6,1.4-2.8,3-2.8c1.6,0.1,2.8,1.4,2.8,3
				C237,340.5,235.7,341.7,234.1,341.7z M234.3,336.9c-1,0-1.9,0.8-1.9,1.8s0.8,1.9,1.8,1.9s1.9-0.8,1.9-1.8
				C236.1,337.8,235.3,337,234.3,336.9z"/>
			<path class="st14" d="M254.8,349.8c-1.6-0.1-2.8-1.4-2.8-3c0.1-1.6,1.4-2.8,3-2.8c1.6,0.1,2.8,1.4,2.8,3
				C257.7,348.6,256.4,349.8,254.8,349.8z M254.9,345c-1,0-1.9,0.8-1.9,1.8s0.8,1.9,1.8,1.9s1.9-0.8,1.9-1.8S256,345.1,254.9,345z"
				/>
			<path class="st14" d="M336.9,338.6c-1.6-0.1-2.8-1.4-2.8-3c0.1-1.6,1.4-2.8,3-2.8c1.6,0.1,2.8,1.4,2.8,3
				C339.9,337.4,338.5,338.6,336.9,338.6z M337.1,333.9c-1,0-1.9,0.8-1.9,1.8s0.8,1.9,1.8,1.9s1.9-0.8,1.9-1.8
				C338.9,334.7,338.1,333.9,337.1,333.9z"/>
			<path class="st14" d="M351.1,324.1c-1.6-0.1-2.8-1.4-2.8-3c0.1-1.6,1.4-2.8,3-2.8c1.6,0.1,2.8,1.4,2.8,3
				C354.1,322.9,352.7,324.1,351.1,324.1z M351.3,319.3c-1,0-1.9,0.8-1.9,1.8s0.8,1.9,1.8,1.9s1.9-0.8,1.9-1.8
				S352.3,319.4,351.3,319.3z"/>
			<path class="st14" d="M362.1,310.9c-1.6-0.1-2.8-1.4-2.8-3c0.1-1.6,1.4-2.8,3-2.8c1.6,0.1,2.8,1.4,2.8,3
				C365,309.7,363.7,310.9,362.1,310.9z M362.3,306.1c-1,0-1.9,0.8-1.9,1.8s0.8,1.9,1.8,1.9s1.9-0.8,1.9-1.8
				S363.3,306.2,362.3,306.1z"/>
			<path class="st14" d="M276.6,356.4c-1.6-0.1-2.8-1.4-2.8-3c0.1-1.6,1.4-2.8,3-2.8c1.6,0.1,2.8,1.4,2.8,3
				C279.5,355.2,278.2,356.5,276.6,356.4z M276.8,351.7c-1,0-1.9,0.8-1.9,1.8s0.8,1.9,1.8,1.9s1.9-0.8,1.9-1.8
				S277.8,351.7,276.8,351.7z"/>
			<path class="st14" d="M300.5,362.5c-1.6-0.1-2.8-1.4-2.8-3c0.1-1.6,1.4-2.8,3-2.8c1.6,0.1,2.8,1.4,2.8,3
				C303.4,361.4,302.1,362.6,300.5,362.5z M300.7,357.8c-1,0-1.9,0.8-1.9,1.8s0.8,1.9,1.8,1.9s1.9-0.8,1.9-1.8
				S301.7,357.8,300.7,357.8z"/>
			<path class="st14" d="M320.2,352.5c-1.6-0.1-2.8-1.4-2.8-3c0.1-1.6,1.4-2.8,3-2.8c1.6,0.1,2.8,1.4,2.8,3S321.8,352.6,320.2,352.5
				z M320.4,347.8c-1,0-1.9,0.8-1.9,1.8s0.8,1.9,1.8,1.9s1.9-0.8,1.9-1.8S321.4,347.8,320.4,347.8z"/>
			<path class="st14" d="M115.5,265.6c-1.3,0-2.3-1.1-2.3-2.4s1.1-2.3,2.4-2.3s2.3,1.1,2.3,2.4C117.9,264.6,116.8,265.6,115.5,265.6
				z M115.7,261.9c-0.7,0-1.3,0.5-1.3,1.2s0.5,1.3,1.2,1.3s1.3-0.5,1.3-1.2C116.9,262.6,116.4,262,115.7,261.9z"/>
			<path class="st14" d="M137,281.1c-1.3,0-2.3-1.1-2.3-2.4s1.1-2.3,2.4-2.3c1.3,0,2.3,1.1,2.3,2.4S138.3,281.1,137,281.1z
				 M137.1,277.4c-0.7,0-1.3,0.5-1.3,1.2s0.5,1.3,1.2,1.3s1.3-0.5,1.3-1.2C138.4,278,137.8,277.4,137.1,277.4z"/>
			<path class="st14" d="M156.5,291.2c-1.3,0-2.3-1.1-2.3-2.4s1.1-2.3,2.4-2.3c1.3,0,2.3,1.1,2.3,2.4
				C158.9,290.3,157.8,291.3,156.5,291.2z M156.6,287.6c-0.7,0-1.3,0.5-1.3,1.2s0.5,1.3,1.2,1.3s1.3-0.5,1.3-1.2
				C157.9,288.2,157.4,287.6,156.6,287.6z"/>
			<path class="st14" d="M177.2,298.3c-1.3,0-2.3-1.1-2.3-2.4s1.1-2.3,2.4-2.3c1.3,0,2.3,1.1,2.3,2.4S178.5,298.3,177.2,298.3z
				 M177.3,294.7c-0.7,0-1.3,0.5-1.3,1.2s0.5,1.3,1.2,1.3s1.3-0.5,1.3-1.2C178.6,295.3,178.1,294.7,177.3,294.7z"/>
			<path class="st14" d="M373.6,259.6c-1.3,0-2.3-1.1-2.3-2.4s1.1-2.3,2.4-2.3s2.3,1.1,2.3,2.4S374.9,259.6,373.6,259.6z M373.8,256
				c-0.7,0-1.3,0.5-1.3,1.2s0.5,1.3,1.2,1.3s1.3-0.5,1.3-1.2C375.1,256.6,374.5,256,373.8,256z"/>
			<path class="st14" d="M388.8,246.5c-1.3,0-2.3-1.1-2.3-2.4s1.1-2.3,2.4-2.3s2.3,1.1,2.3,2.4C391.2,245.6,390.1,246.6,388.8,246.5
				z M389,242.9c-0.7,0-1.3,0.5-1.3,1.2s0.5,1.3,1.2,1.3s1.3-0.5,1.3-1.2S389.7,242.9,389,242.9z"/>
			<path class="st14" d="M193.4,301c-1.3,0-2.3-1.1-2.3-2.4s1.1-2.3,2.4-2.3c1.3,0,2.3,1.1,2.3,2.4C195.8,300,194.7,301.1,193.4,301
				z M193.6,297.4c-0.7,0-1.3,0.5-1.3,1.2s0.5,1.3,1.2,1.3s1.3-0.5,1.3-1.2C194.9,298,194.3,297.4,193.6,297.4z"/>
			<path class="st14" d="M401,230.2c-1.3,0-2.3-1.1-2.3-2.4s1.1-2.3,2.4-2.3s2.3,1.1,2.3,2.4C403.3,229.3,402.3,230.3,401,230.2z
				 M401.1,226.6c-0.7,0-1.3,0.5-1.3,1.2s0.5,1.3,1.2,1.3s1.3-0.5,1.3-1.2C402.4,227.2,401.8,226.6,401.1,226.6z"/>
			<path class="st14" d="M409.1,209.6c-1.3,0-2.3-1.1-2.3-2.4s1.1-2.3,2.4-2.3s2.3,1.1,2.3,2.4S410.4,209.6,409.1,209.6z
				 M409.2,205.9c-0.7,0-1.3,0.5-1.3,1.2s0.5,1.3,1.2,1.3s1.3-0.5,1.3-1.2C410.5,206.6,409.9,206,409.2,205.9z"/>
			<path class="st14" d="M412.1,184.5c-1.3,0-2.3-1.1-2.3-2.4s1.1-2.3,2.4-2.3s2.3,1.1,2.3,2.4C414.5,183.6,413.4,184.6,412.1,184.5
				z M412.3,180.9c-0.7,0-1.3,0.5-1.3,1.2s0.5,1.3,1.2,1.3s1.3-0.5,1.3-1.2C413.5,181.5,413,180.9,412.3,180.9z"/>
			<path class="st14" d="M411.9,161.5c-1.3,0-2.3-1.1-2.3-2.4s1.1-2.3,2.4-2.3s2.3,1.1,2.3,2.4S413.2,161.5,411.9,161.5z
				 M412.1,157.8c-0.7,0-1.3,0.5-1.3,1.2s0.5,1.3,1.2,1.3s1.3-0.5,1.3-1.2C413.4,158.4,412.8,157.8,412.1,157.8z"/>
			<path class="st14" d="M233.3,362.1c-2.2-0.1-4.4-0.9-6.3-2.2c-4-2.8-4.7-15.1-4.7-16.5l2.1-0.1c0.2,4.9,1.4,13.3,3.8,14.9
				c2.9,2,7.1,2.7,9.4,0.2c2.3-2.6,1.3-7,1.3-7.1l2-0.5c0.1,0.2,1.3,5.5-1.8,8.9C237.7,361.5,235.5,362.2,233.3,362.1z"/>
			<path class="st14" d="M220.8,355.9c-1.7-0.1-4.6-1.3-4.9-1.4l0.8-1.9c1.1,0.5,3.2,1.2,4.2,1.3l0,0c0.2,0,0.9,0,1.5-1
				c0.8-1.3,0.8-3.3,0.6-3.7c0,0,0.1,0.2,0.3,0.2l0.6-2c1.6,0.5,1.3,3,1.2,3.8C224.6,354,223,355.9,220.8,355.9L220.8,355.9z"/>
			<path class="st14" d="M232.4,371.8l-0.6-2c0.1,0,1.5-0.5,1.7-1.8s-0.6-4.7-1.2-6.5l2-0.6c0.2,0.5,1.7,5.3,1.2,7.5
				C235.1,371,232.5,371.7,232.4,371.8z"/>
			<path class="st14" d="M243.4,375.5c-1.6-0.1-3.3-0.6-4.9-1.6c-3.7-2.4-4.9-6.3-4.9-6.5l2-0.6c0,0,1.1,3.4,4.1,5.4
				c1.7,1.1,3.7,1.6,5.3,1.1c1.3-0.3,2.2-1.1,2.8-2.3c1.3-2.6,0.5-5.8,0.5-5.8l2-0.5c0,0.2,1,4.1-0.7,7.3c-0.9,1.7-2.3,2.9-4.2,3.4
				C244.9,375.4,244.2,375.5,243.4,375.5z"/>
			<path class="st14" d="M247.5,366.8c-1.5-0.1-3-0.4-4.2-1.3c-3.2-2.3-3.8-11.4-3.9-12.5l2.1-0.1c0.2,3.5,1.3,9.6,3,10.9
				c2.5,1.8,7.2,0.6,8.8-0.6c0.9-0.8,1.1-4.1,1-6.2l2.1-0.2c0.1,1,0.4,6.2-1.7,7.9C253.3,365.8,250.4,366.9,247.5,366.8z"/>
			<path class="st14" d="M245,385.3l-1.7-1.2c0,0,1.5-2.2,1.3-4.2c-0.2-2.3-1.1-5.2-1.1-5.2l2-0.6c0,0.1,0.9,3.1,1.1,5.6
				C247,382.5,245.1,385.2,245,385.3z"/>
			<path class="st14" d="M264,368.2c-1.3,0-2.7-0.4-4.1-0.9c-5.6-2.2-5.6-7.8-5.6-8h2.1c0,0.2,0.1,4.4,4.3,6c3.1,1.2,5.6,1,7.8-0.6
				c0.9-0.7,0.8-2.5,0.7-3.1l2.1-0.4c0,0.1,0.6,3.5-1.5,5.2C268,367.7,266.1,368.3,264,368.2z"/>
			<path class="st14" d="M257.1,378.3c-0.3,0-0.7,0-1-0.1c-2-0.3-3.6-1.3-4.6-2.8c-1.4-2-2.7-9.2-2.8-10l2.1-0.4
				c0.5,2.9,1.6,8,2.5,9.2c0.9,1.3,2.3,1.8,3.3,1.9c1.7,0.3,3.8-0.2,5.1-1.3c1.8-1.3,1-6,0.6-7.5l2-0.6c0.2,0.7,1.9,7.3-1.3,9.7
				C261.3,377.7,259.1,378.4,257.1,378.3z"/>
			<path class="st14" d="M252.6,387.1c-1.2,0-2.5-0.5-3.8-1.3c-3.3-2.1-4.1-5.6-4.1-5.8l2.1-0.4l-1,0.2l1-0.2c0,0,0.6,2.8,3.2,4.5
				c1.3,0.8,2.5,1.1,3.7,0.9c1.1-0.3,2.2-1.1,3-2.3c1.3-2.1,1.2-5.4,1.2-5.4l2.1-0.1c0,0.2,0.2,3.9-1.5,6.6
				c-1.1,1.7-2.6,2.9-4.3,3.3C253.6,387.1,253.1,387.1,252.6,387.1z"/>
			<path class="st14" d="M254.1,391.4L254.1,391.4l0.1-2.1c-0.2,0-0.4,0.1-0.6,0.2c-0.2,0.2-0.3,0.4-0.3,0.4c0-0.4-0.5-2.1-1.2-3.5
				l1.9-0.9c1.9,4.2,1.4,4.9,1.1,5.3C254.9,391.3,254.5,391.5,254.1,391.4z"/>
			<path class="st14" d="M280,374.4c-2.4-0.1-4.9-0.9-6.7-2.3c-2.3-1.8-3.4-8.2-3.6-9.5l2.1-0.3c0.4,2.8,1.6,7.2,2.8,8.1
				c1.8,1.4,4.7,2.1,7,1.8c1.2-0.2,2.1-0.7,2.7-1.5c0.9-1.2,0.5-4.3,0.3-5.3l2.1-0.4c0.1,0.5,0.9,4.7-0.7,6.9
				c-0.9,1.3-2.3,2.1-4.1,2.3C281.3,374.4,280.7,374.4,280,374.4z"/>
			<path class="st14" d="M268.9,382.8c-1.4-0.1-2.8-0.6-4.1-1.7c-1.6-1.3-3.3-4.7-3.5-5l1.9-0.9c0.4,0.9,1.8,3.5,2.9,4.3
				c1.2,1,2.5,1.4,3.7,1.2c1.7-0.3,3-1.6,3.7-2.7c0.8-1.3,0-4.9-0.5-6.4l2-0.7c0.2,0.6,1.9,5.7,0.3,8.2c-0.5,0.7-2.2,3.1-5.2,3.6
				C269.7,382.8,269.3,382.9,268.9,382.8z"/>
			<path class="st14" d="M264.5,389.8c-1.6-0.1-3.2-0.6-4.6-1.5c-2.8-1.8-2.5-6.8-2.4-7.3l2.1,0.2c-0.1,1.1,0,4.5,1.5,5.4
				c1.6,1,3.5,1.4,5.1,1c1-0.2,1.8-0.7,2.2-1.4c0.6-0.9,0.7-3.3,0.6-4.5l2.1-0.1c0,0.4,0.2,4-0.9,5.7c-0.7,1.1-2,1.9-3.5,2.3
				C266,389.7,265.3,389.8,264.5,389.8z"/>
			
				<rect x="263.9" y="388.7" transform="matrix(3.776212e-02 -0.9993 0.9993 3.776212e-02 -134.3998 639.9746)" class="st14" width="2.4" height="2.1"/>
			<path class="st14" d="M366.7,334.7c-0.1,0-3.1-0.1-5-1.4c-1.8-1.3-3.2-7.3-3.5-9.1l2.1-0.4c0.7,3.3,1.9,7.2,2.7,7.8
				c1.1,0.8,3.2,1,3.9,1L366.7,334.7z"/>
			<path class="st14" d="M355,345.3c-1.4-0.1-2.8-0.5-3.9-1.2c-2.2-1.4-3.5-6.3-3.8-7.3l2-0.5c0.5,2.1,1.8,5.3,2.9,6
				c1.6,1,3.6,1.2,5.6,0.4c1.7-0.7,3-1.9,3.3-3.3c0.8-3,0.3-6.8,0.3-6.8l2.1-0.3c0,0.2,0.6,4.2-0.3,7.6c-0.5,2-2.3,3.8-4.6,4.8
				C357.4,345.2,356.2,345.4,355,345.3z"/>
			<path class="st14" d="M361.9,349.6c-0.2,0-1.6-0.2-2.7-1.3c-1-1-1.6-3.8-1.7-4.6l2.1-0.4c0.3,1.5,0.8,3.2,1.1,3.5
				c0.6,0.6,1.5,0.7,1.5,0.7L361.9,349.6z"/>
			<path class="st14" d="M277.7,388c-1.6-0.1-3.2-0.6-4.8-1.9c-1.7-1.4-2.5-5.1-2.6-5.5l2.1-0.4c0.2,1.3,1,3.5,1.8,4.2
				c2.9,2.3,6.1,1.6,7.8-0.4c1.1-1.3,0-7-1-10.4l2-0.6c0.5,1.6,2.9,9.8,0.6,12.4C282.1,387.1,280,388.1,277.7,388z"/>
			<path class="st14" d="M276.8,391.9l-1.6-1.4l1.5-1.7c0-0.8,0.1-1.9,0.1-1.9l2.1,0.1c0,0-0.1,1.4-0.1,2.2v0.4L276.8,391.9z"/>
			<path class="st14" d="M344,352.3c-1.2,0-2.4-0.5-3.7-1.3c-2.5-1.6-2.9-4.7-2.9-4.8l2.1-0.2c0,0,0.3,2.2,1.9,3.3
				c1.5,1,2.8,1.2,4.3,0.7c0.2-0.1,0.4-0.1,0.6-0.2c1-0.3,1.8-0.5,2.3-2c0.9-2.6,0.2-6.8,0.2-6.8l2.1-0.3c0,0.2,0.7,4.7-0.3,7.8
				c-0.8,2.5-2.5,3-3.7,3.3c-0.2,0-0.3,0.1-0.5,0.1C345.6,352.2,344.8,352.3,344,352.3z"/>
			<path class="st14" d="M354,361c-1.2,0-2.5-0.5-3.7-1.5c-2.7-2.4-3.7-8.1-3.7-8.3l2.1-0.4c0.2,1.4,1.3,5.5,3,7.1
				c2.9,2.6,6.4-0.6,6.5-0.7l1.4,1.5C358.6,359.8,356.4,361.1,354,361z"/>
			<path class="st14" d="M332.8,362.3c-1,0-2-0.3-2.7-0.6c-2.2-1.2-4.8-5.5-5.1-6l1.8-1.1c0.7,1.2,2.8,4.4,4.3,5.2
				c1.5,0.8,6,0.3,7.5-2.2c1.1-1.7,1.2-6,1.2-7.5h2.1c0,0.6,0.1,6.1-1.5,8.7C338.9,361.3,335.5,362.4,332.8,362.3z"/>
			<path class="st14" d="M346.2,370.1c-3-0.1-5.5-1.4-6.8-3.4c-1.4-2.2-2.5-6.9-2.5-7.1l2-0.5c0.3,1.3,1.2,4.9,2.2,6.5
				c1,1.5,3.1,2.5,5.6,2.4c2,0,3.6-0.7,3.9-1.3c0.6-1,0.6-4.6,0.4-6.8l2.1-0.2c0.1,1,0.5,6.2-0.7,8.1c-1,1.7-3.6,2.3-5.7,2.3
				C346.6,370.1,346.4,370.1,346.2,370.1z"/>
			<path class="st14" d="M352.6,374.4c-0.2,0-1.7-0.1-2.8-1.5c-1-1.2-2.3-3.8-2.3-3.9l1.9-0.9c0.3,0.7,1.4,2.6,2.1,3.4
				c0.6,0.7,1.3,0.8,1.3,0.8L352.6,374.4z"/>
			<path class="st14" d="M324,371.3c-1.3-0.1-2.6-0.3-3.5-0.9c-2.2-1.3-4.6-6.9-5.1-8l1.9-0.8c1,2.5,3,6.3,4.1,7
				c1.3,0.7,3.7,0.8,5.5,0.2c1-0.3,1.7-0.8,2-1.4c0.8-1.7,0.7-5.3,0.5-6.5l2.1-0.2c0,0.2,0.5,5-0.7,7.6c-0.5,1.1-1.7,2-3.3,2.5
				C326.5,371.2,325.3,371.4,324,371.3z"/>
			<path class="st14" d="M335,377.3c-1.3,0-2.6-0.4-4-1.1c-3.1-1.5-3.2-6.3-3.2-6.8h2.1c0,1.1,0.4,4.2,2,5c2.9,1.4,5,1.2,7.4-0.7
				c1.5-1.2,0.6-5.3-0.1-7.1l2-0.7c0.3,0.7,2.5,7.1-0.6,9.5C338.8,376.7,337,377.4,335,377.3z"/>
			<path class="st14" d="M345.2,381.6c-0.4-0.1-3.6-0.9-4.7-1.5c-1.3-0.6-2.1-3.4-2.6-5.6l2.1-0.4c0.4,1.9,1.1,3.8,1.4,4.1
				c0.8,0.3,3.4,1.1,4.3,1.3L345.2,381.6z"/>
			<path class="st14" d="M293.8,379.3c-1.3,0-2.7-0.4-4-1.2c-4.4-2.7-4.9-8.9-4.9-9.2l2.1-0.2c0,0.1,0.4,5.4,3.9,7.5
				c3.3,2,7.1,0.2,7.9-1c0.5-0.7,0.4-4-0.1-6.6l2.1-0.3c0.2,1.5,0.9,6.4-0.3,8.1C299.6,377.8,296.9,379.4,293.8,379.3z"/>
			<path class="st14" d="M314.6,379.1c-1.3,0-2.6-0.5-4-1.2c-3.8-2.1-3.5-9.3-3.5-10.1l2.1,0.1c-0.1,1.8,0.1,6.9,2.4,8.2
				c2.8,1.6,4.8,1.3,7.2-1.1c2.2-2.2,1.8-5.5,1.8-5.5l2.1-0.3c0,0.2,0.5,4.3-2.4,7.2C318.4,378.3,316.6,379.1,314.6,379.1z"/>
			<path class="st14" d="M288.9,388.7c-0.7,0-1.4-0.2-2.1-0.3l-0.5-0.1c-4.2-0.7-4.5-3.2-4.5-3.4l2.1-0.2c0,0,0.2,1.1,2.8,1.6
				l0.6,0.1c2,0.4,3.2,0.6,5-1.1c1.6-1.5,1.3-5.6,1-6.9l2.1-0.4c0.1,0.6,1,6.3-1.7,8.8C291.8,388.4,290.3,388.8,288.9,388.7z"/>
			
				<rect x="288.6" y="388.1" transform="matrix(3.776212e-02 -0.9993 0.9993 3.776212e-02 -109.5354 664.4485)" class="st14" width="3.2" height="2.1"/>
			<path class="st14" d="M306.9,384.1c-1.4-0.1-2.9-0.4-4.1-0.8c-3-1.1-4-6.7-4.1-7.3l2.1-0.4c0.4,2.1,1.4,5.2,2.8,5.7
				c2.1,0.7,5.1,1.2,6.9-0.1c1.4-1,1-3.1,1-3.2l2-0.5c0,0.1,0.8,3.5-1.8,5.4C310.3,383.9,308.6,384.2,306.9,384.1z"/>
			<path class="st14" d="M297,391c-1.3-0.1-3.1-0.4-3.8-1.5c-0.8-1.3-1.4-3-1.4-3.1l2-0.6c0,0,0.5,1.6,1.1,2.6
				c0.3,0.4,1.9,0.7,3.4,0.5c0.8-0.1,3.1-0.8,3.7-2.3c0.7-1.8,0.1-4,0.1-4l2-0.5c0,0.1,0.7,2.9-0.2,5.3c-1.1,2.9-5.2,3.6-5.4,3.6
				C298.3,391,297.7,391,297,391z"/>
			<path class="st14" d="M325,383.3c-0.7,0-1.3-0.1-1.9-0.3c-2.8-0.7-4.3-6.1-4.6-7.1l2-0.5c0.5,2.1,1.8,5.3,3,5.6
				c2.2,0.5,5.1-0.1,5.8-1c0.9-1.1,0.9-1.9,1-4.7h1h1c-0.1,2.9-0.2,4.4-1.5,6C329.9,382.8,327.3,383.4,325,383.3z"/>
			
				<rect x="327" y="382" transform="matrix(0.9643 -0.2647 0.2647 0.9643 -89.7305 100.5035)" class="st14" width="2.1" height="2.4"/>
			<path class="st14" d="M314.8,388.4c-0.2-0.1-2.4-1-3.4-2.7c-0.3-0.5-1.2-2.7-1.4-3.1l1.9-0.8c0.4,0.9,1.1,2.5,1.3,2.9
				c0.5,0.9,1.9,1.6,2.4,1.8L314.8,388.4z"/>
			<path class="st14" d="M319.1,388l-0.8-2c1.5-0.6,3-1.4,3.2-1.7c0.3-0.5,0.6-1.9,0.8-2.5l2,0.4c0,0.2-0.5,2.1-1,3.1
				C322.8,386.5,320.4,387.5,319.1,388z"/>
			<path class="st14" d="M302.1,365.9c-5.9-0.2-30.9-6.5-44.9-10.6c-15.1-4.5-49.3-22.2-49.7-22.4l0.5-0.9
				c0.3,0.2,34.5,17.8,49.5,22.3c15.8,4.7,40.5,10.7,45,10.6s23.9-12.8,34.6-22.7c10.7-9.9,29.8-32.7,30-32.9l0.8,0.7
				c-0.2,0.2-19.4,23-30.1,33c-11,10.2-30.5,22.8-35.3,22.9C302.4,365.9,302.3,365.9,302.1,365.9z"/>
			<path class="st14" d="M265.5,399.5c-1.3,0-2.2-1.1-2.2-2.4s1.1-2.2,2.4-2.2s2.2,1.1,2.2,2.4C267.8,398.6,266.8,399.6,265.5,399.5
				z M265.6,396c-0.7,0-1.2,0.5-1.3,1.2c0,0.7,0.5,1.3,1.2,1.3s1.2-0.5,1.3-1.2C266.8,396.6,266.3,396,265.6,396z"/>
			<path class="st14" d="M280.9,400.1c-1.3,0-2.2-1.1-2.2-2.4s1.1-2.2,2.4-2.2s2.2,1.1,2.2,2.4C283.2,399.2,282.1,400.1,280.9,400.1
				z M281,396.6c-0.7,0-1.2,0.5-1.3,1.2c0,0.7,0.5,1.3,1.2,1.3s1.3-0.5,1.3-1.2C282.2,397.2,281.7,396.6,281,396.6z"/>
			<path class="st14" d="M296.2,399c-1.3,0-2.2-1.1-2.2-2.4s1.1-2.2,2.4-2.2s2.2,1.1,2.2,2.4C298.5,398.1,297.5,399.1,296.2,399z
				 M296.3,395.5c-0.7,0-1.2,0.5-1.3,1.2c0,0.7,0.5,1.2,1.2,1.3c0.7,0,1.2-0.5,1.3-1.2C297.5,396.1,297,395.6,296.3,395.5z"/>
			<path class="st14" d="M325.8,395.3c-1.3,0-2.2-1.1-2.2-2.4s1.1-2.2,2.4-2.2s2.2,1.1,2.2,2.4S327,395.3,325.8,395.3z M325.9,391.8
				c-0.7,0-1.3,0.5-1.3,1.2s0.5,1.2,1.2,1.3s1.2-0.5,1.3-1.2C327.1,392.4,326.6,391.8,325.9,391.8z"/>
			<path class="st14" d="M338.6,392c-1.3,0-2.2-1.1-2.2-2.4s1.1-2.2,2.4-2.2s2.2,1.1,2.2,2.4C341,391.1,339.9,392.1,338.6,392z
				 M338.8,388.5c-0.7,0-1.2,0.5-1.3,1.2c0,0.7,0.5,1.2,1.2,1.3c0.7,0,1.3-0.5,1.3-1.2C340,389.1,339.5,388.5,338.8,388.5z"/>
			<path class="st14" d="M311.6,397.9c-1.3,0-2.2-1.1-2.2-2.4s1.1-2.2,2.4-2.2s2.2,1.1,2.2,2.4C313.9,396.9,312.8,397.9,311.6,397.9
				z M311.7,394.4c-0.7,0-1.2,0.5-1.3,1.2c0,0.7,0.5,1.3,1.2,1.3s1.3-0.5,1.3-1.2C312.9,395,312.4,394.4,311.7,394.4z"/>
		</g>
		
			<ellipse transform="matrix(3.776212e-02 -0.9993 0.9993 3.776212e-02 47.3174 402.0008)" class="st1" cx="232.4" cy="176.4" rx="6.8" ry="6.8"/>
		<ellipse class="st1" cx="303.9" cy="168.4" rx="6.8" ry="6.8"/>
		<path class="st15" d="M287,244.7c-11.4-0.4-21.3,7.1-24.3,17.7c4.1-2.7,9-4.2,14.2-4c13.3,0.5,23.8,11.7,23.3,25.1
			c-0.1,2.1-0.4,4.2-1,6.1c6.5-4.1,11-11.3,11.3-19.6C310.9,256.5,300.4,245.2,287,244.7z M298.4,253.8c-0.7,1.7-3.9,2-7.1,0.7
			c-3.2-1.4-5.2-3.9-4.5-5.6s3.9-2,7.1-0.7C297.2,249.6,299.2,252.1,298.4,253.8z"/>
	</g>
	<path class="st4" d="M287.1,271c-0.1,0.2-0.1,0.3-0.2,0.5c-0.9,2.3-1.9,4.6-2.8,7c-0.9,2.2-1.7,4.3-2.6,6.5c0,0.1-0.1,0.1-0.2,0.1
		c-1.8,0.4-3.6,0.8-5.4,1.1c0,0,0,0-0.1,0c0,0,0-0.1,0-0.1c0.8-2.2,1.7-4.5,2.5-6.7c0.7-2,1.5-3.9,2.2-5.9c0.8-2.2,1.6-4.4,2.5-6.6
		c0.1-0.3,0.3-0.6,0.4-1c0-0.1,0-0.2,0-0.3c-0.6-1-1.1-2-1.7-3c-0.2-0.4-0.5-0.8-0.7-1.3c-0.1-0.1-0.2-0.2-0.3-0.1
		c-1.1,0.3-2.3,0.5-3.4,0.7c-0.2,0-0.2,0-0.3-0.2c-0.3-1.4-0.6-2.8-0.9-4.2c0-0.2,0-0.2,0.2-0.2c2.3-0.5,4.6-1,6.8-1.5
		c0.1,0,0.2,0,0.3,0.1c1.9,2.8,3.7,5.5,5.6,8.3c2.2,3.2,4.3,6.4,6.5,9.6c0.7,1,1.4,2,2,3c0.1,0.1,0.1,0.1,0.3,0.1
		c1.1-0.6,2.2-1.3,3.3-1.9c0.1-0.1,0.2-0.1,0.3,0.1c0.7,1.2,1.4,2.4,2.1,3.6c0,0,0,0.1,0.1,0.1c-0.1,0.1-0.2,0.1-0.2,0.1
		c-2.5,1.5-5.1,2.9-7.6,4.4c-0.1,0.1-0.2,0-0.2-0.1c-1.3-1.9-2.6-3.8-3.9-5.7c-1.3-1.9-2.5-3.8-3.8-5.6c-0.2-0.3-0.4-0.6-0.6-0.8
		C287.2,271.1,287.2,271,287.1,271L287.1,271z"/>
</g>
</svg>
