<?xml version="1.0" encoding="utf-8"?>
<!-- Generator: Adobe Illustrator 27.3.1, SVG Export Plug-In . SVG Version: 6.00 Build 0)  -->
<svg version="1.1" id="Layer_1" xmlns="http://www.w3.org/2000/svg" xmlns:xlink="http://www.w3.org/1999/xlink" x="0px" y="0px"
	 viewBox="0 0 500 500" style="enable-background:new 0 0 500 500;" xml:space="preserve">
<style type="text/css">
	.st0{fill:#88B8FD;}
	.st1{fill:#2A2A2D;}
	.st2{fill:#000080;}
	.st3{fill:#C00000;}
	.st4{opacity:0.42;}
	.st5{fill:#F2E270;}
	.st6{fill:#FFFFFF;}
	.st7{fill:#A7A9AC;}
	.st8{opacity:0.37;}
	.st9{fill:#B5F2F4;}
	.st10{fill:#C4CED6;}
	.st11{fill:#141416;}
	.st12{fill:#F2F492;}
	.st13{opacity:0.3;}
	.st14{fill:#1D1D1B;}
	.st15{fill:none;}
	.st16{opacity:0.2;}
	.st17{fill:#0A0808;}
</style>
<g>
	<g>
		<g id="COLOR">
			<g>
				<polygon class="st0" points="286.9,278.5 281.4,281.7 270.7,287.6 263.7,292.4 257.4,299.2 255.2,302.9 221.6,304.1 
					220.2,301.4 217.1,297.3 213.9,294.2 209.5,291.3 201.8,285.9 192.2,280.6 189.2,278.9 198.3,277.9 230.4,277.9 283.5,277.9 
									"/>
			</g>
			<g>
				<path class="st1" d="M254.8,304.1c-0.1,9.6-8.9,17.4-18.4,16.6c-4.2-0.4-7.3-1.9-10.3-4.9c-2.2-2.3-3.8-5.2-4.3-8.3
					c-0.5-2.8-0.2-6.6,0.7-9.2c0.9-2.4,2.3-4.6,4.2-6.3c4.8-4.5,11.7-5.6,17.8-3.1c2.9,1.2,5.4,3.2,7.3,5.7
					C254,297.6,254.9,300.3,254.8,304.1z"/>
			</g>
			<g>
				<path class="st2" d="M226.4,301.2c1.2-5.4,6-9.4,11.7-9.4s10.5,4,11.7,9.4l0.1,4.7c-1,5.6-5.9,9.9-11.8,9.9
					c-5.9,0-10.8-4.3-11.8-9.9L226.4,301.2z"/>
			</g>
			<g>
				<path class="st3" d="M272.9,363.4c0.4,7.3,1.3,18.6-1.8,24.1c-0.2-3.6-3.1-5.1-4.3-8.4c-1-2.6-2.6-5.6-2.8-8.4
					c-2.8,11.1,6.6,22.1-1.8,34.3c0.1-4.3-3.7-11.5-4.8-16.3c-2.3,5.2-1.7,15-2.4,21.1c-0.7,6.2-2.3,10.7-5.1,16.3
					c-4.4,8.7-6.3,18.9-9.9,26.7c-3.6-7.8-5.5-18-9.9-26.7c-2.8-5.7-4.4-10.2-5.1-16.3c-0.7-6.1,1.1-18.4-1.2-23.5
					c-1.1,4.8-5.5,12.5-5.4,16.8c-9.6-11.7-0.8-21.2-3.6-32.4c-0.2,2.8,0,7.3-1,9.8c-1.3,3.3-4.8,3.4-5,6.9
					c-3.1-5.5-2.2-16.9-1.8-24.1c0.2-4-0.7-8-1-11.9c-0.2-2.3-1.1-10.4,2.3-11c0.4-0.1,0.8,0,1.3,0.1c1.4,0.4,2.8,0.9,4.2,1.3
					c1.7,0.4,3.4,0.5,5.1,0.6c3.7,0.2,7.4,0.4,11.1,0.7c3.3,0.2,6.5,1.1,9.9,1.3c4.6,0.1,9.2-0.5,13.7-1.1c2.6-0.4,5.3-0.7,7.8-1.4
					c3.4-0.9,7-2.2,10.6-1.2c2.8,0.8,2.2,4.5,2.2,6.9C274,352.9,272.6,358.2,272.9,363.4z"/>
			</g>
			<g class="st4">
				<path class="st5" d="M262.6,357.7c0.2,4.9,0.9,12.6-1.2,16.3c-0.1-2.4-2-3.4-3-5.7c-0.7-1.7-1.8-3.8-1.9-5.7
					c-1.9,7.5,4.5,14.9-1.2,23.2c0.1-2.9-2.5-7.8-3.3-11c-1.6,3.5-1.1,10.1-1.6,14.3c-0.5,4.2-1.5,7.2-3.4,11.1
					c-3,5.9-4.3,12.8-6.7,18.1c-2.4-5.2-3.7-12.2-6.7-18.1c-1.9-3.8-3-6.9-3.4-11.1c-0.5-4.2,0.7-12.4-0.8-15.9
					c-0.7,3.2-3.7,8.4-3.7,11.4c-6.5-7.9-0.5-14.3-2.4-21.9c-0.1,1.9,0,4.9-0.7,6.7c-0.8,2.2-3.3,2.3-3.4,4.7
					c-2.1-3.7-1.4-11.4-1.2-16.3c0.1-2.6-0.4-5.4-0.7-8.1c-0.1-1.6-0.8-7,1.6-7.4c0.3-0.1,0.5,0,0.8,0.1c1,0.2,1.9,0.6,2.8,0.8
					c1.1,0.3,2.3,0.4,3.4,0.4c2.5,0.1,5,0.3,7.5,0.4c2.2,0.1,4.4,0.8,6.7,0.8c3.1,0.1,6.2-0.4,9.3-0.8c1.8-0.2,3.6-0.5,5.3-1
					c2.3-0.6,4.8-1.5,7.2-0.8c1.9,0.5,1.4,3,1.4,4.7C263.4,350.5,262.4,354.1,262.6,357.7z"/>
			</g>
			<g>
				<polygon class="st6" points="341.1,263.7 345,267.7 347,269.9 348.2,277.6 348.5,283.2 377.9,266 382.1,261.9 382.1,256.7 
					376.7,247.8 373.6,246.1 355.9,253.6 				"/>
			</g>
			<g>
				<path class="st0" d="M325.5,90.3l1.3,68.1l0.7,7.2l2.5,8.7l4.3,19.3c0.6,7,2,11.3,8.7,14.6c5.2,2.6,10.7,4.8,16.4,6.4
					c-2.5,2.4-5.8,4.1-9.2,4.8c1.1,0.3,2.2,0.7,3.1,1.4c0.9,0.7,1.5,1.9,1.2,3c-0.2,0.7-0.7,1.3-1.2,1.9c-1.3,1.4-2.7,2.6-4.1,3.9
					c-1.3,1.3-1.3,0.8-0.7,2.6c0.3,0.9-0.4,1.8-1.1,2.5c-2.8,2.9-5.7,5.8-9,8.1c-5.5,3.9-13.4,5.7-18.3,10.4c-0.7,0.6-0.8,1.6-1,2.4
					c-0.5,2.9-0.2,5.9-1,8.7c-0.6,2.2-1.3,4.3-1.9,6.4l-3,4.1l-4.6,0.4l-11.1,1.4l-8.4,0.8l-12.8,0.6h-12.5h-41.8l-28.8-0.1h-10.9
					l-6.4-1.9l-6-1l-6.4-2.1l-3.9-5.3l-1.8-8.7l-0.1-6l-5.6-2c-3.5-1.3-7.2-4.3-10.4-6.3c-2.6-1.7-5-3.7-7.2-5.8
					c-1.3-1.3-4.4-4.6-4.7-6.3c-0.1-0.8,0.3-1.7,1.1-1.8c-1.4,0.2-3.8-2.4-4.6-3.3c-1.6-1.7-2.4-3.9-2.8-6.1
					c0.5-0.3,1.2-0.3,1.8-0.4c2.2-0.4,1.3-1.9,0.2-2.8c-0.5-0.4-1.4-0.5-1.9-1c-0.8-0.7-1.5-1.9-2.2-2.7c5.5-2.1,11.6-4,16.2-7.8
					c2.3-2,4.3-4.9,5.4-7.7c0.5-1.4,0.2-3.7,0.4-5.2c0.3-2.3,0.7-4.8,1-7.1l5.4-21.1l9-20l0.1-8.8l3.9-30.6l3.9-25.2l46.4,28.1
					l17.5-3.5l10.9-0.2l16.3,2.4l17,4.8l29.8-13.4l21.4-9.6h0.7L325.5,90.3z"/>
			</g>
			<g>
				<circle class="st7" cx="237.1" cy="168.8" r="47.9"/>
			</g>
			<g>
				<circle class="st6" cx="237.1" cy="168.8" r="37.8"/>
			</g>
			<g class="st8">
				<circle class="st9" cx="237.1" cy="168.8" r="37.8"/>
			</g>
			<g>
				<path class="st1" d="M234,188.9c0.7,0.8,1.5,1.5,2.4,2.2c0.7,0.5,1.5,1,2.3,0.7c0.5-0.2,0.8-0.5,1.1-1c4.6-5.4,6.1-14,6.6-21
					c0.4-6.7-1.2-13.6-4.6-19.5c-4.4-7.6-8.3-7.2-11.4,1C226.3,162.4,225.3,179.6,234,188.9z"/>
			</g>
			<g>
				<path class="st6" d="M213,277.6c0,0,49.8,0.5,50.8,0.4c1-0.2,4.2-8.7,4.2-8.7l1.9-9.4l-0.7-7.1l10.7,1.9l15.5,1l11.7-1.4
					l10.4-1.5l5.2-1.7l11.3-5.2l11.7-9.4l3.9-5.2l-3.6-0.7l7.4-6.4l1.9-3.9l-7-1.2l8.7-3.6l-4-3.2l-12.5-5.8l-2,1.4l-2.9,1.2
					l-1.7,2.2l-5.4,5.8l-4,3.1l-3.2,1.7l-25,4.3l-2.3,0.4l-6.4-0.8l-5.4-1.3l-9.6-3.7l-9.2-5.2L259,212l-10.7,3.5l-10.2,0.8
					l-11.9-0.7l-10-3.1l-1.9,1.6l-6.9,4.9l-8.7,4.2l-6.1,2l-12,1.6h-2.3l-25.8-5.7l-6.6-5.7l-4.3-4.9l-4.8-2.6c0,0-2.3,0.1-2.5,0.1
					s-10.7,5.6-10.7,5.6l-3.6,1.1l2.9,2.2l4.9,2.3l-5.4,1.6l5.1,7.5l2.8,3.3l0.8,2.9l6.4,7.8l12.8,7l9,3.6l4.9,1l15.1,1.8l13.5-0.5
					l13.7-1.6h1.5l0.5,10.2l3.1,9L213,277.6z"/>
			</g>
			<g>
				<circle class="st6" cx="165.9" cy="224.2" r="12.2"/>
			</g>
			<g>
				<circle class="st2" cx="165.9" cy="224.2" r="8.6"/>
			</g>
			<g>
				<circle class="st6" cx="308.4" cy="223.2" r="12.2"/>
			</g>
			<g>
				<circle class="st2" cx="308.4" cy="224.2" r="8.6"/>
			</g>
			<g>
				<path d="M238.7,227.5c1-0.7,1.6-1.8,1.6-3c0-0.4-0.1-0.8-0.2-1.1c-0.4-0.8-1.4-1.1-2.3-1.2c-1.6-0.2-3.1,0.1-4.6,0.7
					c-0.2,0.1-0.4,0.2-0.5,0.4c-0.1,0.2-0.1,0.4,0,0.7c0.1,0.6,0.3,1.2,0.5,1.8C234.2,228.2,236.5,229.1,238.7,227.5z"/>
			</g>
			<g>
				<polygon class="st0" points="265.7,291.7 263,298.2 256.8,317.2 253.8,325.9 244,327.1 242.9,326.8 244,320.1 246.5,318.6 
					251,314.5 253.5,310.6 254.5,307.3 255.2,302.9 257.4,299.2 261.6,294.7 264.8,291.7 				"/>
			</g>
			<g>
				<polygon class="st0" points="209.5,291.3 211.8,298.8 216.2,311.1 221.3,324.8 225.5,326.5 233.6,327.5 233,324.8 232.4,320.1 
					229.7,318.6 227.4,316.9 224.4,313.9 222.6,310.3 221.8,307.4 221.6,303.3 217.6,297.7 214.5,294.8 				"/>
			</g>
			<g>
				<polygon class="st6" points="232.4,320.1 235.9,320.7 240.7,320.5 244,320.1 243.3,324.4 242.9,326.8 239,327.5 233,326.5 				
					"/>
			</g>
			<g>
				<path class="st0" d="M261,304.6l3.8-1.3l6.2-2c0,0,6.7-1.4,7-1.4c0.3-0.1,7.3-0.6,7.3-0.6l6.6,0.3l3,0.3l3.7-21.3v-2l-10.7,1.5
					l-4.5,2.2l-11.1,6.4l-6.6,4.3l-1.6,3.8L261,304.6z"/>
			</g>
			<g>
				<path class="st0" d="M180.3,278.2c-0.1,0.1-0.1,0.3-0.1,0.8c0.2,4,4.2,22.9,4.2,22.9h2.7h8.6l9.7,1.8l8.6,3.2l-1.6-6.7l-2.8-8.9
					l-4.2-3.1l-10.5-6l-7.8-4.5L180.3,278.2z"/>
			</g>
			<g>
				<polygon class="st0" points="185.1,309.4 192.4,316.2 210,322.6 221.3,324.8 217.8,315.1 214.6,306.8 206.3,303.7 197.1,302.3 
					188.4,301.9 183.3,302.3 				"/>
			</g>
			<g>
				<polygon class="st0" points="255.4,325.9 265.7,322.9 279.8,319.4 287.8,315.5 293.3,310.6 295,299.2 291.3,299.2 285.3,299.2 
					278.7,299.7 271,301.2 264.8,303.3 260.7,305.3 254.3,325.1 				"/>
			</g>
			<g>
				<polygon class="st1" points="200.1,319.3 203.6,332.3 206.3,339.6 216,342.8 235,344.5 251,343.7 271.1,341.1 273.5,339.6 
					279.8,319.4 265.7,322.9 251,326.5 239,329.1 229.7,327.1 210,322.6 				"/>
			</g>
			<g>
				<path class="st6" d="M295.2,298.6c0,0,11.9-3.8,12.2-3.9c0.2-0.2,22.2-4.4,22.2-4.4l1.4-7.2l-3-10.4l-3.8-2.8l-11.1,3.6
					l-5.5,2.2c-1.3,0.2-2.6,0.5-3.9,0.8c-2.7,0.5-4.5-0.2-5,3c-0.4,2.5-0.8,4.9-1.3,7.3C296.6,290.8,295.9,294.7,295.2,298.6z"/>
			</g>
			<g>
				<polygon class="st6" points="180.6,277.4 184.3,304.8 175,320 172,319.7 166.3,317.1 161.1,313.2 157.7,308.9 169.2,285.6 
					174.8,277.1 				"/>
			</g>
			<g>
				<polygon class="st2" points="160.7,303.7 164.5,302.9 169.8,300.9 172.7,297 180.9,283.6 179.1,277.1 174.8,277.1 				"/>
			</g>
			<g>
				<polygon class="st2" points="181.7,291.3 175,303.7 174.4,306.8 177.1,315.6 184.4,303.3 				"/>
			</g>
			<g>
				<polygon class="st2" points="297.8,284.3 305.7,282.3 312.4,281.2 315.7,280.1 321,273.5 321.6,271.5 315.3,271.8 311.8,274.5 
					304,275.9 297.3,276.5 				"/>
			</g>
			<g>
				<polygon class="st2" points="296.8,289.5 295.3,298.1 306.3,295.6 317.3,293.8 323.7,291.7 320.3,289.2 315.8,286.2 
					313.1,286.2 305.3,287.8 				"/>
			</g>
			<g>
				<path class="st1" d="M329.6,290.9l1.4,0.7l2.3-1.7l1.3-0.2c0,0,0.2,0.7,0.7,0.5c0.5-0.2,1,0.2,1,0.2l0.4-1.8l2.4,1.5l1.5,0.2
					l-0.1-2.5l3.9,1.3l1.4-1.3l1.6-3.9l0.8-6.3l-1.9-7.6l-3.3-4.2l-4.3-3.1l-3.6-0.6l-0.2,1.3l-3-0.8l-0.6,1.1l-0.4,1l-2.1-1.3
					l-0.6,0.5l-0.3,3.4l-1.8-1.4l-0.4,0.8l0.1,2.3l4.6,10.3l-0.8,10.2L329.6,290.9z"/>
			</g>
			<g>
				<path class="st6" d="M343.9,265.8c0-0.4,3.9-2.9,3.9-2.9l3.9-3v-2.2l-10.5,6L343.9,265.8z"/>
			</g>
			<g>
				<path class="st2" d="M372.2,268.9l-3.7-2l-4.9,1.7l-15.4,7.3c0,0,1.1,7,1.3,6.7C349.7,282.3,372.2,268.9,372.2,268.9z"/>
			</g>
			<g>
				<path class="st2" d="M343.7,265.3c0.2,0.1,2.7,2.6,2.7,2.6l7.1-5.1c0,0,9.6-6.7,9.6-6.9c-0.1-0.2,0.4-5.1,0.4-5.1l-11,6.2
					l-1.4,3.6L343.7,265.3z"/>
			</g>
			<g>
				<path class="st1" d="M370.9,260.6c0.1-0.1,0.2-0.1,0.3-0.1c1.3-0.7,1.7-2.2,1-3.5s-2.2-1.7-3.5-1c-0.1,0.1-0.2,0.1-0.2,0.2
					c-0.8-0.8-2-1-3-0.4c-1.3,0.7-1.7,2.2-1,3.5c0.4,0.6,0.9,1,1.5,1.2c-0.2,0.6-0.1,1.3,0.2,1.9c0.7,1.3,2.2,1.7,3.5,1
					C370.7,262.8,371.2,261.7,370.9,260.6z"/>
			</g>
			<g>
				<path class="st3" d="M370.1,260c0.1,0,0.1-0.1,0.2-0.1c0.8-0.4,1.1-1.4,0.7-2.2c-0.4-0.8-1.4-1.1-2.2-0.7
					c-0.1,0-0.1,0.1-0.2,0.1c-0.5-0.5-1.3-0.6-1.9-0.3c-0.8,0.4-1.1,1.4-0.7,2.2c0.2,0.4,0.5,0.7,1,0.8c-0.1,0.4-0.1,0.8,0.1,1.2
					c0.4,0.8,1.4,1.1,2.2,0.7C370,261.4,370.3,260.6,370.1,260z"/>
			</g>
			<g>
				<circle class="st1" cx="370" cy="252.9" r="1.7"/>
			</g>
			<g>
				<circle class="st1" cx="375.3" cy="255.3" r="1.7"/>
			</g>
			<g>
				<circle class="st3" cx="375.3" cy="255.3" r="0.9"/>
			</g>
			<g>
				<circle class="st1" cx="374.8" cy="260.6" r="1.7"/>
			</g>
			<g>
				<circle class="st3" cx="374.8" cy="260.6" r="1"/>
			</g>
			<g>
				<circle class="st3" cx="370" cy="252.9" r="1"/>
			</g>
			<g>
				<polygon class="st1" points="157.3,309.9 160.7,312.7 166.2,316.6 170.6,319 174.4,320 176.7,320 177.8,320.9 178.8,322.2 
					176.7,322.9 178.8,324.7 179.2,325.6 177.4,326.8 176.8,327.5 177.7,328.7 175.4,330.4 175.9,331.9 172.5,333.9 167.4,333.9 
					158.4,331.9 152.9,328.8 149.9,324 149.1,321.7 152.5,319.3 150.6,318 152.7,316.1 154.2,315.7 153.5,314.1 154.9,313.2 
					155.9,312.9 154.9,310.3 156.9,309.4 				"/>
			</g>
			<g>
				<path class="st10" d="M151.2,328.3c-0.4,0.3-6,39.5-6,39.5l2.5,3l6.8,0.7l8.2,1.4l1.4-2.1l2-7.6l4.8-23.6l0.5-5.6l-4-0.1
					l-5.9-0.7l-5.7-2.7c0,0-2.5-0.6-2.8-1.1C152.8,328.8,151.2,328.3,151.2,328.3z"/>
			</g>
			<g>
				<polygon class="st11" points="146.7,368.6 150.6,366 157,366 160.9,367.8 164.2,370.8 161.8,372.9 157,372.9 150,371 				"/>
			</g>
			<g>
				<polygon class="st6" points="155.2,330.3 152.2,339.6 150.9,341.4 150.2,333.9 152.6,328.1 				"/>
			</g>
			<g>
				<path class="st2" d="M154.6,330.1c-0.2-0.5,2.7,1.3,2.7,1.3l-5.8,22.2l-4,2.5l2.4-14.8l2.1-1L154.6,330.1z"/>
			</g>
			<g>
				<polygon class="st2" points="165.6,333.6 163.9,343.1 162.8,356.6 166.7,360.4 171.5,334 				"/>
			</g>
			<g>
				<path class="st5" d="M258.9,356.6c0.2,4.1,0.8,10.5-1,13.7c-0.1-2-1.7-2.9-2.5-4.8c-0.5-1.4-1.5-3.2-1.6-4.8
					c-1.6,6.3,3.7,12.5-1,19.4c0.1-2.4-2.1-6.5-2.7-9.2c-1.3,2.9-1,8.5-1.4,12c-0.4,3.5-1.3,6.1-2.9,9.3c-2.5,4.9-3.6,10.7-5.6,15.1
					c-2-4.4-3.1-10.2-5.6-15.1c-1.6-3.2-2.5-5.7-2.9-9.3c-0.4-3.5,0.6-10.4-0.7-13.3c-0.6,2.7-3.1,7-3.1,9.5c-5.4-6.6-0.4-12-2-18.3
					c-0.1,1.6,0,4.1-0.6,5.5c-0.7,1.9-2.7,1.9-2.8,3.9c-1.7-3.1-1.2-9.5-1-13.7c0.1-2.2-0.4-4.5-0.5-6.7c-0.1-1.3-0.7-5.9,1.3-6.2
					c0.2-0.1,0.5,0,0.7,0.1c0.8,0.2,1.6,0.5,2.3,0.7c1,0.2,1.9,0.3,2.9,0.4c2.1,0.1,4.2,0.2,6.3,0.4c1.9,0.1,3.7,0.7,5.6,0.7
					c2.6,0.1,5.2-0.3,7.8-0.7c1.5-0.2,3-0.4,4.5-0.8c1.9-0.5,4-1.3,6-0.7c1.6,0.5,1.2,2.5,1.2,3.9
					C259.6,350.6,258.8,353.6,258.9,356.6z"/>
			</g>
			<g>
				<path class="st12" d="M252.7,352.4c-0.2,1.4-0.4,2.6-0.5,3.1c-0.5,3.7-1.1,8.3-3,11.5c-1.3-0.7-1.9-3.4-2.3-4.9
					c-0.9,2-0.7,5.7-0.9,8.1c-0.3,2.3-0.8,4.1-1.9,6.3c-1.7,3.3-2.4,7.2-3.8,10.2c-1.4-3-2.1-6.9-3.8-10.2c-1.1-2.2-1.7-3.9-1.9-6.3
					c-0.2-2.3,0.4-7-0.5-9c0.5,1.1-1.9,4.9-2,6.4c-2.1-2.8-5.7-7.6-5.4-11.3c0.1-1.1,0.9-2.2,1-3.4c0.2-1.7-0.2-3.4-0.4-5
					c-0.1-0.9-0.4-4,0.9-4.2c0.2,0,0.3,0,0.5,0.1c0.5,0.1,1.1,0.4,1.6,0.5c0.7,0.2,1.3,0.2,1.9,0.2c1.4,0.1,2.8,0.2,4.2,0.2
					c1.3,0.1,2.5,0.4,3.8,0.5c1.7,0.1,3.5-0.2,5.2-0.4c1-0.1,2-0.3,3-0.5c1.3-0.4,2.7-0.8,4-0.5C253.8,344,253.3,348.9,252.7,352.4z
					"/>
			</g>
			<g>
				<polygon class="st6" points="252.9,301.2 246,301.2 246,300.9 244.9,299.2 243.3,297.2 241.5,296.2 240.2,295.7 238.7,295.4 
					236.6,295.6 235,296 233,297.1 231.4,298.7 230.2,300.9 230.1,301.2 223.3,301.2 223.3,305.9 230,305.9 230,306.2 231,308.3 
					232.1,309.7 233.7,311 235.9,311.9 237.5,312.1 239.2,312.1 241.1,311.6 242.4,310.9 243.6,310.1 244.5,309.2 245.7,307.4 
					246.1,306.3 246.1,305.9 252.9,305.9 				"/>
			</g>
			<g>
				<circle class="st6" cx="243.4" cy="157.5" r="4.8"/>
			</g>
			<g>
				<path class="st7" d="M222.5,106.4c0-7.5,8.1-13.2,18.1-13.2s18.1,6.6,18.1,14.1c0,0-11.1-2.6-17.1-2.6L222.5,106.4z"/>
			</g>
			<g>
				<polygon class="st11" points="325.5,90.3 312.6,111.8 310.2,134.6 314.4,139.5 319.7,148 326.4,162.4 				"/>
			</g>
			<g>
				<polygon class="st11" points="166.5,81.4 179.7,103.6 182,123.9 174.2,128.8 162.7,139.8 157.9,147.1 159.6,131 163.1,100.9 
									"/>
			</g>
		</g>
		<g id="SHADOWS">
			<g class="st13">
				<path class="st14" d="M225.3,98.1c0.3-0.2,0.6-0.5,1-0.7c2.7-2,5.1-4.7,8.7-4.5c-2.7,1.7-3.6,5.8-1.9,8.6c-4.7,0.8-8,5-10.5,9.1
					c-1,1.7-2,3.5-2.3,5.5c-0.2,2,0.4,4.2,2,5.4c-5.5,1.9-11.3,4.8-15.9,8.6c-6.6,5.2-11.8,12.2-14.9,20.1c-1.9,4.6-3,9.5-3.4,14.4
					c-1.3,17.3,8.1,34.9,23.1,43.7c-0.7,5.5-1.3,11-0.7,16.4c0.8,6.9,4.5,14.3,10.3,18.2c2.5,1.7,6,3.3,9,2.4c3-0.8,5.1-4.9,8.6-4.2
					c1,0.2,1.8,0.8,2.6,1.4c1.6,1.1,7,6.1,8.9,6.1c-3.5,0.1-6.9,1.1-9.8,3.1c-7.2,4.8-16,9.2-16.3,19.3c-0.1,2.2,0.8,4.8,2.9,5
					c0.3,0,0.7,0,0.8,0.2c0.4,0.5-0.4,1.1-1,1.2c-3.1,0.6-6.1-0.2-9.3,0c-1.4,0.1-2.9,0.2-4.1,1c-1.9,1.2-1.4,4-2,6
					c-0.7,2.5-1.1,5.1-1.4,7.7c-0.6,5.5-0.4,11,0.6,16.4c0.5,2.7,1.2,5.4,2.1,7.9c0.4,1.3,1,2.5,1.5,3.8c0.4,0.9,1.4,2.2,1.4,3.2
					c-4.2-0.5-8.5-2.5-12.3-4.3c-1.8-0.8-3.6-1.7-5.5-2.3c-1.3-0.4-2.6-0.7-3.9-1.1c-1.9-0.7-3.6-1.6-5.3-2.6
					c-0.7-0.4-1.3-0.8-1.9-1.3c-0.8-0.7-1.3-1.6-1.8-2.6c-0.6-1.3-0.5-2.5-0.5-3.9c-0.3-8.7-1-17.3-2.2-25.8c-0.1-1-0.3-2-0.9-2.7
					c-0.7-0.8-1.7-1-2.7-1.3c-2.3-0.5-4.6-1.1-6.9-1.7c-3.3-0.8-6.7-1.7-9.5-3.7c-2.2-1.6-4-4.3-4.1-7.1c0-0.6,0.2-1.3,0.1-1.9
					c-0.1-0.8-0.5-1.6-0.7-2.3c-0.4-1.8-0.5-3.6-0.2-5.4c0.1-0.7,0.2-1.4-0.2-1.9c-0.2-0.2-0.6-0.4-0.9-0.5c-1.4-0.5-2.8-1-4.2-1.6
					c-1.3-0.5-2.7-1-4-1.6c-7.8-3.5-14.2-9.6-19.7-16.1c-0.2-0.3-0.5-0.7-0.2-1c0.1-0.1,0.4-0.1,0.6-0.2c0.8-0.2,0.9-1.3,0.4-1.9
					c-0.4-0.7-1.2-1-1.9-1.3c-2.7-1.6-3.9-4.8-4.9-7.7c0.9-0.1,1.9-0.1,2.8-0.1c1.1-0.1,2-1.2,0.7-1.8c-1.9-0.8-3.7-1.7-5.7-2.6
					c-0.4-0.2-0.8-0.4-0.9-0.7c-0.2-0.4,0.1-1,0.4-1.3c0.4-0.3,0.8-0.4,1.3-0.5c5.7-1.4,11.7-3.3,15.7-7.5c0.9-1,1.7-2,2.5-3.1
					c1-1.3,1.9-2.6,2.6-4.2c0.9-2.1,1.1-4.4,1.3-6.7c0.1-1.7,0.3-3,1-4.6c0.7-1.7,1.1-3.6,1.6-5.3c1.4-5.3,2.3-10.7,3.9-16
					c1.1-3.9,2.5-7.7,4.2-11.3c0.8-1.7,2-3.3,2.5-5.1c0.6-2,0.4-4.1,0.5-6.1c0.1-2.8,0.9-5.4,1.5-8.1c0.2-1.1-0.1-2.1,0.2-3.2
					c0.2-1.3,0.8-2.6,1.3-3.9c0.6-2,0.8-3.6,0.7-5.6c-0.1-0.8,0-1.6,0-2.3c0.2-4.2,0.3-8.4,1.2-12.5c0.4-1.6,0.8-3.2,1.2-4.8
					c1.2-5.2,1.1-10.5,1.7-15.8c0.2-1.4-0.4-4.5,1.6-4.9c1-0.2,1.9,0.7,2.4,1.6c1.7,2.6,3,5.4,4.2,8.3c0.4,1,0.8,2,1.3,3.1
					c0.2,0.6,0.5,1.3,1,1.7c1.4,1.3,1.2-1.6,2.2-2.2c0.8-0.5,1.9-0.2,2.8,0.2c1.4,0.6,2.6,1.3,3.9,2c3.7,2.1,7.3,3.7,11.5,4.6
					c4.2,0.8,8.5,1.2,12.4,3c2.5,1.1,4.6,2.8,7.2,3.5c2.6,0.7,5.9,0.1,7-2.4C223.1,101.2,222.9,100.1,225.3,98.1z"/>
			</g>
			<g class="st13">
				<path class="st14" d="M158.7,311.8c1.4-0.5,2.9-2.3,4-2.8c2.5-1,5.4-0.1,7.6,1.6c2.1,1.6,3.7,3.9,5.4,6.1
					c0.5,0.6,1.1,1.3,1.9,1.3c0.9,0,1.6-0.8,2-1.6c3-4.6,6-9.6,6-15.1c0-2.6-0.7-5.1-1.3-7.6c-0.8-3.6-1.5-7.2-1.9-11
					c-0.1-1.1-0.2-2.3-0.8-3.3c-1.1-2.2-4-3.9-6.2-2.1c-2.3,1.9-1.9,6.5-3.6,9.1c-0.7,1-1.6,1.9-2.3,3c-1.3,1.7-1.9,3.8-2.7,5.8
					c-1.5,3.8-3.5,7.4-5.9,10.7c-1.3,1.7-3,3.7-3.4,5.9C157.8,312,158.2,312,158.7,311.8z"/>
			</g>
			<g class="st13">
				<path class="st14" d="M199.8,158.3c0.7-2,1.8-4.1,2.8-5.7c2-3.5,5-6.5,7.7-9.5c2-2.2,3.9-4.3,6.4-6.1c1-0.7,6.6-4.8,7.7-4.2
					c-1.6-1-1.8-3.4-0.9-5c0.9-1.6,2.6-2.7,4.2-3.6c1.6-0.9,3.4-1.7,4.6-3.2c-3.4-1-6.7,0.6-9.7,2.1c-3,1.5-6.1,2.8-9.2,4.2
					c-2.2,1-4.5,2.1-6.4,3.6c-2.2,1.7-3.9,3.9-5.5,6.1c-2.2,3-4.5,5.8-6.3,9c-5.5,9.5-7.3,20.9-5.7,31.7c0.3,2,0.7,4,1.6,5.8
					c0.5,1.2,1.3,2.3,1.9,3.5c1,2,1.5,4.2,2.3,6.3c2.3,5.5,6.7,9.7,11.4,13.1c2.5,1.7,5.2,3.1,7.7,4.8c1.8,1.2,4,1.3,6.1,1.7
					s3.7,1.6,5.6,2.2c0.4,0.1,4.6,0.5,4.5,0.4c-0.8-1-1.5-2.1-2.3-3.1c-0.5-0.7-0.9-1.3-1.2-2c-0.5-1.3-0.2-2.8-0.1-4.2
					c-4.2-2.1-8.1-3.6-11.9-6.3c-8.6-6.1-14.8-16-16-26.5c-0.2-2,0.1-4,0.1-6c-0.1-2.1-0.5-4-0.3-6.2
					C199.2,160.4,199.5,159.3,199.8,158.3z"/>
			</g>
			<g class="st13">
				<path class="st14" d="M286.5,111.8c11.4-0.4,22.6-4.8,31.3-12.1c-5.1,10.3-8.1,21.7-8.8,33.1c-10.3-3.6-17.3-13.5-27.6-17.3
					c-2.6-1-6.3-1.2-8.5-3C275.8,110.5,283.1,112,286.5,111.8z"/>
			</g>
			<g class="st13">
				<path class="st14" d="M313.6,259.7c2.1,0.1,4.4,0.3,6.1,1.5c0.2-3.1,0.1-6.1-0.3-9.2c-7.5,2.2-15.2,3.5-22.9,4.1
					c-2.2,0.2-4.3,0.2-6.5,0.1c-2.3-0.2-4.7-0.7-7-1.1c-4-0.8-8.4-2.3-12.4-2.4C272.2,261.6,306.6,259.5,313.6,259.7z"/>
			</g>
			<g class="st13">
				<path class="st14" d="M342.9,289.9c2.1,0.3,2.9-0.5,3.7-2.5c0.6-1.6,1.2-3,2.8-3.7c0.9-0.4,1.9-0.6,2.8-1
					c2.6-1.1,4.8-2.9,6.9-4.7c1-0.9,1.9-1.8,3.1-2.3c1.3-0.6,2.6-1.2,3.9-1.8c4.8-2.4,9.7-5.2,14.3-8.1c0.7-0.4,1.3-0.9,1.7-1.6
					c0.3-0.6,0.4-1.3,0.4-2c-0.1-2.2-1.1-4.4-2.8-5.8c0.4,2.8-1.4,5.1-3.6,6.7c-2,1.5-4.3,2.5-6.5,3.8c-3.7,2.2-7,5.1-10.7,7.3
					c-3.4,2-7,3.1-11.1,2.7c-1.6-0.1-2.3-0.2-3.1-1.8c-0.6-1.1-0.8-2.8-2.2-3.3c-1.6-0.5-3,1.4-3.3,3.1s-0.3,3.7-1.6,4.8
					c-0.2-1.1-1.6-1.8-2.6-1.4c-0.2,1.6-1.3,3.7-2.8,3.1c-0.5-0.2-0.8-0.8-1.2-1.1c-1.6-1.6-4.2-0.5-6.2,0.5
					c-7.1,3.4-16.3,4.8-22.3-0.3c-0.9-0.8-1.7-1.7-2.6-2.5c-1.7,3-2.5,7.1-3.1,10.5c-0.6,3.1-1.6,7.4-1.1,10.5
					c0.1,0.5,29.1-5.2,31.2-5.9c0.9-0.2,1.8-0.5,2.7-0.8c0.2-0.1,0.5-0.1,0.8-0.1c0.3,0.1,0.5,0.3,0.8,0.4c1.1,0.4,1.7-1.6,3-1.7
					c0.8-0.1,1.8,0.9,2.5,0.3c0.1-0.1,0.2-0.2,0.3-0.4c0.5-0.5,1.3,0,1.8,0.5c0.5,0.4,1.4,0.7,1.7,0.1c0.2-0.4-0.1-1,0.2-1.3
					c0.2-0.2,0.6-0.2,0.9-0.2C341.9,289.7,342.4,289.8,342.9,289.9z"/>
			</g>
			<g class="st13">
				<path class="st14" d="M223.7,326.1c-8.1-2-16.1-3.9-24.3-5.9c1.4,4.6,3,9.1,4.8,13.5c1,2.5,2,5.1,4.3,6.6
					c1.9,1.3,4.3,1.5,6.5,1.7c7.9,0.7,15.9,1.4,23.8,2.2c-3.1-0.3-7-1.8-9.1-4.2c-1.3-1.6-2.2-2.6-1.4-4.5c0.7-1.8,2.8-3.3,4.5-4.1
					c1.3-0.5,2.8-0.8,4.1-0.3c1.3,0.5,2.4,1.7,2.3,3.1c0.1-1.4,0.1-2.8,0-4.2c-0.1-0.4-0.1-0.7-0.3-1c-0.9-1.4-6.2-1.3-7.7-1.6
					C228.7,327.1,226.2,326.7,223.7,326.1z"/>
			</g>
			<g class="st13">
				<path class="st14" d="M245.5,331.7c0.2,0.4,0.4,0.7,0.7,1c0.3,0.3,0.7,0.4,1,0.7c1.1,0.7,1.9,2.1,1.7,3.4
					c0.4-1.7,0.9-3.6,2.3-4.7c0.7-0.5,1.4-0.8,2.2-1c0.8-0.2,1.7-0.3,2.5-0.1s1.6,0.8,1.9,1.6c1.4-2.2,3.4-4.1,5.5-5.5
					c0.5-0.3,1-0.6,1.6-0.8c1-0.3,2.2,0.1,3,0.8c0.8,0.8,1.1,1.9,0.8,3c0.4-1.4,1.1-2.7,2.3-3.6c1.1-0.8,2.8-1.1,4.1-0.5
					c1.3,0.6,2.2,2.2,1.7,3.6c0.1-2.1,0.6-4.2,1.5-6.1c0.5-1.1,1.1-2.1,1.3-3.3c0.1-0.2,0.1-0.4,0-0.6c-0.2-0.6-1.2-0.4-1.7,0
					c-7.8,4.7-17.5,4.9-26.3,7.2c-2,0.5-3.9,1.1-5.9,1.5c-1.5,0.3-4.1,0.1-5.4,0.9C242.1,330.3,244.2,330,245.5,331.7z"/>
			</g>
			<g class="st13">
				<path class="st14" d="M231.3,332.8c-0.2,0.2-0.4,0.4-0.7,0.5"/>
			</g>
			<g class="st13">
				<path class="st14" d="M204.2,140c0.1,0.1,0.3,0.2,0.4,0.3c0.5,0.2,1,0.4,1.6,0.3s1-0.5,1.1-1c-0.2,0-0.4,0.1-0.5,0.1
					c-0.3,0.1-0.6,0.2-0.9,0.1s-0.6-0.2-0.7-0.5c-0.1-0.1-0.1-0.3-0.1-0.4c0-0.2,0-0.4,0.1-0.7c0.1-0.1,0.4-0.4,0.4-0.5
					c0-0.4-0.5-0.3-0.8-0.2C203.7,137.8,203.5,139.2,204.2,140z"/>
			</g>
			<g class="st13">
				<path class="st14" d="M192.4,171.4c-0.5,0.2-0.8,0.8-0.8,1.4c0,0.5,0.3,1.1,0.7,1.5c0.7,0.5,1.7,0.4,2.1-0.4
					c0.3-0.4,0.4-1,0.4-1.4c-0.5,0.7-2.1,0.5-2.2-0.5c0-0.1,0-0.3-0.1-0.4s-0.3-0.2-0.4-0.1c-0.1,0.1-0.1,0.2-0.2,0.2"/>
			</g>
			<g class="st13">
				<path class="st14" d="M205.9,200.8c0.1,0,0.1,0,0.2-0.1c0.5-0.1,1.3-0.7,1.3-1.3c0.1-1.1-0.7-0.1-1.3-0.1
					c-0.2,0.1-0.9,0-1.1-0.2c-0.1-0.1-0.1-0.3-0.1-0.5c0-0.1-0.1-1.1,0-1.1C203,198.5,203.7,201.1,205.9,200.8z"/>
			</g>
			<g class="st13">
				<path class="st14" d="M237.7,212.4c-0.2,0-0.4,0-0.6,0c-0.5-0.1-0.9-0.7-0.8-1.3c-0.4,0.2-0.5,0.7-0.5,1.1
					c0.1,0.4,0.4,0.8,0.7,1.1c0.2,0.2,0.3,0.3,0.5,0.4c0.4,0.2,1,0.2,1.3-0.1c0.4-0.2,0.7-0.6,0.9-1c0.1-0.1,0.1-0.2,0.1-0.3
					C239.3,211.3,238.3,212.3,237.7,212.4z"/>
			</g>
			<g class="st13">
				<path class="st14" d="M235.3,125c0-0.1,0-0.2,0-0.2c0-0.4-1.1,0.2-1.2,0.2c-0.5,0.7-0.9,1.4-0.4,2.1c0.5,0.5,1.3,1,2,0.8
					c0,0,0.1,0,0.1-0.1c0.1-0.1,0.1-0.2,0-0.3c-0.1-0.1-0.2-0.1-0.3-0.1c-0.5-0.2-0.8-0.7-0.8-1.3
					C234.8,125.7,235.2,125.4,235.3,125z"/>
			</g>
			<g class="st13">
				<path class="st14" d="M268.2,142.1c0.2,0.1,0.5,0.1,0.8,0c0.5-0.1,1.1-0.3,1.3-0.8c0.1-0.2,0.2-0.5-0.1-0.6
					c-0.1-0.1-0.3,0-0.4,0.1c-0.5,0.2-1.1,0.2-1.6-0.2c-0.4-0.4-0.2-0.8-0.2-1.3c-0.2-0.1-0.4,0.1-0.6,0.4
					C266.8,140.6,267.2,141.8,268.2,142.1z"/>
			</g>
			<g class="st13">
				<path class="st14" d="M278.7,168.3c0,0.7,0.4,1.3,1,1.6c0.5,0.3,1.3,0.3,1.8-0.1c0.5-0.4,0.8-1.1,0.6-1.6
					c-0.2,0.1-0.4,0.3-0.7,0.5c-0.5,0.3-1.2,0.2-1.6-0.3C279.6,168,278.7,167.2,278.7,168.3z"/>
			</g>
			<g class="st13">
				<path class="st14" d="M270.7,196.3c-0.3,0-0.6-0.1-0.8-0.2c-0.3-0.3-0.2-0.8-0.4-1.1l-0.1-0.1c-0.1,0-0.1,0-0.1,0.1
					c-0.6,0.5-0.7,1.5-0.3,2.2c0.1,0.2,0.3,0.4,0.5,0.5c0.2,0.1,0.5,0.2,0.8,0.2c0.4,0.1,0.8,0.1,1.1-0.1c0.2-0.1,0.4-0.4,0.5-0.7
					c0.2-0.3,0.2-0.7,0.2-1.1c0-0.1-0.2-0.8-0.5-0.7c-0.1,0.1-0.1,0.5-0.1,0.6C271.5,196.2,271.1,196.3,270.7,196.3z"/>
			</g>
		</g>
		<g id="LIGHTS">
			<g>
				<path class="st6" d="M260,164.2c0.1,6-1.9,12.1-5.8,16.8c2.9,0.1,5.7-1.4,7.6-3.6c1.9-2.1,3.2-4.8,4.2-7.5
					c1.1-3.1,2.1-6.3,1.9-9.5c-0.2-3.6-1.7-7-3.6-10.1c-1.9-3.3-4.4-6.7-7.9-8.5c-2.6-1.4-5.7-2-4.9,1.7c0.7,3.1,3.6,6,5.1,8.7
					C258.8,155.9,259.9,160,260,164.2z"/>
			</g>
			<g class="st13">
				<path class="st6" d="M304.9,157.4c1,2.8,3.9,5.9,6.5,4.5c2.2-1.1,2.2-4.3,1.6-6.8c-0.8-3.4-24.3-43.7-29.4-27.2
					c-1.4,4.5,6,8.7,8.4,11.3c5.1,5.5,10.5,11,12.9,18.1C304.9,157.2,304.9,157.3,304.9,157.4z"/>
			</g>
			<g class="st13">
				<path class="st6" d="M304,99.8c-3.7,1.9-7.6,3.6-11.6,4.5c-1.3,0.3-2.8,0.8-3,2c8.8,0.4,16.4-5.6,24.8-8.1
					c2.3-0.7,4.8-1.1,6.9-2.3s3.9-3.3,3.8-5.7c-0.1-1-13.5,5.5-14.8,6.2C308.1,97.6,306,98.8,304,99.8z"/>
			</g>
			<g>
				<path class="st15" d="M319.7,181c-0.9,5.1-1.3,10.2-1.2,15.4c3.6,0.8,6.7-3.1,6.7-6.8c-0.1-3.7-2.3-6.9-4.4-9.9"/>
			</g>
			<g class="st13">
				<path class="st6" d="M264.6,133.1c-1.2-0.3-2.4-0.4-3.6-0.2c-0.2,0.1-0.5,0.1-0.6,0.2c-0.4,0.3-0.3,0.8-0.2,1.2
					c0.5,2,2.4,3.2,4,4.5c1.7,1.3,3.2,2.8,4.7,4.3c0.8,0.8,1.7,1.7,2.3,2.7c0.6,1.1,0.9,2.3,1.4,3.5c0.2,0.5,0.7,1.2,1.2,1
					c0.2-0.1,0.4-0.3,0.6-0.5c0.6-1,0.8-2.3,0.8-3.5c0-0.6,0-1.2-0.2-1.8c-0.2-0.5-0.4-1-0.7-1.4c-0.7-1.1-1.3-2.2-2-3.3
					c-0.9-1.5-1.9-3-3.4-4c-0.7-0.5-1.5-0.8-2.2-1.3C266,133.9,265.5,133.4,264.6,133.1z"/>
			</g>
			<g class="st13">
				<path class="st6" d="M241.5,96.2c-0.4,0.1-0.8,0.4-0.8,0.8c0,0.4,0.4,0.6,0.7,0.8c1.3,0.6,2.5,1,3.8,1.6
					c1.2,0.7,2.3,1.6,2.9,2.8c0.1,0.2,0.2,0.5,0.4,0.7c0.4,0.4,1,0.4,1.6,0.4c0.5-0.1,1-0.1,1.3-0.5c0.9-0.8,0.2-3-0.3-3.9
					c-0.6-1-1.5-1.8-2.6-2.3C246.4,95.6,243.7,95.5,241.5,96.2z"/>
			</g>
			<g>
				<path class="st15" d="M266.4,323.8c-1.6,4.2-3.6,8.3-5.7,12.3c3.6,1,8-0.1,9.6-3.5c1.6-3.4-1.6-8.2-5.2-7.1"/>
			</g>
			<g class="st13">
				<path class="st6" d="M308.3,266.6c-0.4,0.7-1,1.1-1.6,1.6c-1.7,1.3-3.5,2.4-5.5,3.2c-0.5,0.2-1,0.5-1,1c-0.1,0.6,0.6,1,1.1,1.1
					c3.3,1,7,0.3,9.8-1.8c0.7-0.5,1.3-1.2,1.7-2c0.6-1.1,0.7-2.5,0.7-3.9c0-0.9-0.1-1.8-0.5-2.6c-0.7-1.3-2.5-2-3.6-0.7
					C308.7,263.7,309,265.4,308.3,266.6z"/>
			</g>
			<g class="st16">
				<path class="st3" d="M372.5,250.8c0.2,0.3,0.4,0.7,0.7,0.9c0.4,0.3,1,0.2,1.5,0.2c1.1,0,2.3,0.7,2.8,1.7c0.5,1,0.5,2.3-0.1,3.3
					c-0.3,0.5-0.8,1-0.7,1.6c0.1,0.3,0.3,0.6,0.5,0.8c0.7,1.1,0.8,2.7-0.1,3.7c-0.9,1-2.6,1-3.5,0c-0.2-0.2-0.4-0.5-0.6-0.6
					c-0.5-0.1-0.8,0.5-1.1,1c-0.8,1.4-2.6,1.8-4.2,1.4c-1.5-0.4-2.7-1.6-3.6-3c-0.7-1-1.2-2.1-1.3-3.3c-0.2-3,2.8-3.3,3.9-5.5
					C367.6,250.9,370.4,247.9,372.5,250.8z"/>
			</g>
			<g class="st16">
				<path class="st3" d="M372.3,251.6c0.2,0.3,0.3,0.6,0.6,0.8c0.4,0.2,0.9,0.2,1.3,0.2c1,0,2,0.6,2.5,1.4c0.5,0.9,0.5,2-0.1,2.9
					c-0.3,0.4-0.7,0.9-0.6,1.4c0.1,0.3,0.2,0.5,0.4,0.7c0.7,1,0.7,2.3-0.1,3.3c-0.8,0.8-2.3,0.9-3.1,0c-0.2-0.2-0.3-0.5-0.5-0.5
					c-0.5-0.1-0.8,0.5-1,0.9c-0.7,1.2-2.3,1.6-3.7,1.2c-1.3-0.4-2.3-1.4-3.1-2.6c-0.6-0.9-1.1-1.9-1.1-2.9c-0.2-2.6,2.5-2.9,3.4-4.9
					C368,251.7,370.5,249,372.3,251.6z"/>
			</g>
			<g class="st16">
				<path class="st3" d="M372.8,249.9c0.2,0.4,0.4,0.8,0.8,1c0.5,0.4,1.1,0.2,1.7,0.2c1.3,0,2.6,0.7,3.3,1.9
					c0.7,1.1,0.6,2.6-0.1,3.8c-0.4,0.6-0.9,1.1-0.8,1.9c0.1,0.4,0.3,0.7,0.5,1c0.8,1.3,0.8,3.1-0.2,4.2c-1,1.1-3.1,1.2-4,0
					c-0.2-0.3-0.4-0.6-0.7-0.7c-0.6-0.2-1,0.6-1.3,1.1c-0.9,1.6-3.1,2.1-4.8,1.6c-1.7-0.5-3.1-1.9-4.1-3.4c-0.8-1.1-1.4-2.4-1.5-3.8
					c-0.2-3.4,3.3-3.8,4.5-6.4C367.2,250,370.4,246.5,372.8,249.9z"/>
			</g>
			<g class="st16">
				<path class="st3" d="M372.9,248.6c0.3,0.4,0.5,0.9,0.9,1.2c0.6,0.4,1.3,0.2,2,0.2c1.6,0,3.1,0.9,3.9,2.2
					c0.8,1.4,0.7,3.1-0.1,4.5c-0.4,0.7-1.1,1.4-0.9,2.2c0.1,0.4,0.4,0.8,0.6,1.1c1,1.5,1,3.7-0.2,5c-1.2,1.3-3.6,1.4-4.7,0
					c-0.2-0.3-0.5-0.7-0.8-0.8c-0.7-0.2-1.2,0.7-1.6,1.3c-1.1,1.9-3.6,2.5-5.7,1.9c-2-0.6-3.6-2.2-4.8-4c-0.9-1.3-1.7-2.9-1.8-4.5
					c-0.3-4.1,3.8-4.5,5.2-7.6C366.2,248.7,370.1,244.6,372.9,248.6z"/>
			</g>
			<g class="st13">
				<path class="st6" d="M284.1,305.4c-1.2,1.9-2.6,3.6-4.3,5.1c-4,3.7-8.6,7.1-14,7.7c5.5,1,11.1-1.4,16.1-4
					c1.7-0.9,3.4-1.9,4.7-3.2c1-1,1.7-2.1,2.4-3.3c2.5-4.3,3.9-9.2,4-14.2c0.1-3.3-0.6-7.7,1.9-10.1c0.8-0.8,1.6-2.2,0.7-3
					c-6.3,0.5-12.5,2.5-17.8,5.9c-0.4,0.3-1,0.7-0.8,1.3c0.1,0.2,0.3,0.4,0.5,0.5c2.6,1.4,5.7-2,8.5-1.3c1.5,0.4,2.5,1.8,2.8,3.3
					c0.3,1.5,0,3.1-0.4,4.5C287.5,298.7,286.1,302.3,284.1,305.4z"/>
			</g>
			<g class="st13">
				<path class="st6" d="M276.2,151c-0.7,0.5-1.4,1.1-1.7,1.9c-0.3,0.8,0.1,1.9,1,2c0.6,0.1,1.1-0.3,1.5-0.8
					c0.6-0.8,0.7-1.9,0.4-2.8c-0.1-0.1-0.1-0.3-0.2-0.4c-0.1-0.1-0.3,0-0.4,0.2"/>
			</g>
			<g>
				<path class="st6" d="M251.7,185.1c-0.7-0.1-1.2,0.6-1.4,1.3c-0.4,1.1-0.1,2.5,0.9,3c0.4,0.2,0.9,0.2,1.4,0.2
					c1.1-0.1,2.2-0.6,2.7-1.6c0.5-1,0.4-2.3-0.5-2.9c-1-0.7-2.5-0.2-3.7,0.4"/>
			</g>
			<g class="st13">
				<path class="st6" d="M313.4,218.3c1.7,3.3,1.7,7.3,0.2,10.7c-1.6,3.4-4.7,5.9-8.3,6.8c3.1,0.9,6.6,0.5,9.5-1.2
					c2.8-1.6,4.9-4.5,5.7-7.6c0.2-0.9,0.3-1.8,0.3-2.7c-0.1-2.5-1.1-4.8-2.3-6.9c-1-1.7-2.1-3.3-3.8-4.3c-1.4-0.8-3-1-4.6-1
					c-1.6,0-3.7,0.2-5.1,1c1,0.7,2.5,0.7,3.7,1C310.8,214.9,312.4,216.3,313.4,218.3z"/>
			</g>
			<g class="st13">
				<path class="st6" d="M166.8,229.5c-3.1-1.1-5.7-3.6-6.9-6.7c-0.3,0.5-0.2,1.3,0,1.9c0.5,1.6,1,3.4,2.2,4.6
					c1.2,1.2,3.4,1.6,4.6,0.5c-0.1-0.4-0.8-0.4-0.9,0"/>
			</g>
			<g class="st13">
				<path class="st14" d="M218.8,304.1c-0.1,1.3,0.2,2.6,0.4,4c1.1,5.4,3.7,10.8,8.6,13.3c2.9,1.4,6.2,1.6,9.4,1.8
					c1.9,0.1,3.9,0.2,5.7-0.1c1.9-0.3,3.7-1.1,5.1-2.5c1.4-1.5,2-3.5,2.6-5.4c-5.2,5.1-13.5,6.7-20.3,3.9c-5.7-2.3-8.7-9.5-8.9-15.3
					c0-0.8,0.2-1.7,0.4-2.5c0.3-1.3,0.6-2.6,0.9-3.9c0.1-0.4,0.2-0.8,0.4-1.2c0.4-0.8,1.4-1.5,1.4-2.4
					C221.2,295.4,218.9,300.4,218.8,304.1z"/>
			</g>
			<g class="st13">
				<path class="st14" d="M229.2,298.8c-0.4,0.4-0.8,0.8-1.3,1.1c-0.6,0.4-1.3,0.5-1.9,0.7c-0.8,0.2-1.6,0.4-2.4,0.6
					c1.2,0.1,2.5,0.1,3.7,0.1c0.6,0,1.3,0,1.9,0c0.4,0,1,0.1,1.2-0.5c0.1-0.4,0.4-0.7,0.6-1.1c0.2-0.4,0.5-0.7,0.8-1
					c0.2-0.3,0.5-0.6,0.8-1c0.1-0.2,0.2-0.3,0.4-0.5c0.1-0.1,0.2-0.5,0.4-0.5C231.8,297,230.3,297.9,229.2,298.8z"/>
			</g>
			<g class="st13">
				<path class="st14" d="M226.3,307.3c0.1,0.1,0.3,0.1,0.4,0.1c0.4,0.1,0.8,0.2,1.2,0.4c1.5,0.7,2.5,2.5,3.7,3.6
					c2.2,2,5.5,2.6,8.4,2c0.8-0.2,1.6-0.4,2.2-0.9c0.7-0.5,1.1-1.4,1.1-2.2c-1.6,1.2-3.8,2-5.8,1.8c-0.5-0.1-1-0.1-1.6-0.2
					c-1.1-0.2-2.2-0.6-3.1-1.3c-0.5-0.4-0.8-0.8-1.1-1.2c-0.4-0.5-0.8-1.1-1.1-1.6c-0.2-0.2-0.4-0.6-0.5-0.9
					c-0.1-0.2,0.1-0.5-0.1-0.7c-0.2-0.2-0.9-0.2-1.2-0.2c-0.6,0-1.2,0-1.8,0c-1.4,0-2.7,0.2-4.1,0.2c0.6,0.2,1.2,0.4,1.8,0.7
					C225.3,307,225.8,307.1,226.3,307.3z"/>
			</g>
		</g>
		<g id="DETAILS">
			<g>
				<path d="M331.6,292.3c-0.1,0-0.1,0-0.2,0c-0.7-0.2-1.7-0.5-2.4-1.6c-0.2-0.3-0.1-0.7,0.2-0.8c0.3-0.2,0.7-0.1,0.8,0.2
					c0.3,0.5,0.8,0.8,1.5,1c0.4-0.2,0.8-0.8,1.1-1.3c0.2-0.4,0.5-0.7,0.8-1c0.1-0.1,0.2-0.2,0.4-0.2l0,0c0.2,0,0.3,0.1,0.4,0.2
					l0.1,0.1c0.5,0.5,0.9,1,1.4,1c0-0.1,0-0.2,0-0.4c0-0.4,0-0.7,0.2-1.1c0.1-0.2,0.2-0.3,0.4-0.3c0.2-0.1,0.4,0,0.5,0.1
					c0.2,0.2,0.5,0.4,0.8,0.5c0.8,0.5,1.7,1.1,2.3,1.1c0-0.2-0.1-0.6-0.1-0.8c-0.1-0.4-0.2-0.8-0.1-1.2c0-0.2,0.1-0.4,0.2-0.5
					c0.2-0.1,0.4-0.1,0.5-0.1c0.4,0.1,0.8,0.4,1.3,0.5c1,0.4,1.9,0.8,2.6,0.6c0.5-0.4,1-1.7,1.5-2.9c0.4-1.1,0.8-2,1.3-2.7
					c0.2-0.2,0.6-0.3,0.8-0.1c0.2,0.2,0.3,0.6,0.1,0.8c-0.4,0.5-0.7,1.5-1.1,2.4c-0.6,1.6-1.1,3-2,3.6c-0.1,0-0.1,0.1-0.1,0.1
					c-1.2,0.5-2.5-0.1-3.6-0.7c-0.1-0.1-0.2-0.1-0.3-0.1l0,0c0.1,0.7,0.3,1.6-0.3,2c-0.1,0.1-0.1,0.1-0.2,0.1
					c-1.3,0.4-2.5-0.4-3.6-1.1c0,0.5-0.1,1.1-0.7,1.3c-0.1,0-0.1,0-0.1,0c-1,0.2-1.7-0.4-2.3-1c-0.1,0.1-0.2,0.2-0.3,0.4
					c-0.5,0.7-1.1,1.4-1.9,1.7C331.7,292.3,331.7,292.3,331.6,292.3z"/>
			</g>
			<g>
				<path d="M325.9,270.5L325.9,270.5c-0.4,0-0.6-0.3-0.6-0.6c0.1-2.2-0.1-3-0.1-3.1c-0.1-0.3-0.1-0.5,0.2-0.8
					c0.1-0.1,0.1-0.1,0.3-0.4c0.1-0.1,0.2-0.2,0.4-0.2c0.8-0.1,1.3,0.3,1.7,0.8c0-0.1,0-0.1-0.1-0.1c-0.2-0.8-0.5-1.9,0.3-3
					c0.1-0.1,0.2-0.2,0.4-0.2c1-0.2,1.7,0.2,2.3,0.7c-0.1-0.4,0.1-0.8,0.4-1.1c0.8-0.7,1.9-0.4,3.1,0.3c0.1-0.3,0.2-0.6,0.4-1
					c0.1-0.2,0.3-0.2,0.5-0.2c1.7-0.1,3.1,0.7,4.2,1.4c0.2,0.2,0.5,0.3,0.7,0.5c0.3,0.2,0.4,0.5,0.2,0.8s-0.5,0.4-0.8,0.2
					c-0.2-0.2-0.5-0.3-0.8-0.5c-1-0.7-2-1.3-3.2-1.3c-0.1,0.3,0,0.5,0.4,0.8c0.2,0.2,0.3,0.4,0.5,0.7c0.1,0.2,0.1,0.5-0.1,0.7
					c-0.2,0.2-0.5,0.2-0.7,0.1c-1-0.7-2.9-2.1-3.4-1.7c-0.2,0.2,0.1,0.7,0.4,1.4c0.2,0.4,0.4,0.9,0.5,1.3c0.1,0.2-0.1,0.5-0.2,0.7
					c-0.2,0.1-0.5,0.1-0.7,0c-0.5-0.4-0.9-0.8-1.3-1.3c-0.7-0.8-1.3-1.4-1.9-1.4l0,0c-0.2,0.5-0.2,1,0.1,1.7
					c0.2,0.7,0.4,1.6-0.1,2.3c-0.1,0.1-0.2,0.2-0.4,0.2s-0.4,0-0.5-0.1c-0.3-0.2-0.5-0.5-0.7-0.8c-0.3-0.4-0.5-0.7-0.7-0.7
					c0,0.1-0.1,0.1-0.1,0.1c0.1,0.4,0.2,1.3,0.1,3.3C326.5,270.2,326.2,270.5,325.9,270.5z"/>
			</g>
			<g>
				<path d="M329.6,291.5c-0.1,0-0.1,0-0.2,0c-0.7-0.1-1.1-0.7-1-1.3c0.1-0.7,0.2-1.3,0.4-1.8c0.1-0.5,0.2-1,0.3-1.6
					c0.2-1.6,0.4-3.3,0.2-4.8c-0.1-1-0.4-2-0.7-3.1c-0.1-0.4-0.2-0.7-0.3-1.1c-0.7-2.7-1.3-5.2-3.3-7c-0.5-0.4-0.5-1.2-0.1-1.7
					c0.4-0.5,1.2-0.5,1.7-0.1c2.5,2.2,3.3,5.2,4,8.2c0.1,0.4,0.2,0.7,0.3,1.1c0.3,1.1,0.6,2.3,0.7,3.5c0.2,1.9-0.1,3.6-0.2,5.4
					c-0.1,0.7-0.2,1.3-0.4,1.8c-0.1,0.5-0.2,1-0.3,1.6C330.7,291.1,330.2,291.5,329.6,291.5z"/>
			</g>
			<g>
				<path d="M348.2,283.9c-0.1,0-0.2,0-0.3-0.1c-0.7-0.2-1-0.8-0.8-1.4c0.7-2.8,0.1-5.2-0.7-7.9c-0.3-1-0.5-2-0.8-3.2
					c-0.1-0.4-0.6-1.3-0.9-1.9c-0.2-0.3-0.3-0.5-0.4-0.8c-0.4-0.8-1.4-1.6-2.5-2.2c-0.2-0.2-0.5-0.4-0.8-0.5
					c-0.4-0.3-0.7-0.6-0.8-0.8c-0.1-0.1-0.1-0.1-0.1-0.1c0,0-0.1,0-0.1,0c-0.7-0.1-1.1-0.7-1-1.4c0.1-0.7,0.7-1.1,1.4-1
					c1,0.2,1.3,0.6,1.7,1c0.1,0.1,0.2,0.2,0.4,0.4c0.2,0.2,0.5,0.3,0.7,0.5c1.2,0.8,2.6,1.7,3.3,3.1c0.1,0.2,0.2,0.4,0.4,0.7
					c0.5,0.8,1,1.8,1.1,2.5c0.2,1,0.5,2,0.8,3.1c0.8,3,1.6,5.8,0.7,9.2C349.2,283.5,348.7,283.9,348.2,283.9z"/>
			</g>
			<g>
				<path d="M239,345.1L239,345.1c-0.4,0-0.6-0.3-0.6-0.7c0.1-1.5,0.2-3,0.4-4.3c0.4-3.9,0.7-7.5,0.5-11.7c0-0.4,0.2-0.6,0.6-0.6
					c0.3,0,0.6,0.2,0.6,0.6c0.2,4.4-0.2,8.1-0.5,11.9c-0.1,1.4-0.2,2.8-0.4,4.3C239.6,344.9,239.3,345.1,239,345.1z"/>
			</g>
			<g>
				<path d="M248,344.6c-0.1,0-0.1,0-0.1,0c-0.3-0.1-0.5-0.4-0.4-0.7c1-4.2,2-10.5,0.9-16.7c-0.1-0.3,0.2-0.7,0.5-0.7
					c0.4-0.1,0.7,0.2,0.7,0.5c1.2,6.4,0.2,12.9-0.9,17.2C248.5,344.4,248.3,344.6,248,344.6z"/>
			</g>
			<g>
				<path d="M228.7,344.5c-0.2,0-0.5-0.2-0.6-0.4c-1.7-6.1-1.7-11.4-0.1-17.5c0.1-0.3,0.4-0.5,0.7-0.4c0.3,0.1,0.5,0.4,0.4,0.7
					c-1.6,5.9-1.6,11,0.1,16.9c0.1,0.3-0.1,0.7-0.4,0.7C228.7,344.5,228.7,344.5,228.7,344.5z"/>
			</g>
			<g>
				<path d="M255.4,343.9c-0.1,0-0.1,0-0.2-0.1c-0.3-0.1-0.5-0.5-0.4-0.8c1.6-4.4,3.3-11.1,2.6-17.9c-0.1-0.3,0.2-0.6,0.5-0.7
					c0.3,0,0.6,0.2,0.7,0.5c0.7,7-1.1,13.9-2.6,18.4C255.8,343.7,255.6,343.9,255.4,343.9z"/>
			</g>
			<g>
				<path d="M266.8,342c-0.1,0-0.1,0-0.2,0c-0.3-0.1-0.5-0.4-0.4-0.7c1.6-5.3,3-11,1.8-16.4c-0.1-0.2-0.1-0.5-0.2-0.8
					c-0.1-0.4-0.2-0.8-0.2-1.2c-0.1-0.3,0.2-0.7,0.5-0.7c0.3-0.1,0.7,0.2,0.7,0.5c0.1,0.4,0.2,0.8,0.2,1.1c0.1,0.2,0.1,0.5,0.2,0.8
					c1.2,5.7-0.2,11.5-1.9,16.9C267.4,341.8,267.1,342,266.8,342z"/>
			</g>
			<g>
				<path d="M218.8,343.4c-0.2,0-0.5-0.2-0.6-0.4c-1.4-4.9-0.2-10.1,0.8-14.6l0.1-0.5c0.2-1,0.4-1.9,0.9-3c0.1-0.3,0.5-0.4,0.8-0.3
					s0.4,0.5,0.3,0.8c-0.4,0.9-0.6,1.7-0.8,2.8l-0.1,0.5c-1,4.4-2.1,9.4-0.8,14c0.1,0.3-0.1,0.7-0.4,0.7
					C218.9,343.4,218.9,343.4,218.8,343.4z"/>
			</g>
			<g>
				<path d="M211.2,341.7c-0.2,0-0.5-0.1-0.5-0.4c-1.9-4.6-1.1-10.1-0.5-15c0.2-1.2,0.3-2.3,0.4-3.5c0.1-0.3,0.3-0.5,0.7-0.5
					c0.3,0.1,0.6,0.3,0.5,0.7c-0.1,1.1-0.2,2.3-0.4,3.5c-0.6,4.9-1.3,10,0.5,14.4c0.1,0.3,0,0.7-0.4,0.8
					C211.3,341.7,211.2,341.7,211.2,341.7z"/>
			</g>
			<g>
				<path d="M368.5,263.8c-1,0-1.9-0.5-2.4-1.4c-0.3-0.6-0.4-1.3-0.2-1.9c-0.6-0.2-1.1-0.7-1.4-1.3c-0.4-0.7-0.4-1.4-0.2-2
					c0.2-0.7,0.7-1.3,1.3-1.6c1-0.5,2.3-0.4,3.1,0.4c0.1-0.1,0.1-0.1,0.2-0.1c0.7-0.4,1.4-0.4,2-0.2c1,0.1,1.6,0.6,1.6,1.3
					c0.4,0.7,0.4,1.4,0.2,2c-0.2,0.7-0.7,1.3-1.3,1.6c-0.1,0.1-0.1,0.1-0.2,0.1c0.2,1.1-0.4,2.2-1.4,2.8
					C369.3,263.7,368.9,263.8,368.5,263.8z M366.7,255.6c-0.4,0-0.8,0.1-1.1,0.3c-0.5,0.3-1,0.8-1.1,1.4c-0.2,0.6-0.1,1.3,0.2,1.8
					c0.3,0.5,0.8,1,1.4,1.1c0.1,0,0.1,0.1,0.1,0.2c-0.2,0.6-0.1,1.3,0.2,1.8c0.7,1.1,2.1,1.6,3.3,1c0.9-0.5,1.4-1.6,1.2-2.6
					c0-0.1,0-0.1,0.1-0.2c0.1-0.1,0.2-0.1,0.2-0.1c0.5-0.3,1-0.8,1.1-1.4c0.2-0.6,0.1-1.3-0.2-1.8c-0.3-0.5-0.8-1-1.4-1.1
					c-0.6-0.2-1.3-0.1-1.8,0.2c-0.1,0.1-0.2,0.1-0.2,0.1c-0.1,0.1-0.1,0.1-0.2,0C368,255.8,367.3,255.6,366.7,255.6z"/>
			</g>
			<g>
				<path d="M368.6,262c-0.2,0-0.3,0-0.5-0.1c-0.4-0.1-0.8-0.4-1-0.8c-0.2-0.4-0.2-0.8-0.2-1.2c-0.4-0.1-0.7-0.4-0.9-0.8
					c-0.2-0.4-0.2-0.8-0.1-1.3c0.1-0.4,0.4-0.8,0.8-1c0.7-0.4,1.4-0.2,1.9,0.2c0.1,0,0.1-0.1,0.1-0.1c0.4-0.2,0.8-0.2,1.3-0.1
					c0.4,0.1,0.8,0.4,1,0.8c0.4,0.8,0.1,1.9-0.7,2.3c-0.1,0-0.1,0.1-0.1,0.1c0.1,0.7-0.2,1.4-0.8,1.7
					C369.1,261.9,368.8,262,368.6,262z M367.5,256.8c-0.2,0-0.5,0.1-0.7,0.2c-0.4,0.2-0.6,0.5-0.7,0.9c-0.1,0.4-0.1,0.8,0.1,1.1
					s0.5,0.6,0.9,0.7c0.1,0,0.1,0.1,0.1,0.1c-0.1,0.4-0.1,0.8,0.1,1.1s0.5,0.6,0.9,0.7c0.4,0.1,0.8,0.1,1.1-0.1
					c0.6-0.3,0.9-1,0.8-1.6c0-0.1,0-0.1,0.1-0.1s0.1-0.1,0.2-0.1c0.4-0.2,0.6-0.5,0.7-0.9c0.1-0.4,0.1-0.8-0.1-1.1
					c-0.4-0.7-1.3-1-2.1-0.6c-0.1,0-0.1,0.1-0.1,0.1c0,0-0.1,0-0.1,0C368.3,257,367.9,256.8,367.5,256.8z"/>
			</g>
			<g>
				<path d="M370,254.8c-0.7,0-1.3-0.3-1.6-0.9c-0.5-0.9-0.3-2.1,0.6-2.6s2.1-0.3,2.6,0.6c0.5,0.9,0.3,2.1-0.6,2.6l0,0
					C370.7,254.7,370.3,254.8,370,254.8z M370,251.2c-0.3,0-0.6,0.1-0.8,0.2c-0.8,0.5-1,1.5-0.5,2.2c0.5,0.8,1.5,1,2.2,0.5
					c0.8-0.5,1-1.5,0.5-2.2C371.1,251.5,370.5,251.2,370,251.2z M370.9,254.4L370.9,254.4L370.9,254.4z"/>
			</g>
			<g>
				<path d="M375.3,257.3c-0.1,0-0.3,0-0.4-0.1c-0.5-0.1-0.9-0.4-1.2-0.8c-0.3-0.4-0.4-1-0.2-1.4c0.1-0.5,0.4-0.9,0.8-1.2
					c0.4-0.3,1-0.4,1.4-0.2c0.5,0.1,0.9,0.4,1.2,0.8c0.3,0.4,0.4,1,0.2,1.4c-0.1,0.5-0.4,0.9-0.8,1.2
					C376,257.2,375.6,257.3,375.3,257.3z M375.3,253.8c-0.3,0-0.6,0.1-0.8,0.2c-0.4,0.2-0.6,0.6-0.7,1c-0.1,0.4,0,0.8,0.2,1.2
					c0.2,0.4,0.6,0.6,1,0.7c0.4,0.1,0.8,0,1.2-0.2l0,0c0.4-0.2,0.6-0.6,0.7-1s0-0.8-0.2-1.2c-0.2-0.4-0.6-0.6-1-0.7
					C375.5,253.8,375.4,253.8,375.3,253.8z"/>
			</g>
			<g>
				<path d="M375.3,256.4c-0.1,0-0.1,0-0.2,0c-0.2-0.1-0.5-0.2-0.6-0.4c-0.3-0.5-0.1-1,0.3-1.3c0.5-0.3,1-0.1,1.3,0.3
					c0.3,0.5,0.1,1-0.3,1.3C375.6,256.3,375.4,256.4,375.3,256.4z M375.3,254.6c-0.1,0-0.3,0.1-0.4,0.1c-0.4,0.2-0.5,0.7-0.2,1.1
					c0.1,0.2,0.3,0.3,0.5,0.4c0.2,0.1,0.4,0,0.6-0.1l0,0c0.2-0.1,0.3-0.3,0.4-0.5c0.1-0.2,0-0.4-0.1-0.6
					C375.8,254.7,375.5,254.6,375.3,254.6z"/>
			</g>
			<g>
				<path d="M374.8,262.5c-0.7,0-1.3-0.3-1.6-0.9c-0.5-0.9-0.3-2.1,0.6-2.6c0.9-0.5,2.1-0.3,2.6,0.6s0.3,2.1-0.6,2.6l0,0
					C375.4,262.4,375.1,262.5,374.8,262.5z M374.8,259c-0.3,0-0.6,0.1-0.8,0.2c-0.8,0.5-1,1.5-0.5,2.2c0.5,0.8,1.5,1,2.2,0.5l0,0
					c0.8-0.5,1-1.5,0.5-2.2C375.9,259.3,375.3,259,374.8,259z M375.7,262.1L375.7,262.1L375.7,262.1z"/>
			</g>
			<g>
				<path d="M374.8,261.7c-0.1,0-0.2,0-0.2,0c-0.3-0.1-0.5-0.2-0.7-0.5c-0.3-0.5-0.2-1.2,0.4-1.6c0.5-0.3,1.2-0.2,1.6,0.4
					c0.2,0.2,0.2,0.5,0.1,0.8s-0.2,0.5-0.5,0.7l0,0C375.2,261.7,375,261.7,374.8,261.7z M374.8,259.6c-0.2,0-0.4,0.1-0.5,0.1
					c-0.5,0.3-0.6,0.9-0.3,1.3c0.1,0.2,0.4,0.4,0.6,0.4c0.2,0.1,0.5,0,0.7-0.1l0,0c0.2-0.1,0.4-0.4,0.4-0.6c0.1-0.2,0-0.5-0.1-0.7
					C375.4,259.8,375.1,259.6,374.8,259.6z"/>
			</g>
			<g>
				<path d="M370,254c-0.4,0-0.7-0.2-1-0.5c-0.2-0.2-0.2-0.5-0.1-0.8c0.1-0.3,0.2-0.5,0.5-0.7c0.2-0.2,0.5-0.2,0.8-0.1
					c0.3,0.1,0.5,0.2,0.7,0.5c0.2,0.2,0.2,0.5,0.1,0.8c-0.1,0.3-0.2,0.5-0.5,0.7C370.4,254,370.1,254,370,254z M370,251.9
					c-0.2,0-0.4,0.1-0.5,0.1c-0.2,0.1-0.4,0.4-0.4,0.6c-0.1,0.2,0,0.5,0.1,0.7c0.3,0.5,0.9,0.6,1.3,0.3c0.2-0.1,0.4-0.4,0.4-0.6
					c0.1-0.2,0-0.5-0.1-0.7c-0.1-0.2-0.4-0.4-0.6-0.4C370.1,251.9,370,251.9,370,251.9z"/>
			</g>
			<g>
				<path d="M347.8,276.9c-0.2,0-0.4-0.1-0.5-0.3c-0.2-0.3-0.1-0.7,0.2-0.8c6.3-3.4,12.8-6.5,19.4-9.3c0.4-0.2,0.8-0.4,1.3-0.4
					c0.5,0,1,0.2,1.4,0.4l3.4,1.6c0.3,0.1,0.4,0.5,0.3,0.8c-0.1,0.3-0.5,0.4-0.8,0.3l-3.4-1.6c-0.3-0.1-0.7-0.3-0.9-0.3
					s-0.6,0.1-0.9,0.2c-6.6,2.7-13.1,5.8-19.3,9.2C348,276.9,347.9,276.9,347.8,276.9z"/>
			</g>
			<g>
				<path d="M345.2,268.6c-0.2,0-0.4-0.1-0.5-0.3c-0.2-0.3-0.1-0.7,0.2-0.8c6.2-3.6,11.2-7.2,16.7-11.3c0.2-0.2,0.5-0.4,0.7-0.6
					c0.1-0.2,0.2-0.6,0.2-1l0.4-3.7c0.1-0.3,0.3-0.6,0.7-0.5c0.3,0.1,0.5,0.3,0.5,0.7l-0.4,3.7c-0.1,0.4-0.1,1-0.4,1.4
					c-0.2,0.4-0.7,0.7-1,1c-5.6,4.2-10.6,7.7-16.9,11.4C345.5,268.6,345.3,268.6,345.2,268.6z"/>
			</g>
			<g>
				<path d="M343.9,265.9c-0.2,0-0.4-0.1-0.5-0.3c-0.2-0.3-0.1-0.7,0.2-0.8l7.2-4.6c0.1-0.1,0.2-0.1,0.2-0.2s0.1-0.1,0.1-0.2
					c0.1-0.9,0.5-1.7,0.9-2.5c0.2-0.3,0.5-0.4,0.8-0.2s0.4,0.5,0.2,0.8c-0.4,0.6-0.6,1.3-0.7,2c-0.1,0.2-0.1,0.5-0.2,0.7
					c-0.2,0.3-0.4,0.4-0.6,0.5l-7.2,4.6C344.1,265.9,344,265.9,343.9,265.9z"/>
			</g>
			<g>
				<path d="M297,284.9c-0.3,0-0.5-0.2-0.6-0.5c-0.1-0.3,0.1-0.7,0.5-0.7l15.1-3c1.3-0.2,2.8-0.5,3.9-1.3c0.9-0.7,1.6-1.6,2.3-2.6
					l3.9-5.7c0.2-0.3,0.5-0.4,0.8-0.2c0.3,0.2,0.4,0.5,0.2,0.8l-3.9,5.7c-0.7,1-1.4,2.1-2.6,2.9c-1.3,0.9-2.9,1.3-4.3,1.5l-15.1,3
					C297.1,284.9,297,284.9,297,284.9z"/>
			</g>
			<g>
				<path d="M324.1,292.3c-0.1,0-0.2-0.1-0.3-0.1l-5.8-3.7c-1-0.6-2-1.3-3.1-1.5c-1.3-0.3-2.8,0-4.1,0.2l-14.1,2.8
					c-0.3,0.1-0.7-0.1-0.7-0.5c-0.1-0.3,0.1-0.7,0.5-0.7l14.1-2.8c1.4-0.3,3-0.6,4.6-0.2c1.3,0.3,2.5,1,3.5,1.7l5.8,3.7
					c0.3,0.2,0.4,0.5,0.2,0.8C324.6,292.2,324.3,292.3,324.1,292.3z"/>
			</g>
			<g>
				<path d="M253.8,327.1c-0.1,0-0.1,0-0.2,0c-0.3-0.1-0.5-0.4-0.4-0.7c1.6-5.2,3-9.4,4.4-13.5c1.4-4.1,2.8-8.4,4.4-13.5
					c0.8-2.8,1.8-6,3.9-8.5c1.8-2.1,4.3-3.4,6.4-4.7c2.1-1.1,5.2-3,8.1-4.7c3-1.7,6-3.6,8.1-4.7c0.3-0.2,0.7-0.1,0.8,0.2
					c0.2,0.3,0.1,0.7-0.2,0.8c-2.1,1.1-5.2,3-8.1,4.7c-3,1.7-6,3.6-8.1,4.7c-2.2,1.2-4.5,2.5-6.1,4.4c-1.9,2.3-2.9,5.4-3.7,8.1
					c-1.6,5.2-3,9.4-4.4,13.5c-1.4,4.1-2.8,8.4-4.4,13.5C254.3,327,254,327.1,253.8,327.1z"/>
			</g>
			<g>
				<path d="M221.6,326.5c-0.2,0-0.5-0.2-0.6-0.4c-1.6-5.1-3.2-9.4-4.8-13.5c-1.6-4.2-3.3-8.4-4.9-13.5c-0.8-2.7-1.7-5.8-3.7-8.1
					c-1.6-1.9-3.9-3.2-6.1-4.4l-12.6-7c-0.3-0.2-0.4-0.5-0.2-0.8c0.2-0.3,0.5-0.4,0.8-0.2l12.6,7c2.2,1.2,4.6,2.6,6.4,4.7
					c2.1,2.5,3.1,5.7,3.9,8.5c1.6,5.1,3.2,9.4,4.8,13.5c1.6,4.2,3.3,8.4,4.9,13.5c0.1,0.3-0.1,0.7-0.4,0.7
					C221.7,326.5,221.6,326.5,221.6,326.5z"/>
			</g>
			<g>
				<path d="M334,289.8c-0.1,0-0.1,0-0.1,0c-0.3-0.1-0.5-0.4-0.5-0.7c2.8-13.4-5.5-20.9-5.5-21c-0.2-0.2-0.3-0.6-0.1-0.8
					s0.6-0.3,0.8-0.1c0.1,0.1,8.9,8.1,5.9,22.1C334.5,289.6,334.3,289.8,334,289.8z"/>
			</g>
			<g>
				<path d="M336.6,289.3c-0.1,0-0.1,0-0.1,0c-0.3-0.1-0.5-0.4-0.5-0.7c2.8-13.4-4-21.7-4-21.9c-0.2-0.2-0.2-0.7,0.1-0.8
					c0.2-0.2,0.7-0.2,0.8,0.1c0.3,0.4,7.2,8.9,4.3,22.9C337.1,289.1,336.9,289.3,336.6,289.3z"/>
			</g>
			<g>
				<path d="M340.4,288.1c-0.1,0-0.1,0-0.1,0c-0.3-0.1-0.5-0.4-0.5-0.7c2.8-13.4-4.5-22.5-4.6-22.5c-0.2-0.2-0.2-0.7,0.1-0.8
					c0.2-0.2,0.7-0.2,0.8,0.1c0.3,0.4,7.8,9.6,4.9,23.5C340.9,287.9,340.7,288.1,340.4,288.1z"/>
			</g>
			<g>
				<path d="M170.8,334.5c-13.6,0-19.3-6.1-19.5-6.4c-0.1-0.1-0.1-0.2-0.1-0.2c-0.2-0.6-0.7-1.5-1.1-2.4c-0.8-1.4-1.6-2.8-1.4-3.8
					c0-0.1,0-0.1,0-0.1c0.4-1.3,1.7-1.8,2.8-2.3c0.1-0.1,0.2-0.1,0.3-0.1l0,0c-0.7-0.4-1.4-0.8-1.4-1.5c0-0.1,0-0.2,0.1-0.2
					c0.5-1.2,1.9-1.6,3.2-2c-0.4-0.3-0.8-0.8-0.5-1.4c0-0.1,0-0.1,0.1-0.1c0.5-0.8,1.4-1.1,2.2-1.1c-0.1-0.2-0.1-0.3-0.1-0.5
					c-0.2-0.9-0.4-1.8-0.1-2.5c0.1-0.1,0.1-0.2,0.2-0.3c0.6-0.4,1.5-1,2.8-0.8c0.3,0.1,0.5,0.4,0.5,0.7c-0.1,0.3-0.4,0.5-0.7,0.5
					c-0.6-0.1-1.1,0.1-1.7,0.5c-0.1,0.4,0.1,1.1,0.2,1.7c0.1,0.4,0.2,0.8,0.2,1.3c0,0.2-0.1,0.3-0.1,0.5c-0.1,0.1-0.2,0.2-0.4,0.2
					h-0.2c-0.7,0.1-1.3,0.1-1.6,0.4c0.1,0.1,0.2,0.2,0.2,0.2c0.2,0.2,0.5,0.5,0.7,0.8c0.1,0.2,0.1,0.4,0,0.5s-0.2,0.3-0.4,0.4
					c-0.3,0.1-0.6,0.2-0.9,0.3c-1,0.2-2,0.5-2.3,1.1c0.1,0.1,0.5,0.3,0.7,0.4c0.4,0.2,0.7,0.4,1,0.7c0.1,0.1,0.2,0.3,0.2,0.5
					s-0.1,0.4-0.3,0.4c-0.4,0.2-0.8,0.4-1.3,0.7c-1,0.4-1.9,0.8-2.2,1.6c-0.1,0.6,0.7,1.9,1.3,3c0.5,0.9,1,1.8,1.2,2.5
					c0.8,0.8,6.6,6.1,19.5,5.8c1.4,0,2.7-0.7,3.7-1.9c-0.1-0.3-0.4-0.3-0.8-0.3c-0.2,0-0.5,0-0.8-0.1c-0.3-0.1-0.5-0.3-0.5-0.6
					s0.2-0.5,0.5-0.6c1.1-0.3,3.5-0.8,3.5-1.6c-0.1-0.2-0.6-0.4-1.4-0.6c-0.5-0.1-1-0.2-1.4-0.4c-0.2-0.1-0.4-0.4-0.4-0.6
					s0.2-0.5,0.5-0.5c0.6-0.1,1.2-0.1,1.8-0.1c1.1,0,1.9-0.1,2.3-0.5c-0.2-0.5-0.7-0.8-1.3-1.1c-0.7-0.3-1.4-0.7-1.7-1.6
					c-0.1-0.2,0-0.4,0.1-0.5s0.2-0.2,0.4-0.3c0.4-0.1,0.7-0.1,1.1,0c0.5,0.1,0.8,0.1,1-0.1c0-0.1,0-0.1,0-0.1
					c-0.4-0.2-1.1-0.7-2.6-2c-0.2-0.2-0.3-0.6-0.1-0.8c0.2-0.2,0.6-0.3,0.8-0.1c1.7,1.5,2.3,1.8,2.5,1.9c0.3,0.1,0.4,0.3,0.5,0.7
					c0,0.1,0,0.2,0.1,0.5c0.1,0.2,0,0.4-0.1,0.5c-0.5,0.6-1.1,0.8-1.6,0.8c0.1,0,0.1,0.1,0.1,0.1c0.7,0.4,1.7,0.8,2.1,2.1
					c0.1,0.1,0,0.3-0.1,0.4c-0.5,0.8-1.3,1.2-2,1.3c0.4,0.2,0.6,0.6,0.7,1.1c0.1,1.1-1,1.7-2.2,2.2c0.2,0.2,0.4,0.5,0.5,0.9
					c0.1,0.2,0,0.4-0.1,0.5c-1.2,1.6-3,2.6-4.8,2.6C171.4,334.5,171.1,334.5,170.8,334.5z"/>
			</g>
			<g>
				<path d="M146.7,356.8c-0.2,0-0.4-0.1-0.5-0.4c-0.1-0.3,0-0.7,0.3-0.8l3.4-1.6c0.3-0.1,0.7-0.3,0.8-0.5c0.2-0.2,0.3-0.5,0.4-0.8
					c2.3-7.4,4.2-15.9,5.4-21.7c0.1-0.3,0.4-0.5,0.7-0.5c0.3,0.1,0.5,0.4,0.5,0.7c-1.1,5.8-3.1,14.3-5.4,21.8
					c-0.1,0.4-0.3,0.8-0.6,1.3c-0.4,0.4-0.8,0.7-1.2,0.8l-3.4,1.6C146.8,356.7,146.8,356.8,146.7,356.8z"/>
			</g>
			<g>
				<path d="M166.2,361c-0.2,0-0.3-0.1-0.4-0.2l-2.6-2.6c-0.3-0.3-0.7-0.7-0.8-1.2c-0.2-0.5-0.1-1-0.1-1.4
					c0.4-7.5,1.3-15.1,2.4-21.8c0.1-0.3,0.4-0.5,0.7-0.5c0.3,0.1,0.5,0.4,0.5,0.7c-1.1,6.7-2,14.2-2.4,21.7c0,0.3-0.1,0.7,0.1,0.9
					c0.1,0.3,0.4,0.5,0.6,0.8l2.6,2.6c0.2,0.2,0.2,0.6,0,0.8C166.5,361,166.4,361,166.2,361z"/>
			</g>
			<g>
				<path d="M149.4,342.9c-0.1,0-0.3-0.1-0.4-0.2c-0.2-0.2-0.2-0.6-0.1-0.8c0.6-0.7,1.3-1.1,2.1-1.5c0.1-0.1,0.2-0.1,0.2-0.1
					c0.1-0.1,0.1-0.2,0.1-0.2c0.4-1.3,1-3.2,1.4-5c0.5-1.8,1-3.7,1.4-5.1c0.1-0.3,0.4-0.5,0.8-0.4c0.3,0.1,0.5,0.4,0.4,0.8
					c-0.4,1.3-1,3.2-1.4,5c-0.5,1.8-1,3.7-1.4,5.1c-0.1,0.2-0.2,0.5-0.4,0.7c-0.2,0.2-0.4,0.3-0.6,0.4c-0.7,0.3-1.3,0.7-1.7,1.2
					C149.7,342.8,149.6,342.9,149.4,342.9z"/>
			</g>
			<g>
				<path d="M177.4,317.2c-0.2,0-0.5-0.2-0.6-0.4c-0.3-1.1-0.7-2.4-1.1-3.7c-0.4-1.3-0.8-2.6-1.1-3.7c-0.3-1.1-0.7-2.5-0.6-3.9
					c0.1-1.6,0.9-3,1.6-4.3l6.2-11.4c0.2-0.3,0.5-0.4,0.8-0.2c0.3,0.2,0.4,0.5,0.2,0.8l-6.2,11.4c-0.6,1.1-1.3,2.5-1.4,3.8
					c-0.1,1.1,0.2,2.3,0.5,3.4c0.3,1.1,0.7,2.4,1.1,3.7c0.4,1.3,0.8,2.6,1.1,3.7c0.1,0.3-0.1,0.7-0.4,0.7
					C177.4,317.2,177.4,317.2,177.4,317.2z"/>
			</g>
			<g>
				<path d="M160.3,304.7c-0.2,0-0.5-0.2-0.6-0.4c-0.1-0.3,0.1-0.7,0.4-0.8l6.6-2c1.1-0.4,2.3-0.7,3.2-1.4c1.1-0.8,1.8-2.1,2.4-3.3
					c1.2-2.2,2.6-4.9,4-7.5c1.4-2.6,2.8-5.2,4.1-7.5c0.2-0.3,0.5-0.4,0.8-0.2c0.3,0.2,0.4,0.5,0.2,0.8c-1.2,2.2-2.6,4.9-4,7.5
					c-1.4,2.6-2.8,5.2-4.1,7.5c-0.7,1.3-1.4,2.7-2.7,3.7c-1.1,0.8-2.4,1.2-3.6,1.6l-6.6,2C160.5,304.7,160.4,304.7,160.3,304.7z"/>
			</g>
			<g>
				<path d="M174.5,323.3c-3.6,0-12.2-1-19.1-9.8c-0.2-0.2-0.2-0.7,0.1-0.8s0.7-0.2,0.8,0.1c8.4,10.7,19.5,9.3,19.6,9.2
					c0.3-0.1,0.7,0.2,0.7,0.5c0.1,0.3-0.2,0.7-0.5,0.7C176.2,323.3,175.6,323.3,174.5,323.3z"/>
			</g>
			<g>
				<path d="M174.4,327.4L174.4,327.4c-0.5,0-11.4-0.1-20.3-11.4c-0.2-0.2-0.2-0.7,0.1-0.8c0.2-0.2,0.7-0.2,0.8,0.1
					c8.4,10.8,19.2,11,19.3,11c0.4,0,0.6,0.3,0.6,0.6C175,327.1,174.7,327.4,174.4,327.4z"/>
			</g>
			<g>
				<path d="M173.8,331L173.8,331c-0.5,0-12.3-0.2-21.2-11.4c-0.2-0.2-0.2-0.7,0.1-0.8c0.2-0.2,0.7-0.2,0.8,0.1
					c8.5,10.8,20.1,11,20.2,11c0.4,0,0.6,0.3,0.6,0.6C174.4,330.8,174.2,331,173.8,331z"/>
			</g>
			<g>
				<path d="M163.5,372.7c-0.4,0-0.8-0.2-1.1-0.7c-1.4-2.7-3.3-4.3-5.7-4.9c-4.8-1.2-9.9,2.2-10,2.3c-0.5,0.4-1.3,0.2-1.7-0.3
					s-0.2-1.3,0.3-1.7c0.2-0.2,6.1-4.1,11.9-2.6c3.1,0.8,5.5,2.8,7.2,6.1c0.3,0.6,0.1,1.3-0.5,1.6
					C163.8,372.7,163.6,372.7,163.5,372.7z"/>
			</g>
			<g>
				<path d="M174.8,320.6c-7.6,0-17-9.5-17.3-9.9c-0.2-0.2-0.2-0.6,0-0.8c0.2-0.2,0.6-0.2,0.8,0c0.1,0.1,9.8,10,17,9.5
					c0.4,0,0.6,0.2,0.7,0.5c0,0.4-0.2,0.6-0.5,0.7C175.2,320.6,175,320.6,174.8,320.6z"/>
			</g>
			<g>
				<path d="M254.9,304.3c-0.1,0-0.1,0-0.2-0.1c-0.3-0.1-0.5-0.5-0.4-0.8c2.2-5.6,7.5-11.3,13.6-14.5c0.3-0.2,0.7-0.1,0.8,0.2
					c0.2,0.3,0.1,0.7-0.2,0.8c-5.9,3.1-11,8.6-13.1,13.9C255.4,304.1,255.2,304.3,254.9,304.3z"/>
			</g>
			<g>
				<path d="M221.6,304.7c-0.2,0-0.5-0.1-0.5-0.4c-1.9-5.1-6.9-10.1-13.4-13.4c-0.3-0.2-0.4-0.5-0.2-0.8c0.2-0.3,0.5-0.4,0.8-0.2
					c6.7,3.5,11.9,8.8,13.9,14.1c0.1,0.3-0.1,0.7-0.4,0.8C221.7,304.7,221.6,304.7,221.6,304.7z"/>
			</g>
			<g>
				<path d="M233,327.4L233,327.4c-0.4,0-0.6-0.3-0.6-0.7c0.2-2.2-0.2-4.4-1.1-6.4c-0.1-0.3,0-0.7,0.3-0.8c0.3-0.1,0.7,0,0.8,0.3
					c0.9,2.2,1.3,4.6,1.1,7C233.6,327.1,233.3,327.4,233,327.4z"/>
			</g>
			<g>
				<path d="M242.9,327.4c-0.3,0-0.6-0.2-0.6-0.5c-0.2-2.3,0.2-4.8,1.1-7c0.1-0.3,0.5-0.4,0.8-0.3c0.3,0.1,0.4,0.5,0.3,0.8
					c-0.8,2-1.2,4.2-1.1,6.4C243.5,327.1,243.3,327.4,242.9,327.4L242.9,327.4z"/>
			</g>
			<g>
				<path d="M261.7,305.2c-0.2,0-0.4-0.1-0.5-0.4c-0.1-0.3,0-0.7,0.3-0.8c9.8-4.6,21.1-6.4,31.9-5c0.3,0.1,0.5,0.4,0.5,0.7
					s-0.4,0.5-0.7,0.5c-10.5-1.3-21.6,0.4-31.3,4.9C261.9,305.1,261.8,305.2,261.7,305.2z"/>
			</g>
			<g>
				<path d="M214.8,307.9c-0.1,0-0.2,0-0.2-0.1c-9.6-4.5-20.7-6.3-31.3-4.9c-0.3,0.1-0.6-0.2-0.7-0.5c-0.1-0.3,0.2-0.6,0.5-0.7
					c10.8-1.4,22.1,0.4,31.9,5c0.3,0.1,0.4,0.5,0.3,0.8C215.3,307.7,215.1,307.9,214.8,307.9z"/>
			</g>
			<g>
				<path d="M237.7,213.3c-0.9,0-1.6-0.7-1.6-1.6c0-0.9,0.7-1.6,1.6-1.6c0.9,0,1.6,0.7,1.6,1.6C239.3,212.6,238.6,213.3,237.7,213.3
					z M237.7,210.4c-0.7,0-1.3,0.6-1.3,1.3c0,0.7,0.6,1.3,1.3,1.3c0.7,0,1.3-0.6,1.3-1.3C239,211,238.4,210.4,237.7,210.4z"/>
			</g>
			<g>
				<path d="M205.9,200.2c-0.9,0-1.6-0.7-1.6-1.6s0.7-1.6,1.6-1.6s1.6,0.7,1.6,1.6S206.8,200.2,205.9,200.2z M205.9,197.3
					c-0.7,0-1.3,0.6-1.3,1.3s0.6,1.3,1.3,1.3s1.3-0.6,1.3-1.3S206.6,197.3,205.9,197.3z"/>
			</g>
			<g>
				<path d="M238.6,212.9C238.6,212.9,238.6,212.9,238.6,212.9l-1.9-2.3c0-0.1,0-0.1,0-0.1c0.1,0,0.1,0,0.1,0l1.9,2.3
					C238.7,212.8,238.7,212.9,238.6,212.9C238.7,212.9,238.6,212.9,238.6,212.9z"/>
			</g>
			<g>
				<path d="M206.5,200.1C206.5,200.1,206.5,200.1,206.5,200.1l-1.3-2.7c0-0.1,0-0.1,0.1-0.1c0.1,0,0.1,0,0.1,0.1l1.2,2.6
					C206.6,200,206.6,200.1,206.5,200.1L206.5,200.1z"/>
			</g>
			<g>
				<path d="M237.1,217.9c-27.1,0-49.1-22-49.1-49.1s22-49.1,49.1-49.1c27.1,0,49.1,22,49.1,49.1S264.1,217.9,237.1,217.9z
					 M237.1,122.1c-25.7,0-46.7,21-46.7,46.7c0,25.7,21,46.7,46.7,46.7s46.7-21,46.7-46.7S262.8,122.1,237.1,122.1z"/>
			</g>
			<g>
				<path d="M237.1,207.8c-21.5,0-39-17.5-39-39s17.5-39,39-39s39,17.5,39,39S258.6,207.8,237.1,207.8z M237.1,132.2
					c-20.2,0-36.6,16.4-36.6,36.6s16.4,36.6,36.6,36.6s36.6-16.4,36.6-36.6S257.2,132.2,237.1,132.2z"/>
			</g>
			<g>
				<path d="M235.6,127.8c-0.9,0-1.6-0.7-1.6-1.6c0-0.9,0.7-1.6,1.6-1.6c0.9,0,1.6,0.7,1.6,1.6C237.2,127.1,236.5,127.8,235.6,127.8
					z M235.6,124.8c-0.7,0-1.3,0.6-1.3,1.3s0.6,1.3,1.3,1.3c0.7,0,1.3-0.6,1.3-1.3S236.3,124.8,235.6,124.8z"/>
			</g>
			<g>
				<path d="M280.6,169.6c-0.9,0-1.6-0.7-1.6-1.6s0.7-1.6,1.6-1.6c0.9,0,1.6,0.7,1.6,1.6S281.5,169.6,280.6,169.6z M280.6,166.8
					c-0.7,0-1.3,0.6-1.3,1.3s0.6,1.3,1.3,1.3c0.7,0,1.3-0.6,1.3-1.3S281.3,166.8,280.6,166.8z"/>
			</g>
			<g>
				<path d="M193.4,174c-0.9,0-1.6-0.7-1.6-1.6c0-0.9,0.7-1.6,1.6-1.6s1.6,0.7,1.6,1.6C195,173.3,194.2,174,193.4,174z M193.4,171.1
					c-0.7,0-1.3,0.6-1.3,1.3c0,0.7,0.6,1.3,1.3,1.3s1.3-0.6,1.3-1.3C194.7,171.7,194.1,171.1,193.4,171.1z"/>
			</g>
			<g>
				<path d="M269.1,141.7c-0.9,0-1.6-0.7-1.6-1.6c0-0.9,0.7-1.6,1.6-1.6s1.6,0.7,1.6,1.6C270.7,141,270,141.7,269.1,141.7z
					 M269.1,138.8c-0.7,0-1.3,0.6-1.3,1.3s0.6,1.3,1.3,1.3s1.3-0.6,1.3-1.3S269.8,138.8,269.1,138.8z"/>
			</g>
			<g>
				<path d="M270.5,197.4c-0.9,0-1.6-0.7-1.6-1.6c0-0.9,0.7-1.6,1.6-1.6s1.6,0.7,1.6,1.6C272.2,196.7,271.4,197.4,270.5,197.4z
					 M270.5,194.5c-0.7,0-1.3,0.6-1.3,1.3c0,0.7,0.6,1.3,1.3,1.3s1.3-0.6,1.3-1.3C271.9,195.1,271.3,194.5,270.5,194.5z"/>
			</g>
			<g>
				<path d="M205.9,140.3c-0.9,0-1.6-0.7-1.6-1.6s0.7-1.6,1.6-1.6s1.6,0.7,1.6,1.6S206.8,140.3,205.9,140.3z M205.9,137.4
					c-0.7,0-1.3,0.6-1.3,1.3c0,0.7,0.6,1.3,1.3,1.3s1.3-0.6,1.3-1.3C207.2,138,206.6,137.4,205.9,137.4z"/>
			</g>
			<g>
				<path d="M269.6,197C269.6,197,269.6,197,269.6,197c-0.1-0.1-0.1-0.1-0.1-0.1l1.9-2.2c0-0.1,0.1-0.1,0.1,0c0.1,0,0.1,0.1,0,0.1
					L269.6,197C269.7,197,269.6,197,269.6,197z"/>
			</g>
			<g>
				<path d="M205,139.9C204.9,139.9,204.9,139.9,205,139.9c-0.1-0.1-0.1-0.1-0.1-0.1l1.9-2.2c0-0.1,0.1-0.1,0.1,0
					c0.1,0,0.1,0.1,0,0.1L205,139.9L205,139.9z"/>
			</g>
			<g>
				<path d="M235.4,127.7L235.4,127.7C235.4,127.7,235.4,127.6,235.4,127.7l0.2-3c0-0.1,0.1-0.1,0.1-0.1c0.1,0,0.1,0.1,0.1,0.1
					L235.4,127.7C235.5,127.7,235.5,127.7,235.4,127.7z"/>
			</g>
			<g>
				<path d="M270.4,140.9C270.4,140.9,270.4,140.9,270.4,140.9l-2.6-1.4c-0.1,0-0.1-0.1-0.1-0.1s0.1-0.1,0.1-0.1l2.6,1.3
					c0.1,0,0.1,0.1,0.1,0.1C270.5,140.9,270.4,140.9,270.4,140.9z"/>
			</g>
			<g>
				<path d="M191.9,172.5C191.8,172.5,191.8,172.5,191.9,172.5c-0.1-0.1-0.1-0.1,0-0.1l2.9-0.2c0.1,0,0.1,0,0.1,0.1s0,0.1-0.1,0.1
					L191.9,172.5L191.9,172.5z"/>
			</g>
			<g>
				<path d="M281.5,169.3C281.5,169.3,281.4,169.3,281.5,169.3l-1.8-2.4c0-0.1,0-0.1,0-0.1c0.1,0,0.1,0,0.1,0l1.7,2.3
					C281.6,169.2,281.6,169.2,281.5,169.3L281.5,169.3z"/>
			</g>
			<g>
				<path d="M321.4,222.4c-0.2,0-0.4-0.1-0.5-0.4c-0.1-0.3,0-0.7,0.3-0.8c3.7-1.7,6.6-3.9,8.8-6.5l0.7-0.8c2-2.4,4-4.9,6.9-6.3
					c1.2-0.5,3.4-1.4,4.9-0.9c0.3,0.1,0.5,0.4,0.4,0.8s-0.4,0.5-0.8,0.4c-0.8-0.3-2.6,0.2-4,0.9c-2.6,1.2-4.6,3.6-6.4,5.9l-0.7,0.8
					c-2.3,2.8-5.4,5.1-9.2,6.9C321.5,222.4,321.4,222.4,321.4,222.4z"/>
			</g>
			<g>
				<path d="M296.4,227.2L296.4,227.2c-8.5-0.2-16.6-2-24.1-5.7c-5.8-2.8-10.5-6-14.1-9.6c-0.2-0.2-0.2-0.6,0-0.8
					c0.2-0.2,0.6-0.2,0.8,0c3.4,3.5,8.1,6.6,13.7,9.3c7.3,3.5,15.3,5.4,23.6,5.5c0.4,0,0.6,0.3,0.6,0.6
					C297,227,296.7,227.2,296.4,227.2z"/>
			</g>
			<g>
				<path d="M153.4,221.9c-0.1,0-0.2,0-0.2-0.1c-3.4-1.7-6.1-3.8-8.2-6.4l-0.7-0.8c-1.9-2.3-3.8-4.7-6.4-5.9
					c-0.3-0.1-0.7-0.3-1.3-0.5c-0.3-0.1-0.5-0.5-0.4-0.8c0.1-0.3,0.5-0.5,0.8-0.4c0.5,0.2,1,0.4,1.3,0.5c2.9,1.3,4.9,3.9,6.9,6.3
					l0.7,0.8c2,2.5,4.6,4.4,7.8,6c0.3,0.1,0.4,0.5,0.2,0.8C153.8,221.8,153.6,221.9,153.4,221.9z"/>
			</g>
			<g>
				<path d="M178.2,227.2c-0.4,0-0.7,0-1,0c-0.4,0-0.6-0.3-0.6-0.6c0-0.4,0.2-0.6,0.6-0.6c9,0.1,17.8-1.7,25.7-5.5
					c5.7-2.7,10.3-5.8,13.7-9.3c0.2-0.2,0.6-0.2,0.8,0c0.2,0.2,0.2,0.6,0,0.8c-3.6,3.6-8.3,6.8-14.1,9.6
					C195.7,225.3,187,227.2,178.2,227.2z"/>
			</g>
		</g>
		<g id="LINEART">
			<g>
				<path d="M273.5,340.8c-0.1,0-0.3,0-0.4-0.1c-0.6-0.2-0.9-1-0.7-1.6c1.2-3,3.8-11.3,5.9-18l0.9-3c0.2-0.7,0.9-1,1.5-0.8
					c0.7,0.2,1,0.9,0.8,1.5l-0.9,3c-2.2,7-4.7,15.1-6,18.2C274.4,340.6,274,340.8,273.5,340.8z"/>
			</g>
			<g>
				<path d="M240.1,329.5c-0.2,0-0.4,0-0.6,0c-0.7-0.1-1.2-0.6-1.1-1.3c0.1-0.7,0.6-1.2,1.3-1.1h0.1c0.4,0,0.7,0.1,1-0.1
					c0.4-0.1,0.8-0.2,1.1-0.2c0.8-0.1,1.6-0.2,2.5-0.4c2-0.3,4.1-0.7,6.3-1.1c5.6-1,10.2-2,14.3-3c1.9-0.5,4.3-1.1,6.7-1.9
					c4.6-1.5,16.6-5.5,20.5-11.4l5.3-31.7c0.1-0.7,0.7-1.1,1.4-1c0.7,0.1,1.1,0.7,1,1.4l-5.4,31.9c0,0.2-0.1,0.3-0.2,0.4
					c-3.7,5.9-13.7,9.8-21.9,12.5c-2.5,0.8-5,1.4-6.9,1.9c-4.2,1-8.8,2-14.5,3c-2.2,0.4-4.3,0.8-6.3,1.1c-0.8,0.1-1.7,0.2-2.5,0.4
					c-0.3,0.1-0.7,0.1-1,0.2C240.9,329.5,240.5,329.5,240.1,329.5z"/>
			</g>
			<g>
				<path d="M238.9,329.5c-0.5,0-0.9-0.1-1.3-0.1c-0.3-0.1-0.7-0.1-1-0.2c-0.8-0.1-1.7-0.2-2.5-0.4c-2-0.3-4.2-0.7-6.3-1.1
					c-5.7-1-10.2-2-14.5-3c-1.9-0.5-4.4-1.1-6.9-1.9c-8.3-2.7-18.2-6.6-21.9-12.5c-0.1-0.1-0.1-0.3-0.2-0.4l-5.2-31.4
					c-0.1-0.7,0.4-1.3,1-1.4c0.7-0.1,1.3,0.4,1.4,1l5.2,31.2c3.9,5.8,16,9.8,20.5,11.4c2.4,0.8,4.8,1.4,6.7,1.9c4.2,1,8.7,2,14.3,3
					c2.1,0.4,4.2,0.8,6.3,1.1c0.8,0.1,1.6,0.2,2.5,0.4c0.4,0.1,0.7,0.1,1.1,0.2c0.1,0.1,0.5,0.1,1.3,0.1c0.7-0.1,1.2,0.5,1.3,1.1
					s-0.5,1.2-1.1,1.3C239.3,329.5,239,329.5,238.9,329.5z"/>
			</g>
			<g>
				<path d="M206.3,340.8c-0.5,0-1-0.3-1.1-0.8l-0.4-1c-2.3-6.2-4.9-13.2-6.9-19.7c-0.2-0.7,0.2-1.3,0.8-1.5
					c0.7-0.2,1.3,0.2,1.5,0.8c2,6.4,4.6,13.4,6.9,19.6l0.4,1c0.2,0.6-0.1,1.3-0.7,1.6C206.6,340.8,206.5,340.8,206.3,340.8z"/>
			</g>
			<g>
				<path d="M238.3,345.7c-1.5,0-3.1-0.1-4.6-0.2c-2.5-0.2-5.1-0.5-7.5-0.7c-1.6-0.2-3.3-0.3-4.9-0.5c-5.1-0.5-9.9-1.9-15.4-3.6
					c-0.7-0.2-1-0.9-0.8-1.5c0.2-0.7,0.9-1,1.5-0.8c5.2,1.7,10,3.1,14.8,3.6c1.6,0.1,3.3,0.3,4.9,0.5c2.5,0.2,5,0.5,7.5,0.7
					c5.2,0.4,10.2,0,15.5-0.5l1.4-0.1c8.6-0.7,15.9-2,22.2-4.1c0.7-0.2,1.3,0.1,1.5,0.8s-0.1,1.3-0.8,1.5c-6.6,2-14,3.4-22.8,4.2
					l-1.4,0.1C246,345.4,242.1,345.7,238.3,345.7z"/>
			</g>
			<g>
				<path d="M239.9,454.2L239.9,454.2c-0.5,0-0.9-0.3-1.1-0.7c-1.6-3.6-3-7.6-4.3-11.8c-1.6-5-3.3-10.1-5.6-14.8
					c-3.1-6.2-4.5-10.7-5.2-16.7c-0.3-2.4-0.2-5.6-0.1-9c0.1-3.4,0.2-7.2-0.1-10.2c-0.4,0.9-0.7,1.9-1.1,2.8
					c-1.4,3.5-2.9,7.2-2.9,9.5c0,0.5-0.3,1-0.8,1.1c-0.5,0.2-1,0-1.3-0.4c-6.1-7.5-5.2-14-4.2-20.5c-0.5,0.5-0.9,0.8-1.4,1.2
					c-1.3,1-1.9,1.6-2,3c-0.1,0.5-0.4,1-0.9,1.1c-0.5,0.1-1.1-0.1-1.3-0.6c-3.1-5.4-2.5-15.5-2-22.8c0.1-0.7,0.1-1.3,0.1-1.9
					c0.1-1.6-0.2-4.2-0.5-6.9c-0.7-6.8-1.6-14.5,1.7-17.3c0.5-0.4,1.3-0.4,1.7,0.1c0.4,0.5,0.4,1.3-0.1,1.7c-2.3,2-1.5,9.7-0.9,15.3
					c0.3,3,0.6,5.5,0.5,7.3c-0.1,0.6-0.1,1.3-0.1,2c-0.4,6-0.8,13.7,0.7,18.9c0.5-0.6,1.1-1.1,1.6-1.6c0.9-0.7,1.7-1.4,2.2-2.6
					c0.7-1.7,0.7-4.6,0.8-7c0-0.9,0.1-1.7,0.1-2.5c0.1-0.6,0.5-1.1,1.1-1.1c0.6-0.1,1.1,0.3,1.3,0.9c1.1,4.6,0.5,8.9-0.2,12.9
					c-0.9,5.5-1.7,10.8,1.9,16.6c0.5-2.2,1.6-4.8,2.6-7.2c1-2.5,2-4.8,2.4-6.7c0.1-0.5,0.5-0.9,1.1-1s1,0.2,1.2,0.7
					c1.6,3.5,1.4,9.5,1.2,15.2c-0.1,3.3-0.2,6.4,0.1,8.6c0.7,5.7,2,10,5,16c2.4,4.9,4.1,10.1,5.7,15.2c1,3.2,2,6.2,3.1,9
					c1.1-2.8,2-5.8,3.1-9c1.6-5.1,3.3-10.3,5.7-15.2c3-5.9,4.3-10.2,5-16c0.2-1.9,0.3-4.2,0.4-6.7c0.2-5.5,0.4-11.1,2.1-14.8
					c0.2-0.5,0.7-0.8,1.2-0.7c0.5,0.1,1,0.4,1.1,1c0.4,1.8,1.2,4,2.1,6.3c0.8,2.2,1.7,4.5,2.2,6.6c2.6-5.7,1.6-11.1,0.5-16.9
					c-0.9-4.6-1.8-9.3-0.6-14.1c0.1-0.6,0.7-1,1.3-0.9c0.6,0.1,1,0.5,1.1,1.1c0.1,1.9,1,4,1.9,6c0.3,0.7,0.6,1.4,0.8,2.1
					c0.5,1.2,1.2,2.2,1.9,3.2c0.5,0.7,1,1.3,1.4,2c1.3-5.1,0.9-12.7,0.6-18.5c-0.1-0.7-0.1-1.3-0.1-2c-0.1-1.8,0.2-4.3,0.5-7.3
					c0.6-5.6,1.4-13.2-0.9-15.2c-0.5-0.4-0.5-1.2-0.1-1.7c0.4-0.5,1.2-0.5,1.7-0.1c3.3,2.8,2.4,10.5,1.7,17.3
					c-0.3,2.7-0.5,5.3-0.5,6.9c0.1,0.6,0.1,1.3,0.1,1.9c0.4,7.4,1,17.5-2,22.8c-0.2,0.5-0.8,0.7-1.3,0.6c-0.5-0.1-0.9-0.5-0.9-1.1
					c-0.1-1.7-1-2.9-2-4.3c-0.8-1-1.7-2.2-2.2-3.7c-0.2-0.6-0.5-1.3-0.8-2c-0.1-0.1-0.1-0.3-0.2-0.4c0.2,2.3,0.6,4.6,1.1,6.9
					c1.3,6.9,2.7,14-2.6,21.6c-0.3,0.4-0.8,0.6-1.4,0.5c-0.5-0.2-0.8-0.7-0.8-1.1c0.1-2.3-1.3-6-2.6-9.4c-0.4-0.9-0.7-1.8-1-2.6
					c-0.5,3.1-0.7,6.7-0.8,10.2c-0.1,2.5-0.2,4.9-0.4,6.9c-0.7,6-2.1,10.5-5.2,16.7c-2.3,4.7-4,9.8-5.6,14.8
					c-1.3,4.2-2.6,8.3-4.3,11.9C240.8,453.9,240.4,454.2,239.9,454.2z"/>
			</g>
			<g>
				<path d="M315,273.6c-0.5,0-1-0.4-1.1-1c-0.1-0.7,0.2-1.3,0.9-1.4l10.9-2.5c0.7-0.1,1.3,0.2,1.4,0.9c0.1,0.7-0.2,1.3-0.9,1.4
					l-10.9,2.5C315.2,273.6,315.1,273.6,315,273.6z"/>
			</g>
			<g>
				<path d="M295.2,299.4c-0.5,0-1-0.4-1.1-1c-0.1-0.7,0.2-1.3,0.9-1.4l34.4-7.8c0.7-0.1,1.3,0.2,1.4,0.9c0.1,0.7-0.2,1.3-0.9,1.4
					l-34.4,7.8C295.4,299.3,295.3,299.4,295.2,299.4z"/>
			</g>
			<g>
				<g>
					<path d="M347.8,284.7c-0.7,0-0.4-0.8-0.4-1.3c0.1-0.8,0-1.7,0.6-2.3c0.2-0.2,0.5-0.3,0.8-0.4c0.7-0.4,1.4-0.8,2-1.2
						c1.9-1.1,3.8-2.2,5.7-3.3c4.6-2.6,9.2-5.3,13.7-7.9c2.9-1.7,5.8-3.4,8.7-5.1c0.1-0.1,0.2-0.1,0.3-0.2c1.8-1,2.4-3.4,1.4-5.2
						l-5-8.7c-1-1.8-3.4-2.4-5.2-1.4c-2.3,1.4-4.8,2.7-7.1,4.1c-4.6,2.6-9.2,5.3-13.7,7.9c-1.9,1.1-3.9,2.2-5.8,3.4
						c-0.7,0.4-1.3,0.8-2,1.1c-0.4,0.2-0.7,0.5-1.1,0.5c-0.8-0.1-3.2-1.7-1.9-2.4l30.1-17.3c1.6-0.9,3.4-1.1,5.2-0.7
						c1.8,0.5,3.3,1.6,4.2,3.2l5,8.7c1.9,3.3,0.8,7.5-2.5,9.5l-32.3,18.7C348.3,284.7,348,284.7,347.8,284.7z"/>
				</g>
			</g>
			<g>
				<path d="M175.9,320.6c-0.2,0-0.4-0.1-0.5-0.1c-0.6-0.3-0.8-1-0.5-1.6l8.5-16.6c0.3-0.6,1-0.8,1.6-0.5c0.6,0.3,0.8,1,0.5,1.6
					L177,320C176.8,320.4,176.4,320.6,175.9,320.6z"/>
			</g>
			<g>
				<path d="M157.9,310.3c-0.2,0-0.4-0.1-0.5-0.1c-0.6-0.3-0.8-1-0.5-1.6l16.5-32.2c0.3-0.6,1-0.8,1.6-0.5s0.8,1,0.5,1.6L159,309.7
					C158.8,310.1,158.3,310.3,157.9,310.3z"/>
			</g>
			<g>
				<g>
					<path d="M160.4,374c-0.4,0-0.8-0.1-1.2-0.1l-9.9-1.7c-1.8-0.3-3.4-1.3-4.5-2.8c-1.1-1.5-1.4-3.4-1.1-5.2l6.4-36.7
						c0.1-0.4,0.4-1.1,0.9-0.8c0.1,0.1,0.2,0.2,0.2,0.2c0.2,0.2,0.5,0.4,0.7,0.5c0.2,0.2,0.5,0.4,0.5,0.7c0,0.1,0,0.2,0,0.2
						c0.1,0.2,0.2,0.3,0.2,0.5c0.3,0.4,0,1.3-0.1,1.8c-0.4,2.2-0.8,4.5-1.2,6.7c-0.5,3-1,5.9-1.6,8.9s-1,6-1.6,8.9
						c-0.4,2.3-0.8,4.6-1.2,6.9c-0.2,0.9-0.3,1.8-0.5,2.8s0.1,2,0.6,2.8c0.6,0.8,1.4,1.4,2.4,1.6l9.9,1.7c2,0.4,4-1,4.4-3.1
						c0.1-0.3,0.1-0.6,0.2-0.8c0.3-1.6,0.5-3.2,0.8-4.8c0.4-2.5,0.9-5,1.3-7.5c0.5-2.8,1-5.5,1.4-8.3c0.4-2.5,0.8-4.9,1.3-7.3
						c0.2-0.9,0.3-1.9,0.5-2.8c0.1-0.4,0.1-0.7,0.2-1.1c0.1-0.4,0.1-1,0.6-1c0.2-0.1,0.4,0,0.6-0.1c0.1,0,0.3-0.1,0.4-0.1
						c0.4-0.1,0.7-0.1,1.1-0.1c0.4,0,0.7-0.1,0.6,0.4l-6,34.2C166.6,371.7,163.7,374,160.4,374z"/>
				</g>
			</g>
			<g>
				<path d="M237.8,321.3c-0.5,0-1,0-1.5-0.1c-4.3-0.4-7.5-1.9-10.7-5.1c-2.3-2.4-3.9-5.5-4.5-8.6c-0.5-3-0.2-6.9,0.8-9.5
					c0.9-2.5,2.4-4.8,4.3-6.5c4.9-4.6,12.1-5.8,18.4-3.2c3,1.3,5.7,3.3,7.5,5.9c2.3,3.2,3.3,6,3.2,9.9c-0.1,4.8-2.2,9.3-5.8,12.6
					C246.3,319.7,242.1,321.3,237.8,321.3z M237.9,288.2c-4,0-7.8,1.4-10.8,4.2c-1.7,1.7-3.2,3.8-4,6.1c-0.9,2.4-1.2,6-0.7,8.9
					c0.5,3,2,5.8,4.2,8c2.9,3,5.9,4.4,9.9,4.8c4.4,0.4,8.9-1.1,12.3-4.2c3.4-3.1,5.4-7.3,5.5-11.7l0,0c0.1-3.6-0.8-6.2-3-9.2
					c-1.7-2.4-4.2-4.3-7-5.5C242.2,288.6,240,288.2,237.9,288.2z"/>
			</g>
			<g>
				<path d="M283.5,279.1h-40.2c-0.7,0-1.2-0.5-1.2-1.2s0.5-1.2,1.2-1.2h40.2c4.5,0,9-0.7,13.5-1.3c1-0.1,1.9-0.3,2.9-0.4
					c1.2-0.2,2.5-0.2,3.9-0.4c3.7-0.2,7.4-0.5,9.9-2.5c0.7-0.6,1.5-2.3,1.7-2.8c1.1-2.5,2.2-4.8,2.3-7.3c0.1-0.7,0.2-1.4,0.3-2
					c0.1-0.7,0.3-1.3,0.3-2.1c0-1.1,0-1.8,0-2.6v-1.6c0-0.7,0.5-1.2,1.2-1.2s1.2,0.5,1.2,1.2v1.6c0,0.8,0,1.6,0,2.6
					s-0.2,1.9-0.4,2.6c-0.1,0.5-0.2,1-0.2,1.6c-0.2,3.1-1.4,5.7-2.6,8.2c-0.6,1.3-1.4,2.8-2.4,3.7c-3.1,2.5-7.4,2.8-11.3,3
					c-1.3,0.1-2.5,0.2-3.7,0.3c-1,0.1-1.9,0.3-2.8,0.4C292.9,278.4,288.2,279.1,283.5,279.1z"/>
			</g>
			<g>
				<path d="M295.7,256.8c-6.9,0-13.9-0.7-20.9-1.9l-1.4-0.2c-5.4-1-10.8-2-16.2-3.4c-3.2-0.8-6-1.8-8.6-2.9
					c-0.6-0.2-1.2-0.5-1.9-0.7c-1.7-0.6-3.4-1.3-5-2.3l-0.3-0.2c-0.9-0.6-1.9-1.2-2.7-2c-0.7,0.7-1.4,1.1-2.1,1.6
					c-0.3,0.2-0.6,0.4-1,0.6c-1.6,1-3.3,1.7-5,2.3c-0.6,0.2-1.3,0.5-1.9,0.7c-2.6,1.1-5.4,2-8.6,2.9c-5.4,1.4-10.8,2.5-16.2,3.4
					l-1.4,0.2c-8.1,1.4-16.1,2.1-23.9,1.9c-1.6-0.1-3.1-0.3-4.6-0.6c-1.4-0.2-2.6-0.5-4-0.5c-16.6-0.7-33.3-10.1-43.5-24.4
					c-0.3-0.4-0.3-1,0-1.4c0.2-0.2,0.4-0.4,0.7-0.5c-2.8-2.3-5-5.3-6.2-8.7c-0.1-0.4-0.1-0.9,0.2-1.2c0.3-0.3,0.7-0.5,1.1-0.4
					c1,0.2,2,0.2,3.1,0.1c-3-0.9-5.7-2.4-8.1-4.4c-0.4-0.3-0.5-0.8-0.4-1.2c0.1-0.4,0.5-0.8,0.9-0.9c6.1-1.2,10.7-2.8,14.5-5.1
					c2.3-1.4,6.6-4.3,8.7-8.3c1.1-2.1,1.3-4.8,1.6-7.3c0.1-1.2,0.2-2.5,0.4-3.7c0.5-2.8,1-5.6,1.6-8.3c6-27,15.8-44.3,30-53.1
					c2.2-1.4,4.4-2.8,6.4-4.1c7-4.5,13.5-8.8,21.9-11.9c11.6-4.3,21.4-6.8,29.9-7.6c6.6-0.7,13.9-0.1,22.2,1.8c3.5,0.8,7.1,1.7,11,3
					c12.8,4.1,23.4,10.7,34.7,17.7l1.8,1.1c14.2,8.8,24,26.1,30,53.1c0.6,2.6,1.1,5.4,1.6,8.3c0.2,1.2,0.3,2.4,0.4,3.7
					c0.2,2.6,0.5,5.2,1.6,7.3c2,4,6.3,6.9,8.7,8.3c3.8,2.2,8.4,3.9,14.5,5.1c0.5,0.1,0.8,0.4,0.9,0.9c0.1,0.4-0.1,0.9-0.4,1.2
					c-2.4,2-5.1,3.5-8.1,4.4c1,0.2,2,0.1,3.1-0.1c0.4-0.1,0.9,0.1,1.1,0.4c0.3,0.3,0.4,0.8,0.2,1.2c-1.2,3.4-3.4,6.4-6.2,8.7
					c0.3,0.1,0.5,0.2,0.7,0.5c0.3,0.4,0.3,1,0,1.4c-10.2,14.3-26.9,23.7-43.5,24.4c-1.4,0.1-2.6,0.3-4,0.5c-1.4,0.2-3,0.5-4.6,0.6
					C297.7,256.8,296.7,256.8,295.7,256.8z M236.5,228.1L236.5,228.1c0.7,0.1,1.2,0.6,1.2,1.3l-0.1,1c-0.2,3.1-0.4,6.9,1,9.2
					c1,1.5,2.6,2.6,4.2,3.7l0.3,0.2c1.3,0.8,3,1.5,4.5,2c0.7,0.2,1.3,0.5,1.9,0.7c2.5,1,5.2,1.9,8.3,2.8c5.2,1.4,10.7,2.4,16,3.4
					l1.4,0.2c7.9,1.4,15.8,2,23.4,1.9c1.4-0.1,2.8-0.3,4.2-0.5c1.4-0.2,2.8-0.5,4.3-0.6c14.9-0.7,29.9-8.6,39.7-20.8
					c-0.8,0.1-1.6,0.1-2.3-0.1c-0.5-0.1-1-0.5-1.1-1c-0.1-0.5,0.2-1.1,0.7-1.3c3.9-1.6,7.1-4.6,9-8.4c-2.2,0-4.3-0.7-6.1-1.9
					c-0.4-0.3-0.6-0.8-0.5-1.3c0.1-0.5,0.5-0.8,1-0.9c3-0.4,6-1.5,8.6-3.1c-5.1-1.2-9.2-2.8-12.6-4.8c-2.6-1.5-7.3-4.8-9.6-9.3
					c-1.3-2.5-1.6-5.4-1.8-8.2c-0.1-1.2-0.2-2.3-0.4-3.5c-0.5-2.8-1-5.5-1.6-8.1c-5.8-26.3-15.3-43.2-28.9-51.6l-1.8-1.1
					c-11.1-6.9-21.6-13.4-34.1-17.4c-3.9-1.3-7.5-2.2-10.8-3c-8-1.8-15.1-2.3-21.4-1.7c-8.3,0.8-17.9,3.3-29.3,7.5
					c-8.1,3-14.6,7.2-21.4,11.6c-2.1,1.3-4.3,2.8-6.5,4.2c-13.6,8.4-23,25.3-28.9,51.6c-0.6,2.6-1.1,5.4-1.6,8.1
					c-0.2,1.1-0.3,2.2-0.4,3.5c-0.2,2.8-0.5,5.7-1.8,8.2c-2.3,4.5-7,7.8-9.6,9.3c-3.4,2-7.5,3.6-12.6,4.8c2.6,1.6,5.5,2.8,8.6,3.1
					c0.5,0.1,0.9,0.4,1,0.9s-0.1,1-0.5,1.3c-1.7,1.3-3.9,1.9-6.1,1.9c1.9,3.7,5.1,6.8,9,8.4c0.5,0.2,0.8,0.7,0.7,1.3
					c-0.1,0.5-0.5,1-1.1,1c-0.8,0.1-1.6,0.1-2.3,0.1c9.9,12.3,24.9,20.2,39.7,20.8c1.5,0.1,3,0.3,4.3,0.6c1.4,0.2,2.8,0.5,4.2,0.5
					c7.6,0.2,15.5-0.4,23.4-1.9l1.4-0.2c5.3-1,10.8-1.9,16-3.4c3.1-0.8,5.8-1.7,8.3-2.8c0.6-0.2,1.3-0.5,1.9-0.7
					c1.6-0.6,3.2-1.2,4.5-2c0.4-0.2,0.7-0.5,1-0.7c0.7-0.4,1.1-0.7,1.7-1.2c-0.2-0.2-0.3-0.4-0.5-0.7c-1.9-3-1.6-7.2-1.4-10.6
					l0.1-0.9C235.3,228.7,235.8,228.1,236.5,228.1z"/>
			</g>
			<g>
				<path d="M189.1,279.1c-1.9,0-3.9-0.2-5.8-0.4c-0.6-0.1-1.2-0.1-1.8-0.2c-3.4-0.3-6.4-1.1-9.6-2l-0.5-0.1
					c-0.8-0.2-1.6-0.4-2.4-0.5c-0.8-0.2-1.7-0.4-2.6-0.6c-3.4-0.9-5.5-2.5-7-5.3c-1.3-2.4-2.2-5.2-2.3-7.9c-0.1-0.6-0.1-1.1-0.2-1.6
					c-0.2-0.7-0.4-1.6-0.4-2.6c0-1.1,0-2.3,0-3.4v-1.7c0-0.7,0.5-1.2,1.2-1.2s1.2,0.5,1.2,1.2v1.7c0,1.1,0,2.3,0,3.4
					c0,0.8,0.1,1.4,0.3,2.1c0.1,0.6,0.2,1.2,0.3,2c0.2,2.4,0.9,4.9,2,6.9c1.2,2.2,2.8,3.4,5.5,4.1c0.8,0.2,1.6,0.4,2.4,0.5
					c0.8,0.2,1.7,0.4,2.5,0.6l0.5,0.1c3.1,0.8,6.1,1.6,9.3,1.9c0.6,0.1,1.2,0.1,1.8,0.2c1.9,0.2,4,0.4,5.8,0.4c1,0,2.1,0,3.1,0h1.1
					h49.8c0.7,0,1.2,0.5,1.2,1.2s-0.5,1.2-1.2,1.2h-50.9c-1,0-2.1,0-3.1,0C189.2,279.1,189.2,279.1,189.1,279.1z"/>
			</g>
			<g>
				<path d="M157.6,148.3c-0.1,0-0.1,0-0.2,0c-0.7-0.1-1.1-0.7-1-1.3l8.4-67.1c0.1-0.7,0.7-1.1,1.3-1c0.7,0.1,1.1,0.7,1,1.3
					l-8.4,67.1C158.7,147.9,158.2,148.3,157.6,148.3z"/>
			</g>
			<g>
				<path d="M310.2,135.8c-0.1,0-0.1,0-0.1,0c-0.7-0.1-1.1-0.7-1.1-1.3l2.3-23.1c0-0.2,0.1-0.4,0.2-0.5c0.7-1.1,1.3-2.3,2-3.4
					c3.1-5.3,6.3-10.8,9.8-16L275.4,113c-0.6,0.3-1.3,0-1.6-0.6c-0.3-0.6,0-1.3,0.6-1.6l51.2-23c0.4-0.2,0.9-0.1,1.3,0.2
					c0.4,0.3,0.5,0.8,0.4,1.3c-0.4,1.2-1.1,2.2-1.7,3.2c-3.6,5.2-6.8,10.8-9.9,16.3c-0.6,1.1-1.2,2.1-1.9,3.2l-2.3,22.8
					C311.3,135.4,310.8,135.8,310.2,135.8z"/>
			</g>
			<g>
				<path d="M326.7,164.6c-0.7,0-1.2-0.5-1.2-1.2l-0.7-74.4c0-0.7,0.5-1.2,1.2-1.2l0,0c0.7,0,1.2,0.5,1.2,1.2l0.7,74.4
					C327.9,164,327.5,164.6,326.7,164.6L326.7,164.6z"/>
			</g>
			<g>
				<path d="M280.6,116.3c-0.6,0-1.1-0.5-1.2-1.1c-0.1-0.7,0.4-1.3,1.1-1.3l32-3.6c0.7-0.1,1.3,0.4,1.3,1.1c0.1,0.7-0.4,1.3-1.1,1.3
					l-32,3.6C280.7,116.3,280.7,116.3,280.6,116.3z"/>
			</g>
			<g>
				<path d="M181.6,125.1c-0.6,0-1.1-0.5-1.2-1.1l-2.2-21.1c-0.6-1.1-1.2-2.1-1.9-3.2c-3.1-5.4-6.4-11-9.9-16.3
					c-0.6-0.9-1.3-2-1.7-3.2c-0.1-0.5,0-1,0.4-1.3c0.4-0.3,0.9-0.4,1.4-0.1l48.2,28.7c0.5,0.4,0.8,1.1,0.4,1.6
					c-0.4,0.5-1.1,0.8-1.6,0.4l-44.2-26.3c3.3,4.9,6.3,10.2,9.2,15.2c0.7,1.1,1.3,2.3,2,3.4c0.1,0.1,0.1,0.3,0.2,0.5l2.2,21.3
					c0.1,0.7-0.4,1.3-1.1,1.3C181.7,125.1,181.7,125.1,181.6,125.1z"/>
			</g>
			<g>
				<path d="M214.2,109.8c-0.1,0-0.1,0-0.2,0l-34.7-6.1c-0.7-0.1-1.1-0.7-1-1.4c0.1-0.7,0.7-1.1,1.4-1l34.7,6.1
					c0.7,0.1,1.1,0.7,1,1.4C215.3,109.4,214.7,109.8,214.2,109.8z"/>
			</g>
			<g>
				<path d="M240.6,94.5L240.6,94.5c-0.7,0-1.2-0.6-1.2-1.3l1.1-30.7c0-0.7,0.6-1.2,1.3-1.1c0.7,0,1.2,0.6,1.1,1.3l-1.1,30.7
					C241.8,93.9,241.2,94.5,240.6,94.5z"/>
			</g>
			<g>
				<path d="M165.9,237.6c-7.4,0-13.4-6-13.4-13.4c0-7.4,6-13.4,13.4-13.4c7.4,0,13.4,6,13.4,13.4
					C179.4,231.6,173.3,237.6,165.9,237.6z M165.9,213.2c-6.1,0-11,4.9-11,11s4.9,11,11,11s11-4.9,11-11
					C177,218.1,172,213.2,165.9,213.2z"/>
			</g>
			<g>
				<path d="M165.9,232.9c-4.8,0-8.7-3.9-8.7-8.7c0-4.8,3.9-8.7,8.7-8.7s8.7,3.9,8.7,8.7C174.7,229,170.8,232.9,165.9,232.9z
					 M165.9,215.7c-4.7,0-8.6,3.9-8.6,8.6c0,4.7,3.9,8.6,8.6,8.6s8.6-3.9,8.6-8.6C174.5,219.5,170.7,215.7,165.9,215.7z"/>
			</g>
			<g>
				<path d="M308.4,237.6c-7.4,0-13.4-6-13.4-13.4c0-7.4,6-13.4,13.4-13.4c7.4,0,13.4,6,13.4,13.4
					C321.8,231.6,315.8,237.6,308.4,237.6z M308.4,213.2c-6.1,0-11,4.9-11,11s4.9,11,11,11s11-4.9,11-11
					C319.4,218.1,314.4,213.2,308.4,213.2z"/>
			</g>
			<g>
				<path d="M308.4,232.9c-4.8,0-8.7-3.9-8.7-8.7c0-4.8,3.9-8.7,8.7-8.7s8.7,3.9,8.7,8.7C317.1,229,313.2,232.9,308.4,232.9z
					 M308.4,215.7c-4.7,0-8.6,3.9-8.6,8.6c0,4.7,3.9,8.6,8.6,8.6c4.7,0,8.6-3.9,8.6-8.6C316.9,219.5,313.1,215.7,308.4,215.7z"/>
			</g>
			<g>
				<path d="M235.9,229.5c-1.2,0-2.3-0.4-3.3-1.1c-0.8-0.6-1.3-1.6-1.5-2.9c-0.1-0.5-0.2-1,0-1.6c0.2-0.8,0.9-1.5,1.7-1.9
					c0.7-0.2,1.3-0.3,1.9-0.4l3.7-0.3c0.5-0.1,1.6-0.1,2.3,0.7c0.3,0.3,0.5,0.8,0.6,1.3c0.4,2.2-0.7,4.4-2.7,5.5
					C237.8,229.3,236.9,229.5,235.9,229.5z M239,223.7c-0.1,0-0.2,0-0.3,0L235,224c-0.4,0.1-0.8,0.1-1.2,0.2
					c-0.2,0.1-0.4,0.2-0.4,0.3s0,0.2,0.1,0.5c0.1,0.7,0.4,1.3,0.7,1.5c1.1,0.9,2.5,0.7,3.3,0.2C238.4,226.2,239.2,225.1,239,223.7
					C239,223.7,239,223.7,239,223.7z"/>
			</g>
			<g>
				<path d="M213.9,279.1c-0.4,0-0.7-0.2-1-0.5c-2.1-3-3.2-6.4-4.3-9.6l-0.1-0.3c-0.5-1.6-1-3.3-1.4-4.9c-0.8-3.9-0.5-7.3-0.2-11.1
					c0.1-0.7,0.7-1.1,1.3-1.1c0.7,0.1,1.1,0.7,1.1,1.3c-0.3,3.7-0.5,6.8,0.2,10.4c0.3,1.6,0.8,3.1,1.3,4.6l0.1,0.3
					c1.1,3.3,2,6.3,4,9c0.4,0.5,0.2,1.3-0.3,1.7C214.4,279,214.1,279.1,213.9,279.1z"/>
			</g>
			<g>
				<path d="M263.7,279.1c-0.2,0-0.5-0.1-0.7-0.2c-0.5-0.4-0.7-1.1-0.3-1.7c1.9-2.6,2.9-5.7,4-9l0.1-0.3c0.5-1.5,1-3.1,1.3-4.6
					c0.7-3.6,0.5-6.7,0.2-10.4c-0.1-0.7,0.4-1.3,1.1-1.3s1.3,0.4,1.3,1.1c0.4,3.9,0.5,7.1-0.2,11c-0.4,1.7-0.8,3.4-1.4,4.9L269,269
					c-1.1,3.3-2.2,6.7-4.3,9.6C264.5,278.9,264.1,279.1,263.7,279.1z"/>
			</g>
			<g>
				<path d="M258.6,108.5c-0.7,0-1.2-0.5-1.2-1.2c0-7-7.7-12.9-16.9-12.9c-9.5,0-16.9,5.2-16.9,12c0,0.7-0.5,1.2-1.2,1.2
					s-1.2-0.5-1.2-1.2c0-8.1,8.5-14.4,19.3-14.4c10.4,0,19.3,7,19.3,15.3C259.8,108,259.3,108.5,258.6,108.5z"/>
			</g>
			<g>
				<circle class="st3" cx="241.6" cy="57.2" r="5.5"/>
			</g>
			<g>
				<path class="st17" d="M238.1,316c-5.9,0-11-4.2-12-10.1l0.4-0.1c1,5.6,5.8,9.7,11.6,9.7s10.6-4.1,11.6-9.7l0.4,0.1
					C249.1,311.8,244,316,238.1,316z"/>
			</g>
			<g>
				<path class="st17" d="M249.6,301.2c-1.2-5.4-6-9.2-11.5-9.2c-5.5,0-10.3,3.9-11.5,9.2l-0.4-0.1c1.2-5.5,6.3-9.6,11.9-9.6
					c5.7,0,10.7,4,11.9,9.6L249.6,301.2z"/>
			</g>
			<g>
				<path class="st17" d="M238.1,312.4c-3.9,0-7.2-2.5-8.3-6.3c-1,0-6.6,0-6.6,0H223v-5.2h7c1.2-3.4,4.5-5.8,8.1-5.8
					s6.9,2.3,8.1,5.8h6.9v5.2h-6.7C245.4,309.8,242,312.4,238.1,312.4z M230.3,305.9c1,3.6,4.2,6,7.9,6c3.7,0,6.9-2.5,7.9-6.1
					l0.1-0.2h6.6v-4.3H246l-0.1-0.1c-1.1-3.4-4.2-5.6-7.8-5.6s-6.6,2.3-7.8,5.6l-0.1,0.2h-6.9v4.3h3.1
					C230.1,305.7,230.3,305.7,230.3,305.9z"/>
			</g>
		</g>
	</g>
	<path class="st2" d="M238.4,304c0,0.1-0.1,0.1-0.1,0.1c-0.5,0.7-1,1.4-1.5,2.1c-0.5,0.7-0.9,1.3-1.4,2c0,0,0,0-0.1,0
		c-0.6,0-1.3,0-1.9-0.1c0,0,0,0,0,0c0,0,0,0,0,0c0.5-0.7,0.9-1.4,1.4-2.1c0.4-0.6,0.8-1.2,1.2-1.8c0.5-0.7,0.9-1.4,1.4-2
		c0.1-0.1,0.1-0.2,0.2-0.3c0,0,0-0.1,0-0.1c-0.1-0.4-0.2-0.8-0.3-1.1c0-0.2-0.1-0.3-0.1-0.5c0-0.1,0-0.1-0.1-0.1c-0.4,0-0.8,0-1.2,0
		c-0.1,0-0.1,0-0.1-0.1c0-0.5,0-1,0-1.5c0-0.1,0-0.1,0.1-0.1c0.8,0,1.6,0,2.4,0c0,0,0.1,0,0.1,0.1c0.4,1.1,0.8,2.2,1.2,3.2
		c0.5,1.3,1,2.5,1.4,3.8c0.1,0.4,0.3,0.8,0.4,1.2c0,0,0,0.1,0.1,0c0.4-0.1,0.9-0.2,1.3-0.4c0.1,0,0.1,0,0.1,0
		c0.1,0.5,0.3,0.9,0.4,1.4c0,0,0,0,0,0.1c0,0-0.1,0-0.1,0c-1,0.3-1.9,0.6-2.9,0.9c0,0-0.1,0-0.1,0c-0.3-0.8-0.6-1.5-0.9-2.3
		c-0.3-0.7-0.6-1.5-0.8-2.2C238.5,304.3,238.5,304.2,238.4,304C238.5,304,238.4,304,238.4,304L238.4,304z"/>
</g>
</svg>
