<?xml version="1.0" encoding="utf-8"?>
<!-- Generator: Adobe Illustrator 27.3.1, SVG Export Plug-In . SVG Version: 6.00 Build 0)  -->
<svg version="1.1" id="Layer_1" xmlns="http://www.w3.org/2000/svg" xmlns:xlink="http://www.w3.org/1999/xlink" x="0px" y="0px"
	 viewBox="0 0 500 500" style="enable-background:new 0 0 500 500;" xml:space="preserve">
<style type="text/css">
	.st0{fill:#F4E5F0;}
	.st1{fill:#EBF1F4;}
	.st2{fill:#EE708E;}
	.st3{fill:#88B8FD;}
	.st4{fill:#000080;}
	.st5{fill:#A7A9AC;}
	.st6{opacity:0.7;fill:#C00000;enable-background:new    ;}
	.st7{fill:#FFFFFF;}
	.st8{fill:#433643;}
	.st9{opacity:0.4;fill:#1B3E5E;enable-background:new    ;}
	.st10{opacity:0.3;fill:#FFFFFF;enable-background:new    ;}
	.st11{opacity:0.4;fill:#55285B;enable-background:new    ;}
	.st12{fill:#010101;}
	.st13{fill:#DFDDCE;}
	.st14{fill:#231F20;}
	.st15{fill:#EDEDEB;}
</style>
<g>
	<g>
		<path class="st0" d="M245.6,212.2c0,0,0.5-7.9,1.5-13c1.2-6.7-5.7-14.4-5.7-14.4l6.5,1.7l6.5,3.7c0,0-2.1-10.8-4.3-15.8
			c-3.3-7-10.1-12.8-10.1-12.8s-9.2,2.2-17.3-0.2c-3.9-1.2-11.6-7.9-8.2-10.1c3.3-2.2,18.5-4.6,22.1-4.3c3.7,0.3,12.7,2.1,12.7,2.1
			s6.5-3.1,12.8-4.6c8.9-2.1,38,3.7,38,3.7l2.7-12c0,0,10.6,5.7,18,5.3c7.3-0.3,14.8-1.5,19.5-0.7c7,1.2,15.8,11,13.7,16.3
			c-1,2.4-25.7,11-31.9,13c-0.9,0.3-1.4,1.2-1.2,1.9c0.5,3.3,7,9.4,10.3,10.4c6.9,2.2,18.5,0.3,19.2,1.5c0.7,1.2,0.5,7.2-1.2,8.1
			s-17.8,11-40.8,0.9c-1.5-0.7-9.8,7.3-9.8,7.3l3.9,7.5c0,0-7.7,7.2-15.1,9.4c-7.3,2.2-13.6,1.5-13.6,1.5s-4.9-5.3-10-7.7
			C256.2,207.4,245.6,212.2,245.6,212.2z"/>
		<path class="st0" d="M327.8,237.3c0,0-1.4-6-2.5-9.4c-1.2-3.6-3.3-6.7-3.3-6.7l5.3-6.7c0,0,24.2-7.3,28.9-9.8
			c4.8-2.4,17.5-10.3,17.5-10.3s2.1,19.5,3.6,21.2c2.5,2.9,13,1.2,13,1.2s2.4,0.2,0.9,3.1c-1.5,2.9-25.4,12-33.3,13.6
			C350.2,235.6,327.8,237.3,327.8,237.3z"/>
		<path class="st0" d="M235.2,236.8c0,0,10-2.7,17.1,0.5c7.2,3.4,17.1,13,17.1,13s-26.2,8.2-34.3,14.4c-7.9,6.1-24.2,27.1-27.7,27.4
			c-3.6,0.3-14.4,0.9-18.5-2.9c-4.1-3.6-8.4-9.2-7.2-12.4c1.2-3.3,15.9-21,23.1-26.2C212,245.6,235.2,236.8,235.2,236.8z"/>
		<path class="st0" d="M303.9,314c0,0-2.4-12.4,0-15.9c2.4-3.6,7.3-11.8,7.3-11.8s15.8-2.7,31.2,1.7c15.4,4.5,35.7,28.8,35.1,33.9
			c-0.5,5.1-5.5,7.7-11.3,10.1c-5.8,2.2-13.4,4.5-16.4,2.5c-3.3-2.1-15.1-17-20.9-18.7C323.1,314.1,303.9,314,303.9,314z"/>
		<path class="st0" d="M341.3,283.7c0,0,0-1.7,2.2-5.5s0-7.9,0-7.9s18.3-2.2,34.3,6.1c17.3,9.1,27.1,21.6,27.9,25.7
			c0.9,4.3-10.6,8.1-12.7,11s-8.8,2.9-11,1.5c-2.1-1.4-14.6-10.3-14.6-10.3l-9.4,3.7l-14.4-20.4L341.3,283.7z"/>
		<path class="st0" d="M277.6,120l1.5-8.6c0,0,32.7-62.4,36.9-61.2c3.9,1-22.4,59.2-22.4,59.2s-4.8,2.2-8.2,4.8
			C277.6,120,277.6,120,277.6,120z"/>
		<path class="st1" d="M319,171.1c0,0,15.1,2.4,21.2-0.2c6-2.5,9.4-7,9.4-7v-2.4l-22.4,5.3L319,171.1z"/>
		<path class="st2" d="M319,171.1l11,1c0,0,6.1,3.3,7.9,5.3c1.9,1.9,3.4,6.3,3.4,6.3h-6.3l-10-4.1l-6-6.1L319,171.1L319,171.1z"/>
		<path class="st3" d="M220.1,222c0,0-23.1-2.1-27.9-5.8c-4.8-3.9-12.4-9.4-12.4-9.4s8.6-0.2,13,0c4.5,0.2,9.6-2.7,9.6-2.7
			s-12-4.8-16.1-9.1c-4.1-4.1-7.9-10-7.9-10s11-0.2,17.3-0.2c5.3,0,12.5-5.5,12.5-5.5l-7.5-5.8c0,0,9.2-0.9,13.9-3.9
			c4.5-2.9,8.6-7.9,8.6-7.9l17.3,0.2c0,0,6.3,4.9,10.1,12.8c4.5,9.2,4.3,15.8,4.3,15.8s-1.9-2.1-6.5-3.7c-6.1-2.4-10.6-3.3-10.6-3.3
			s7.9,3.9,9.4,10.1c1.5,6-1,19.2-1,19.2l-9.4,3.7L220.1,222z"/>
		<path class="st4" d="M181.3,279c0,0,7-12.4,8.9-13.6c1.9-1.2,7.7-6,7.7-6s0.2,7.2,6.7,12.4c7.2,5.7,17.8,5.3,17.8,5.3l-15.2,15.3
			c0,0-14.2-0.3-18.5-2.9C184.4,287,181.3,279,181.3,279z"/>
		<path class="st5" d="M235.2,236.8c0,0-4.9-10.6-0.7-16.6c4.3-6,11.6-10.4,20.4-10.3c11.8,0.3,18.7,9.1,18.7,9.1s15.4-0.7,19.8-3.7
			c3.9-2.5,8.8-7.2,8.8-7.2l-2.5-4.9c0,0,13.7-1.7,18.3-0.9c4.6,0.9,13.6,3.3,13.7,5.1c0.1,1.9-8.8,14.2-8.8,14.2s2.1,5.8,2.9,8.4
			c0.7,2.7,1.9,7.5,1.9,7.5s-5.8,7.2-8.6,8.1c-2.9,0.9-21.6,2.1-27.1,1.7c-5.7-0.5-7,0-7,0l-8.8,5.3l-2.4-1c0,0-16.6-13.2-23.7-14.2
			C243,236.5,235.2,236.8,235.2,236.8z"/>
		<path class="st5" d="M337.3,264.4c0,6.5-6.3,11.8-14,11.8c-7.7,0-16.4-5.8-14-11.8c2.7-6.7,6.3-11,14-11
			C331,253.4,337.3,257.9,337.3,264.4z"/>
		<path class="st3" d="M235,146.9c0,0,5.3-13.2,6.9-15.8c3.3-5.3,22.2-10.1,23.8-18.3c1.5-8.2-4.1-9.8-4.1-9.8s5.3-1.9,14.2,5.3
			c4.8,3.9,1.7,10.1,1.7,10.1s4.9-0.5,7.7-4.3c2.9-3.7,19.4-8.6,19.4-8.6s-0.9,3.7-1.7,7.9c-0.9,4.1-0.5,8.9-2.4,10.8
			c-1.9,1.9-8.1,4.8-8.1,4.8s9.2-1.4,8.8,7.2c-0.5,8.6-1.5,13-1.5,13s-22.4-4.3-30.7-5.1c-12.2-1.4-20,6.5-20,6.5L235,146.9z"/>
		<path class="st6" d="M258.8,157.9l20.9,19c0,0,40.2-36.4,43.2-38.3c3.9-2.4,6.1-3.7,6.1-3.7l-17.6-20.6c0,0-0.7-1.9-5.5,0.9
			C299.8,118.6,258.8,157.9,258.8,157.9z"/>
		<polygon class="st5" points="258.8,157.9 262.7,154.2 267.7,157.9 267.7,161.5 274.4,166.9 277.6,166.9 284,172.1 279.9,176.9 		
			"/>
		<path class="st4" d="M216.6,242.8c0,0-0.7-14.9,3.4-20.9c4.1-6,16.1-5.8,16.1-5.8s-5.7,7.9-5.5,11.2c0.3,3.3,4.5,9.6,4.5,9.6
			L216.6,242.8z"/>
		<path class="st3" d="M276.2,298.5c0,0,4.1-6.9,14.4-13c10.3-6.1,22.8-11,22.8-11s9.8,3.3,14.2,1.2c9.4-4.5,9.6-11.3,9.6-11.3h3.9
			c0,0,4.5,8.2,2.2,13.7c-2.2,5.5-4.5,8.8-4.5,8.8s-9.2-2.4-15.9-1.7c-6.7,0.5-10,0.9-10,0.9s-5.8,4.9-9.1,11.8
			c-3.6,7.5,0.9,16.8,0.9,16.8l-15.8,2.9c0,0,4.6-7.5-1.2-13.9C281.9,297.3,276.2,298.5,276.2,298.5z"/>
		<path class="st4" d="M227.6,272.3c0,0,15.1,38,34.3,51c20,13.6,49.8,6.3,60.2,1.7c10.4-4.8,9.6-5.8,9.6-5.8s-0.5-1.4-4.8-3.6
			c-7.5-4.1-36.9,2.2-36.9,2.2s3.3-8.6-2.1-13.9c-7-7.2-13.7-4.6-13.7-4.6s3.3-9.6-0.9-14.8c-4.1-5.1-13.7-5.1-13.7-5.1
			s2.9-9.8-0.9-14.8c-4.9-6.7-10.3-5.3-10.3-5.3L227.6,272.3z"/>
		<path class="st5" d="M342.8,327.5l-9.4-8.9c0,0,2.5-15.2,9.2-19.4c5.7-3.4,14-5.1,14-5.1l4.9,3.9c0,0,0-6.1,3.3-10.3
			c4.8-6,14.8-9.2,14.8-9.2l10.6,6.9c0,0-13,6.1-15.4,8.8c-2.4,2.5-5.8,10.4-5.8,10.4s-11.8-3.6-18.3,4.5
			C343.1,317.9,342.8,327.5,342.8,327.5z"/>
		<path class="st3" d="M323.9,241.8c0,0,4.1,2.5,7,5.7c2.9,3.1,4.9,6.1,4.9,6.1l-3.6,1.2c0,0-4.5-3.3-12.7-0.7c-8.2,2.5-8.9,6-8.9,6
			l-19.4,7.7c0,0,0.3-4.6-3.3-9.1c-3.6-4.6-7.5-7.2-7.5-7.2l4.6-4.9c0,0,23.7,2.4,28.9,0.3C320,244.7,323.9,241.8,323.9,241.8z"/>
		<path class="st4" d="M377.5,227.5c0,0-11.6-3.7-13.9-9.8c-2.2-5.8-1.5-16.1-1.5-16.1l11.5-7l2.4,17c0,0-0.7,5.5,3.1,6.3
			c3.7,0.9,12.7-1.2,12.7-1.2l-0.5,3.7L377.5,227.5z"/>
		<path class="st4" d="M342.8,327.5c0,0-0.3-11.8,7.7-18.5c10.3-8.6,18.3-4.5,18.3-4.5s2.9-9.2,8.9-13.2c5.8-3.7,12.4-6,12.4-6
			s16.4,15.1,15.4,17c-2.5,5.3-3.4,4.8-8.1,7.9c-4.6,3.1-11.3,7.3-15.6,4.6c-4.3-2.7-11.2-6.7-11.2-6.7s7.7,9.2,8.1,13.4
			c0.5,5.7-7.3,8.2-12.7,10.3c-5.3,1.9-10.6,5.1-16.4,2.5C344,331.6,342.8,327.5,342.8,327.5z"/>
		<path class="st7" d="M249.2,258.5c0,0,6.9,1,9.4,6.1c4.3,7.9,1.9,14.8,1.9,14.8s5.3,0.5,7.3,1.5c2.2,1,4.5,2.7,4.5,2.7
			s3.3-5.1,8.6-9.1c6.5-4.8,10.8-6.7,10.8-6.7s0-5.3-3.3-9.1c-3.3-3.7-7.5-7.2-7.5-7.2l-4.9,1.2l-6.5-2.9c0,0-10.6,3.7-12.5,4.8
			C254.9,255.4,249.2,258.5,249.2,258.5z"/>
		<path class="st5" d="M211.8,246.8c0,0-4.5-11.8-2.4-15.9c2.1-3.9,10.6-8.9,10.6-8.9s-3.7,6.1-3.6,9.4c0.1,3.3,0.9,11.3,0.9,11.3
			L211.8,246.8z"/>
		<path class="st5" d="M220,280.8l7.5-8.4c0,0,17,42.6,34.3,51c17.3,8.4,40.5,8.4,50.2,4.9c9.8-3.5,21-9.8,21-9.8s3.7,4.9,3.9,5.5
			s-15.4,10-25,12.7c-13.2,3.9-48.2,2.1-58-6.1C235,314.1,220,280.8,220,280.8z"/>
		<path class="st5" d="M214.4,358.9c-20-18.3-27.4-39.3-22.8-44.8c4.9-6,9.4-5.7,13-3.9c3.7,1.7,8.2-3.4,8.2-3.4s10.1,19.8,20,27.4
			c9.8,7.6,32.3,16,32.3,16l-8.9,7.5c0,0,6.3,5.8,1.7,10.6c-4.6,4.8-10.6,6.5-17.3,4.5C234.1,371.1,214.4,358.9,214.4,358.9z"/>
		<path class="st8" d="M274.2,299.2c0,0,1.9-5.1,1.2-8.9c-1.2-6.1-2.9-6.7-2.9-6.7s8.4-10.1,19.4-15.9c10.8-5.7,19.4-7.7,19.4-7.7
			s-2.5,5.8-1.4,8.2c3.7,6.9,3.7,6.1,3.7,6.1s-17.6,5.9-22.8,10.9C278.7,296.7,274.2,299.2,274.2,299.2z"/>
		<path class="st8" d="M337.3,264.4c0,0,2.4-0.5-1.2-5.1c-3.6-4.5-3.6-4.5-3.6-4.5l3.6-1.2c0,0,1.9,4.5,3.7,5.5s1.4,5.5,1.4,5.5
			L337.3,264.4L337.3,264.4z"/>
		<path class="st1" d="M294.1,340.2c0,0-20.4,11.6-28.8,10c-13-2.7-30-10.6-37.5-21.4c-9.4-13.4-14.4-18.7-14.4-26.1
			c0-14.4,6.9-22.1,6.9-22.1s12.5,33.1,32.2,46C272,339.6,294.1,340.2,294.1,340.2z"/>
		<path class="st3" d="M138.9,393.4c0,0-21.9,11.3-19.7,18c3.1,9.2,33.1,13.9,33.1,13.9s-8.1,8.4-1.4,10.6
			c6.7,2.2,16.4-7.5,16.4-7.5s-13.2,5.1,4.5,11.2c9.8,3.3,24.7-21.2,24.7-21.2l25.7-51.6c0,0,3.1,2.2-7.7-7.7
			c-11-10-13.2-13.9-13.2-13.9L138.9,393.4z"/>
		<path class="st3" d="M114.2,341.2c0,0,2.1,10.1,8.6,14.2c6.5,4.1,15.9,7.2,36.5-2.5c19.5-9.4,30.9-21.2,31.2-23.1l9.2,14.8
			c0,0-63.9,50.2-71.5,45.6s-28.6-17.3-28.6-33.7C99.7,339.5,114.2,341.2,114.2,341.2z"/>
		<path class="st3" d="M110.8,377.2c0,0,36.5,1,53.5-10.6c17-11.6,32.4-24.9,32.4-24.9l7.7,7.3c0,0-17,18.3-26.5,28.1
			c-22.4,22.6-43.8,40-50.1,39c-3.7-0.7-1.2,1.2-4.8-0.3c-2.9-1.4-3.9-1.5-3.9-4.5c-0.2-11.2,25-17.9,25-17.9s-10.8,2.1-16.3-1.7
			C122.4,387.7,110.8,377.2,110.8,377.2z"/>
		<path class="st4" d="M144.4,342.6c0,4.1-3.4,7.5-7.5,7.5s-7.5-3.4-7.5-7.5c0-4.1,3.4-8.4,7.5-8.4S144.4,338.4,144.4,342.6z"/>
		<ellipse class="st3" cx="130.9" cy="313.2" rx="7.2" ry="1.7"/>
		<path class="st4" d="M174.8,440.3c-11.6-1.5-12.2-9.2-12.2-9.2s-32.4,12.7,0.3-13.4c19.8-15.9,51.4-58.8,51.4-58.8l8.6,6.5
			c0,0-13.2,30-14.6,50.2c-0.9,15.2,6.7,26.9,6.7,26.9l-10.3-14.6c0,0,2.5,9.8-2.9,9.8c-8.2,0-5.8-23.7-5.8-23.7
			S182.8,441.4,174.8,440.3z"/>
		<path class="st4" d="M204.6,436.4c-7.7,3.4-7.7-25,3.7-47.7c8.9-17.1,14.6-23.1,14.6-23.1l9.8,4.3c0,0-10.8,21.8-12.7,40.7
			c-1.7,17.6,13.6,23.5,13.6,23.5s19.2,10.1,8.1,15.1c-11.2,4.9-25.5-4.8-29.8-11.2c-4.5-6.3-7-9.8-7-9.8L204.6,436.4z"/>
		<path class="st4" d="M240.8,373c0,0-12.7,18.7-11.6,27.7c1,9.2,3.9,23.8,19,27.6c15.1,3.8,12.5,0.7,11.3,3.3
			c-1.2,2.6-11.2,4.6-17,3.6c-5.8-1.2-18.3-2.2-22.4-11c-4.3-8.9-3.7-15.2,0-27.9c3.7-12.7,12.7-26.4,12.7-26.4L240.8,373z"/>
		<circle class="st4" cx="292" cy="407.9" r="5.1"/>
		<ellipse class="st3" cx="268.4" cy="415.9" rx="9.6" ry="5.3"/>
		<path class="st7" d="M257.7,399c0,0,6.1-5.8,8.8-4.8c0,0-3.6-8.6-0.3-12.4c0,0-5.3,6.1-10.6,3.4c-1.4-0.7,3.7,2.2,3.3,6.5
			C258.3,396.2,257.7,399,257.7,399z"/>
		<path class="st7" d="M286.5,374.5c0,0,3.1-0.9,3.6-2.4c0.3-0.9,0.5-1.9,0.5-1.9l2.4,3.9l1.7,1.7l-2.4,2.5l-0.5,1.7l-2.1-3.9
			L286.5,374.5z"/>
		<path class="st7" d="M149.5,322.2c0,0,2.9-2.5,2.9-4.8c0-0.9-0.5-5.5-0.5-5.5s3.4,3.3,5.3,3.7c1.9,0.5,5.8,1,5.8,1
			s-2.1,5.1-1.9,6.1c0.2,1,0.9,3.6,0.9,3.6s-3.9-4.3-6.3-4.5C153.1,321.9,149.5,322.2,149.5,322.2z"/>
		<path class="st9" d="M262.7,195.1c0,0,2.5,10.3,19.5,15.4c14.4,4.5,22.1-1.9,20.2-4.8l-3.9-5.7l6.1-7.3c0,0-14.6,9.4-20.7,10
			C272.5,204.2,262.7,195.1,262.7,195.1z"/>
		<path class="st9" d="M258.8,156.4l-1.4,2.4l23,20.9c0,0,19.2-18.3,29.8-27.4c6.7-5.7,11.5-10.4,11.5-10.4l-2.4-1.5l-38.4,35.3
			L258.8,156.4z"/>
		<path class="st9" d="M287.6,217.4c0,0-1.9,3.6,2.4,14.4c5.7,14,27.3,14,27.3,14s-15.9,4.3-22.8,2.5c-6.9-1.7-8.4-1.9-8.4-1.9
			s-0.3-5.5-4.6-13.4c-4.3-7.9-7.3-14.2-7.3-14.2L287.6,217.4z"/>
		<path class="st9" d="M271.8,250.2c0,0-8.1-7.3-15.9-10.6c-7.9-3.4-23.1-3.7-23.1-3.7s11,1.9,16.4,6c-9.8,4.1-27.6,12.5-35.9,19.2
			c-12.7,10.3-25.4,26.7-25.4,26.7s2.1,2.7,5.7,3.6c5.7,1.4,9.2,0,9.2,0s14.4-13.4,23-21.4c8.8-8.1,22.8-13.7,32.9-18.8
			c0.9,1.2,2.1,2.2,2.1,2.2L271.8,250.2z"/>
		
			<ellipse transform="matrix(0.7855 -0.6189 0.6189 0.7855 -68.0119 238.6598)" class="st10" cx="310.3" cy="217.4" rx="3.6" ry="7.2"/>
		
			<ellipse transform="matrix(0.6178 -0.7864 0.7864 0.6178 -72.0851 292.0424)" class="st10" cx="264.4" cy="220.2" rx="4.1" ry="9.6"/>
		<path class="st9" d="M252.3,212.2c0,0-5.8,0.9-4.1,11.5c1.7,10.6,30.3,26.4,30.3,26.4l-2.7,2.4c0,0-16.3-12.8-23.7-14.4
			c-7.3-1.5-11.8-2.5-11.8-2.5s-6.1,0.7-5.3-8.6C236.2,213.8,252.3,212.2,252.3,212.2z"/>
		<path class="st9" d="M314.7,210.1c0,0,4.6,1.7,7.3,2.1c2.7,0.3,7.2-1,7.2-1l-6.9,10.8L314.7,210.1z"/>
		<path class="st9" d="M325.2,228.1c0,0,8.4,0.9,24.3-2.7c15.9-3.7,23.8-11.5,23.8-11.5l-2.5-17.4l2.9-1.7c0,0-1.7,18.3,3.6,21.2
			s14.4,0.7,14.4,0.7s-1-0.7-1.2,1.5c-0.2,2.2-19.4,10.1-33.6,13.7s-31.3,3.6-31.3,3.6s1.9,0.9,1-2.4
			C325.7,229.8,325.2,228.1,325.2,228.1z"/>
		<polygon class="st11" points="333.4,166.1 332.5,171.3 319,172.1 		"/>
		<path class="st11" d="M319,172.1l11.2,0.2c0,0,2.7,1,4.5,2.4c1.7,1.4-3.3,0.3-5.3,2.2c-2.1,2.1,1.9,5.7,1.9,5.7L319,172.1z"/>
		<path class="st9" d="M341.6,281.8c0,0,12.7,0.5,25.7,11c13,10.4,14.9,16.6,21.2,17.5c6.1,0.9,12-2.1,12-2.1s-7,7.9-14.2,7.3
			c-7-0.5-19.2-11.2-19.2-11.2s-11-11.6-19.5-14.6c-8.6-2.9-7.7-4.3-7.7-4.3L341.6,281.8z"/>
		<path class="st9" d="M358.4,327.5c-6-1.4-6.9-20.4-21.2-27.3c-14.2-6.9-22.2-1-38-2.2c-15.6-1.2-19.7-12.8-28.9-23.5
			c-5.8-6.7-9.1-13.2-10.6-17.3l7-3.7c0,0,8.6,2.4,12.8,1.2c4.1-1.2,5.5-4.6,5.5-4.6s21.8,0.9,28.3-0.5c6.5-1.6,10.7-8,10.7-8
			s-6.7,4.1-13.7,5.7s-24.2-1-24.2-1s-1.4,0.7-7.3,3.7c-6,2.9-9.6,0-9.6,0l-10.4,3.6v-0.2l-0.7,0.3l-0.9,0.3v0.2l-8.6,4.8
			c0,0,6.1-1,10.3,5.3c4.3,6.1,0.7,15.9,0.7,15.9s9.1-4.3,14.2,3.6c2.9,4.5-0.3,14.4-0.3,14.4s9.8-1.2,15.9,6.9
			c4.3,5.7,0.9,12.2,0.9,12.2s29.8-3.4,40-0.3c10.1,3.1,17.6,17.5,24.2,17.8c6.5,0.3,15.9-5.7,15.9-5.7S364.6,328.9,358.4,327.5z"/>
		<path class="st9" d="M235.5,235.3l-25.1,11.6c0,0-4.1-11-1.5-16.3c2.5-5.5,23.3-14.8,23.3-14.8l5.7-0.9c0,0-8.1,4.9-6.7,10.3
			C232.3,230.6,235.5,235.3,235.5,235.3z"/>
		<path class="st9" d="M255.9,261.8c0,0-14.2,3.9-17.6,8.2c-3.4,4.1-6.5,6.5-3.3,10.8c3.3,4.3,13.6,1.4,13.6,1.4s-7.3,8.2-0.3,16.4
			c7,8.4,15.9,6.5,15.9,6.5s-6.3,10.1,3.4,14.2c9.8,4.1,22.2-1.7,22.2-1.7s26.2-5.3,33.1-2.9c6.9,2.4,14.2,9.1,14.2,9.1
			s-20.4,15.2-37.5,14.8c-17.1-0.5-45.8-4.5-54.9-17.6c-9.1-13.2-21.9-33.6-22.2-37.5c-0.3-4-2.2-5.8-2.2-5.8l29.8-19.7L255.9,261.8
			z"/>
		
			<ellipse transform="matrix(0.9406 -0.3394 0.3394 0.9406 -76.4841 102.4315)" class="st10" cx="254.6" cy="269.9" rx="2.5" ry="4.6"/>
		
			<ellipse transform="matrix(0.9406 -0.3394 0.3394 0.9406 -82.0338 107.9828)" class="st10" cx="267.7" cy="288.5" rx="2.5" ry="4.6"/>
		
			<ellipse transform="matrix(0.7396 -0.6731 0.6731 0.7396 -133.017 269.9055)" class="st10" cx="282.3" cy="306.8" rx="2.5" ry="4.6"/>
		<path class="st9" d="M291.7,340.7c0,0-19.7,0.5-35.3-5.7c-8.9-3.4-15.2-7.9-17.3-9.4c-0.3-0.3-1-0.2-1.2,0.2l-1.9,2.5
			c-0.5,0.7-0.5,1.5,0.2,2.2c1.5,1.7,4.8,5.1,6.7,7c2.5,2.5,11,7.7,11,7.7c0.3,1.5-17.8-2.4-31.3-24.3c-9.6-15.4-1.5-40.7-0.5-40.2
			c0,0,15.9,32.1,21.4,38.4C256.4,335,291.7,340.7,291.7,340.7z"/>
		<path class="st9" d="M208.9,314.1l3.6-3.9l0.3-4.1c0,0,12.7,22.4,22.1,29.5c9.6,7,28.3,14,28.3,14s-12.7,2.1-33.4-13.2
			c-11-8.2-10.3-9.1-10.3-9.1l-2.5,2.2L208.9,314.1z"/>
		<path class="st9" d="M204.6,314.6l8.6,15.1c0,0-3.7-1-7,2.5c-3.3,3.5-4.3,5.5-4.3,5.5s10,15.1,23,24c10.1,7,28.8,10.1,28.8,10.1
			s-25,1-37.1-9.6c-23.3-20.4-26.2-42-26.2-42l2.1,3.7c0,0-0.7-5.7,3.4-9.1C201.3,310.4,204.6,314.6,204.6,314.6z"/>
		<path class="st10" d="M216,332.8c0,0,8.8,15.2,22.4,20.9c7.3,3.1,15.4,5.3,17.6,7.2c1.7,1.5,1.2,2.5-2.4,2.4
			c-2.9,0-15.6-5.7-20.7-8.9C224.1,348.9,216,332.8,216,332.8z"/>
		<path class="st10" d="M369.6,312.4c2.9,3.6,6,7.3,4.8,8.4c-1.2,1-4.1-2.9-7-6.5c-2.9-3.6-6.5-5.7-5.1-6.5
			C363.4,306.6,366.6,308.6,369.6,312.4z"/>
		<path class="st10" d="M396.3,295.5c2.9,3.6,6.3,7.3,5.1,8.2c-1.2,1-4.5-2.9-7.3-6.5c-2.9-3.6-6.5-5.7-5.1-6.5
			C390.2,289.6,393.6,291.8,396.3,295.5z"/>
		<path class="st10" d="M327.8,207.1c-0.2,0.7-4.6,0.5-7.7-0.2c-3.1-0.7-5.3-2.1-5.1-2.7c0.1-0.7,2.7-0.5,5.8,0.2
			C323.8,205.2,327.9,206.4,327.8,207.1z"/>
		<path class="st9" d="M241.2,162l10.1-1.5l-1.9,4.9c0,0,1.4,0.3,4.1,7.5c2.7,7.2,0.5,18.8,0.5,18.8s-0.3-15.6-4.5-20.2
			C244.6,166.1,241.2,162,241.2,162z"/>
		<path class="st9" d="M252.3,151.8c0,0,2.5-2.5,6.5-3.7c4.1-1.2,12.5-2.5,12.5-2.5s-6.5-2.7-13,0c-6.5,2.7-9.6,5.1-9.6,5.1
			L252.3,151.8z"/>
		<path class="st9" d="M254.9,192.5c0-0.3-3.3-2.4-4.9-3.3c-1.9-0.9-2.1-0.7-2.1-0.7s1.7,3.7,2.4,9.1c1,7.9,0.2,13.2-0.3,12.2
			l-4.5,0.5c0,0,4.1-15.9,0-19.8c-4.1-3.9-4.8-6.7-4.8-6.7s8.6,2.4,11,4.1C253.8,190,254.9,192.5,254.9,192.5z"/>
		<path class="st9" d="M246.3,207.6c0,0-10.1,3.7-16.3,2.5c-12.4-2.4-17.1-17.1-17.1-17.1s-2.5,8.4,0.9,14.6
			c3.6,6.1,6.7,8.4,6.7,8.4s-4.1,1.7-13.6,0.9c-13-1.2-26.4-11.2-26.4-11.2s10.3,11.8,17.6,13.4c7.3,1.5,22.2,3.4,22.2,3.4l25-11.8
			L246.3,207.6z"/>
		<path class="st9" d="M244,165.7c0,0-5.7-0.2-11.3-0.5c-5.7-0.3-12-4.5-12-4.5l0,0c0,0,7.5,2.2,11.5,1.9c3.9-0.3,6.1,0,6.1,0
			L244,165.7z"/>
		<path class="st9" d="M280.9,112.1c0,0,0.9,0.9,4.6,0.5s2.5-0.5,2.5-0.5s-4.9,4.1-6.1,4.6c-1.2,0.5-5.5,1.9-5.5,1.9l2.2-4.9
			L280.9,112.1z"/>
		<g>
			<path class="st12" d="M372.3,193.2c-1.4,1.2-8.6,7.2-19.2,11.5c-9.4,3.9-20.2,7-24.2,8.1c0.5-0.7,1-1.4,1.5-1.9
				c1.2-1.5,2.2-2.7,1.9-4.3c-0.3-1-1.2-2.1-3.3-2.9c-8.9-4.3-24.5-2.9-29.1-2.4l-0.7-1.2c0.7-0.5,1.4-1.2,2.1-1.7
				c0.7-0.5,1.2-1.2,1.9-1.7c0.3-0.3,0.7-0.5,1-0.7c0.2-0.2,0.3-0.2,0.5-0.3c0.2-0.2,0.2,0,0.3-0.2c1.5-0.3,3.1-0.2,4.8,0.2
				c3.4,0.5,6.9,1.7,10.4,2.5c0.9,0.2,1.9,0.5,2.7,0.5c1,0.2,1.9,0.2,2.9,0.3c1.9,0,3.7,0,5.7-0.2c3.7-0.3,7.2-1.2,10.6-2.2
				c1.7-0.5,3.3-1.2,4.9-1.9c0.3-0.2,0.9-0.3,1.2-0.5l0.5-0.3l0.5-0.3c0,0,0.2-0.2,0.3-0.3c0.2-0.2,0.3-0.3,0.3-0.3
				c0.2-0.2,0.3-0.5,0.5-0.7c0.3-0.5,0.5-0.9,0.5-1.4c0.5-1.7,0.9-3.6,0.3-5.5c-0.3-0.9-0.7-2.1-1.7-2.5c-0.3-0.2-0.5-0.3-0.9-0.3
				s-0.5-0.2-0.7-0.2c-0.5,0-0.9,0-1.4,0c-1.7,0-2.9,0.3-4.5,0.5c-0.3,0-0.5,0-0.9,0.2c0-0.9-0.5-2.2-2.1-4.5
				c-1.7-2.4-4.9-4.5-7.3-5.8c1.4-0.2,2.5-0.3,4.1-0.7c10.1-1.9,14.8-7,14.9-7.3l0.3-0.5l-1.2-2.4c1-0.5,2.1-0.9,3.3-1.7
				c0.3-0.3,0.9-0.5,1.2-0.9c0.3-0.3,0.9-0.9,1-1.7c0.2-1.4,0-2.2-0.3-3.3c-0.5-1.9-1.4-3.6-2.2-5.1c-0.9-1.5-2.1-3.3-3.4-4.6
				c-0.3-0.3-0.9-0.7-1.2-1l-1-0.9c-0.7-0.5-1.4-1.2-2.2-1.7c-0.7-0.5-1.5-1.2-2.4-1.5c-0.9-0.5-1.9-0.9-2.9-0.9
				c-1.2-0.2-2.1,0-2.9,0c-0.9,0.2-1.9,0.2-2.7,0.3c-3.6,0.5-7,1.2-10.3,1.4c-0.5,0-1,0-1.5,0.2c1.9-1.4,3.4-2.4,4.9-3.1
				c0.9-0.5,1.5-1.2,1.7-2.2c0.2-1,0-2.1-0.7-2.7l-15.8-18.4c-0.5-0.7-1.5-1-2.4-1c-2.1,0.2-4.5,1.5-6.9,3.1
				c1-4.8,2.5-10.4,2.5-10.6l0.3-1.5l-1.5,0.3c-0.3,0.2-5.3,1.5-10.3,3.6c7.2-15.9,24.7-55.6,23-59.2c-0.2-0.3-0.3-0.5-0.7-0.7
				c-1.2-0.3-2.7-0.9-21,32.5c-7,12.8-13.9,26.1-16.4,31c-0.5-1.9-1.5-3.7-3.7-4.9c-6.5-3.7-13.7-4.9-14-4.9l-2.9-0.3l2.2,1.9
				c0,0,5.5,4.9,4.1,9.8c-1,3.7-7.7,7.3-13.4,10.4c-1.7,0.9-3.4,1.9-4.9,2.7c-6.1,3.6-11,16.3-12.4,19.8
				c-15.1,1.7-20.7,3.1-21.6,5.3c-0.5,1.2-0.2,2.9,0.9,4.6c1.4,2.2,3.7,4.6,6.9,6c-1.2,1.2-4.1,4.6-7.2,7
				c-3.7,2.9-12.7,4.5-12.7,4.5l-2.2,0.3l7.7,5.3c-0.9,1-2.9,3.3-8.1,3.9c-7.2,1-19.5,0-19.7,0l-1.5-0.2l0.7,1.5
				c0,0.2,2.4,4.5,8.9,10.4c4.6,4.3,10.4,7.9,13.4,9.6l-4.9,1.4c-1.4,0.3-2.5,0.5-3.9,0.3l-11.5-0.9l0.7,1.4
				c0.2,0.3,3.9,7.9,16.4,11.8c7.7,2.4,16.1,3.3,20.7,3.4c-4.1,2.4-7.3,5.3-8.6,8.8c-1.7,4.9,0.5,13.9,1.2,16.4
				c-1.7,1.2-3.4,2.4-4.9,3.6c-11.8,9.6-24.3,24.2-24.3,28.3c0,3.7,5.1,9.4,8.8,11.6c2.9,1.9,9.8,2.9,14.4,2.9
				c1.5,0,2.7-0.2,3.6-0.3c1.4-0.3,3.6-2.4,7.5-6.1c-1,4.6-2.5,11.8-2.5,15.4c0,0.3,0,0.9,0,1.2l-5.7,6.3c-1.7-1.7-3.7-2.9-6.5-2.9
				c-6-0.2-11.6,6.7-11.8,12.4c0,1.7,0.5,5.5,2.2,10.3c-4.1,3.3-21.4,17-39.3,24c-11.2,4.3-20,4.6-26.2,0.9
				c-7.3-4.5-8.6-13.4-8.6-13.6l-0.2-1.4l-1.4,0.2c-0.5,0-12.7,1.7-16.4,10.3c-2.4,5.5-0.7,12.4,4.9,20.4
				c12,16.8,23.7,22.4,30.1,24.5c-5.3,2.1-13,6.1-15.4,13.2c-0.5,1.5-0.3,3.1,0.5,4.6c4.3,7.2,24.7,11.8,31.9,13.2
				c-1.5,2.1-3.4,5.3-2.9,7.7c0.2,1,0.7,1.9,1.5,2.4c2.9,1.7,9.1-0.9,13.4-3.1c-0.2,0.9-0.2,2.1,0.3,3.1c1,2.5,3.7,4.3,8.6,5.1
				c9.6,1.7,18.3-10.4,22.4-17.6c0.2,5.5,1.2,13.2,5.5,15.1c2.1,0.9,3.6,0.5,4.6-0.2c1.5-0.9,2.4-2.7,2.7-4.5
				c4.5,5.8,15.4,18.5,27.7,18.5c1.7,0,3.6-0.3,5.3-0.9c4.8-1.5,7.3-3.6,7.7-6.5c0.3-3.3-2.9-6.5-6-8.9c6,0.5,14.6,0.5,18.3-2.9
				c0.3-0.3,1.5-1.5,1-2.7c-0.5-1.5-2.2-1.7-5.3-2.1c-6-0.9-16.1-2.4-21.6-12.8c-7.5-14.4,3.7-36,7-41.9c1.7,0.3,3.4,0.5,4.9,0.5
				c0.9,0,1.5,0,2.1-0.2c5.3-0.7,10.1-3.7,12.2-7.5c1.2-2.2,1.2-4.5,0.3-6.5c-0.5-1.2-1.2-2.1-2.1-2.7l7-6.3
				c2.1,0.3,3.4,0.3,4.1,0.5c0.2,0,0.2,0,0.3,0c4.1,0,12.2-3.6,19.2-6.7c4.1-1.7,9.1-4.1,10.3-4.1l0,0c0.3,0,0.7-0.2,1-0.3
				c9.8-0.9,19.2-3.4,27.4-7.9c5.8-3.1,8.6-6,10-7.9c1.7,1.7,3.4,3.6,4.9,5.1c3.3,3.6,5.8,6.1,7.9,6.9c0.9,0.3,1.7,0.3,2.7,0.3
				c3.7,0,8.2-1.9,12.2-3.6c0.9-0.3,1.5-0.7,2.2-0.9c4.6-1.9,12.5-6.1,12.7-10.6c0-1.5-2.2-5.7-5.8-10.6c3.6,2.7,6.7,5.1,7.7,5.7
				c0.5,0.3,1.2,0.3,2.1,0.3c3.7,0,9.8-2.4,14.6-5.7l0.7-0.5c5.3-3.7,7.7-5.5,7.7-8.9c0.2-4.1-24.7-30-47-33.9
				c-6.5-1.2-13.2-0.5-16.1-0.2c-0.5-2.4-1.2-4.9-2.4-7.9c-3.6-9.2-12.2-16.4-15.6-18.8c0.5-0.7,0.9-1.4,1.2-2.1l0.9-0.2
				c0.7,0,2.1-0.2,3.3-0.2c4.8-0.2,12.8-0.5,23.7-2.7c14.8-3.1,24.2-7.5,29.8-10.1c1.2-0.5,2.2-1,2.9-1.4c3.9-1.7,4.9-4.8,5.3-6.5
				 M382.1,283.9c-0.3,0.3-0.9,0.3-1.2-0.2c-0.2-0.2-0.2-0.3-0.2-0.5s0.2-0.3,0.3-0.5c0.3-0.3,0.9-0.3,1.2,0.2
				C382.4,283,382.3,283.6,382.1,283.9z M382.1,280.6c-0.7-0.2-1.5,0-2.2,0.5l0,0c-0.5,0.5-0.9,1-0.9,1.7c0,0.7,0.2,1.4,0.5,1.9
				c0.5,0.5,1.2,0.9,2.1,0.9c0.5,0,1.2-0.2,1.7-0.5c1-0.9,1.2-2.4,0.5-3.4c1.7,1.2,3.3,2.4,4.8,3.7c-2.5,0.3-6.3,1.5-10.3,4.5
				c-4.1,2.9-8.9,7.5-9.4,13.2c-1.4-1.2-2.7-2.2-3.7-3.3c-0.5-0.5-1.2-1.2-1.7-1.7v-0.2c-0.3-2.9,0.3-8.8,7.7-14.2
				c4.5-3.4,7.9-4.1,9.6-4.3C380.9,280,381.4,280.3,382.1,280.6z M344.5,270.5c2.7-0.3,9.1-0.9,15.2,0.2c6.1,1.2,12.5,3.9,18.3,7.3
				c-2.1,0.5-4.9,1.7-8.2,4.3c-6.9,5.1-8.2,10.4-8.4,14c-3.7-3.4-7.5-6.3-11.2-8.2c-2.4-1.2-4.9-2.1-7.7-2.7
				C343.7,283.2,345.5,278.4,344.5,270.5z M332.7,317.2c-1.5-1-3.1-1.9-4.6-2.4c-5.3-2.1-14.4-1.7-22.4-1c-0.9-1.9-3.1-7.3-2.1-12.2
				c2.1-11,9.6-14.8,11.5-15.6c10.4-0.3,24.9,0.3,33.6,4.8c1.7,0.9,3.4,1.9,5.1,3.3c-3.1,0-7.7,0.9-12,4.6
				C333.7,306.1,332.7,313.4,332.7,317.2z M265,303c-1.7,0.9-3.3,1.9-4.8,3.3c-0.7,0.7-1.5,1.4-2.1,2.1c-0.5,0.9-1.2,1.5-1.7,2.4
				c-0.9,1.5-1.5,3.3-1.5,4.9c-6.1-6-11.5-14.4-15.6-22.4c0.5-1.2,1.4-2.1,2.1-3.1c1.2-1.5,2.5-2.9,4.1-4.3c1.5-1.2,3.3-2.2,5.1-2.9
				c1.9-0.9,3.7-1.4,5.8-1.7c-2.1-0.3-4.3,0-6.3,0.5c-0.5,0.2-1,0.3-1.5,0.5s-1,0.3-1.5,0.7c-1,0.5-1.9,1-2.7,1.7
				c-1.7,1.2-3.3,2.9-4.5,4.8c-0.5,0.9-1,1.9-1.4,2.9c-4.6-9.1-7.7-17.3-8.8-19.8c1.7-1.5,3.3-2.9,4.8-3.7c3.3-2.2,9.2-5.7,15.6-8.8
				c2.1,0.3,5.3,1.4,7.7,5.5c3.4,6.3,1.7,14.2,1.7,14.2l-0.3,1.2h1.2c0,0,9.4-0.3,12.4,4.9c3.1,5.3,0.3,13.2,0.3,13.2l-0.7,2.1
				l1.9-0.9c0.2,0,4.9-2.2,11.6,3.4c1.4,1.7,4.5,6.5,3.7,9.4c-0.9,4.1-1,5.1-1,5.1l-0.3,1.7l1.5-0.7c0.3-0.2,0.9-0.3,1.4-0.5
				c0.2,0,0.3,0,0.5,0c0.3,0,25.5-4.5,35.1-0.9c1,0.3,1.9,0.9,2.9,1.4c-6.5,4.9-37.7,20.6-69.1,2.1c-2.1-1.2-4.1-2.9-6.1-4.8
				c0.7-1.5,1.5-3.1,2.5-4.5c1.2-1.5,2.4-2.7,3.7-3.9c0.7-0.5,1.4-1.2,2.2-1.7c0.7-0.5,1.5-1.2,2.2-1.7c1.5-1,3.1-2.1,4.8-2.9
				C268.6,301.3,266.7,302.2,265,303z M232.7,234.9c-2.5,1-7.9,3.4-13.7,6.5c-0.3-3.1-1-8.6-0.3-11.5c0.9-4.1,5.8-8.6,5.8-8.8l0,0
				c2.9-1.2,6.1-2.4,10.1-3.6c-0.3,0.5-0.9,1-1.2,1.5C228.8,226.2,231.2,232.2,232.7,234.9z M235.7,220.4c2.7-4.3,8.4-7.7,14.4-9.1
				c6.1-1.2,12.2-0.2,17,2.9c11.2,7.3,17.3,27.4,16.8,31c-0.3,2.4-5.5,4.8-8.2,5.7c-1-0.3-3.1-1.7-5.3-3.1l-0.2-0.2
				c-0.5-0.3-0.9-0.5-1.4-0.9c-4.3-2.9-9.8-6.7-15.1-9.1c-7.2-3.3-13.9-3.7-17-3.7c-0.5,0-0.9,0-1.2,0
				C234.3,232.5,231.2,227.2,235.7,220.4z M276.1,219.6c3.3,0.2,8.9-0.2,14.6-2.4c5.1-2.1,8.6-4.9,11-7.3c1.4-1.2,2.7-2.5,3.4-2.4
				c2.2,0.2,8.6,4.3,12.7,9.8c4.3,5.7,7.9,15.2,7.9,18.3c0,3.1-3.7,7.5-10,9.6c-6,2.1-25.2,0.3-29.1,0
				C286.5,240.5,282.8,228.6,276.1,219.6z M308.7,268.7c0.5,2.1,1.7,3.9,3.6,5.3c-2.7,1.2-9.8,4.3-18.5,8.9
				c-11.5,6-17.1,14.2-17.3,14.6c0,0,0,0,0,0.2c-0.3,0-0.5,0-0.9,0.2c0.7-2.7,1.7-8.8-1-13.2c-0.3-0.3-0.5-0.9-0.9-1.2
				c1.4-1.5,7.5-8.6,17.3-13.7c8.1-4.3,15.1-6.7,18.3-7.9C308.4,263.9,308,266.3,308.7,268.7z M320.5,255c1.5-0.3,2.9-0.5,4.3-0.5
				c5.3,0,10,2.7,11.2,7c0.7,2.5,0,5.3-1.9,7.9c-1.9,2.5-4.9,4.5-8.4,5.3c-7,1.9-13.9-1-15.4-6.5C308.8,262.7,313.5,256.9,320.5,255
				z M290,268c-10.1,5.3-16.3,12.2-17.8,14c-2.4-1.9-5.7-2.7-8.1-3.1c0.5-2.2,2.9-8.8,10.6-14.4c5.8-4.1,11.8-6.3,12-6.3
				c3.4,5.1,3.9,8.4,3.9,9.4C290.5,267.8,290.3,267.8,290,268z M273.8,263.2c-8.6,6.1-11,13.4-11.5,15.6c-0.3,0-0.5,0-0.9,0
				c0.3-2.4,0.9-8.6-2.1-14c0,0,0,0,0-0.2c0,0,0.9-3.7,5.7-7.3c3.6-2.9,6.5-4.1,7.5-4.5c1.2,0.7,2.1,1,2.7,1.2h0.3h0.3
				c0.3-0.2,2.1-0.7,4.1-1.5c1.2,0.7,3.7,2.2,5.7,4.6C284.1,257.4,279,259.6,273.8,263.2z M269.4,250.5c0.5,0.3,1,0.7,1.5,0.9
				c-1.5,0.7-3.9,1.9-6.9,4.1c-3.4,2.7-4.9,5.5-5.7,7c-1.7-2.4-3.7-3.6-5.7-4.1C260.1,254.8,267.2,251.5,269.4,250.5z M339.6,284.9
				c-14.4-2.9-28.8-1.7-33.3-1.2l-2.4,0.3c-0.5,0-0.9,0.2-1.4,0.3c-0.5,0.3-1.5,0.5-1.9,1c-0.7,0.5-2.1,2.4-2.1,2.4s0.7-0.3,1.7-0.5
				c1.5-0.3,2.9-0.5,3.1-0.5c1.5-0.2,4.3-0.3,7.9-0.5c-3.3,2.2-7.7,6.9-9.4,15.1c-1,4.9,0.9,10.3,2.1,12.7
				c-6.5,0.7-11.8,1.5-12.4,1.7c-0.2,0-0.3,0-0.3,0.2c0.2-0.7,0.3-1.5,0.5-2.7c0.9-4.5-4.1-10.6-4.3-11l-0.2-0.2
				c-3.6-2.9-6.7-4.1-9.1-4.3c1.7-2.2,7-8.6,16.1-13.2c10.4-5.5,18.3-8.9,19.5-9.2c2.2,1.2,4.8,1.9,7.5,1.9c1.5,0,3.1-0.2,4.8-0.5
				c3.7-1,7.2-3.1,9.2-6c1.2-1.5,2.1-3.3,2.4-5.1l0,0c0,0,1-0.7,2.5-0.9C344.3,277.2,340.4,283.6,339.6,284.9z M339.2,260.9
				c0.2,0.5,0.3,1,0.5,1.5c-0.7,0.2-1.4,0.3-1.9,0.5c0-0.7-0.2-1.5-0.3-2.2c-0.7-2.4-2.2-4.5-4.5-6c0.7-0.2,1.5-0.3,2.4-0.5
				C337.2,256.5,338.4,258.5,339.2,260.9z M334.6,252.9c-1.5,0.3-2.9,0.7-3.4,0.9c-3.1-1.4-7-1.7-11-0.5c-4.1,1-7.3,3.4-9.4,6.3
				c-1.4,0.3-8.8,2.5-18.2,7.3c-0.3-1.7-1.2-5.3-4.9-10.6c-1.7-2.4-4.1-4.1-5.7-5.1c1.5-0.9,2.9-2.1,3.7-3.4c1.5,0.2,11,1,19.2,1
				c4.6,0,9.1-0.3,11.5-1.2c3.3-1.2,5.8-2.7,7.7-4.5C326.2,244.5,330.8,248.1,334.6,252.9z M364,202.3c3.9-2.4,6.9-4.6,8.6-6
				l2.1,17.3c0.3,3.1,2.9,5.5,6.1,5.5c0.2,0,0.5,0,0.7,0l9.1-1c-0.3,1.2-1.4,2.7-3.6,3.6c-0.9,0.3-1.9,0.9-3.1,1.5
				c-1.9,0.9-4.1,1.9-6.9,3.1c-1.5-0.2-8.9-1.5-12.2-9.6C361.6,208.5,362.8,204.3,364,202.3z M354.3,207.3c2.5-1,4.9-2.2,7.2-3.4
				c-0.9,2.7-0.7,7,1.7,13.4c2.5,6.5,7.7,9.1,11,10.1c-4.9,2.1-11.5,4.1-19.5,5.8c-10.6,2.2-18.5,2.5-23.3,2.7c-1.2,0-2.4,0-3.1,0.2
				c0-0.3,0-0.5,0-0.7c0-2.7-2.1-8.6-4.8-13.9c0.3-0.7,1.2-2.2,3.4-5.7c0.5,0,1-0.2,1.2-0.2C328.2,215.8,342.3,212.2,354.3,207.3z
				 M328.6,205.4c1.7,0.9,2.1,1.4,2.2,1.7c0.2,0.5-0.7,1.5-1.5,2.7s-2.1,2.5-2.9,4.3v0.2c-1.7,2.5-2.9,4.3-3.6,5.5
				c-0.9-1.5-1.7-2.9-2.7-4.1c-4.5-5.8-11.3-10.4-14.6-10.8c-1,0-1.9,0.3-2.9,1.2l-1.4-2.9C306.1,202.5,320.5,201.5,328.6,205.4z
				 M338.4,179.5c1.5,2.1,1.7,3.1,1.7,3.6c-0.3,0-0.9,0-1.2,0c-1.2,0-2.4,0-3.4-0.2c-0.5,0-1-0.3-1.5-0.3c-0.5-0.2-0.9-0.3-1.4-0.5
				c-1.7-0.7-3.3-1.5-4.5-2.4c-1.2-0.7-2.1-1.4-2.5-1.9c-0.5-0.5-0.9-0.7-0.9-0.7s-0.3-0.3-0.9-0.7c-0.5-0.3-1.4-1.2-2.2-2.2
				c-0.3-0.3-0.5-0.5-0.7-0.9c-0.2-0.2-0.2-0.3-0.3-0.5c0,0,0-0.2-0.2-0.2c2.1,0.2,4.1,0.3,5.8,0.3c1,0,2.1,0,2.9,0
				C330.8,173.7,336.1,176.6,338.4,179.5z M336.1,170.1c-2.2,0.3-4.3,0.7-6.5,0.9c-0.3,0-0.5,0-0.9,0c-2.1,0.2-4.1,0-6.5,0
				c1.4-0.9,3.1-1.5,4.9-2.4c2.4-0.9,4.9-1.7,7.7-2.4c1.4-0.3,2.9-0.5,4.5-1c1.5-0.3,3.1-0.9,4.8-1.2c1.5-0.5,3.3-1,4.8-1.5l0,0
				l0.7,1.4C348.3,165.1,344,168.7,336.1,170.1z M310.5,114.5c0.3,0,0.7,0.2,0.9,0.3l15.8,18.3c0.3,0.3,0.3,0.9,0.3,1.2
				c0,0.5-0.3,0.9-0.7,1c-2.1,1.2-4.1,2.4-7,4.8c-0.2,0-0.3,0-0.3,0c-0.9,0-1.5-0.2-2.4-0.3c-0.3,0-0.9-0.2-1.2-0.2l-0.5-0.2
				c-0.2,0-0.3,0-0.3,0c-2.4-0.5-4.3-1.2-5.1-1.5c-2.9-1-4.8-1.5-7-1.9c-0.2-2.2-0.5-4.1-1.4-4.9c-1.4-1.5-3.1-2.4-4.5-2.7
				c2.4-1.5,5.7-4.1,6-7.3c0-0.7,0.2-1.5,0.3-2.5C306.1,116.1,308.8,114.7,310.5,114.5z M274,168.4l3.4-0.5l5.3,4.6
				c-1.2,1-2.2,2.1-3.3,2.9l-19.7-17.6c0.9-0.9,1.9-1.9,3.1-2.9l3.7,3.6v3.1L274,168.4z M278,166l-3.4,0.5l-6-5.8v-3.1l-4.5-3.9
				c2.5-2.4,5.7-5.3,8.9-8.4c12,1,26.9,4.9,27.1,5.1l0.9,0.3l0.2-0.9c0.3-1.7,1.2-7.5,1.2-12.4c1.7,1.4,3.6,2.4,6.3,3.3
				c1,0.3,2.9,1,5.3,1.5c0,0,0.2,0,0.3,0l0.5,0.2c0.3,0,0.9,0.2,1.2,0.2h0.2c-6.9,5.5-22.2,19.2-32.7,28.6L278,166z M294,129.8
				c0,0,3.6,0.2,5.8,2.5c1.5,1.7,0.9,10.3,0,15.8c-3.4-0.9-14.8-3.7-24.9-4.8c9.1-8.6,19.5-18.2,26.1-23.3c0,0.3,0,0.5,0,0.9
				c-0.3,3.9-7.2,7-7.2,7l-3.6,1.5L294,129.8z M279.5,114.1l0.2,0.2c11.8-23,31.4-59,36.4-64.1c-0.9,6.5-14.6,38.3-23.8,58.7
				c-3.4,1.5-6.5,3.3-7.9,5.1c-1.4,1.9-3.7,3.1-5.5,3.6C279.4,116.5,279.5,115.3,279.5,114.1z M247.3,127.6c1.5-0.9,3.3-1.7,4.9-2.7
				c6.3-3.4,13-7,14.4-11.5c1-3.7-1-7.3-2.7-9.4c2.5,0.5,6.9,1.9,10.8,4.1c5.7,3.3,2.2,10.4,2.1,10.8l-0.9,1.7l1.9-0.5
				c0.2,0,5.7-1.5,8.2-4.9c1.2-1.5,4.1-3.3,7.3-4.8l0.2,0.2c0,0,0-0.2,0.2-0.3c3.6-1.5,7.7-2.9,10.3-3.7c-0.7,2.4-1.9,7.2-2.5,11.2
				c-0.2,0.2-0.3,0.2-0.3,0.3c-6.5,5.1-18.5,16.1-28.5,25.4c-2.5-0.2-5.1-0.3-7.3,0c-9.4,0.9-14.4,4.3-16.1,5.8
				c-3.3-1.4-8.6-3.3-13-3.4C237.7,141.6,242,130.6,247.3,127.6z M215.9,154.8c-0.9-1.4-1-2.4-1-2.4c0.9-1.2,7.7-2.4,19.8-3.7
				c6.1-0.7,15.9,4.5,16.1,4.5h0.2l0,0c0.3,0.2,0.9,0.5,1.2,0.7c0.3,0.2,1.5,0.9,2.2,1.2c0.2,0,0.3,0,0.3-0.3
				c-0.2-0.5-0.5-1.5-0.9-2.1c-0.3-0.9-1.5-1.9-1.9-1.9l0,0c0,0-0.5-0.3-1.2-0.5c2.1-1.5,6.5-4.3,14.4-4.9c1.5-0.2,3.4-0.2,5.5,0
				c-5.5,5.1-10.1,9.6-12.8,12.4l-0.7,0.7l22.2,20l0.5-0.5c9.8-9.2,30.5-27.7,38.3-33.7c0.3-0.3,0.5-0.5,0.9-0.7
				c1.7,0,3.3,0,4.9-0.2c3.6-0.3,7-0.9,10.6-1.5c0.9-0.2,1.7-0.3,2.5-0.3s1.7-0.2,2.4,0c1.5,0.2,2.9,1,4.3,2.1
				c0.7,0.5,1.4,1.2,2.1,1.7l1,0.9c0.3,0.3,0.5,0.5,0.9,0.9c1.2,1.2,2.1,2.5,2.9,4.1c0.9,1.5,1.5,3.1,2.1,4.6
				c0.2,0.7,0.3,1.5,0.3,2.1c0,0-0.2,0.3-0.3,0.5s-0.5,0.5-0.9,0.7c-1.4,0.9-2.9,1.5-4.5,2.1c-1.5,0.5-3.1,1-4.6,1.5
				c-1.5,0.5-3.1,0.9-4.6,1.2c-1.5,0.3-2.9,0.5-4.5,1c-2.9,0.7-5.7,1.5-8.1,2.5s-4.6,1.9-6.5,3.3c-0.5,0.3-0.9,0.7-1.4,1.2
				c-0.2,0.2-0.5,0.7-0.5,1.2c-0.2,0.5,0,0.9,0.2,1.4c0,0.2,0.2,0.3,0.2,0.5c0,0.2,0.2,0.3,0.2,0.3c0.2,0.2,0.3,0.3,0.3,0.5
				c0.3,0.3,0.5,0.7,0.9,1c1,1.2,1.9,2.1,2.4,2.5c0.5,0.5,0.9,0.9,0.9,0.9s0.3,0.3,0.9,0.9c0.7,0.5,1.5,1.2,2.9,2.1
				c1.2,0.9,2.9,1.7,4.8,2.5c0.5,0.2,1,0.3,1.5,0.5c0.5,0.2,1.2,0.3,1.7,0.3c1.2,0.3,2.5,0.3,3.7,0.2c1.2-0.2,2.7-0.2,4.1-0.3
				c1.4-0.1,2.7-0.5,4.1-0.5c0.7,0,1.4,0,1.5,0.2c0.3,0.2,0.5,0.5,0.7,1.2c0.3,1.2,0.2,2.5-0.3,3.9c-0.2,0.7-0.5,1.4-0.9,1.5
				L347,193l-0.5,0.3c-0.3,0.2-0.7,0.3-1,0.5c-1.5,0.7-3.1,1.2-4.6,1.7c-3.3,1-6.7,1.7-10.1,2.1c-3.6,0.3-7,0.3-10.4-0.5
				s-6.9-2.1-10.6-2.7c-1.9-0.3-3.7-0.5-5.8,0c-0.2,0-0.3,0.2-0.5,0.2l-0.3,0.2l-0.2,0.2c-0.2,0.2-0.5,0.3-0.7,0.3
				c-0.3,0.3-0.9,0.5-1.2,0.9c-0.7,0.5-1.4,1.2-2.1,1.7c-2.5,2.2-4.9,4.5-7.5,6.1c-1.2,0.9-2.5,1.7-3.7,2.2
				c-0.3,0.2-0.7,0.3-0.9,0.3c-0.3,0.2-0.7,0.2-0.9,0.3c-0.3,0-0.7,0.2-1,0.2s-0.5,0-0.9,0c-0.5,0-1,0-1.4,0c-0.5,0-0.9,0-1.2,0
				s-0.7,0-0.9-0.2c-3.4-0.5-5.5-1.2-8.8-1.5c2.5,1.7,4.5,3.3,8.4,3.7c0.3,0,0.5,0,1,0.2c0.3,0,0.9,0,1.4,0s1,0,1.7,0
				c0.3,0,0.5,0,0.9,0c0.3,0,0.9-0.2,1.2-0.2c0.3,0,0.9-0.2,1.2-0.3c0.3-0.2,0.9-0.3,1.2-0.5c1.5-0.7,2.9-1.5,4.3-2.4
				c1.5-1,2.9-2.2,4.5-3.4l0.9,1.9v0.2l0,0l1.9,3.7c-0.3,0.3-0.7,0.5-1,0.9c-2.4,2.1-5.5,4.9-10.1,6.9c-7.2,2.7-14.2,2.2-15.9,2.1
				c-1.5-1.7-3.4-3.3-5.3-4.6c-5.3-3.6-12.2-4.8-19-3.3c-1.2,0.3-2.2,0.5-3.4,0.9c0.5-2.5,1.7-8.6,1.7-14.2c0-4.3-2.5-7.7-4.8-10
				c1.2,0.3,2.5,0.7,3.6,1c2.9,0.9,7.3,4.8,7.3,4.9l1.5,1.4V192c0-0.5-0.5-12.5-5.3-19.5c-2.4-3.7-5.3-6.3-7.3-7.9
				c2.4,0,3.7-0.2,4.1-0.2c0.3,0,0.3,0,0.5-0.2c0.5-0.2,1.5-0.3,2.1-0.7c1-0.5,1.9-1.7,1.9-1.9c0-0.3-1.2,0-1.5,0
				c-0.9,0-2.9,0.2-2.9,0.2c-0.2,0-13.6,0.5-21,0C221.1,160.3,217.6,157.4,215.9,154.8z M196.5,216.7c-8.6-2.7-12.7-7.2-14.4-9.4
				l8.2,0.5c1.5,0.2,3.1,0,4.6-0.5l9.2-2.4l-2.1-1c0,0-8.8-4.6-14.9-10.3c-4.1-3.7-6.5-6.9-7.5-8.6c3.7,0.3,12.5,0.7,18.3-0.2
				c7.7-1,9.8-5.5,10-5.7l0.3-0.7l-5.5-3.7c2.9-0.7,8.6-2.1,11.5-4.5c3.7-2.9,7.3-7,7.9-7.7c1.2,0.3,2.2,0.5,3.4,0.7
				c2.5,0.2,5.8,0.2,9.1,0.2c1.9,0,3.7,0,5.3,0c1.9,1.2,5.7,4.1,8.8,8.9c3.3,4.9,4.5,12.8,4.8,16.6c-1.7-1.4-4.3-3.3-6.3-3.9
				c-3.1-1-7.5-2.1-7.7-2.1l-5.3-1.2l4.6,2.7c0,0,7.2,4.5,7.2,11c0,6.5-1.7,14-1.9,14.9c-1.7,0.7-3.3,1.5-4.8,2.5
				c-4.6,1.4-13.2,2.7-18.8-4.1c-4.1-5.1-5.5-10.8-5.8-13.9c2.4,2.1,7,5.7,9.8,6.5c4.5,1.4,7.5,1.2,8.9,0.9c0.2,0,1.2-0.5,1.2-0.5
				l1.5-1.2c0,0-6.5,0.7-11.2-0.7c-3.4-1-10.8-7.5-10.8-7.5l-1.5-1.4v2.1c0,0.3,0,9.4,6.5,17.1c3.3,3.9,7.3,5.5,11.3,5.8
				c-3.1,1-6.9,2.4-10.4,4.1C218.1,220.1,206.6,220,196.5,216.7z M210.9,231.5c0.9-2.5,3.4-4.9,7.7-7.5c-1.2,1.5-2.1,3.6-2.5,5.3
				c-0.7,3.7,0.2,10.6,0.5,13.6c-1.5,0.9-3.1,1.7-4.6,2.7C211.1,242,209.7,235.1,210.9,231.5z M198.7,259.6c2.4-2.2,4.9-4.6,7.7-6.9
				c10.1-8.2,26.9-15.2,28.6-15.9c1.2,0,8.9-0.3,17.5,3.4c4.9,2.2,10,5.7,14.2,8.6c-6.7,3.1-26.7,12.5-33.7,17.6
				c-2.9,2.1-6.7,5.5-10.4,9.2c-2.2,0.7-9.1,2.1-17.8-4.9C197.4,264.7,198.7,259.9,198.7,259.6L198.7,259.6z M206.5,290.6
				c-2.7,0.7-12.7-0.2-15.9-2.2c-3.6-2.2-7.5-7.2-7.5-9.4c0-1.5,5.5-9.2,13.9-17.6c0.2,2.4,1.4,6.1,6.5,10.4c6,4.8,11.3,6,15.1,6
				c0.5,0,1.2,0,1.7,0c-1,1-2.1,2.1-3.1,3.1C213,284.9,207.8,290.3,206.5,290.6z M231.3,416.8c6,11.8,17.5,13.4,23.7,14.2
				c0.9,0.2,1.9,0.3,2.5,0.3c-3.9,3.6-17.1,2.2-21.8,1.4l-8.4-1.5l7.5,3.9c3.9,2.1,10,6.5,9.8,9.6c-0.2,2.1-3.3,3.3-5.8,4.1
				c-15.9,4.9-31.9-19-32.1-19.4l-2.3-3.7l-0.2,4.1c0,1.5-0.5,4.8-2.1,5.7c-0.2,0.2-0.9,0.5-2.1,0c-3.6-1.5-4.1-11.8-3.7-18l0.5-7
				l-2.9,6.3c-0.2,0.2-11,23-22.1,20.9c-3.6-0.7-5.8-1.7-6.5-3.4c-0.7-2.1,1-4.3,1-4.5l4.5-5.7l-6.1,3.7c-5.5,3.3-12.4,6-14.2,4.9
				c-0.2-0.2-0.3-0.3-0.3-0.5c-0.3-1.7,2.1-5.3,3.7-7.3l1.5-1.7l-2.2-0.3c-7.7-1.4-28.6-6.1-32.2-12.4c-0.5-0.9-0.5-1.5-0.3-2.4
				c3.1-9.1,18.5-13,18.5-13l10.1-2.5h-10.6c-0.2,0-16.3-0.3-33.4-24.2c-5.1-7.2-6.7-13.2-4.8-17.6c2.4-5.7,10.1-7.9,13.2-8.6
				c0.7,2.9,2.9,10,9.6,14c7,4.1,16.6,3.9,28.6-0.7c17.5-6.9,34.3-19.7,39.5-23.8c2.9,6.7,8.1,15.1,17,23.3
				c10.1,9.4,20.9,15.2,29.5,17.6C234.1,380.1,223.5,401.6,231.3,416.8z M257.6,365.4c-1.5,3.1-5.7,5.7-10.1,6.1
				c-7.7,1.2-23.7-5.3-37.2-18c-16.3-15.4-19.5-30.1-19.4-34.3c0.2-4.3,4.6-9.8,8.9-9.8h0.2c4.6,0.2,6.9,4.5,10.4,11.2
				c3.6,6.7,8.1,15.1,17,22.6c10,8.4,17.3,11.2,22.8,13.2c4.1,1.5,6.5,2.4,7.7,4.8C258.6,362.8,258.1,364.4,257.6,365.4z
				 M255.9,355.9c-1.4-0.7-2.9-1.2-4.8-1.9c-5.3-1.9-12.4-4.6-21.9-12.7c-8.6-7.2-12.8-15.4-16.3-21.8c-1.5-2.9-2.9-5.5-4.5-7.5
				l4.6-5.1c2.7,9.2,12.8,21.2,18.5,26.9c10.8,10.8,22.8,15.1,30.3,16.6L255.9,355.9z M287.7,342.4c-6.7,2.9-14.9,6.5-18.3,6.5
				c-3.3-0.2-20.7-1.7-36-17c-9.2-9.1-18.5-22.2-18.5-29.5c0-4.9,3.4-18.5,3.4-18.8c0.2-0.2,0.5-0.5,0.7-0.7c0.3-0.3,0.7-0.7,1-1
				c2.7,7.9,14.9,39.5,38,50.8c10.4,5.1,22.1,7.9,33.6,8.2C290.5,341.2,289.3,341.7,287.7,342.4z M326.4,330.1
				c-19.5,10.4-46,10.4-67.2,0c-23.3-11.5-35.5-46.3-36.9-50.4c1.9-1.9,3.7-3.6,5.5-5.3c2.9,8.1,15.1,38.6,32.1,48.7
				c11.3,6.9,23,9.1,33.6,9.1c18.5,0,33.9-7.3,39.2-11.8c1,0.9,2.1,1.5,3.1,2.5C334.6,324.3,332.2,327,326.4,330.1z M342.3,325.6
				c-2.4-2.4-4.8-4.9-7.5-7c-0.3-2.4-0.7-10.4,8.6-18.7c5.3-4.8,11.6-4.3,13.2-4.1c2.1,1.7,4.3,3.7,6.1,5.8l0,0
				c0.2,0.2,0.3,0.3,0.5,0.3l0.2,0.2c-3.1,0-7.7,0.9-12,4.6C343.1,314.4,342.1,321.9,342.3,325.6z M377.7,321.9
				c-0.2,2.1-5.1,6-11.2,8.4c-0.7,0.3-1.5,0.5-2.4,0.9c-4.6,1.9-9.8,4.1-13.2,3.1c-1.5-0.5-4.1-3.3-6.9-6.1l0,0c0,0,0,0,0-0.2
				c-0.2-0.3-2.4-9.8,8.4-19.4c4.8-4.3,10.1-4.3,12.5-4.1C372.3,311.9,377.7,320.1,377.7,321.9z M398,308.8l-0.7,0.5
				c-5.5,3.9-12.4,5.8-14,4.9c-1.2-0.5-7-5.3-12.7-10c-0.3-5.5,4.5-10.1,8.8-13.2c4.8-3.4,9.1-4.1,11.2-4.3
				c8.1,6.9,13.7,13.6,14,15.1C404.5,304.2,403,305.4,398,308.8z"/>
			<ellipse transform="matrix(0.866 -0.5 0.5 0.866 -40.5076 164.6232)" class="st12" cx="286.9" cy="157.9" rx="3.3" ry="4.9"/>
			<ellipse class="st12" cx="337" cy="148.1" rx="2.1" ry="1"/>
			<path class="st12" d="M268.4,408.1c-6.7,0-12,3.3-12,7.5c0,4.3,5.3,7.5,12,7.5c6.7,0,12-3.3,12-7.5
				C280.4,411.5,275,408.1,268.4,408.1z M268.4,420.6c-5.5,0-9.4-2.5-9.4-4.8c0-2.4,3.7-4.8,9.4-4.8s9.4,2.5,9.4,4.8
				C277.6,418,273.8,420.6,268.4,420.6z"/>
			<path class="st12" d="M292.3,400c-3.7,0-6.9,3.1-6.9,6.9c0,3.8,3.1,6.9,6.9,6.9c3.7,0,6.9-3.1,6.9-6.9
				C299.4,403.1,296.3,400,292.3,400z M292.3,411.3c-2.4,0-4.3-1.9-4.3-4.3c0-2.4,1.9-4.3,4.3-4.3c2.4,0,4.3,1.9,4.3,4.3
				C296.6,409.5,294.8,411.3,292.3,411.3z"/>
			<path class="st12" d="M129.3,341.9c0,5.5,3.4,10.1,7.5,10.1c4.1,0,7.5-4.5,7.5-10.1c0-5.6-3.4-10.1-7.5-10.1
				C132.7,331.7,129.3,336.2,129.3,341.9z M141.7,341.9c0,3.9-2.2,7.3-4.8,7.3c-2.5,0-4.8-3.4-4.8-7.3c0-3.9,2.2-7.3,4.8-7.3
				C139.4,334.5,141.7,337.8,141.7,341.9z"/>
			<path class="st12" d="M130.9,317.4c4.1,0,7.2-1.7,7.2-4.1c0-2.4-3.1-4.1-7.2-4.1s-7.2,1.8-7.2,4.1
				C123.6,315.6,126.6,317.4,130.9,317.4z M130.9,311.7c2.9,0,4.5,1,4.6,1.4c0,0.3-1.5,1.4-4.6,1.4c-3.1,0-4.5-1-4.6-1.4
				C126.4,312.9,127.9,311.7,130.9,311.7z"/>
			<path class="st12" d="M201.3,321.7c-1.9,0-3.3,1.5-3.3,3.3s1.5,3.3,3.3,3.3s3.3-1.5,3.3-3.3S203,321.7,201.3,321.7z M201.3,326.5
				c-0.9,0-1.5-0.7-1.5-1.5c0-0.9,0.7-1.5,1.5-1.5s1.5,0.7,1.5,1.5C202.9,325.8,202.2,326.5,201.3,326.5z"/>
			<path class="st12" d="M210.9,337.8c-0.9,0.2-1.5,0.9-2.1,1.5c-0.5,0.9-0.5,1.7-0.3,2.5c0.2,0.9,0.9,1.5,1.5,2.1
				c0.5,0.3,1,0.5,1.7,0.5c0.3,0,0.5,0,0.9-0.2c1.7-0.5,2.9-2.4,2.4-4.1C214.5,338.3,212.8,337.2,210.9,337.8z M212.3,342.6
				c-0.3,0.2-0.9,0-1.2-0.2c-0.3-0.2-0.5-0.5-0.7-0.9c-0.2-0.3,0-0.9,0.2-1.2c0.2-0.3,0.5-0.5,0.9-0.7c0.2,0,0.3,0,0.3,0
				c0.7,0,1.4,0.5,1.5,1.2C213.5,341.6,213,342.2,212.3,342.6z"/>
			<path class="st12" d="M225,351.1c-1.7,0.5-2.9,2.4-2.4,4.1c0.3,1.5,1.7,2.4,3.3,2.4c0.3,0,0.5,0,0.9-0.2c1.7-0.5,2.9-2.4,2.4-4.1
				C228.6,351.7,226.7,350.6,225,351.1z M226.2,355.7c-0.9,0.2-1.7-0.3-1.9-1.2c-0.2-0.3,0-0.9,0.2-1.2c0.2-0.3,0.5-0.5,0.9-0.7
				c0.9-0.2,1.7,0.3,1.9,1.2C227.6,354.7,227,355.6,226.2,355.7z"/>
			<path class="st12" d="M244,360.1c-1.7,0.5-2.9,2.4-2.4,4.1c0.3,1.5,1.7,2.4,3.3,2.4c0.3,0,0.5,0,0.9-0.2c0.9-0.2,1.5-0.9,2.1-1.5
				c0.5-0.9,0.5-1.7,0.3-2.5C247.6,360.5,245.8,359.5,244,360.1z M246.3,364c-0.2,0.3-0.5,0.5-0.9,0.7c-0.9,0.2-1.7-0.3-1.9-1.2
				c-0.2-0.9,0.3-1.7,1.2-1.9c0.9-0.2,1.7,0.3,1.9,1.2C246.4,363.4,246.4,363.7,246.3,364z"/>
			<path class="st12" d="M151.4,314c0.2,0.5,0.3,1,0.3,1.5l0.2,0.7c0,0.3,0,0.5,0,0.7c0,0.9-0.2,1.9-0.7,2.9
				c-0.5,0.9-1.2,1.7-1.9,2.4c0.9-0.5,1.7-1.4,2.2-2.2c0.5-0.9,1-1.9,1-3.1c0-0.3,0-0.5,0-0.9v-0.9c0-0.5-0.2-1-0.2-1.5
				c0-0.2,0-0.3,0-0.3c0.2,0.2,0.3,0.3,0.5,0.5c0.9,0.9,1.9,1.5,2.9,2.1c1.2,0.5,2.4,0.9,3.6,1.2c0.7,0.2,1.5,0.2,2.1,0.2
				c-0.2,0.5-0.3,0.9-0.5,1.4c-0.3,0.9-0.5,1.9-0.5,3.1c0,0.9,0.3,1.7,0.5,2.5c-0.2-0.2-0.3-0.2-0.3-0.3c-1-0.9-2.2-1.5-3.4-2.1
				c-0.5-0.3-1.2-0.5-1.9-0.7c-0.7-0.2-1.4-0.2-2.1,0c-1.4,0.2-2.5,0.3-3.7,0.7c1.2-0.2,2.5-0.2,3.7-0.2c0.5,0,1.2,0,1.7,0.3
				c0.5,0.3,1.2,0.5,1.7,0.7c1.2,0.5,2.1,1.2,3.1,2.1c0.9,0.9,1.9,1.7,2.5,2.5l3.3,4.5l-2.1-5.1c-0.3-0.9-0.7-1.7-0.9-2.5
				c-0.3-0.9-0.5-1.7-0.5-2.5c0-0.7,0.3-1.5,0.5-2.4c0.3-0.9,0.7-1.7,1.2-2.4l0.9-1.5l-1.7,0.2c-1,0-2.2,0-3.3-0.2s-2.1-0.5-3.1-0.9
				c-0.9-0.5-1.9-1-2.5-1.7c-0.9-0.7-1.5-1.5-2.2-2.4l-2.9-3.7l1.7,4.5C150.9,311.9,151.2,312.9,151.4,314z"/>
			<path class="st12" d="M289.3,376.4c0.2,0.3,0.3,0.5,0.5,0.9c0.3,0.5,0.7,1.4,0.9,2.1c0.2,0.7,0.3,1.5,0.5,2.1l0.5,5.3l0.9-5.3
				c0-0.5,0.2-1,0.3-1.5c0.2-0.5,0.3-1,0.5-1.4c0.2-0.3,0.5-0.7,1-1c0.3-0.3,0.9-0.7,1.4-0.9l1.5-0.9l-1.5-0.7c-0.5-0.3-1-0.5-1.5-1
				c-0.5-0.3-0.9-0.9-1.2-1.4c-0.3-0.5-0.5-1-0.9-1.7c-0.2-0.5-0.3-1.2-0.5-1.9l-0.7-4.8l-0.5,4.8c0,0.5-0.2,1.2-0.3,1.7l-0.3,0.9
				l-0.2,0.5c0,0.2,0,0.3-0.2,0.3c-0.5,1-1.5,1.7-2.9,2.1c0.7,0,1.2-0.2,1.9-0.3c0.5-0.3,1.2-0.7,1.5-1.2c0.2-0.2,0.2-0.3,0.3-0.5
				l0.2-0.3l0.2-0.3c0.2,0.7,0.5,1.2,0.9,1.9c0.3,0.7,0.9,1.2,1.5,1.7c0.2,0.2,0.5,0.3,0.7,0.5c-0.2,0-0.3,0.2-0.3,0.3
				c-0.5,0.3-0.9,0.9-1.4,1.5c-0.2,0.3-0.3,0.5-0.3,0.9c-0.3-0.5-0.5-1.2-1-1.7c-0.3-0.3-0.5-0.5-0.9-0.9s-0.7-0.5-1-0.7
				c-0.7-0.3-1.5-0.5-2.2-0.7c0.7,0.3,1.4,0.9,2.1,1.2C288.8,376,289.1,376.2,289.3,376.4z"/>
			<path class="st12" d="M257.1,399.5l-2.1,5.1l3.4-4.5c0.5-0.7,1.2-1.5,1.7-2.1c0.5-0.5,1.2-1.2,2.1-1.7c0.7-0.3,1.5-0.5,2.4-0.7
				c0.9-0.2,1.7-0.2,2.5-0.3h1.7L268,394c-0.5-0.9-1-1.9-1.5-2.9c-0.3-1-0.5-2.1-0.7-3.1c0-1,0-2.1,0.2-3.3c0.2-1,0.5-2.2,0.9-3.1
				l1.7-4.5l-2.9,3.7c-0.5,0.7-1.4,1.5-2.1,2.2c-0.3,0.3-0.7,0.7-1.2,1l-0.5,0.5c-0.2,0.2-0.3,0.3-0.5,0.5c-0.9,0.5-1.7,0.9-2.7,0.9
				s-2.1-0.2-3.1-0.3c0.9,0.5,1.9,0.9,3.1,0.9c1,0,2.2,0,3.3-0.5c0.3-0.2,0.5-0.3,0.7-0.5l0.7-0.5c0.3-0.3,0.9-0.5,1.2-0.9
				c0,0,0.2-0.2,0.3-0.2c0,0.3-0.2,0.5-0.2,0.7c-0.3,1.2-0.3,2.4-0.3,3.6c0,1.2,0.3,2.4,0.7,3.6c0.3,0.7,0.5,1.4,0.9,2.1
				c-0.5,0-1,0.2-1.5,0.2c-1,0.2-2.1,0.3-2.9,1c-0.9,0.5-1.4,1.2-1.9,1.7c0-0.2,0-0.3,0-0.5c0.2-1.4,0.2-2.5,0-3.9
				c0-0.7-0.2-1.2-0.3-2.1c-0.3-0.7-0.5-1.2-0.9-1.7c-0.7-1-1.5-2.1-2.5-2.9c0.7,1,1.5,2.1,2.1,3.3c0.3,0.5,0.5,1.2,0.7,1.7
				c0.2,0.5,0.2,1.2,0.2,1.7c0,1.2,0,2.4-0.3,3.7C257.7,397.1,257.4,398.3,257.1,399.5z"/>
			<path class="st12" d="M339.9,311.6c-1.5,0-2.5,1.2-2.5,2.5s1.2,2.5,2.5,2.5c1.3,0,2.5-1.2,2.5-2.5S341.3,311.6,339.9,311.6z
				 M339.9,315c-0.5,0-0.9-0.3-0.9-0.9c0-0.5,0.3-0.9,0.9-0.9c0.5,0,0.9,0.3,0.9,0.9C340.8,314.6,340.4,315,339.9,315z"/>
			<path class="st12" d="M345.4,303c-0.7,0-1.4,0.2-1.9,0.5c-0.5,0.5-0.9,1-0.9,1.7c0,0.7,0.2,1.4,0.5,1.9c0.5,0.5,1,0.9,1.7,0.9
				c0,0,0.2,0,0.3,0c0.5,0,1.2-0.2,1.7-0.5c0.5-0.5,0.9-1,0.9-1.7c0-0.7-0.2-1.4-0.5-1.9C346.6,303.4,346.1,303,345.4,303z
				 M345.5,306.2c-0.2,0.2-0.3,0.2-0.5,0.2c-0.2,0-0.3-0.2-0.5-0.3c-0.2-0.2-0.2-0.3-0.2-0.5s0.2-0.3,0.3-0.5
				c0.2-0.2,0.3-0.2,0.5-0.2l0,0c0.2,0,0.3,0.2,0.5,0.3s0.2,0.3,0.2,0.5S345.7,306.1,345.5,306.2z"/>
			<path class="st12" d="M353.7,302.8c0,0,0.2,0,0.3,0c0.5,0,1.2-0.2,1.7-0.5c0.5-0.5,0.9-1,0.9-1.7c0-0.7-0.2-1.4-0.5-1.9
				c-0.3-0.5-1-0.9-1.7-0.9c-0.7,0-1.4,0.2-1.9,0.5c-0.5,0.3-0.9,1-0.9,1.7c0,0.7,0.2,1.4,0.5,1.9
				C352.4,302.5,353.1,302.8,353.7,302.8z M353.4,299.5c0.2-0.2,0.3-0.2,0.5-0.2l0,0c0.2,0,0.3,0.2,0.5,0.3c0.2,0.2,0.2,0.3,0.2,0.5
				s-0.2,0.3-0.3,0.5c-0.2,0.2-0.3,0.2-0.5,0.2s-0.3-0.2-0.5-0.3c-0.2-0.2-0.2-0.3-0.2-0.5S353.3,299.7,353.4,299.5z"/>
			<path class="st12" d="M367.3,292.9c-1.5,0-2.5,1.2-2.5,2.5c0,1.4,1.2,2.5,2.5,2.5s2.5-1.2,2.5-2.5
				C369.9,294.1,368.6,292.9,367.3,292.9z M367.3,296.1c-0.5,0-0.9-0.3-0.9-0.9c0-0.5,0.3-0.9,0.9-0.9c0.5,0,0.9,0.3,0.9,0.9
				C368.2,295.8,367.8,296.1,367.3,296.1z"/>
			<path class="st12" d="M373.5,290.3c0.5,0,1.2-0.2,1.7-0.5c1.2-0.9,1.2-2.5,0.3-3.6c-0.9-1.2-2.5-1.2-3.6-0.3l0,0
				c-0.5,0.5-0.9,1-0.9,1.7c0,0.7,0.2,1.4,0.5,1.9C372,289.9,372.7,290.3,373.5,290.3z M372.9,287c0.3-0.3,0.9-0.3,1.2,0.2
				c0.3,0.3,0.3,0.9-0.2,1.2c-0.3,0.3-0.9,0.3-1.2-0.2c-0.2-0.2-0.2-0.3-0.2-0.5C372.5,287.5,372.9,287.2,372.9,287z"/>
		</g>
		<path class="st10" d="M323.6,260.1c4.8,0,9.1,2.5,11.2,6.3c0.2-0.5,0.2-1.2,0.2-1.7c0-4.9-5.1-9.1-11.3-9.1
			c-6.3,0-11.3,4.1-11.3,9.1c0,0.7,0,1.2,0.3,1.9C314.4,262.9,318.7,260.1,323.6,260.1z"/>
	</g>
	<g>
		<g>
			<path class="st13" d="M380.4,174.5l0.1,0.1l-23.2,10.8c-0.2-0.6-1.5-4.2-1.4-4.5l0,0c0.1-0.3,0.3-0.4,0.3-0.4l21.3-10
				c0,0,0.1-0.1,0.5,0c0,0,0,0,0.1,0C378.3,170.7,380.1,173.9,380.4,174.5z"/>
			<path class="st14" d="M380.5,174.7c0.8,1.5,5.8,11.5,7.3,17.1c1.6,6.1,0.9,7,3.1,11.9c2.2,4.9,4.4,9.2,4.7,9.6
				c0.3,0.4,1.2,2.1,0.1,3.1c-1.1,0.9-4.1,3-6.4,4l-2.5,1.2c-2.3,1.1-5.8,2.1-7.2,2.3c-1.4,0.3-2.1-1.5-2.3-2.1
				c-0.1-0.5-2-4.9-4.3-9.8c-2.3-4.9-3.5-4.9-7.1-10c-3.3-4.6-7.7-14.6-8.5-16.4c0-0.1-0.1-0.1-0.1-0.2l23.2-10.8L380.5,174.7z"/>
			<path class="st15" d="M377.9,170.7c-0.3-0.1-0.5,0-0.5,0l-21.3,9.9c0,0-0.2,0.1-0.3,0.4l0,0c-0.4-1.4,3.9-4.7,9.9-7.5
				C371.7,170.7,377.1,169.5,377.9,170.7z"/>
		</g>
	</g>
	<g>
		<g>
			<path class="st13" d="M378.6,175.2l0.1,0.1l-23,10.7c-0.2-0.6-1.5-4.2-1.4-4.5l0,0c0.1-0.3,0.3-0.4,0.3-0.4l21.1-9.9
				c0,0,0.1-0.1,0.5,0c0,0,0,0,0.1,0C376.5,171.5,378.3,174.6,378.6,175.2z"/>
			<path class="st14" d="M378.8,175.4c0.8,1.5,5.8,11.4,7.2,16.9c1.6,6,0.9,6.9,3.1,11.8c2.2,4.9,4.4,9.1,4.7,9.5s1.2,2.1,0.1,3
				s-4.1,3-6.4,4l-2.5,1.2c-2.3,1.1-5.8,2.1-7.1,2.3c-1.4,0.3-2.1-1.5-2.3-2.1c-0.1-0.5-2-4.9-4.3-9.7s-3.4-4.9-7.1-9.9
				c-3.2-4.6-7.6-14.4-8.4-16.3c0-0.1-0.1-0.1-0.1-0.2l23-10.7L378.8,175.4z"/>
			<path class="st15" d="M376.2,171.4c-0.3-0.1-0.5,0-0.5,0l-21.1,9.8c0,0-0.2,0.1-0.3,0.4l0,0c-0.4-1.4,3.9-4.7,9.8-7.5
				C370,171.4,375.3,170.2,376.2,171.4z"/>
		</g>
	</g>
	<path class="st4" d="M324.7,264.2c0,0.1,0,0.2-0.1,0.3c-0.3,1.3-0.5,2.6-0.8,3.8c-0.2,1.2-0.5,2.4-0.7,3.6c0,0,0,0.1-0.1,0.1
		c-0.9,0.4-1.8,0.7-2.7,1.1c0,0,0,0,0,0c0,0,0,0,0-0.1c0.2-1.2,0.4-2.4,0.6-3.7c0.2-1.1,0.4-2.2,0.6-3.3c0.2-1.2,0.4-2.4,0.6-3.6
		c0-0.2,0.1-0.4,0.1-0.5c0,0,0-0.1,0-0.1c-0.4-0.5-0.8-0.9-1.2-1.4c-0.2-0.2-0.3-0.4-0.5-0.6c-0.1-0.1-0.1-0.1-0.2,0
		c-0.6,0.2-1.1,0.5-1.7,0.7c-0.1,0-0.1,0-0.2-0.1c-0.3-0.7-0.6-1.4-0.9-2.1c0-0.1,0-0.1,0.1-0.1c1.1-0.5,2.2-0.9,3.4-1.4
		c0.1,0,0.1,0,0.2,0c1.2,1.2,2.4,2.5,3.7,3.7c1.4,1.4,2.8,2.9,4.3,4.3c0.4,0.4,0.9,0.9,1.3,1.3c0.1,0.1,0.1,0.1,0.1,0
		c0.5-0.4,1-0.9,1.5-1.3c0.1-0.1,0.1,0,0.2,0c0.5,0.5,0.9,1.1,1.4,1.6c0,0,0,0,0.1,0.1c0,0-0.1,0.1-0.1,0.1c-1.2,1-2.3,2-3.5,3
		c-0.1,0-0.1,0-0.1,0c-0.8-0.9-1.7-1.7-2.5-2.6c-0.8-0.8-1.7-1.7-2.5-2.5C325.1,264.6,324.9,264.4,324.7,264.2
		C324.8,264.3,324.8,264.3,324.7,264.2L324.7,264.2z"/>
</g>
</svg>
